<?xml version="1.0" encoding="UTF-8" standalone="no"?>
<!DOCTYPE svg PUBLIC "-//W3C//DTD SVG 1.1//EN" "http://www.w3.org/Graphics/SVG/1.1/DTD/svg11.dtd">
<svg width="100%" height="100%" viewBox="0 0 1923 1115" version="1.1" xmlns="http://www.w3.org/2000/svg" xmlns:xlink="http://www.w3.org/1999/xlink" xml:space="preserve" xmlns:serif="http://www.serif.com/" style="fill-rule:evenodd;clip-rule:evenodd;stroke-linejoin:round;stroke-miterlimit:2;">
    <g id="Layer-1" serif:id="Layer 1">
        <g id="Front-Layer" serif:id="Front Layer">
            <path d="M1731.19,974.86C1730.5,965.387 1729.13,959.367 1727.23,955.634C1722.05,960.607 1712.59,956.491 1712.84,949.201C1713.65,934.254 1736.33,941.245 1728.63,954.039C1729.99,956.445 1731.04,959.622 1731.82,963.677C1732.98,958.339 1736.62,955.154 1742.84,954.198C1743.56,960.513 1740.04,964.578 1732.29,966.405C1732.67,968.917 1732.97,971.714 1733.19,974.814C1766.87,974.097 1802.26,976.569 1815.84,997.551C1828.34,997.314 1841.05,1004.2 1845.26,1017.28C1846.99,1017.5 1848.64,1017.61 1850.21,1017.66C1857.21,1012.12 1868.12,1011.26 1875.3,1017.18C1875.2,1017.38 1875.1,1017.58 1875.01,1017.78L1875.23,1017.78L1875.47,1017.32C1875.41,1017.27 1875.36,1017.23 1875.3,1017.18C1883.83,1000.28 1915.84,1000.18 1922.38,1017.98L1922.38,1017.98L1922.38,1114.75L-0,1114.75L-0.023,1012.73C11.489,1013.1 26.311,1013.09 35.701,1006.69C24.124,998.16 24.182,968.588 32.063,975.562C36.325,983.037 41.03,988.824 46.525,991.611C47.147,991.926 47.858,991.356 47.639,990.692C45.975,988.206 47.22,973.591 52.173,977.923C54.477,982.642 57.175,986.455 61.415,986.726C72.224,978.024 84.751,970.168 102.139,970.168C110.7,970.167 152.348,970.169 160.019,970.168C200.867,970.599 207.907,1008.13 251.398,1012.74C248.626,1009.33 253.753,985.09 259.037,992.715C259.777,997.503 264.506,1011.54 267.585,1009.13C266.912,1006.67 271.813,995.178 274.671,1000.01C275.324,1004.52 276.478,1008.78 280.269,1009.67C314.578,1005.81 327.928,1024.62 353.963,1042.08C356.289,1040.82 358.806,1040.05 361.384,1039.71C361.538,1037.74 361.736,1035.95 361.982,1034.33C356.699,1033.01 354.306,1030.15 354.813,1025.77C358.946,1026.4 361.47,1028.43 362.435,1031.81C362.996,1029.12 363.734,1026.99 364.676,1025.36C362.206,1021.5 365.275,1015.99 369.91,1016.13C380.842,1016.81 375.07,1033.28 366.117,1027.01C364.89,1029.45 363.928,1033.35 363.409,1039.53C372.545,1039.13 381.998,1043.99 386.078,1052.07L391.807,1052.07C393.566,1051.31 395.51,1050.9 397.552,1050.94C400.565,1051.05 403.631,1052.54 406.675,1052.07C408.471,1040.74 422.859,1034.56 432.37,1041.15L432.357,1041.26C435.187,1027.21 452.366,1019.01 465.2,1025.9L465.053,1026.2C472.659,1011.33 494.652,1006.05 508.272,1016.29C515.733,1013.67 527.163,1014.05 535.385,1014.09L535.385,1014.16C539.2,1012.28 540.237,1007.73 540.563,1002.49C543.495,996.581 550.217,1009.65 549.632,1012.56C549.683,1013.25 550.558,1013.51 551.012,1012.98C555.025,1008.31 557.162,1001.16 558.243,992.623C563.247,983.859 570.923,1008.17 569.301,1011.8C595.206,1011.13 620.82,1009.96 639.792,1028.36C692.741,1079.23 894.365,1052.39 959.289,1058.59L963.129,1058.59C963.129,1058.59 1012.38,1058.59 1012.38,1058.59C1046.86,1059.5 1052.63,1039.21 1076.07,1032.48L1076.03,1030.36C1081.94,1009.84 1111.68,1007.69 1121.18,1025.9C1121.14,1025.93 1121.1,1025.97 1121.07,1026L1122.25,1028.26C1121.93,1027.44 1121.57,1026.65 1121.18,1025.9C1129.85,1018.7 1143.99,1021.43 1150.11,1030.37L1150.22,1030.37C1154.59,1002.96 1193.14,997.659 1205.75,1020.82C1205.71,1020.83 1205.68,1020.85 1205.65,1020.87L1207.37,1024.34C1206.89,1023.1 1206.35,1021.93 1205.75,1020.82C1217.76,1014.44 1232.79,1021.17 1237.57,1032.95C1238.78,1033.44 1239.92,1034.03 1240.93,1034.72C1250.84,1030.2 1262.84,1037.49 1264.43,1047.78C1265.13,1047.81 1265.79,1047.82 1266.41,1047.83C1270.65,1045.22 1276.27,1045.44 1280.56,1047.84C1281.78,1047.85 1283.02,1047.86 1284.28,1047.86C1291.13,1033.26 1309.09,1031.54 1320.43,1039.35C1323.71,1036.42 1326.1,1032.5 1327.17,1027.25C1337.02,1004.6 1390.43,1012.35 1411.26,1010.48C1415.07,1008.61 1416.11,1004.07 1416.44,998.829C1419.31,992.909 1426.15,1005.97 1425.51,1008.89C1425.56,1009.59 1426.43,1009.84 1426.89,1009.31C1430.9,1004.64 1433.04,997.498 1434.12,988.965C1438.93,979.668 1446.98,1005.28 1445.22,1008.96C1492.9,1008.06 1478.03,1052.08 1534.08,1049.44L1534.08,1049.35C1592.49,1044.41 1571.4,973.308 1629.97,972.741C1627.81,968.332 1637.91,937.219 1643.93,948.547C1645.3,959.328 1648,968.349 1653.07,974.249C1653.63,974.911 1654.73,974.571 1654.8,973.7C1653.94,970.147 1662.81,953.369 1666.24,960.999C1666.65,967.612 1667.96,973.36 1672.78,975.718C1686.21,977.357 1708.19,975.432 1731.19,974.86Z" style="fill:rgb(39,70,79);fill-rule:nonzero;"/>
        </g>
    </g>
</svg>
