<?xml version="1.0" encoding="UTF-8" standalone="no"?>
<!DOCTYPE svg PUBLIC "-//W3C//DTD SVG 1.1//EN" "http://www.w3.org/Graphics/SVG/1.1/DTD/svg11.dtd">
<svg width="100%" height="100%" viewBox="0 0 1923 1115" version="1.1" xmlns="http://www.w3.org/2000/svg" xmlns:xlink="http://www.w3.org/1999/xlink" xml:space="preserve" xmlns:serif="http://www.serif.com/" style="fill-rule:evenodd;clip-rule:evenodd;stroke-linecap:round;stroke-linejoin:round;stroke-miterlimit:10;">
    <g id="Layer-1" serif:id="Layer 1">
        <g id="Birds-Layer" serif:id="Birds Layer">
            <g id="Birds-Base" serif:id="Birds Base">
                <path d="M1922.38,979.713L1922.38,979.713L1922.38,1114.75L-0,1114.75C-0.001,1075.69 0.01,965.777 -0.023,927.562C10.504,906.951 66.299,906.425 80.692,924.277C95.143,917.529 122.951,919.63 133.354,929.629L133.233,929.502C141.473,901.275 215.508,898.126 234.129,920.816L234.129,920.816L234.183,920.88L234.129,920.816C253.053,914.504 288.597,921.604 293.115,936.743L293.106,936.695C307.567,930.329 339.82,936.445 339.76,950.42L339.763,950.402C348.791,945.796 365.729,946.202 374.027,951.465L374.016,951.457C387.265,929.405 457.244,932.22 458.594,959.825L458.597,959.68C472.566,953.06 506.652,958.914 502.598,974.891L502.637,974.78C510.761,972.464 524.03,974.485 528.698,979.568L624.304,979.568C635.555,959.483 691.244,958.36 705.904,976.45C719.494,970.255 744.146,971.463 755.587,979.568L759.348,979.568C770.296,953.225 840.873,950.864 859.34,972.988L859.34,972.988L859.394,973.051L859.34,972.988C874.785,968.38 899.22,971.043 910.369,979.568L1461.69,979.647C1468.52,955.199 1533.11,953.799 1545.67,974.685C1543.61,975.835 1541.94,977.221 1540.85,978.835L1545.71,974.754L1545.67,974.685C1554.77,969.594 1571.5,969.1 1579.97,973.7L1580.08,974.215C1580.09,975.681 1580.41,977.224 1581.06,978.835L1580.08,974.215C1579.98,964.019 1594.32,957.538 1610.52,957.461C1612.05,957.485 1613.1,957.626 1613.8,957.817C1612.88,959.769 1612.46,961.731 1612.65,963.661L1613.61,958.735C1614.3,959.815 1616.28,958.498 1613.8,957.817C1622.52,939.241 1676.61,921.765 1685.57,943.951C1684.51,945.12 1683.53,946.343 1682.64,947.616L1685.63,944.113C1685.61,944.059 1685.59,944.004 1685.57,943.951C1709.08,918.054 1773.84,917.535 1786.51,952.649C1785.29,953.699 1784.26,954.837 1783.46,956.063L1786.56,952.8L1786.51,952.649C1797.67,943.023 1824.94,940.881 1838.91,947.47C1838.24,948.242 1837.65,949.048 1837.13,949.889L1839.19,947.606C1839.1,947.561 1839.01,947.515 1838.91,947.47C1854.79,929.09 1911.44,931.138 1922.38,951.335L1922.38,979.713Z" style="fill:rgb(255,229,182);fill-rule:nonzero;"/>
            </g>
            <g id="Hat-Bird" serif:id="Hat Bird">
                <g transform="matrix(1,0,0,1,1575.12,747.159)">
                    <path d="M0,15.313C-8.799,13.909 -7.639,0.031 1.401,0.25L40.707,0.25C49.138,0 51.071,12.686 43.115,15.051" style="fill:rgb(39,70,79);fill-rule:nonzero;stroke:rgb(39,70,79);stroke-width:0.53px;"/>
                </g>
                <g transform="matrix(1,0,0,1,1603.88,745.947)">
                    <path d="M0,-12.033C-10.862,-12.395 -26.053,-13.495 -26.475,1.462L13.496,1.462C13.496,-5.991 7.454,-12.033 0,-12.033Z" style="fill:rgb(39,70,79);fill-rule:nonzero;stroke:rgb(39,70,79);stroke-width:0.53px;"/>
                </g>
                <g transform="matrix(1,0,0,1,1813.3,734.076)">
                    <path d="M0,154.089C-10.875,144.23 -10.801,131.922 -13.678,114.748C-11.893,116.459 1.976,118.924 -0.852,113.873C-12.259,106.351 -11.011,99.37 -16.65,85.362L-16.639,85.49C-17.267,83.727 -17.956,81.992 -18.735,80.307C-16.779,80.127 -7.676,78.419 -11.293,75.33C-16.157,73.912 -26.237,67.993 -28.585,65.229L-28.553,65.285C-49.929,38.898 -96.267,37.762 -118.911,63.165C-118.825,63.155 -118.929,-0.29 -118.89,-0.319C-118.89,-15.511 -131.205,-27.826 -146.397,-27.826C-162.727,-27.907 -175.19,-13.661 -173.904,2.443L-173.904,71.542C-173.904,77.488 -178.725,82.309 -184.671,82.309C-198.212,82.317 -195.244,65.407 -195.437,56.567L-212.178,64.831C-217.855,105.406 -159.864,112.893 -157.163,71.921C-157.164,71.921 -157.164,69.16 -157.164,69.16L-157.164,0.061C-157.164,-5.886 -152.344,-10.706 -146.397,-10.706C-132.852,-10.71 -135.826,6.192 -135.631,15.036C-135.63,15.036 -135.63,96.568 -135.63,96.568L-135.625,96.557C-136.533,106.501 -136.278,118.551 -141.723,127.644C-142.507,132.429 -134.397,127.266 -133.027,126.142C-130.433,133.702 -126.413,140.596 -121.282,146.507C-120.184,157.152 -124.711,170.224 -112.97,154.613C-95.341,170.814 -74.79,160.56 -73.91,180.632C-73.96,181.834 -72.045,181.996 -71.435,180.96C-66.688,167.206 -51.134,165.98 -36.954,166.812C-30.812,165.287 -18.491,177.414 -18.801,172.892C-20.132,168.177 -19.428,163.682 -16.185,160.489C-12.46,154.514 3.212,158.408 0,154.089" style="fill:rgb(33,163,150);fill-rule:nonzero;"/>
                </g>
                <g>
                    <clipPath id="_clip1">
                        <path d="M1639.39,736.519L1639.39,805.619C1639.39,811.565 1634.57,816.386 1628.63,816.386C1615.08,816.393 1618.05,799.484 1617.86,790.643L1601.12,798.908C1595.44,839.483 1653.43,846.969 1656.13,805.998C1656.13,805.998 1656.13,803.237 1656.13,803.237L1656.13,734.137C1656.13,728.191 1660.95,723.371 1666.9,723.371C1680.44,723.367 1677.47,740.268 1677.67,749.112C1677.67,749.112 1677.67,830.644 1677.67,830.644L1677.67,830.634C1676.76,840.578 1677.02,852.628 1671.57,861.72C1670.79,866.506 1678.9,861.342 1680.27,860.218C1682.86,867.778 1686.88,874.672 1692.01,880.583C1693.11,891.228 1688.59,904.3 1700.33,888.69C1717.95,904.89 1738.51,894.636 1739.39,914.709C1739.34,915.91 1741.25,916.072 1741.86,915.036C1746.61,901.283 1762.16,900.056 1776.34,900.888C1779.11,900.202 1783.13,902.286 1786.69,904.37C1791.02,906.911 1794.67,909.453 1794.5,906.968C1793.16,902.254 1793.87,897.758 1797.11,894.566C1800.84,888.59 1816.51,892.485 1813.3,888.165C1802.42,878.307 1802.5,865.998 1799.62,848.824C1801.4,850.535 1815.27,853 1812.44,847.95C1801.04,840.427 1802.29,833.447 1796.65,819.439L1796.66,819.567C1796.03,817.803 1795.34,816.069 1794.56,814.383C1796.52,814.203 1805.62,812.496 1802,809.407C1797.14,807.989 1787.06,802.069 1784.71,799.305L1784.74,799.362C1763.37,772.974 1717.03,771.838 1694.38,797.241C1694.47,797.077 1694.37,733.786 1694.41,733.758C1694.41,718.565 1682.09,706.251 1666.9,706.251C1666.85,706.251 1666.81,706.25 1666.76,706.25C1650.5,706.25 1638.11,720.46 1639.39,736.519Z" clip-rule="nonzero"/>
                    </clipPath>
                    <g clip-path="url(#_clip1)">
                        <g opacity="0.18">
                            <g transform="matrix(1,0,0,1,1669.14,857.48)">
                                <path d="M0,-74.161L1.281,48.732C52.961,73.101 84.63,68.074 107.583,50.245C1.922,35.62 15.657,-58.217 15.064,-126.426C15.678,-145.798 -19.604,-147.262 -19.659,-127.577L-19.659,-52.423C-19.659,-42.469 -9.705,-52.423 -19.659,-52.423L-19.199,-19.052C-28.66,-19.052 -19.063,-21.083 -19.063,-30.544L-20.766,-21.924L-50.615,0.447L-23.148,-2.697L-26.547,7.061L-13.617,-11.298L-7.915,-32.472" style="fill-rule:nonzero;"/>
                            </g>
                        </g>
                    </g>
                </g>
                <g transform="matrix(1,0,0,1,1775.87,856.322)">
                    <path d="M0,-11.484C0.331,-8.335 3.253,-6.441 6.836,-4.87C9.979,-1.154 -0.47,0 -2.535,-1.105" style="fill:none;fill-rule:nonzero;stroke:rgb(103,168,160);stroke-width:3px;stroke-linejoin:miter;"/>
                </g>
                <g transform="matrix(1,0,0,1,1746.73,841.51)">
                    <path d="M0,-10.845C-0.399,-8.122 1.651,-5.9 4.328,-3.804C6.171,0 -2.869,-1.28 -4.37,-2.656" style="fill:none;fill-rule:nonzero;stroke:rgb(103,168,160);stroke-width:3px;stroke-linejoin:miter;"/>
                </g>
                <g transform="matrix(1,0,0,1,1725.22,866.961)">
                    <path d="M0,-12.178C1.181,-9.694 -0.128,-6.966 -2.072,-4.178C-2.719,0 5.549,-3.876 6.58,-5.631" style="fill:none;fill-rule:nonzero;stroke:rgb(103,168,160);stroke-width:3px;stroke-linejoin:miter;"/>
                </g>
                <g transform="matrix(1,0,0,1,1723.63,805.267)">
                    <path d="M0,-12.178C1.181,-9.694 -0.128,-6.966 -2.072,-4.177C-2.719,0 5.549,-3.875 6.58,-5.631" style="fill:none;fill-rule:nonzero;stroke:rgb(103,168,160);stroke-width:3px;stroke-linejoin:miter;"/>
                </g>
                <g transform="matrix(1,0,0,1,1762.65,819.119)">
                    <path d="M0,-10.41C0.388,-7.568 3.085,-5.934 6.373,-4.61C9.32,-1.334 -0.106,0 -2.007,-0.943" style="fill:none;fill-rule:nonzero;stroke:rgb(103,168,160);stroke-width:3px;stroke-linejoin:miter;"/>
                </g>
                <g transform="matrix(1,0,0,1,1779.59,976.055)">
                    <path d="M0,13.46C-5.809,12.729 -21.453,16.637 -21.196,6.633C-21.37,-3.177 -5.411,0.868 0.281,0.087C9.026,0.035 8.599,13.66 0,13.46" style="fill:rgb(242,242,242);fill-rule:nonzero;"/>
                </g>
                <g transform="matrix(1,0,0,1,1766.31,985.265)">
                    <path d="M0,13.05C-2.091,-7.006 -29.805,-3.437 -25.958,20.056L15.413,20.056L15.413,3.699L-4.638,2.839L0,13.05Z" style="fill:rgb(39,70,79);fill-rule:nonzero;"/>
                </g>
                <g transform="matrix(-1,0,0,1,1742.77,1005.37)">
                    <path d="M-36.309,4.82L0.244,4.82C2.817,4.867 2.439,1.669 2.417,-0.047L-38.955,-0.047C-39.126,1.924 -38.956,4.861 -36.309,4.82" style="fill:rgb(36,62,68);fill-rule:nonzero;"/>
                </g>
                <g transform="matrix(1,0,0,1,1744.33,973.385)">
                    <path d="M0,2.53C-5.377,4.845 -16.878,16.148 -21.73,7.395C-26.979,-0.951 -10.957,-5.594 -6.539,-9.139C0.971,-13.618 7.513,-1.659 0,2.53" style="fill:rgb(242,242,242);fill-rule:nonzero;"/>
                </g>
                <g transform="matrix(1,0,0,1,1737.35,993.214)">
                    <path d="M0,-2.98C-11.974,-19.204 -34.049,-2.073 -18.818,16.224L16.837,-4.758L8.541,-18.856L-11.169,-6.988L0,-2.98Z" style="fill:rgb(39,70,79);fill-rule:nonzero;"/>
                </g>
                <g transform="matrix(-0.861845,0.507172,0.507172,0.861845,1726.76,1015.73)">
                    <path d="M-34.994,-4.729L1.144,-4.729C3.793,-4.688 4.117,-7.569 3.908,-9.595L-37.462,-9.595C-37.58,-7.715 -37.626,-4.686 -34.994,-4.729" style="fill:rgb(36,62,68);fill-rule:nonzero;"/>
                </g>
                <g transform="matrix(1,0,0,1,1702.68,837.125)">
                    <path d="M0,-15.25C-0.09,-12.09 -1.743,-8.64 -4.277,-5.024C-4.924,0 5.614,-6.47 6.536,-8.489" style="fill:none;fill-rule:nonzero;stroke:rgb(103,168,160);stroke-width:3px;stroke-linejoin:miter;"/>
                </g>
                <g transform="matrix(1,0,0,1,1760.39,885.211)">
                    <path d="M0,-10.056C0.005,-7.256 2.4,-5.325 5.408,-3.616C7.832,-0.062 -1.46,0 -3.176,-1.16" style="fill:none;fill-rule:nonzero;stroke:rgb(103,168,160);stroke-width:3px;stroke-linejoin:miter;"/>
                </g>
                <g transform="matrix(1,0,0,1,1736.28,964.68)">
                    <path d="M0,-59.147C-16.105,-28.772 -18.84,-30.549 0.914,-0.919C6.028,7.232 -6.981,14.791 -11.785,6.588C-11.785,6.589 -24.319,-13.731 -24.319,-13.731C-36.232,-29.977 -20.313,-51.266 -13.128,-65.869C-9.112,-73.938 4.278,-67.148 0,-59.147" style="fill:rgb(242,198,102);fill-rule:nonzero;"/>
                </g>
                <g transform="matrix(1,0,0,1,1744.49,964.637)">
                    <clipPath id="_clip2">
                        <path d="M-21.336,-65.826C-28.522,-51.223 -44.44,-29.935 -32.528,-13.689C-32.528,-13.689 -19.994,6.632 -19.994,6.631C-15.189,14.834 -2.18,7.275 -7.295,-0.876C-27.048,-30.507 -24.314,-28.73 -8.208,-59.105C-5.29,-64.562 -10.592,-69.455 -15.532,-69.455C-17.835,-69.455 -20.06,-68.391 -21.336,-65.826Z" clip-rule="nonzero"/>
                    </clipPath>
                    <g clip-path="url(#_clip2)">
                        <path d="M0,-59.147C-16.104,-28.772 -18.84,-30.549 0.914,-0.919C6.028,7.232 -6.981,14.791 -11.785,6.588C-11.785,6.589 -24.318,-13.731 -24.318,-13.731C-36.232,-29.977 -20.313,-51.266 -13.128,-65.869C-9.112,-73.938 4.278,-67.147 0,-59.147" style="fill:rgb(221,180,98);fill-rule:nonzero;"/>
                    </g>
                </g>
                <g transform="matrix(0,1,1,0,1813.08,948.827)">
                    <path d="M-48.017,-33.255L25.805,-33.255C29.792,-33.255 33.151,-36.447 33.117,-40.434C33.255,-44.552 29.914,-48.017 25.779,-47.995L-48.017,-47.995" style="fill:rgb(242,198,102);fill-rule:nonzero;"/>
                </g>
                <g transform="matrix(0,1,1,0,1820.45,948.827)">
                    <clipPath id="_clip3">
                        <path d="M-48.017,-55.365L25.779,-55.365C29.913,-55.386 33.256,-51.922 33.117,-47.803C33.151,-43.817 29.792,-40.625 25.806,-40.625L-48.017,-40.625L-48.017,-55.365Z" clip-rule="nonzero"/>
                    </clipPath>
                    <g clip-path="url(#_clip3)">
                        <path d="M-48.017,-33.255L25.805,-33.255C29.792,-33.255 33.151,-36.447 33.117,-40.434C33.255,-44.552 29.914,-48.017 25.779,-47.994L-48.017,-47.994" style="fill:rgb(221,180,98);fill-rule:nonzero;"/>
                    </g>
                </g>
                <g transform="matrix(0.917625,-0.397448,-0.397448,-0.917625,1613.94,793.22)">
                    <path d="M-9.678,-2.006C-19.157,2.615 -40.645,7.179 -34.028,22.345C-29.409,31.824 -24.844,53.313 -9.678,46.695C-0.2,42.075 21.288,37.511 14.671,22.344C10.051,12.866 5.487,-8.623 -9.678,-2.006" style="fill:rgb(103,168,160);fill-rule:nonzero;"/>
                </g>
                <g transform="matrix(1,0,0,1,1589.08,766.738)">
                    <path d="M0,0C0.04,3.542 -4.48,3.542 -4.44,0C-4.48,-3.542 0.04,-3.542 0,0" style="fill:rgb(39,70,79);fill-rule:nonzero;"/>
                </g>
                <g transform="matrix(1,0,0,1,1598.59,766.738)">
                    <path d="M0,0C0.04,3.542 -4.48,3.542 -4.439,0C-4.479,-3.542 0.041,-3.542 0,0" style="fill:rgb(39,70,79);fill-rule:nonzero;"/>
                </g>
                <g transform="matrix(0.724286,-0.6895,-0.6895,-0.724286,1581.63,761.395)">
                    <path d="M-6.63,-23.211C-25.139,-10.857 -41.416,2.579 -56.209,18.509C-42.896,26.923 -15.373,-2.27 -6.63,-9.412C-2.825,-13.037 -2.825,-19.213 -6.63,-23.211C-19.666,-35.564 -37.805,-5.135 -41.622,4.026" style="fill:rgb(242,198,102);fill-rule:nonzero;"/>
                </g>
                <g transform="matrix(1,0,0,1,1553.58,784.708)">
                    <path d="M0,2.243C4.14,5.019 9.34,3.994 11.146,-2.019C11.271,-2.435 10.817,-2.776 10.45,-2.543C8.952,-0.523 -0.806,0.857 0,2.243" style="fill:white;fill-rule:nonzero;"/>
                </g>
                <g transform="matrix(-0.96628,-0.257494,-0.257494,0.96628,1599.49,755.067)">
                    <path d="M-6.86,6.197L1.241,6.197C2.504,6.212 3.046,4.963 2.886,3.857C3.148,0.889 -5.398,2.662 -6.86,2.211C-9.108,2.178 -9.109,6.23 -6.86,6.197" style="fill:rgb(39,70,79);fill-rule:nonzero;"/>
                </g>
                <g transform="matrix(0.96628,-0.257494,-0.257494,-0.96628,1577.48,763.48)">
                    <path d="M-0.811,0.898L7.29,0.898C8.553,0.883 9.095,2.132 8.935,3.238C9.197,6.206 0.651,4.433 -0.811,4.884C-3.059,4.917 -3.059,0.865 -0.811,0.898" style="fill:rgb(39,70,79);fill-rule:nonzero;"/>
                </g>
            </g>
            <g id="Glasses-Bird" serif:id="Glasses Bird">
                <g transform="matrix(-0.559505,-0.828827,-0.828827,0.559505,273.153,1023.3)">
                    <path d="M5.147,5.412C10.701,-6.483 -3.483,-13.781 -12.205,-4.954L5.147,20.751L18.509,11.73C17.185,10.288 7.586,-1.706 6.003,-2.247" style="fill:rgb(39,70,79);fill-rule:nonzero;"/>
                </g>
                <g transform="matrix(-0.559505,0.828827,0.828827,0.559505,224.155,1022.79)">
                    <path d="M-5.147,5.412C-10.701,-6.483 3.483,-13.781 12.205,-4.954L-5.147,20.751L-18.51,11.73C-17.186,10.288 -7.586,-1.706 -6.004,-2.247" style="fill:rgb(39,70,79);fill-rule:nonzero;"/>
                </g>
                <g transform="matrix(1,0,0,1,225.71,912.603)">
                    <path d="M0,-62.85C-6.109,-59.772 -13.454,-58.731 -19.55,-62.414C-31.708,-68.242 -39.873,-57.086 -36.999,-45.433C-34.528,-14.87 2.047,18.218 37.201,18.218C91.132,21.355 113.154,-69.114 57.563,-80.138C50.404,-84.205 7.24,-64.472 0,-62.85" style="fill:rgb(242,149,56);fill-rule:nonzero;"/>
                </g>
                <g transform="matrix(-0.99609,-0.088342,-0.088342,0.99609,295.423,872.422)">
                    <path d="M-15.041,-82.553C-27.91,-54.42 -28.466,-27.002 -20.406,-0.089C-19.72,2.2 -16.952,3.147 -15.041,1.711C8.176,-15.749 7.812,-59.086 -8.119,-83.16C-9.835,-85.751 -13.749,-85.38 -15.041,-82.553" style="fill:rgb(242,149,56);fill-rule:nonzero;"/>
                </g>
                <g transform="matrix(1,0,0,1,291.056,864.416)">
                    <path d="M0,-55.223C15.148,-37.11 21.089,-17.041 20.585,4.396C20.542,6.219 18.695,7.474 17,6.802C-8.667,0.563 -14.292,-62.697 0,-55.223" style="fill:rgb(242,149,56);fill-rule:nonzero;"/>
                </g>
                <g transform="matrix(36.0954,12.3719,12.3719,-36.0954,177.359,854.647)">
                    <path d="M1.215,0.45C1.09,0.322 0.917,0.233 0.734,0.273C0.383,0.314 0.276,-0.032 0.446,-0.296C0.767,-1.033 1.955,-1.542 2.826,-1.244C4.19,-0.863 3.967,1.567 2.495,1.368C2.476,1.371 2.45,1.367 2.419,1.357C2.122,1.255 1.366,0.542 1.215,0.45Z" style="fill:url(#_Linear4);fill-rule:nonzero;"/>
                </g>
                <g transform="matrix(0.759901,0.650039,0.650039,-0.759901,246.887,823.383)">
                    <path d="M-13.665,-23.281C16.472,-52.869 57.907,-41.379 51.299,-23.281" style="fill:rgb(242,149,56);fill-rule:nonzero;"/>
                </g>
                <g transform="matrix(1,0,0,1,323.202,795.635)">
                    <path d="M0,-62.242C-5.36,-62.242 -10.412,-60.931 -14.864,-58.625L-14.846,-58.644C-17.7,-58.827 -19.716,-60.517 -21.29,-63.006C-24.102,-63.997 -23.518,-57.004 -22.576,-55.172C-22.35,-54.596 -22.899,-54.005 -23.469,-54.242C-26.714,-55.595 -28.762,-58.101 -29.769,-61.614C-33.766,-65.233 -34.833,-46.112 -29.934,-42.209L-29.924,-42.22C-38.887,-21.638 -22.604,2.991 0,2.492C42.544,1.768 42.542,-61.522 0,-62.242" style="fill:rgb(242,149,56);fill-rule:nonzero;"/>
                </g>
                <g transform="matrix(1,0,0,1,325.414,795.072)">
                    <path d="M0,-62.242C-5.36,-62.242 -10.412,-60.931 -14.864,-58.625L-14.846,-58.644C-17.7,-58.827 -19.716,-60.517 -21.289,-63.006C-24.101,-63.997 -23.518,-57.004 -22.576,-55.172C-22.35,-54.597 -22.899,-54.005 -23.469,-54.242C-26.714,-55.595 -28.762,-58.101 -29.768,-61.614C-33.766,-65.233 -34.832,-46.112 -29.934,-42.209L-29.924,-42.22C-38.887,-21.638 -22.604,2.991 0,2.491C42.545,1.768 42.542,-61.522 0,-62.242" style="fill:rgb(237,167,76);fill-rule:nonzero;"/>
                </g>
                <g transform="matrix(1,0,0,1,327.13,755.504)">
                    <path d="M0,0C0.21,14.396 -22.403,14.396 -22.191,-0.001C-22.401,-14.396 0.212,-14.396 0,0Z" style="fill:none;fill-rule:nonzero;stroke:rgb(39,70,79);stroke-width:1px;"/>
                </g>
                <g transform="matrix(1,0,0,1,349.322,752.155)">
                    <path d="M0,0C0.21,14.396 -22.403,14.396 -22.191,-0.001C-22.401,-14.396 0.212,-14.396 0,0Z" style="fill:none;fill-rule:nonzero;stroke:rgb(39,70,79);stroke-width:1px;"/>
                </g>
                <g transform="matrix(-0.935064,0.354478,0.354478,0.935064,291.241,760.135)">
                    <path d="M-15.035,-0.757C-10.426,-4.788 -3.861,-4.217 0.896,-0.757" style="fill:none;fill-rule:nonzero;stroke:rgb(39,70,79);stroke-width:1px;"/>
                </g>
                <g transform="matrix(0.325106,-0.945678,-0.945678,-0.325106,347.346,776.986)">
                    <path d="M-2.941,-8.241C-4.822,-1.578 -2.032,6.42 2.79,9.701C7.225,13.564 2.675,21.363 -2.941,19.221C-14.516,15.419 -26.285,-4.383 -22.8,-13.312C-18.643,-25.983 1.165,-19.182 -3.354,-6.626" style="fill:rgb(242,198,102);fill-rule:nonzero;"/>
                </g>
                <g>
                    <clipPath id="_clip5">
                        <path d="M299.902,843.401L307.498,849.816C312.417,835.903 318.614,812.387 320.723,797.565L312.428,794.853C310.32,809.675 304.821,829.488 299.902,843.401Z" clip-rule="nonzero"/>
                    </clipPath>
                    <g clip-path="url(#_clip5)">
                        <g transform="matrix(26.8085,9.31915,9.31915,-26.8085,287.478,814.432)">
                            <rect x="0.604" y="-0.946" width="0.475" height="1.892" style="fill:url(#_Linear6);"/>
                        </g>
                        <g transform="matrix(1,0,0,1,302.216,792.611)">
                            <path d="M0,54.964C4.919,41.051 11.117,17.534 13.225,2.712L4.93,0C2.822,14.822 -2.676,34.636 -7.596,48.549" style="fill:rgb(229,137,62);fill-rule:nonzero;"/>
                        </g>
                    </g>
                </g>
                <g transform="matrix(1,0,0,1,208.237,875.654)">
                    <path d="M0,0.001C0.054,3.668 -5.707,3.668 -5.653,0C-5.707,-3.667 0.054,-3.667 0,0.001" style="fill:rgb(242,149,56);fill-rule:nonzero;"/>
                </g>
                <g transform="matrix(1,0,0,1,209.062,865.24)">
                    <path d="M0,-0.001C0.036,2.405 -3.743,2.405 -3.708,-0.001C-3.743,-2.406 0.036,-2.406 0,-0.001" style="fill:rgb(242,149,56);fill-rule:nonzero;"/>
                </g>
                <g transform="matrix(1,0,0,1,216.258,870.184)">
                    <path d="M0,-0.001C0.05,3.431 -5.34,3.431 -5.289,-0.001C-5.339,-3.432 0.05,-3.432 0,-0.001" style="fill:rgb(242,149,56);fill-rule:nonzero;"/>
                </g>
                <g transform="matrix(-0.451809,-0.892115,-0.892115,0.451809,257.912,775.48)">
                    <path d="M-80.34,40.03C-63.333,73.84 24.69,49.321 -32.705,40.03" style="fill:rgb(237,167,76);fill-rule:nonzero;"/>
                </g>
                <g transform="matrix(-1,0,0,1,257.054,1006.68)">
                    <path d="M-9.255,10.196L-0.264,10.196C6.328,10.362 6.748,-0.112 0.006,-0.085L-9.318,-0.085C-16.003,-0.166 -15.909,10.311 -9.255,10.196" style="fill:rgb(242,242,242);fill-rule:nonzero;"/>
                </g>
                <g transform="matrix(1,0,0,1,240.128,1005.77)">
                    <path d="M0,10.38C-4.448,9.905 -15.795,12.637 -15.615,5.105C-15.815,-2.257 -4.19,0.639 0.063,0.099C6.747,0.018 6.654,10.495 0,10.38" style="fill:rgb(242,242,242);fill-rule:nonzero;"/>
                </g>
                <g transform="matrix(1,0,0,1,261.323,1012.89)">
                    <path d="M0,-78.475C14.877,-36.078 22.054,-43.913 -4.645,-4.52C-6.447,0.389 3.178,0.405 4.911,-2.824C32.505,-43.846 25.11,-34.651 10.158,-78.88" style="fill:rgb(242,198,102);fill-rule:nonzero;"/>
                </g>
                <g transform="matrix(1,0,0,1,266.136,1017.4)">
                    <clipPath id="_clip7">
                        <path d="M-4.813,-82.984C10.064,-40.587 17.241,-48.423 -9.458,-9.03C-11.26,-4.12 -1.635,-4.105 0.098,-7.333C27.692,-48.355 20.297,-39.16 5.345,-83.389L-4.813,-82.984Z" clip-rule="nonzero"/>
                    </clipPath>
                    <g clip-path="url(#_clip7)">
                        <path d="M0,-83.783C14.967,-40.26 23.441,-49.126 -4.045,-8.535C-4.568,-7.702 -6.896,-2.7 -6.17,-2.038C-3.934,0 3.747,-4.192 5.511,-6.839L21.736,-32.585C30.598,-43.269 12.999,-72.083 10.757,-82.895" style="fill:rgb(216,176,96);fill-rule:nonzero;"/>
                    </g>
                </g>
                <g transform="matrix(1,0,0,1,230.185,1009.64)">
                    <path d="M0,-84.689L-14.54,-62.427C-18.776,-57.217 -20.039,-50.393 -16.254,-44.649C-15.906,-43.76 8.806,-1.692 9.285,-0.776C10.813,4.225 1.2,3.702 -0.35,0.382C-28.815,-54.537 -41.701,-40.491 -6.732,-88.914" style="fill:rgb(242,198,102);fill-rule:nonzero;"/>
                </g>
                <g transform="matrix(1,0,0,1,234.622,1012.28)">
                    <clipPath id="_clip8">
                        <path d="M-4.786,-2.257C-3.237,1.064 6.376,1.587 4.848,-3.414C4.369,-4.33 -20.343,-46.399 -20.69,-47.287C-24.475,-53.032 -23.212,-59.856 -18.977,-65.066L-4.436,-87.327L-11.168,-91.552C-46.138,-43.129 -33.252,-57.175 -4.786,-2.257Z" clip-rule="nonzero"/>
                    </clipPath>
                    <g clip-path="url(#_clip8)">
                        <path d="M0,-87.726L-14.54,-65.464C-18.776,-60.254 -20.038,-53.43 -16.254,-47.686C-15.906,-46.797 8.807,-4.729 9.285,-3.813C10.939,-1.06 2.718,4.225 1.852,1.081L-25.996,-46.658C-29.263,-52.467 -28.659,-59.735 -24.916,-65.233L-6.731,-91.951" style="fill:rgb(216,176,96);fill-rule:nonzero;"/>
                    </g>
                </g>
                <g transform="matrix(82.9662,-41.2362,-41.2362,-82.9662,259.232,941.568)">
                    <path d="M-0.239,0.358C0.035,-0.094 0.583,-0.216 0.904,0.411C0.612,0.034 0.141,0.116 -0.239,0.358Z" style="fill:url(#_Linear9);fill-rule:nonzero;"/>
                </g>
                <g transform="matrix(1,0,0,1,215.676,1030.2)">
                    <path d="M0,4.263L27.275,4.263C29.231,4.325 28.384,1.038 28.557,-0.062L-2.457,-0.062C-2.639,1.74 -2.358,4.299 0,4.263" style="fill:rgb(36,62,68);fill-rule:nonzero;"/>
                </g>
                <g transform="matrix(-1,0,0,1,255.421,1030.72)">
                    <path d="M-25.886,4.25L1.286,4.25C3.04,4.326 2.135,0.856 2.345,-0.076L-28.668,-0.076C-28.926,1.868 -28.24,4.282 -25.886,4.25" style="fill:rgb(36,62,68);fill-rule:nonzero;"/>
                </g>
                <g transform="matrix(1,0,0,1,324.03,755.859)">
                    <path d="M0,-0.709C0.605,2.781 -3.857,3.503 -4.383,0C-4.988,-3.49 -0.525,-4.212 0,-0.709" style="fill:rgb(39,70,79);fill-rule:nonzero;"/>
                </g>
                <g transform="matrix(1,0,0,1,334.561,754.156)">
                    <path d="M0,-0.709C0.605,2.781 -3.857,3.503 -4.383,0C-4.988,-3.49 -0.525,-4.212 0,-0.709" style="fill:rgb(39,70,79);fill-rule:nonzero;"/>
                </g>
                <g transform="matrix(1,0,0,1,341.36,794.747)">
                    <path d="M0,-5.67C1.437,-0.898 6.106,1.611 11.318,-1.889C11.679,-2.131 11.544,-2.683 11.113,-2.736C8.717,-2.125 0.125,-7.281 0,-5.67" style="fill:white;fill-rule:nonzero;"/>
                </g>
                <g transform="matrix(-0.966249,-0.257609,-0.257609,0.966249,332.769,737.374)">
                    <path d="M-6.861,6.196L1.241,6.196C2.504,6.212 3.046,4.964 2.887,3.857C3.148,0.889 -5.398,2.662 -6.86,2.211C-9.107,2.178 -9.109,6.229 -6.861,6.196" style="fill:rgb(39,70,79);fill-rule:nonzero;"/>
                </g>
                <g transform="matrix(-0.96628,0.257494,0.257494,0.96628,307.232,743.619)">
                    <path d="M-8.446,3.142L-0.344,3.142C0.918,3.157 1.461,1.909 1.301,0.803C1.563,-2.165 -6.983,-0.392 -8.446,-0.843C-10.693,-0.877 -10.694,3.175 -8.446,3.142" style="fill:rgb(39,70,79);fill-rule:nonzero;"/>
                </g>
                <g opacity="0.21">
                    <g transform="matrix(1,0,0,1,328.751,794.927)">
                        <path d="M0,-16.905C0.718,-8.175 4.193,-2.462 9.752,0L9.475,0C4.502,-5.444 1.957,-10.578 0,-16.905" style="fill-rule:nonzero;"/>
                    </g>
                </g>
                <g transform="matrix(-0.2087,0.97798,0.97798,0.2087,253.863,836.038)">
                    <path d="M-43.609,-1.069C-64.994,-12.319 -8.671,-37.32 17.349,-1.069" style="fill:rgb(242,149,56);fill-rule:nonzero;"/>
                </g>
                <g transform="matrix(-0.131345,0.991337,0.991337,0.131345,243.725,830.691)">
                    <path d="M-22.723,20.263C-77.68,6.506 16.006,-15.438 33.7,20.263" style="fill:rgb(237,167,76);fill-rule:nonzero;"/>
                </g>
                <g transform="matrix(1,0,0,1,266.797,865.273)">
                    <path d="M0,-54.447C9.872,-32.998 10.346,-12.074 4.242,8.483C3.723,10.231 1.611,10.958 0.15,9.866C-22.984,-2.882 -11.834,-65.405 0,-54.447" style="fill:rgb(242,198,102);fill-rule:nonzero;"/>
                </g>
                <g transform="matrix(1,0,0,1,266.845,818.152)">
                    <path d="M0,47.963C-0.81,47.616 -1.229,46.725 -0.98,45.88C1.825,37.374 1.575,19.697 -1.764,12.014C3.641,-3.112 7.802,51.075 0,47.963" style="fill:rgb(237,167,76);fill-rule:nonzero;"/>
                </g>
                <g transform="matrix(1,0,0,1,228.865,1018.71)">
                    <path d="M0,-0.459C-6.516,-5.391 -13.888,-1.433 -15.404,4.932C-11.952,-0.321 -6.915,-2.319 0,-0.459" style="fill:rgb(36,62,68);fill-rule:nonzero;"/>
                </g>
                <g transform="matrix(1,0,0,1,268.386,1019.23)">
                    <path d="M0,-0.459C6.516,-5.391 13.889,-1.434 15.405,4.932C11.952,-0.321 6.915,-2.32 0,-0.459" style="fill:rgb(36,62,68);fill-rule:nonzero;"/>
                </g>
                <g transform="matrix(0.703697,0.7105,0.7105,-0.703697,219.345,880.933)">
                    <path d="M-6.99,-16.761C8.797,-21.254 24.528,-21.498 40.191,-16.761" style="fill:none;fill-rule:nonzero;stroke:rgb(242,198,102);stroke-width:3px;"/>
                </g>
                <g opacity="0.21">
                    <g transform="matrix(1,0,0,1,294.033,795.997)">
                        <path d="M0,-38.744C-2.804,-25.136 1.296,-6.848 21.408,0C6.795,-8.82 0.666,-22.286 0,-38.744" style="fill-rule:nonzero;"/>
                    </g>
                </g>
            </g>
            <g id="Bench-Bird" serif:id="Bench Bird">
                <g id="Bench">
                    <g transform="matrix(-1,0,0,1,2252.53,792.425)">
                        <rect x="1122.12" y="85.118" width="8.29" height="152.089" style="fill:rgb(39,70,79);"/>
                    </g>
                    <g transform="matrix(1,0,0,1,1397.12,879.418)">
                        <path d="M0,142.685L0.406,0L8.696,0L9.033,132.501" style="fill:rgb(39,70,79);fill-rule:nonzero;"/>
                    </g>
                    <g transform="matrix(1,0,0,1,1415.96,900.932)">
                        <path d="M0,11.312L-316.979,11.312C-320.104,11.312 -322.636,8.78 -322.636,5.656C-322.636,2.532 -320.104,-0.001 -316.979,-0.001L0,-0.001C7.247,-0.108 7.405,11.42 0,11.312" style="fill:rgb(226,123,39);fill-rule:nonzero;"/>
                    </g>
                    <g transform="matrix(1,0,0,1,1416.98,875.603)">
                        <path d="M0,11.312L-316.979,11.312C-320.104,11.312 -322.636,8.78 -322.636,5.656C-322.636,2.532 -320.104,-0.001 -316.979,-0.001L0,-0.001C7.247,-0.108 7.405,11.42 0,11.312" style="fill:rgb(226,123,39);fill-rule:nonzero;"/>
                    </g>
                    <g transform="matrix(1,0,0,1,1418.87,883.211)">
                        <path d="M0,20.973L-322.788,20.973C-326.154,20.973 -328.883,18.244 -328.883,14.877C-328.523,9.965 -330.622,0.001 -322.787,0.145L0,0.145C7.577,0 6.046,9.968 6.095,14.878C6.096,18.244 3.366,20.973 0,20.973" style="fill:rgb(232,148,73);fill-rule:nonzero;"/>
                    </g>
                    <g transform="matrix(1,0,0,1,1420.81,860.177)">
                        <path d="M0,19.499L-322.788,19.499C-326.154,19.499 -328.884,16.77 -328.884,13.403C-328.884,6.067 -322.937,0.12 -315.601,0.12L0,0.12C6.986,0 6.265,8.624 6.095,13.403C6.095,16.77 3.366,19.499 0,19.499" style="fill:rgb(232,148,73);fill-rule:nonzero;"/>
                    </g>
                    <g transform="matrix(1,0,0,1,1412.66,908.848)">
                        <path d="M0,17.061L-316.58,17.061C-319.946,17.061 -322.675,14.332 -322.675,10.966L-322.675,4.758C-322.675,1.391 -319.946,-1.337 -316.58,-1.337L6.208,-1.337C18.598,0.541 9.822,18.398 0,17.061" style="fill:rgb(232,148,73);fill-rule:nonzero;"/>
                    </g>
                    <g transform="matrix(1,0,0,1,1404.56,946.879)">
                        <path d="M0,5.577C-2.798,2.878 -317.08,10.796 -316.491,2.796C-317.08,-5.219 -2.798,2.699 0.005,-0.006C3.526,-0.053 3.683,5.631 0,5.577" style="fill:rgb(232,148,73);fill-rule:nonzero;"/>
                    </g>
                    <g transform="matrix(1,0,0,1,1397.24,948.489)">
                        <path d="M0,5.657C-2.838,2.92 -318.199,10.948 -317.602,2.836C-318.199,-5.291 -2.838,2.737 0.006,-0.005C3.578,-0.054 3.734,5.711 0,5.657" style="fill:rgb(226,123,39);fill-rule:nonzero;"/>
                    </g>
                    <g transform="matrix(0.0245545,-0.999698,-0.999698,-0.0245545,1238.59,800.437)">
                        <path d="M-154.969,-156.665C-152.104,-153.504 -168.483,162.802 -159.811,162.448C-157.693,162.682 -154.997,162.235 -154.969,159.57L-147.206,-156.474C-147.046,-160.645 -154.926,-160.824 -154.969,-156.665" style="fill:rgb(232,148,73);fill-rule:nonzero;"/>
                    </g>
                    <g transform="matrix(1,0,0,1,1356.17,995.263)">
                        <path d="M0,23.079L0,-6.056L8.29,-6.056L8.61,29.135" style="fill:rgb(39,70,79);fill-rule:nonzero;"/>
                    </g>
                    <g transform="matrix(-0.677621,0.735411,0.735411,0.677621,1056.06,1007.12)">
                        <path d="M6.441,33.604L18.675,33.604L-21.348,-3.273L-26.965,2.824L6.441,33.604Z" style="fill:rgb(39,70,79);fill-rule:nonzero;"/>
                    </g>
                    <g transform="matrix(1,0,0,1,1384.67,957.697)">
                        <path d="M0,11.312L-316.979,11.312C-320.103,11.312 -322.636,8.78 -322.636,5.656C-322.636,2.532 -320.103,-0.001 -316.979,-0.001L0,-0.001C7.247,-0.108 7.405,11.42 0,11.312" style="fill:rgb(226,123,39);fill-rule:nonzero;"/>
                    </g>
                    <g transform="matrix(1,0,0,1,1372.61,967.387)">
                        <path d="M0,22.309L-309.104,22.309C-315.309,22.309 -320.339,17.279 -320.339,11.074C-321.12,5.177 -318.304,-1.452 -311.526,-1.368L6.678,-1.368C21.752,0.678 12.569,23.761 0,22.309" style="fill:rgb(232,148,73);fill-rule:nonzero;"/>
                    </g>
                </g>
                <g id="Laptop">
                    <g transform="matrix(1,0,0,1,1168.09,946.617)">
                        <path d="M0,8.288L48.647,8.288C48.647,3.711 44.937,0 40.359,0L8.399,0" style="fill:rgb(204,203,202);fill-rule:nonzero;"/>
                    </g>
                    <g transform="matrix(1,0,0,1,1156.7,936.519)">
                        <path d="M0,-36.928C-73.197,-33.255 -81.218,-55.313 -52.237,15.072C-51.465,17.07 -49.544,18.385 -47.403,18.385L18.1,18.385C20.221,18.385 21.732,16.329 21.1,14.304L6.595,-32.079C5.693,-34.964 3.021,-36.928 0,-36.928" style="fill:rgb(224,224,224);fill-rule:nonzero;"/>
                    </g>
                    <g transform="matrix(1,0,0,1,1136.02,928.24)">
                        <path d="M0,-0.001C0.133,9.116 -14.188,9.116 -14.054,-0.001C-14.187,-9.117 0.134,-9.117 0,-0.001" style="fill:white;fill-rule:nonzero;"/>
                    </g>
                </g>
                <g id="Bird">
                    <g transform="matrix(-31.5917,37.7073,37.7073,31.5917,1207.11,901.953)">
                        <path d="M0.283,-0.31C0.655,-0.582 0.702,0.013 0.526,0.345L0.283,0.744L-0.229,0.08C-0.037,-0.002 0.136,-0.125 0.283,-0.31Z" style="fill:url(#_Linear10);fill-rule:nonzero;"/>
                    </g>
                    <g transform="matrix(1,0,0,1,1203.53,899.298)">
                        <path d="M0,33.394C-18.095,29.545 -39.051,8.982 -17.062,3.538C-5.41,3.828 4.706,1.204 13.842,-3.452L22.695,36.846" style="fill:none;fill-rule:nonzero;stroke:rgb(214,115,105);stroke-width:0.75px;"/>
                    </g>
                    <g transform="matrix(1,0,0,1,1272.11,824.185)">
                        <path d="M0,-4.868C1.242,-5.699 5.395,-5.161 5.395,-3.225L4.023,0.831L0,-4.868Z" style="fill:rgb(214,115,105);fill-rule:nonzero;"/>
                    </g>
                    <g transform="matrix(1,0,0,1,1282.54,826.737)">
                        <path d="M0,-4.868C1.241,-5.699 5.877,-5.699 5.209,-2.678L4.022,0.831L0,-4.868Z" style="fill:rgb(214,115,105);fill-rule:nonzero;"/>
                    </g>
                    <g transform="matrix(1,0,0,1,1325.69,881.168)">
                        <path d="M0,20.587C-23.272,33.949 -34.01,16.619 -33.394,-4.701C-33.537,-18.875 -31.275,-36.112 -41.542,-47.226L-41.438,-47.179C-39.398,-49.541 -35.422,-59.963 -39.762,-58.767C-42.685,-56.098 -45.854,-53.742 -48.019,-53.29C-48.441,-53.601 -48.853,-53.926 -49.29,-54.218C-46.945,-62.104 -47.976,-61.77 -55.057,-57.346C-77.775,-67.598 -105.333,-49.631 -104.766,-24.527C-104.78,-10.896 -104.756,21.781 -104.767,35.558L-31.949,81.922C6.548,88.185 30.84,8.498 0,20.587" style="fill:rgb(214,115,105);fill-rule:nonzero;"/>
                    </g>
                    <g transform="matrix(1,0,0,1,1239.39,1001.99)">
                        <path d="M0,1.999C-7.584,-13.566 -28.906,-1.682 -20.996,13.476C-20.591,14.797 -19.218,15.565 -17.879,15.221L17.05,6.223C21.517,5.334 16.213,-4.378 16.182,-6.78C16.177,-10.11 -1.349,-9.355 -3.186,-10.134C-6.965,-9.84 -6.433,-4.405 -10.302,-3.107" style="fill:rgb(39,70,79);fill-rule:nonzero;"/>
                    </g>
                    <g transform="matrix(1,0,0,1,1217.13,991.597)">
                        <path d="M0,19.883C-3.706,8.634 12.651,0 18.435,7.978C9.096,4.238 0.993,12.097 0,19.883" style="fill:rgb(36,62,68);fill-rule:nonzero;"/>
                    </g>
                    <g transform="matrix(1,0,0,1,1252.5,984.506)">
                        <path d="M0,9.587L-15.682,12.598C-18.343,13.108 -20.914,11.365 -21.425,8.705C-22.452,5.42 -22.526,0.759 -18.252,0.004C-18.253,0.004 -2.542,-3.013 -2.542,-3.013C0.111,-3.521 2.675,-1.784 3.184,0.869C4.216,4.162 4.282,8.83 0,9.587" style="fill:rgb(242,242,242);fill-rule:nonzero;"/>
                    </g>
                    <g transform="matrix(-0.341252,0.939972,0.939972,0.341252,1277.94,924.716)">
                        <path d="M38.413,-46.713C41.569,-41.525 44.475,-31.164 43.531,-24.495C43.542,-14.117 43.61,-3.03 38.413,7.081C34.858,6.974 31.316,9.543 28.763,11.71C26.638,13.494 19.559,19.447 17.324,21.325" style="fill:rgb(238,127,112);fill-rule:nonzero;"/>
                    </g>
                    <g transform="matrix(1,0,0,1,1321.45,949.473)">
                        <path d="M0,-47.949C-22.799,-35.316 -33.319,-52.513 -32.709,-73.624C-32.853,-87.798 -30.591,-105.035 -40.857,-116.149L-40.753,-116.101C-38.716,-118.465 -34.739,-128.867 -39.077,-127.689C-42,-125.02 -45.169,-122.665 -47.334,-122.213C-50.495,-125.649 -42.241,-136.253 -54.372,-126.267C-77.091,-136.52 -104.648,-118.553 -104.081,-93.449C-104.096,-79.819 -104.071,-47.141 -104.082,-33.365C-7.551,88.571 40.521,-62.542 0,-47.949" style="fill:rgb(238,127,112);fill-rule:nonzero;"/>
                    </g>
                    <g transform="matrix(1,0,0,1,1228.13,847.76)">
                        <path d="M0,0.001C-0.046,3.765 5.07,3.765 5.024,-0C5.07,-3.764 -0.046,-3.764 0,0.001" style="fill:rgb(39,70,79);fill-rule:nonzero;"/>
                    </g>
                    <g transform="matrix(1,0,0,1,1238.53,848.142)">
                        <path d="M0,-0.001C-0.046,3.764 5.07,3.764 5.023,-0.001C5.069,-3.765 -0.046,-3.765 0,-0.001" style="fill:rgb(39,70,79);fill-rule:nonzero;"/>
                    </g>
                    <g transform="matrix(-0.966272,-0.257524,-0.257524,0.966272,1244.39,834.307)">
                        <path d="M-6.86,6.195L1.24,6.195C2.504,6.212 3.046,4.962 2.886,3.856C3.148,0.889 -5.398,2.662 -6.86,2.21C-9.107,2.177 -9.109,6.229 -6.86,6.195" style="fill:rgb(39,70,79);fill-rule:nonzero;"/>
                    </g>
                    <g transform="matrix(0.966272,-0.257524,-0.257524,-0.966272,1225.94,842.04)">
                        <path d="M-0.811,0.899L7.289,0.899C8.552,0.883 9.095,2.132 8.935,3.238C9.197,6.205 0.651,4.432 -0.811,4.884C-3.058,4.917 -3.06,0.865 -0.811,0.899" style="fill:rgb(39,70,79);fill-rule:nonzero;"/>
                    </g>
                    <g transform="matrix(1,0,0,1,1217.37,869.35)">
                        <path d="M0,17.934C12.068,19.666 22.479,8.979 21.902,-1.732L0,17.934Z" style="fill:rgb(214,115,105);fill-rule:nonzero;"/>
                    </g>
                    <g transform="matrix(-0.0387757,0.999248,0.999248,0.0387757,1224.72,868.626)">
                        <path d="M-1.075,-12.944C0.752,-6.238 -1.956,1.699 -6.636,4.872C-12.554,9.276 -8.472,16.136 -1.075,14.521C13.751,11.359 23.353,-8.371 18.197,-17.565C14.161,-30.335 -5.057,-23.983 -0.673,-11.32" style="fill:rgb(242,198,102);fill-rule:nonzero;"/>
                    </g>
                    <g transform="matrix(0.186346,0.982484,0.982484,-0.186346,1230.81,993.208)">
                        <path d="M20.173,-16.19C21.748,-15.954 22.879,-14.546 22.767,-12.956L20.173,24.24L17.042,23.761L20.173,-16.19Z" style="fill:rgb(36,62,68);fill-rule:nonzero;"/>
                    </g>
                    <g transform="matrix(1,0,0,1,1277.63,845.241)">
                        <path d="M0,0.001C0.068,4.671 -7.269,4.671 -7.199,0C-7.268,-4.67 0.068,-4.67 0,0.001" style="fill:rgb(214,115,105);fill-rule:nonzero;"/>
                    </g>
                    <g transform="matrix(1,0,0,1,1269.85,850.941)">
                        <path d="M0,0C0.034,2.335 -3.635,2.335 -3.6,0C-3.634,-2.335 0.034,-2.335 0,0" style="fill:rgb(214,115,105);fill-rule:nonzero;"/>
                    </g>
                    <g transform="matrix(1,0,0,1,1277.44,854.312)">
                        <path d="M0,0C0.051,3.418 -5.32,3.419 -5.27,-0.001C-5.319,-3.419 0.051,-3.419 0,0" style="fill:rgb(214,115,105);fill-rule:nonzero;"/>
                    </g>
                    <g transform="matrix(1,0,0,1,1275.86,1001.99)">
                        <path d="M0,1.999C-7.585,-13.566 -28.907,-1.682 -20.997,13.476C-20.592,14.797 -19.218,15.565 -17.879,15.221L17.049,6.223C21.516,5.334 16.212,-4.378 16.181,-6.78C16.176,-10.11 -1.35,-9.355 -3.187,-10.134C-6.966,-9.84 -6.434,-4.405 -10.302,-3.107" style="fill:rgb(39,70,79);fill-rule:nonzero;"/>
                    </g>
                    <g transform="matrix(1,0,0,1,1288.12,984.411)">
                        <path d="M0,10.073L-15.733,13.094C-20.066,13.99 -21.805,9.557 -22.057,6.037C-22.55,3.471 -20.869,0.993 -18.304,0.5L-2.542,-2.526C4.021,-3.917 6.609,8.858 0,10.073" style="fill:rgb(242,242,242);fill-rule:nonzero;"/>
                    </g>
                    <g transform="matrix(0.184636,0.982807,0.982807,-0.184636,1267.31,991.787)">
                        <path d="M20.754,-16.559C22.329,-16.319 23.457,-14.91 23.342,-13.321L20.754,23.19C20.665,24.883 18.63,24.601 17.465,24.476L20.754,-16.559Z" style="fill:rgb(36,62,68);fill-rule:nonzero;"/>
                    </g>
                    <g transform="matrix(1,0,0,1,1212.07,878.8)">
                        <path d="M0,2.243C4.14,5.019 9.34,3.995 11.146,-2.018C11.271,-2.434 10.816,-2.776 10.449,-2.543C8.951,-0.522 -0.806,0.857 0,2.243" style="fill:white;fill-rule:nonzero;"/>
                    </g>
                    <g transform="matrix(1,0,0,1,1253.52,990.824)">
                        <path d="M0,19.664C-3.721,9.731 12.388,0 19.541,9.08C9.81,4.156 1.246,11.658 0,19.664" style="fill:rgb(36,62,68);fill-rule:nonzero;"/>
                    </g>
                    <g transform="matrix(-0.568392,0.822758,0.822758,0.568392,1297.83,918.796)">
                        <path d="M38.766,-70.843C48.931,-63.335 58.182,-55.855 65.174,-48.446C70.388,-28.444 59.813,-0.255 38.766,21.814C55.126,-7.473 63.507,-36.317 32.548,-62.972C27.669,-66.974 33.747,-74.682 38.766,-70.843" style="fill:rgb(214,115,105);fill-rule:nonzero;"/>
                    </g>
                    <g transform="matrix(1,0,0,1,1269.97,986.401)">
                        <path d="M0,-39.814C-1.574,-42.541 -5.061,-43.475 -7.787,-41.901L-26.64,-31.016C-32.234,-28.654 -36.937,-23.091 -35.566,-17.019C-35.459,-16.483 -32.67,-0.36 -32.613,-0.136C-32.152,2.165 -29.785,3.661 -27.589,3.222C-24.018,3.147 -20.82,0.461 -21.567,-2.966C-21.927,-7.826 -26.546,-18.765 -20.779,-21.235C-20.192,-21.575 -2.145,-31.988 -1.908,-32.134C0.68,-33.756 1.539,-37.148 0,-39.814" style="fill:rgb(242,198,102);fill-rule:nonzero;"/>
                    </g>
                    <g transform="matrix(1,0,0,1,1245.54,948.08)">
                        <clipPath id="_clip11">
                            <path d="M16.648,-3.579L-2.205,7.305C-7.799,9.668 -12.502,15.23 -11.131,21.302C-11.024,21.838 -8.235,37.961 -8.178,38.185C-7.717,40.485 -5.35,41.982 -3.154,41.543C0.418,41.468 3.615,38.783 2.867,35.355C2.508,30.496 -2.11,19.556 3.656,17.086C4.243,16.746 22.29,6.333 22.527,6.187C25.115,4.565 25.974,1.174 24.435,-1.492C23.379,-3.321 21.463,-4.344 19.493,-4.344C18.526,-4.344 17.546,-4.098 16.648,-3.579Z" clip-rule="nonzero"/>
                        </clipPath>
                        <g clip-path="url(#_clip11)">
                            <path d="M0,41.797C-6.041,8.42 -4.227,19.957 26.539,0L27.195,6.335L2.82,19.662L4.79,38.9L0,41.797Z" style="fill:rgb(211,170,89);fill-rule:nonzero;"/>
                        </g>
                    </g>
                    <g transform="matrix(1,0,0,1,1304.35,986.401)">
                        <path d="M0,-39.814C-1.574,-42.541 -5.061,-43.475 -7.787,-41.901L-26.64,-31.016C-32.233,-28.654 -36.936,-23.091 -35.566,-17.019C-35.459,-16.483 -32.67,-0.36 -32.613,-0.136C-32.152,2.165 -29.785,3.661 -27.589,3.222C-24.018,3.147 -20.82,0.461 -21.567,-2.966C-21.927,-7.826 -26.546,-18.765 -20.779,-21.235C-20.192,-21.575 -2.144,-31.988 -1.908,-32.134C0.68,-33.756 1.539,-37.148 0,-39.814" style="fill:rgb(242,198,102);fill-rule:nonzero;"/>
                    </g>
                    <g transform="matrix(1,0,0,1,1279.92,948.08)">
                        <clipPath id="_clip12">
                            <path d="M16.648,-3.579L-2.204,7.305C-7.799,9.668 -12.5,15.23 -11.131,21.302C-11.024,21.838 -8.235,37.961 -8.179,38.185C-7.718,40.485 -5.35,41.982 -3.154,41.543C0.417,41.468 3.615,38.783 2.867,35.355C2.508,30.496 -2.111,19.556 3.656,17.086C4.242,16.746 22.291,6.333 22.527,6.187C25.114,4.565 25.974,1.174 24.435,-1.492C23.379,-3.321 21.462,-4.344 19.492,-4.344C18.525,-4.344 17.546,-4.098 16.648,-3.579Z" clip-rule="nonzero"/>
                        </clipPath>
                        <g clip-path="url(#_clip12)">
                            <path d="M0,41.797C-6.041,8.42 -4.227,19.957 26.539,0L27.195,6.335L2.82,19.662L4.79,38.9L0,41.797Z" style="fill:rgb(211,170,89);fill-rule:nonzero;"/>
                        </g>
                    </g>
                    <g transform="matrix(65.9942,-19.7671,-19.7671,-65.9942,1206.52,957.045)">
                        <path d="M0.218,0.538C-0.371,0.487 0.644,-0.379 1.248,-0.108L0.963,0.598C0.728,0.493 0.485,0.45 0.218,0.538Z" style="fill:url(#_Linear13);fill-rule:nonzero;"/>
                    </g>
                    <g transform="matrix(1,0,0,1,1291.11,910.716)">
                        <path d="M0,28.853C-3.651,32.03 -7.876,34.541 -12.386,36.319C-16.893,38.114 -21.646,39.255 -26.453,39.887C-36.085,41.149 -45.902,40.509 -55.407,38.579C-60.159,37.588 -64.856,36.291 -69.414,34.582C-73.966,32.869 -78.41,30.792 -82.505,28.059C-84.549,26.692 -86.491,25.127 -88.174,23.245C-88.996,22.287 -89.776,21.266 -90.364,20.092C-90.947,18.924 -91.36,17.608 -91.391,16.225C-91.431,14.845 -91.044,13.45 -90.372,12.272C-89.711,11.076 -88.781,10.107 -87.794,9.283C-85.803,7.628 -83.544,6.482 -81.246,5.563C-81.114,5.51 -80.971,5.487 -80.836,5.491C-76.501,5.615 -72.165,5.294 -67.892,4.595C-63.618,3.893 -59.416,2.728 -55.371,1.139C-51.327,-0.449 -47.403,-2.387 -43.679,-4.681C-39.945,-6.959 -36.375,-9.522 -32.934,-12.262C-32.891,-12.296 -32.827,-12.29 -32.793,-12.247C-32.761,-12.206 -32.766,-12.146 -32.803,-12.111C-36.022,-9.103 -39.45,-6.294 -43.116,-3.808C-46.788,-1.336 -50.664,0.88 -54.771,2.611C-58.872,4.346 -63.164,5.659 -67.553,6.499C-71.941,7.348 -76.427,7.643 -80.888,7.568L-80.479,7.496C-82.654,8.36 -84.766,9.406 -86.504,10.83C-88.266,12.213 -89.507,14.124 -89.483,16.198C-89.483,18.285 -88.309,20.348 -86.83,22.082C-85.327,23.828 -83.515,25.355 -81.573,26.703C-77.684,29.405 -73.349,31.497 -68.903,33.247C-64.447,34.991 -59.832,36.335 -55.153,37.381C-45.79,39.412 -36.095,40.194 -26.545,39.144C-21.777,38.608 -17.055,37.569 -12.558,35.875C-8.058,34.201 -3.822,31.792 -0.131,28.702C-0.089,28.666 -0.025,28.67 0.01,28.712C0.046,28.753 0.04,28.817 0,28.853" style="fill:rgb(214,115,105);fill-rule:nonzero;"/>
                    </g>
                </g>
            </g>
        </g>
    </g>
    <defs>
        <linearGradient id="_Linear4" x1="0" y1="0" x2="1" y2="0" gradientUnits="userSpaceOnUse" gradientTransform="matrix(1,0,0,-1,0,0.0243198)"><stop offset="0" style="stop-color:rgb(242,149,56);stop-opacity:1"/><stop offset="0" style="stop-color:rgb(242,149,56);stop-opacity:1"/><stop offset="1" style="stop-color:rgb(237,167,76);stop-opacity:1"/></linearGradient>
        <linearGradient id="_Linear6" x1="0" y1="0" x2="1" y2="0" gradientUnits="userSpaceOnUse" gradientTransform="matrix(1,-5.55112e-17,-5.55112e-17,-1,0,-1.05768e-06)"><stop offset="0" style="stop-color:rgb(242,149,56);stop-opacity:1"/><stop offset="0" style="stop-color:rgb(242,149,56);stop-opacity:1"/><stop offset="1" style="stop-color:rgb(237,167,76);stop-opacity:1"/></linearGradient>
        <linearGradient id="_Linear9" x1="0" y1="0" x2="1" y2="0" gradientUnits="userSpaceOnUse" gradientTransform="matrix(1,0,0,-1,0,0.195302)"><stop offset="0" style="stop-color:rgb(242,149,56);stop-opacity:1"/><stop offset="0" style="stop-color:rgb(242,149,56);stop-opacity:1"/><stop offset="1" style="stop-color:rgb(237,167,76);stop-opacity:1"/></linearGradient>
        <linearGradient id="_Linear10" x1="0" y1="0" x2="1" y2="0" gradientUnits="userSpaceOnUse" gradientTransform="matrix(-0.642209,0.766529,0.766529,0.642209,0.611562,-0.285457)"><stop offset="0" style="stop-color:rgb(214,115,105);stop-opacity:1"/><stop offset="0" style="stop-color:rgb(214,115,105);stop-opacity:1"/><stop offset="1" style="stop-color:rgb(238,127,112);stop-opacity:1"/></linearGradient>
        <linearGradient id="_Linear13" x1="0" y1="0" x2="1" y2="0" gradientUnits="userSpaceOnUse" gradientTransform="matrix(1,0,0,-1,0,0.21886)"><stop offset="0" style="stop-color:rgb(214,115,105);stop-opacity:1"/><stop offset="0" style="stop-color:rgb(214,115,105);stop-opacity:1"/><stop offset="1" style="stop-color:rgb(238,127,112);stop-opacity:1"/></linearGradient>
    </defs>
</svg>
