<?xml version="1.0" encoding="UTF-8" standalone="no"?>
<!DOCTYPE svg PUBLIC "-//W3C//DTD SVG 1.1//EN" "http://www.w3.org/Graphics/SVG/1.1/DTD/svg11.dtd">
<svg width="100%" height="100%" viewBox="0 0 1923 1115" version="1.1" xmlns="http://www.w3.org/2000/svg" xmlns:xlink="http://www.w3.org/1999/xlink" xml:space="preserve" xmlns:serif="http://www.serif.com/" style="fill-rule:evenodd;clip-rule:evenodd;stroke-miterlimit:10;">
    <g id="Layer-1" serif:id="Layer 1">
        <g id="Green-Mountains" serif:id="Green Mountains">
            <g transform="matrix(1,0,0,1,1213.99,647.651)">
                <path d="M0,26.053L-61.572,-16.296C-74.726,-25.342 -92.048,-25.519 -105.383,-16.743C-113.209,-12.301 -185.096,31.187 -191.384,33.011L-152.32,46.092L-96.966,51.572L-21.597,43.657L0,26.053" style="fill:rgb(154,193,156);fill-rule:nonzero;"/>
            </g>
            <g transform="matrix(1,0,0,1,1710.5,583.44)">
                <path d="M0,36.515C142.396,-45.314 89.041,-60.236 211.882,13.405L211.882,96.751C88.184,89.21 108.93,94.036 0,36.515" style="fill:rgb(154,193,156);fill-rule:nonzero;"/>
            </g>
            <g transform="matrix(1,0,0,1,1474.84,566.535)">
                <path d="M0,29.06C129.437,-55.423 71.686,-38.545 225.246,48.427L51.57,84.483L0,29.06Z" style="fill:rgb(154,193,156);fill-rule:nonzero;"/>
            </g>
            <g transform="matrix(1,0,0,1,1501.08,537.106)">
                <path d="M0,77.499C-11.436,36.51 97.758,62.263 109.035,40.334C117.19,23.313 79.574,25.659 87.729,8.635C77.456,0.839 62.079,0 52.496,7.06C52.496,7.059 -26.238,58.489 -26.238,58.489C-19.751,63.187 -6.42,72.844 0,77.499" style="fill:rgb(184,211,185);fill-rule:nonzero;"/>
            </g>
            <g transform="matrix(1,0,0,1,1760.8,545.65)">
                <path d="M0,102.693C-26.623,29.829 86.552,67.307 111.649,40.339C119.802,23.313 82.186,25.66 90.341,8.636C80.057,0.84 64.699,0 55.107,7.061C32.985,20.839 -33.225,61.963 -54.293,75.171L-19.968,90.318" style="fill:rgb(184,211,185);fill-rule:nonzero;"/>
            </g>
            <g transform="matrix(1,0,0,1,1253.53,593.28)">
                <path d="M0,79.569L132.977,-14.511C153.931,-27.801 180.87,-26.971 200.967,-12.416L261.407,31.358C286.227,49.334 319.218,51.29 345.987,36.371L378.379,18.32C396.551,8.193 418.497,7.477 437.291,16.398L532.663,64.573L380.54,107.37C307.013,104.657 98.047,96.831 27.519,98.519L0,79.569" style="fill:rgb(154,193,156);fill-rule:nonzero;"/>
            </g>
            <g transform="matrix(1,0,0,1,1690.82,616.576)">
                <path d="M0,-6.898C-37.154,-25.32 -71.65,2.625 -102.759,18.422C-102.759,18.422 -31.9,13.333 -36.751,3.734C-41.603,-5.867 0,-6.898 0,-6.898" style="fill:rgb(184,211,185);fill-rule:nonzero;"/>
            </g>
            <g transform="matrix(-0.00632899,0.99998,0.99998,0.00632899,1739.7,598.409)">
                <path d="M-8.109,-8.058L8.007,-8.058" style="fill:none;fill-rule:nonzero;stroke:rgb(154,193,156);stroke-width:1px;"/>
            </g>
            <g transform="matrix(1,0,0,1,1723.99,597.079)">
                <path d="M0,-4.78C2.939,13.144 26.376,-3.84 10.316,-12.225C6.772,-13.44 6.743,-14.352 5.029,-15.341L5.037,-15.353C1.488,-17.924 -3.523,-13.847 -1.557,-9.824L-1.564,-9.821C-1.343,-9.399 0.166,-7.334 0,-4.614" style="fill:rgb(154,193,156);fill-rule:nonzero;"/>
            </g>
            <g transform="matrix(0,1,1,0,1315.19,626.718)">
                <path d="M-8.597,-8.597L8.597,-8.597" style="fill:none;fill-rule:nonzero;stroke:rgb(154,193,156);stroke-width:1px;"/>
            </g>
            <g transform="matrix(1,0,0,1,1314.3,624.953)">
                <path d="M0,-4.782C-2.939,13.143 -26.376,-3.842 -10.316,-12.227C-6.772,-13.442 -6.743,-14.353 -5.029,-15.343L-5.037,-15.354C-1.488,-17.925 3.523,-13.848 1.557,-9.826L1.564,-9.822C1.343,-9.401 -0.166,-7.336 0,-4.615" style="fill:rgb(154,193,156);fill-rule:nonzero;"/>
            </g>
            <g transform="matrix(0,1,1,0,1708.68,606.366)">
                <path d="M-8.596,-8.596L8.596,-8.596" style="fill:none;fill-rule:nonzero;stroke:rgb(154,193,156);stroke-width:1px;"/>
            </g>
            <g transform="matrix(1,0,0,1,1707.78,604.6)">
                <path d="M0,-4.78C-2.939,13.144 -26.376,-3.84 -10.317,-12.225C-6.772,-13.44 -6.743,-14.352 -5.029,-15.341L-5.037,-15.353C-1.488,-17.924 3.522,-13.847 1.557,-9.824L1.564,-9.821C1.343,-9.399 -0.166,-7.334 0,-4.614" style="fill:rgb(154,193,156);fill-rule:nonzero;"/>
            </g>
            <g transform="matrix(0,1,1,0,1594.98,626.718)">
                <path d="M-8.597,-8.597L8.597,-8.597" style="fill:none;fill-rule:nonzero;stroke:rgb(154,193,156);stroke-width:1px;"/>
            </g>
            <g transform="matrix(1,0,0,1,1579.52,623.058)">
                <path d="M0,-4.78C2.938,13.144 26.375,-3.84 10.316,-12.225C6.771,-13.44 6.742,-14.352 5.028,-15.341L5.037,-15.353C1.487,-17.924 -3.523,-13.847 -1.557,-9.824L-1.565,-9.821C-1.343,-9.399 0.166,-7.334 0,-4.614" style="fill:rgb(154,193,156);fill-rule:nonzero;"/>
            </g>
            <g transform="matrix(0.819603,-0.572932,-0.572932,-0.819603,1382.87,582.997)">
                <path d="M-0.171,0.543L1.726,0.544" style="fill:none;fill-rule:nonzero;stroke:rgb(154,193,156);stroke-width:3px;stroke-linecap:round;stroke-linejoin:round;"/>
            </g>
            <g transform="matrix(0.816766,-0.576969,-0.576969,-0.816766,1315.45,668.548)">
                <path d="M-9.978,31.418L98.931,31.418" style="fill:none;fill-rule:nonzero;stroke:rgb(154,193,156);stroke-width:3px;stroke-linecap:round;stroke-linejoin:round;"/>
            </g>
            <g transform="matrix(0.839848,-0.542822,-0.542822,-0.839848,1545.32,553.221)">
                <path d="M-0.456,1.547L5.243,1.547" style="fill:none;fill-rule:nonzero;stroke:rgb(154,193,156);stroke-width:3px;stroke-linecap:round;stroke-linejoin:round;"/>
            </g>
            <g transform="matrix(0.839836,-0.54284,-0.54284,-0.839836,1470.85,633.955)">
                <path d="M-8.535,28.928L98.045,28.928" style="fill:none;fill-rule:nonzero;stroke:rgb(154,193,156);stroke-width:3px;stroke-linecap:round;stroke-linejoin:round;"/>
            </g>
            <g transform="matrix(-0.847399,0.530957,0.530957,0.847399,1755.28,614.612)">
                <path d="M-65.494,-18.824L5.41,-18.824" style="fill:none;fill-rule:nonzero;stroke:rgb(154,193,156);stroke-width:3px;stroke-linecap:round;stroke-linejoin:round;"/>
            </g>
            <g transform="matrix(-0.847303,0.53111,0.53111,0.847303,1806.85,561.026)">
                <path d="M-2.763,-0.795L0.228,-0.794" style="fill:none;fill-rule:nonzero;stroke:rgb(154,193,156);stroke-width:3px;stroke-linecap:round;stroke-linejoin:round;"/>
            </g>
            <g transform="matrix(1,0,0,1,1052.14,621.966)">
                <path d="M0,66.478C7.481,62.636 34.603,63.71 35.29,56.128C35.867,49.756 23.355,53.686 24.418,47.374C25.479,41.066 73.43,40.773 73.459,33.617C73.496,24.577 62.785,28.268 63.756,20.88C64.288,16.829 86.153,12.709 101.964,10.546C88.467,0.21 69.547,0 56.472,8.942C49.078,13.141 -23.378,56.921 -29.102,58.483L0,66.478Z" style="fill:rgb(184,211,185);fill-rule:nonzero;"/>
            </g>
            <g transform="matrix(0.850243,-0.526391,-0.526391,-0.850243,1107.48,633.665)">
                <path d="M-0.142,0.499L1.754,0.499" style="fill:none;fill-rule:nonzero;stroke:rgb(154,193,156);stroke-width:3px;stroke-linecap:round;stroke-linejoin:round;"/>
            </g>
            <g transform="matrix(0.856604,-0.515975,-0.515975,-0.856604,1074.74,665.006)">
                <path d="M-2.921,10.511L37.821,10.511" style="fill:none;fill-rule:nonzero;stroke:rgb(154,193,156);stroke-width:3px;stroke-linecap:round;stroke-linejoin:round;"/>
            </g>
            <g transform="matrix(0,1,1,0,1071.99,678.031)">
                <path d="M-8.597,-8.597L8.597,-8.597" style="fill:none;fill-rule:nonzero;stroke:rgb(154,193,156);stroke-width:1px;"/>
            </g>
            <g transform="matrix(1,0,0,1,1055.69,676.266)">
                <path d="M0,-4.781C2.939,13.143 26.376,-3.841 10.316,-12.226C6.771,-13.441 6.743,-14.352 5.029,-15.342L5.037,-15.353C1.487,-17.924 -3.523,-13.847 -1.557,-9.825L-1.564,-9.821C-1.343,-9.4 0.166,-7.335 0,-4.614" style="fill:rgb(154,193,156);fill-rule:nonzero;"/>
            </g>
            <g transform="matrix(1,0,0,1,0.7324,591.089)">
                <path d="M0,53.238L190.22,52.199L185.158,0" style="fill:rgb(211,211,211);fill-rule:nonzero;"/>
            </g>
            <g transform="matrix(1,0,0,1,765.346,673.689)">
                <path d="M0,36.894L-134.727,-18.805C-144.084,-22.618 -155.9,-21.901 -164.159,-17.02L-213.473,11.312C-213.473,11.312 -211.297,50.934 -210.922,55.223C-210.547,59.512 -54.685,53.694 -54.685,53.694L0,36.894" style="fill:rgb(154,193,156);fill-rule:nonzero;"/>
            </g>
            <g transform="matrix(1,0,0,1,687.789,658.943)">
                <path d="M0,68.026C2.345,60.922 -36.658,52.939 -33.229,43.569C-30.643,36.505 -15.955,45.06 -13.609,37.956C-11.266,30.855 -53.807,16.138 -54.457,5.699C-54.92,-1.747 -46.569,-0.433 -36.802,4.363L77.558,51.64L50.489,65.393L2.985,69.773L0,68.026" style="fill:rgb(184,211,185);fill-rule:nonzero;"/>
            </g>
            <g transform="matrix(-0.342868,-0.939383,-0.939383,0.342868,513.855,641.448)">
                <path d="M-30.084,-12.803C33.466,43.188 40.927,24.103 5.897,107.675L-30.084,120.808L-102.766,-78.327L-30.084,-12.803Z" style="fill:rgb(154,193,156);fill-rule:nonzero;"/>
            </g>
            <g transform="matrix(1,0,0,1,488.861,672.578)">
                <path d="M0,11.297C3.241,2.891 17.168,12.785 19.153,7.029C22.088,-1.481 -14.885,-4.184 -11.106,-14.794C-7.734,-24.264 6.054,-17.283 7.542,-21.551C9.04,-25.844 1.109,-32.157 -6.69,-38.437C30.155,-15.849 117.333,29.857 156.617,49.734C98.737,42.567 44.748,31.528 0,11.297" style="fill:rgb(184,211,185);fill-rule:nonzero;"/>
            </g>
            <g transform="matrix(1,0,0,1,436.752,611.742)">
                <path d="M0,80.779L-132.026,-13.788C-141.203,-20.274 -153.481,-20.229 -162.61,-13.678L-217.019,24.227C-217.019,24.227 -219.721,83.393 -219.87,89.81C-220.019,96.227 -58.509,101.053 -58.509,101.053L0,80.779" style="fill:rgb(154,193,156);fill-rule:nonzero;"/>
            </g>
            <g transform="matrix(1,0,0,1,354.7,604.448)">
                <path d="M0,105.752C3.306,95.38 -35.931,80.122 -31.224,66.473C-27.675,56.181 -13.59,70.187 -10.285,59.814C-6.981,49.448 -49.027,23.86 -48.394,8.266C-47.942,-2.858 -39.491,-0.18 -30.015,7.805L82.052,88.073L52.412,106.202L2.861,108.61L0,105.752" style="fill:rgb(184,211,185);fill-rule:nonzero;"/>
            </g>
            <g transform="matrix(0.812984,0.582286,0.582286,-0.812984,342.908,604.76)">
                <path d="M-5.795,-18.043L56.178,-18.043" style="fill:none;fill-rule:nonzero;stroke:rgb(154,193,156);stroke-width:3px;stroke-linecap:round;stroke-linejoin:round;"/>
            </g>
            <g transform="matrix(1,0,0,1,331.842,579.785)">
                <path d="M0,125.596L-203.106,-1.336C-217.776,-10.485 -236.553,-9.72 -250.431,0.592L-331.842,62.474L-331.842,136.081L0,125.596Z" style="fill:rgb(154,193,156);fill-rule:nonzero;"/>
            </g>
            <g transform="matrix(1,0,0,1,180.793,578.242)">
                <path d="M0,122.727C3.306,112.355 -39.217,95.986 -35.911,85.613C-32.605,75.241 -13.174,88.696 -9.868,78.323C-6.564,67.957 -50.664,49.379 -47.359,39.013C-44.055,28.645 -36.772,38.248 -33.467,27.878C-30.164,17.513 -65.61,5.954 -62.307,-4.412C-60.06,-4.273 -55.775,-2.334 -52.057,0.207L151.049,127.139L-16.04,125.39L-19.875,109.53" style="fill:rgb(184,211,185);fill-rule:nonzero;"/>
            </g>
            <g transform="matrix(0.850952,0.525243,0.525243,-0.850952,195.691,594.91)">
                <path d="M-6.44,-22.693L79.972,-22.693" style="fill:none;fill-rule:nonzero;stroke:rgb(154,193,156);stroke-width:3px;stroke-linecap:round;stroke-linejoin:round;"/>
            </g>
            <g transform="matrix(0.813059,0.582182,0.582182,-0.813059,385.555,655.129)">
                <path d="M-0.562,-1.75L5.45,-1.75" style="fill:none;fill-rule:nonzero;stroke:rgb(154,193,156);stroke-width:3px;stroke-linecap:round;stroke-linejoin:round;"/>
            </g>
            <g transform="matrix(0.812901,0.582402,0.582402,-0.812901,394.638,663.25)">
                <path d="M-0.281,-0.875L2.725,-0.875" style="fill:none;fill-rule:nonzero;stroke:rgb(154,193,156);stroke-width:3px;stroke-linecap:round;stroke-linejoin:round;"/>
            </g>
            <g transform="matrix(0,1,1,0,232.098,626.307)">
                <path d="M-8.596,-8.596L8.596,-8.596" style="fill:none;fill-rule:nonzero;stroke:rgb(154,193,156);stroke-width:1px;"/>
            </g>
            <g transform="matrix(1,0,0,1,215.804,625.541)">
                <path d="M0,-4.78C2.939,13.144 26.376,-3.84 10.316,-12.225C6.772,-13.44 6.743,-14.352 5.029,-15.341L5.037,-15.353C1.488,-17.924 -3.523,-13.847 -1.557,-9.824L-1.565,-9.821C-1.343,-9.399 0.166,-7.334 0,-4.614" style="fill:rgb(154,193,156);fill-rule:nonzero;"/>
            </g>
            <g transform="matrix(-0.00627613,0.99998,0.99998,0.00627613,434.173,654.215)">
                <path d="M-9.941,-9.879L9.817,-9.879" style="fill:none;fill-rule:nonzero;stroke:rgb(154,193,156);stroke-width:1px;"/>
            </g>
            <g transform="matrix(1,0,0,1,416.659,651.043)">
                <path d="M0,-4.782C2.939,13.143 26.375,-3.842 10.316,-12.226C6.772,-13.441 6.743,-14.353 5.029,-15.343L5.037,-15.354C1.488,-17.925 -3.523,-13.848 -1.557,-9.825L-1.565,-9.822C-1.343,-9.4 0.166,-7.336 0,-4.615" style="fill:rgb(154,193,156);fill-rule:nonzero;"/>
            </g>
            <g transform="matrix(-0.00825834,0.999966,0.999966,0.00825834,379.011,635.918)">
                <path d="M-9.279,-9.202L9.127,-9.202" style="fill:none;fill-rule:nonzero;stroke:rgb(154,193,156);stroke-width:1px;"/>
            </g>
            <g transform="matrix(1,0,0,1,377.583,633.394)">
                <path d="M0,-4.78C-2.939,13.144 -26.375,-3.84 -10.316,-12.225C-6.772,-13.44 -6.743,-14.352 -5.029,-15.341L-5.037,-15.353C-1.488,-17.924 3.523,-13.847 1.557,-9.824L1.565,-9.821C1.343,-9.399 -0.166,-7.334 0,-4.614" style="fill:rgb(154,193,156);fill-rule:nonzero;"/>
            </g>
            <g transform="matrix(-0.0082579,0.999966,0.999966,0.0082579,588.051,660.696)">
                <path d="M-9.279,-9.203L9.127,-9.203" style="fill:none;fill-rule:nonzero;stroke:rgb(154,193,156);stroke-width:1px;"/>
            </g>
            <g transform="matrix(1,0,0,1,586.623,658.173)">
                <path d="M0,-4.782C-2.939,13.143 -26.376,-3.842 -10.316,-12.227C-6.772,-13.442 -6.743,-14.353 -5.029,-15.343L-5.037,-15.354C-1.488,-17.925 3.523,-13.848 1.557,-9.826L1.565,-9.822C1.343,-9.401 -0.166,-7.336 0,-4.615" style="fill:rgb(154,193,156);fill-rule:nonzero;"/>
            </g>
            <g transform="matrix(0,1,1,0,516.963,641.267)">
                <path d="M-8.199,-8.199L8.199,-8.199" style="fill:none;fill-rule:nonzero;stroke:rgb(154,193,156);stroke-width:1px;"/>
            </g>
            <g transform="matrix(1,0,0,1,516.462,639.898)">
                <path d="M0,-4.78C-2.939,13.144 -26.376,-3.84 -10.317,-12.225C-6.772,-13.44 -6.743,-14.352 -5.029,-15.341L-5.038,-15.353C-1.488,-17.924 3.523,-13.847 1.557,-9.824L1.564,-9.821C1.342,-9.399 -0.167,-7.334 0,-4.614" style="fill:rgb(154,193,156);fill-rule:nonzero;"/>
            </g>
            <g transform="matrix(-0.847998,-0.529999,-0.529999,0.847998,166.349,600.967)">
                <path d="M-7.2,2.065L0.592,2.065" style="fill:none;fill-rule:nonzero;stroke:rgb(154,193,156);stroke-width:3px;stroke-linecap:round;stroke-linejoin:round;"/>
            </g>
            <g transform="matrix(-0.84802,-0.529964,-0.529964,0.84802,258.623,658.78)">
                <path d="M-4.735,1.358L0.389,1.358" style="fill:none;fill-rule:nonzero;stroke:rgb(154,193,156);stroke-width:3px;stroke-linecap:round;stroke-linejoin:round;"/>
            </g>
            <g transform="matrix(0.892647,0.450757,0.450757,-0.892647,693.539,571.352)">
                <path d="M-1.047,-4.398L18.464,-4.398" style="fill:none;fill-rule:nonzero;stroke:rgb(230,230,230);stroke-width:3px;stroke-linecap:round;stroke-linejoin:round;"/>
            </g>
            <g transform="matrix(1,0,0,1,1337.84,592.428)">
                <path d="M0,76.406C16.782,74.289 35.038,72.036 35.738,64.009C36.683,53.163 15.259,59.766 17.036,49.025C18.812,38.292 101.021,38.131 101.021,25.946C103.741,8.523 49.731,5.608 120.611,-8.705C99.073,-25.713 72.402,-27.22 48.673,-13.659L-86.646,81.315L13.173,103.626L20.832,95.963C-33.466,92.392 -47.233,81.035 0,76.406" style="fill:rgb(184,211,185);fill-rule:nonzero;"/>
            </g>
        </g>
    </g>
</svg>
