<?xml version="1.0" encoding="UTF-8" standalone="no"?>
<!DOCTYPE svg PUBLIC "-//W3C//DTD SVG 1.1//EN" "http://www.w3.org/Graphics/SVG/1.1/DTD/svg11.dtd">
<svg width="100%" height="100%" viewBox="0 0 1923 1115" version="1.1" xmlns="http://www.w3.org/2000/svg" xmlns:xlink="http://www.w3.org/1999/xlink" xml:space="preserve" xmlns:serif="http://www.serif.com/" style="fill-rule:evenodd;clip-rule:evenodd;stroke-linecap:round;stroke-linejoin:round;stroke-miterlimit:10;">
    <g id="Layer-1" serif:id="Layer 1">
        <g id="Rocky-Mountains" serif:id="Rocky Mountains">
            <g transform="matrix(1,0,0,1,969.223,591.971)">
                <path d="M0,85.508L0.608,85.547C-12.386,83.985 -21.468,75.065 -35.897,81.09C-53.145,84.49 -72.564,83.754 -89.445,78.111L-293.614,-24.457C-307.101,-31.232 -323.261,-29.787 -335.331,-20.726L-396.627,25.284L-396.627,116.74C-254.267,111.711 -130.785,109.37 0,85.508" style="fill:rgb(211,211,211);fill-rule:nonzero;"/>
            </g>
            <g transform="matrix(1,0,0,1,185.891,553.657)">
                <path d="M0,37.431L-105.128,-39.35C-136.025,-61.869 -162.956,-36.795 -185.891,-16.605L-185.891,99.3" style="fill:rgb(211,211,211);fill-rule:nonzero;"/>
            </g>
            <g transform="matrix(-0.266368,0.963872,0.963872,0.266368,383.351,366.937)">
                <path d="M282.593,-143.445C41.301,45.597 104.819,-37.58 190.553,249.14L282.593,271.676L387.69,-125.965L282.593,-143.445" style="fill:rgb(211,211,211);fill-rule:nonzero;"/>
            </g>
            <g transform="matrix(1,0,0,1,92.145,533.561)">
                <path d="M0,40.798C-12.57,31.394 -30.018,21.014 -27.953,14.535C-24.648,4.166 -5.506,19.543 -2.201,9.174C1.037,-2.119 -36.833,-15.234 -30.372,-27.274C-19.476,-30.11 82.214,50.863 92.535,56.644L73.088,70.908L0,40.798Z" style="fill:rgb(193,193,193);fill-rule:nonzero;"/>
            </g>
            <g transform="matrix(1,0,0,1,472.702,578.505)">
                <path d="M0,52.911C-10.802,43.463 -61.517,32.106 -59.421,19.322C-57.66,8.579 -38.528,20.266 -37.599,9.42C-36.67,-1.42 -123.917,-32.287 -121.012,-49.442C-118.442,-64.618 -91.544,-56.126 -90.002,-68.708C-89.123,-75.883 -117.336,-87.981 -129.472,-94.444C-130.174,-94.818 -130.049,-95.868 -129.278,-96.063C-112.454,-100.294 -95.778,-98.825 -79.354,-87.734L267.88,153.205L117.498,123.126L0,52.911Z" style="fill:rgb(193,193,193);fill-rule:nonzero;"/>
            </g>
            <g transform="matrix(1,0,0,1,783.563,572.419)">
                <path d="M0,127.426C-11.99,119.54 -63.781,115.211 -63.449,102.261C-63.17,91.377 -42.623,100.345 -43.183,89.473C-43.742,78.608 -134.384,59.936 -133.848,42.546C-133.373,27.159 -105.568,31.902 -105.757,19.228C-105.872,11.584 -138.217,3.418 -149.672,-1.175C-135.362,-12.365 -116.213,-11.088 -97.805,-1.074L118.522,108.735C52.624,139.791 71.024,132.925 0,127.426" style="fill:rgb(193,193,193);fill-rule:nonzero;"/>
            </g>
            <g transform="matrix(0.808229,0.588868,0.588868,-0.808229,132.168,519.689)">
                <path d="M-8.778,-26.953L82.766,-26.953" style="fill:none;fill-rule:nonzero;stroke:rgb(230,230,230);stroke-width:3px;"/>
            </g>
            <g transform="matrix(0.803839,0.594847,0.594847,-0.803839,95.6443,521.509)">
                <path d="M-1.337,-4.055L12.295,-4.055" style="fill:none;fill-rule:nonzero;stroke:rgb(230,230,230);stroke-width:3px;"/>
            </g>
            <g transform="matrix(0.803846,0.594838,0.594838,-0.803846,82.9666,515.332)">
                <path d="M-0.475,-1.442L4.371,-1.442" style="fill:none;fill-rule:nonzero;stroke:rgb(230,230,230);stroke-width:3px;"/>
            </g>
            <g transform="matrix(0.821229,0.570599,0.570599,-0.821229,467.169,495.811)">
                <path d="M-12.797,-40.846L130.37,-40.846" style="fill:none;fill-rule:nonzero;stroke:rgb(230,230,230);stroke-width:3px;"/>
            </g>
            <g transform="matrix(0.821228,0.5706,0.5706,-0.821228,405.023,488.417)">
                <path d="M-3.498,-11.166L35.639,-11.166" style="fill:none;fill-rule:nonzero;stroke:rgb(230,230,230);stroke-width:3px;"/>
            </g>
            <g transform="matrix(0.821337,0.570444,0.570444,-0.821337,386.135,488.504)">
                <path d="M-0.278,-0.889L2.838,-0.889" style="fill:none;fill-rule:nonzero;stroke:rgb(230,230,230);stroke-width:3px;"/>
            </g>
            <g transform="matrix(0.892644,0.450763,0.450763,-0.892644,744.568,555.571)">
                <path d="M-9.997,-41.974L176.237,-41.974" style="fill:none;fill-rule:nonzero;stroke:rgb(230,230,230);stroke-width:3px;"/>
            </g>
            <g transform="matrix(0.892668,0.450715,0.450715,-0.892668,679.225,568.196)">
                <path d="M-0.208,-0.875L3.672,-0.874" style="fill:none;fill-rule:nonzero;stroke:rgb(230,230,230);stroke-width:3px;"/>
            </g>
            <g transform="matrix(1,0,0,1,1161.79,454.519)">
                <path d="M0,182.637L109.255,114.543C129.22,102.099 153.735,99.331 175.973,107.01L224.984,123.933C246.459,131.347 270.068,129.331 289.976,118.383C576.128,-40.521 471.757,-14.079 760.593,120.212L760.593,171.477L95.329,221.947L38.646,223.158L-1.196,183.082" style="fill:rgb(211,211,211);fill-rule:nonzero;"/>
            </g>
            <g transform="matrix(1,0,0,1,1581.17,491.131)">
                <path d="M0,72.284C18.115,58.498 90.299,70.683 114.924,47.29C131.422,31.617 76.009,13.225 92.383,2.474C111.41,-10.019 130.706,1.079 148.819,-12.706C121.996,-27.983 96.572,-34.647 69.331,-25.702C55.396,-22.555 -61.012,43.949 -136.893,85.396L-106.329,106.931L0,72.284Z" style="fill:rgb(193,193,193);fill-rule:nonzero;"/>
            </g>
            <g transform="matrix(1,0,0,1,1189.54,552.642)">
                <path d="M0,104.867C18.238,102.369 41.863,100.723 42.661,91.571C43.605,80.725 22.182,87.328 23.959,76.588C25.734,65.854 107.943,65.693 107.943,53.508C107.943,38.115 90.032,44.372 91.217,31.752C92.228,20.981 138.075,14.37 164.104,14.37C137.109,2.805 107.327,0 81.505,16.422C81.505,16.42 -28.946,84.959 -28.946,84.959L0,104.867" style="fill:rgb(193,193,193);fill-rule:nonzero;"/>
            </g>
            <g transform="matrix(-0.871428,0.490523,0.490523,0.871428,1504.33,592.571)">
                <path d="M-156.51,-41.023L10.753,-41.023" style="fill:none;fill-rule:nonzero;stroke:rgb(230,230,230);stroke-width:3px;"/>
            </g>
            <g transform="matrix(-0.844679,0.535273,0.535273,0.844679,1197.31,643.65)">
                <path d="M-78.168,-22.682L6.582,-22.682" style="fill:none;fill-rule:nonzero;stroke:rgb(230,230,230);stroke-width:3px;"/>
            </g>
        </g>
    </g>
</svg>
