<?xml version="1.0" encoding="UTF-8" standalone="no"?>
<!DOCTYPE svg PUBLIC "-//W3C//DTD SVG 1.1//EN" "http://www.w3.org/Graphics/SVG/1.1/DTD/svg11.dtd">
<svg width="100%" height="100%" viewBox="0 0 1923 1115" version="1.1" xmlns="http://www.w3.org/2000/svg" xmlns:xlink="http://www.w3.org/1999/xlink" xml:space="preserve" xmlns:serif="http://www.serif.com/" style="fill-rule:evenodd;clip-rule:evenodd;stroke-linecap:round;stroke-linejoin:round;stroke-miterlimit:10;">
    <g id="Layer-1" serif:id="Layer 1">
        <g id="Clouds">
            <g transform="matrix(1,0,0,1,1923.31,571.813)">
                <path d="M0,-189.788C-7.822,-189.788 -15.529,-188.32 -22.729,-185.494C-45.609,-224.797 -104.471,-233.511 -137.862,-202.31C-197.145,-244.811 -289.047,-212.368 -308.51,-141.972C-341.18,-158.877 -390.184,-148.006 -409.35,-113.756C-452.736,-144.379 -519.206,-120.533 -533.298,-69.361C-566.534,-79.517 -603.162,-57.803 -610.792,-24.709C-624.557,-25.564 -637.671,-20.922 -646.174,-11.876C-660.503,-14.757 -675.808,-8.494 -684.031,3.032C-690.883,2.289 -697.699,3.439 -703.795,6.198C-718.383,3.104 -734.072,9.543 -742.314,21.426C-762.743,12.087 -787.507,28.285 -787.026,50.82C-775.729,50.737 -2.574,54.308 -2.574,54.308L0,-189.788Z" style="fill:rgb(0,113,188);fill-opacity:0.06;fill-rule:nonzero;"/>
            </g>
            <g transform="matrix(1,0,0,1,664.869,412.75)">
                <path d="M0,14.069C-9.176,1.59 -26.672,10.942 -25.51,21.961L64.784,21.961C64.784,12.356 59.284,8.243 49.552,10.399C45.514,-1.836 32.545,-2.142 26.428,2.323C18.108,-7.892 -2.814,-5.751 -8.67,8.35C-5.57,8.97 -2.641,10.636 0,14.069" style="fill:rgb(0,113,188);fill-opacity:0.06;fill-rule:nonzero;"/>
            </g>
            <g transform="matrix(1,0,0,1,414.211,233.082)">
                <path d="M0,24.396C-15.91,2.758 -46.246,18.973 -44.23,38.079L112.327,38.079C112.327,21.426 102.79,14.294 85.916,18.032C78.915,-3.182 56.429,-3.712 45.822,4.031C31.396,-13.683 -4.879,-9.97 -15.032,14.48C-9.657,15.555 -4.579,18.444 0,24.396" style="fill:rgb(0,113,188);fill-opacity:0.06;fill-rule:nonzero;"/>
            </g>
            <g transform="matrix(1,0,0,1,1702.48,246.665)">
                <path d="M0,15.694C-10.235,1.775 -29.75,12.205 -28.454,24.496L72.259,24.496C72.259,13.783 66.124,9.195 55.269,11.6C50.766,-2.047 36.3,-2.388 29.477,2.593C20.196,-8.802 -3.139,-6.413 -9.671,9.315C-6.213,10.006 -2.945,11.865 0,15.694" style="fill:rgb(0,113,188);fill-opacity:0.06;fill-rule:nonzero;"/>
            </g>
            <g transform="matrix(1,0,0,1,1488.68,280.146)">
                <path d="M0,7.539C-4.274,-11.814 -35.09,-15.971 -47.197,2.281C-44.593,3.679 -42.758,5.783 -41.541,8.456C-47.37,-3.691 -66.73,-2.612 -72.285,11.889C-70.884,12.84 -69.656,14.105 -68.587,15.661C-78.924,2.06 -97.188,9.436 -96.8,23.51L25.221,23.51C25.221,14.65 16.282,7.5 7.423,13.951C8.598,13.143 9.81,12.504 11.058,12.032C10.435,4.124 4.736,1.195 -1.921,2.401C-1.052,4.032 -0.417,5.746 0,7.539" style="fill:rgb(0,113,188);fill-opacity:0.06;fill-rule:nonzero;"/>
            </g>
            <g transform="matrix(1,0,0,1,217.942,293.298)">
                <path d="M0,4.889C-2.772,-7.661 -22.755,-10.357 -30.607,1.479C-28.918,2.386 -27.728,3.75 -26.938,5.483C-30.719,-2.394 -43.273,-1.694 -46.876,7.709C-45.967,8.327 -45.171,9.147 -44.478,10.156C-51.181,1.336 -63.025,6.119 -62.773,15.246L16.354,15.246C16.354,9.5 10.559,4.864 4.813,9.047C5.576,8.523 6.361,8.109 7.17,7.802C6.766,2.674 3.071,0.775 -1.246,1.557C-0.683,2.615 -0.271,3.726 0,4.889" style="fill:rgb(0,113,188);fill-opacity:0.06;fill-rule:nonzero;"/>
            </g>
            <g transform="matrix(1,0,0,1,1334.59,449.928)">
                <path d="M0,6.559C-3.719,-10.278 -30.529,-13.896 -41.063,1.985C-38.797,3.201 -37.2,5.032 -36.142,7.357C-41.213,-3.212 -58.057,-2.273 -62.891,10.343C-61.671,11.171 -60.603,12.272 -59.673,13.625C-68.666,1.792 -84.556,8.21 -84.218,20.455L21.942,20.455C21.942,12.746 14.167,6.525 6.458,12.138C7.48,11.435 8.535,10.879 9.621,10.468C9.078,3.588 4.121,1.04 -1.671,2.089C-0.915,3.508 -0.362,4.999 0,6.559" style="fill:rgb(0,113,188);fill-opacity:0.06;fill-rule:nonzero;"/>
            </g>
            <g transform="matrix(1,0,0,1,1011.74,383.544)">
                <path d="M0,296.524L910.639,296.647L910.639,56.319C877.22,52.573 842.033,69.743 826.094,98.278L828.529,113.81C829.677,74.08 782.424,47.954 749.376,69.198L755.094,96.12C756.772,36.783 677.565,6.831 639.484,52.298L654.936,67.407C603.877,-0.123 484.716,31.32 474.281,115.716L477.147,118.499C445.039,85.352 376.872,103.622 368.566,150.732L369.836,142.474C329.995,103.927 256.07,130.51 250.243,185.715C218.233,167.676 175.129,191.722 173.867,228.449L178.253,230.222C162.739,222.529 140.919,227.421 132.773,242.708L134.925,241.546C119.674,233.909 99.718,243.49 95.97,259.771L106.274,260.821C93.502,249.515 71.752,253.639 63.94,268.408L76.925,259.546C61.674,251.909 41.718,261.49 37.97,277.771L40.398,281.128C30.188,262.131 -1.406,270.275 -0.64,292.275" style="fill:white;fill-rule:nonzero;"/>
            </g>
            <g transform="matrix(1,0,0,1,-0.0001,589.974)">
                <path d="M0,-178.277C18.111,-180.42 37.037,-176.038 51.931,-166.613C85.969,-234.235 190.136,-243.395 235.161,-181.262C274.337,-191.797 318.559,-171.824 336.541,-135.502C368.493,-142.87 402.414,-125.123 415.348,-96.612C427.402,-99.38 440.756,-98.207 452.002,-93.538C492.795,-152.871 593.931,-136.019 613.944,-67.729C648.437,-74.048 682.615,-50.804 690.306,-17.798C711.661,-15.867 729.463,-1.429 736.305,18.115C756.976,20.541 774.4,36.027 778.847,56.714L739.739,65.118C738.646,59.529 732.139,56.186 726.946,58.531L720.355,43.216L698.912,39.387C701.905,28.472 690.109,18.354 679.826,23.147L674.194,10.363L651.293,5.452C658.402,-17.957 629.964,-38.364 610.16,-24.003L604.151,-32.753L588.594,1.043C573.25,-75.052 577.413,-52.868 501.266,-44.288C483.257,-44.29 491.819,-81.537 482.19,-66.933C483.308,-64.953 484.325,-62.897 485.231,-60.771L450.119,-41.944C443.567,-53.784 435.912,-61.367 421.445,-56.83C421.017,-53.706 420.381,-50.616 419.539,-47.582L380.401,-55.243C386.732,-78.289 371.284,-100.144 346.366,-96.668C346.38,-96.013 346.388,-95.36 346.388,-94.707C343.661,-94.567 337.448,-94.697 335.365,-92.511L334.397,-94.067L306.501,-92.577C307.92,-128.905 269.13,-155.586 235.811,-139.145L245.289,-121.472L228.417,-94.71L204.109,-90.716C194.54,-111.951 207.666,-92.322 166.34,-95.434C135.393,-97.765 90.186,-163.176 81.382,-134.023C82.207,-132.351 82.979,-130.643 83.696,-128.899L47.473,-112.031C38.365,-140.408 20.183,-107.315 0,-105.393" style="fill:rgb(0,113,188);fill-opacity:0.06;fill-rule:nonzero;"/>
            </g>
            <g transform="matrix(1,0,0,1,922.513,387.603)">
                <path d="M0,289.876C-3.241,272.462 -23.844,261.605 -40.253,269.119L-40.628,271.483C-34.686,245.347 -63.405,222.441 -87.53,233.804L-88.348,238.131C-77.257,197.674 -126.942,163.896 -160.454,188.47L-160.534,195.53C-154.667,114.339 -271.599,89.091 -300.51,163.78L-292.46,176.031C-301.741,151.294 -337.506,142.548 -357.229,160.616L-359.026,176.032C-345.651,133.072 -397.294,94.745 -434.489,119.464L-432.905,134.252C-431.405,84.847 -487.964,49.157 -532.147,71.79L-527.197,82.306C-557.118,0 -684.443,11.209 -699.218,97.867L-694.096,107.661C-706.897,72.364 -756.769,58.234 -786.351,82.273L-782.939,89.128C-805.957,26.481 -902.063,28.96 -921.781,92.756C-921.781,92.753 -921.779,255.644 -921.779,255.644" style="fill:rgb(0,113,188);fill-opacity:0.06;fill-rule:nonzero;"/>
            </g>
            <g transform="matrix(1,0,0,1,922.513,385.942)">
                <path d="M0,289.877C-3.241,272.462 -23.844,261.606 -40.253,269.12L-40.628,271.483C-34.686,245.348 -63.405,222.442 -87.53,233.805L-88.348,238.131C-77.257,197.675 -126.942,163.897 -160.454,188.471L-160.534,195.531C-154.667,114.34 -271.599,89.091 -300.51,163.781L-292.46,176.032C-301.741,151.294 -337.506,142.548 -357.229,160.616L-359.026,176.032C-345.651,133.072 -397.294,94.746 -434.489,119.465L-432.905,134.253C-431.405,84.848 -487.964,49.158 -532.147,71.79L-527.197,82.306C-557.118,0 -684.443,11.21 -699.218,97.867L-694.096,107.662C-706.897,72.365 -756.769,58.235 -786.351,82.273L-782.939,89.129C-806.286,25.856 -902.588,29.557 -922.512,93.416C-922.513,93.412 -922.513,255.695 -922.513,255.695" style="fill:white;fill-rule:nonzero;"/>
            </g>
            <g transform="matrix(1,0,0,1,918.923,409.437)">
                <path d="M0,289.876C-3.241,272.461 -23.845,261.605 -40.253,269.119L-40.629,271.483C-34.687,245.347 -63.405,222.441 -87.53,233.804L-88.349,238.13C-77.257,197.674 -126.943,163.896 -160.454,188.47L-160.534,195.53C-154.667,114.339 -271.599,89.09 -300.511,163.78L-292.46,176.031C-301.741,151.293 -337.506,142.548 -357.229,160.615L-359.026,176.031C-345.651,133.072 -397.294,94.745 -434.489,119.464L-432.905,134.252C-431.406,84.847 -487.964,49.157 -532.148,71.789L-527.197,82.305C-557.119,0 -684.443,11.209 -699.218,97.866L-694.097,107.661C-706.897,72.364 -756.769,58.234 -786.351,82.272L-782.94,89.128C-805.995,27.367 -899.75,27.801 -918.184,93.288C-918.185,93.284 -918.185,256.542 -918.185,256.542" style="fill:rgb(245,245,247);fill-rule:nonzero;"/>
            </g>
            <g transform="matrix(1,0,0,1,516.485,245.462)">
                <path d="M0,5.925C9.197,-8.476 37.379,-9.066 43.947,10.259C38.612,11.195 34.271,13.623 30.826,17.401C43.427,3.45 69.978,9.3 69.978,32.476L-123.755,32.476C-124.342,17.046 -107.33,6.825 -92.929,15.825L-100.648,12.789C-97.458,-11.513 -63.284,-25.689 -46.24,-5.269L-48.267,-7.46C-32.535,-26.551 -1.646,-24.634 5.136,0.508C3.139,1.849 1.445,3.685 0,5.925" style="fill:white;fill-rule:nonzero;"/>
            </g>
            <g transform="matrix(1,0,0,1,259.546,293.751)">
                <path d="M0,13.645C10.556,3.261 30.294,11.242 29.607,26.089L-98.606,26.089C-98.699,15.521 -86.42,8.582 -76.036,17.936C-77.877,16.246 -79.829,15.038 -81.898,14.34C-75.75,-0.424 -48.659,-3.883 -39.713,14.01C-41.427,10.858 -43.235,8.515 -45.15,7.095C-35.658,-12.444 -1.609,-10.062 3.719,10.902C2.633,11.507 1.387,12.443 0,13.645" style="fill:white;fill-rule:nonzero;"/>
            </g>
            <g transform="matrix(1,0,0,1,698.462,415.536)">
                <path d="M0,18.856C4.565,11.71 17.863,15.283 17.863,25.703L-82.317,25.703C-83.954,13.596 -71.947,5.359 -61.328,13.273L-63.415,11.931C-56.763,-6.351 -26.695,-6.847 -18.855,11.81L-19.86,9.735C-12.88,3.39 0.372,6.277 1.686,16.971L0,18.856Z" style="fill:white;fill-rule:nonzero;"/>
            </g>
            <g transform="matrix(1,0,0,1,1520.54,283.981)">
                <path d="M0,9.627C-5.458,-15.083 -44.806,-20.393 -60.265,2.914C-56.939,4.699 -54.596,7.385 -53.042,10.797C-60.484,-4.713 -85.205,-3.334 -92.299,15.181C-90.51,16.396 -88.941,18.011 -87.576,19.997C-100.775,2.631 -124.096,12.05 -123.6,30.02L32.203,30.02C32.203,18.707 20.79,9.577 9.478,17.814C10.979,16.784 12.525,15.967 14.119,15.364C13.323,5.267 6.048,1.527 -2.452,3.066C-1.344,5.149 -0.532,7.338 0,9.627" style="fill:white;fill-rule:nonzero;"/>
            </g>
            <g transform="matrix(1,0,0,1,1725.05,244.477)">
                <path d="M0,22.824C-14.885,2.58 -43.267,17.75 -41.382,35.626L105.093,35.626C105.093,20.045 96.17,13.372 80.383,16.87C73.833,-2.978 52.795,-3.474 42.871,3.77C29.375,-12.802 -4.564,-9.329 -14.063,13.547C-9.035,14.552 -4.283,17.255 0,22.824" style="fill:white;fill-rule:nonzero;"/>
            </g>
            <g transform="matrix(1,0,0,1,196.627,298.778)">
                <path d="M0,0L4.936,0" style="fill:none;fill-rule:nonzero;stroke:rgb(242,242,242);stroke-width:3px;"/>
            </g>
        </g>
    </g>
</svg>
