<svg width="1855" height="1121" viewBox="0 0 1855 1121" fill="none" xmlns="http://www.w3.org/2000/svg">
<g clip-path="url(#clip0_6_5843)">
<g clip-path="url(#clip1_6_5843)">
<g style="mix-blend-mode:screen">
<ellipse cx="927" cy="161" rx="790.853" ry="790" fill="url(#paint0_radial_6_5843)" fill-opacity="0.02"/>
</g>
<g style="mix-blend-mode:screen">
<ellipse cx="926.999" cy="161" rx="452.488" ry="452" fill="url(#paint1_radial_6_5843)" fill-opacity="0.04"/>
</g>
<g style="mix-blend-mode:screen">
<ellipse cx="926.999" cy="161" rx="307.331" ry="307" fill="url(#paint2_radial_6_5843)" fill-opacity="0.2"/>
</g>
<g style="mix-blend-mode:screen">
<ellipse cx="926.999" cy="161" rx="83.0896" ry="83" fill="url(#paint3_radial_6_5843)" fill-opacity="0.04"/>
</g>
<path d="M931.332 210.971C904.592 213.076 881.207 193.129 879.1 166.417C876.994 139.706 896.962 116.346 923.702 114.242C950.442 112.137 973.828 132.085 975.934 158.796C978.041 185.508 958.072 208.867 931.332 210.971Z" fill="#C2C2C2"/>
<path d="M975.934 158.79C974.842 144.941 968.028 132.911 957.993 124.83C958.535 125.384 959.077 125.939 959.622 126.492C960.151 127.028 960.676 127.572 961.151 128.158C961.59 128.699 961.921 129.302 962.33 129.858C962.762 130.445 963.496 131.512 963.014 132.247C962.891 132.436 962.648 132.613 962.41 132.547C962.23 132.496 961.786 132.083 961.619 132.201C961.101 132.567 961.213 133.4 961.456 133.882C961.716 134.396 962.079 134.846 962.475 135.261C963.155 135.971 963.972 136.575 964.59 137.341C964.628 137.389 964.638 137.456 964.59 137.502C963.184 138.843 960.806 138.99 959.075 138.24C958.187 137.854 957.714 137.316 957.259 136.481C956.974 135.956 956.598 135.032 955.985 134.754C956.079 136.027 956.405 137.303 956.959 138.455C957.512 139.602 958.256 141.537 959.386 142.198C960.573 142.894 961.397 142.684 962.689 142.426C963.29 142.305 963.781 141.867 964.357 141.677C963.637 142.919 963.947 144.896 964.206 146.407C964.423 147.67 965.269 151.904 966.825 153.117C967.174 153.39 967.437 153.257 967.612 153.036C967.348 153.619 966.959 154.192 966.401 154.886C965.662 155.804 964.988 156.838 964.592 157.954C964.395 158.509 964.263 159.091 964.223 159.679C964.206 159.929 964.452 161.291 964.346 161.409C965.506 160.118 966.008 158.341 966.892 156.873C967.731 155.478 969.042 154.139 970.807 154.206C974.061 154.328 974.774 159.053 973.64 161.401C973.613 161.458 973.535 161.47 973.485 161.442C972.001 160.605 970.524 161.951 969.713 163.109C968.813 164.394 968.059 166.069 968.127 167.672C968.153 168.297 968.324 169.031 968.915 169.365C969.795 169.862 970.328 169.122 971.057 168.753C971.582 168.487 972.007 168.781 972.134 169.35C972.253 169.886 971.78 170.642 971.544 171.089C971.17 171.799 970.81 172.517 970.046 172.847C969.545 173.063 969.088 172.943 968.621 172.823C968.335 172.749 968.044 172.675 967.737 172.679C966.238 172.698 965.299 173.949 964.27 174.871C963.806 175.287 963.319 175.751 962.804 176.181C961.586 177.82 960.425 179.508 959.74 181.43C959.454 182.232 959.254 182.991 959.171 183.841C959.124 184.329 959.056 184.814 958.851 185.267C958.343 186.392 957.323 187.159 956.823 188.268C957.715 188.205 959.129 188.253 959.063 189.362C958.987 190.629 957.759 191.786 956.903 192.6C955.672 193.771 954.294 194.917 952.783 195.71C952.342 195.941 951.83 196.221 951.313 196.181C950.203 196.095 948.758 195.173 947.67 195.534C946.743 195.842 946.212 196.689 946.511 197.594C946.604 197.878 946.665 198.133 946.64 198.432C946.569 199.291 945.544 199.918 944.915 200.347C942.533 201.973 939.638 202.806 936.822 203.298C933.954 203.8 930.831 204.294 927.925 203.939C926.931 203.817 925.53 203.7 924.777 202.95C924.099 202.275 923.591 201.541 922.517 201.494C922.038 201.473 921.563 201.491 921.085 201.506C921.734 202.749 920.929 203.595 919.47 203.8C917.854 204.027 915.573 203.702 914.419 202.411C913.972 201.91 913.94 201.448 914.234 200.851C914.867 199.565 914.571 198.358 913.507 197.375C911.936 195.923 909.888 194.984 907.826 194.276C907.533 194.229 907.241 194.158 906.965 194.096C905.747 193.82 904.598 193.91 903.367 194.062C902.723 194.141 902.072 194.192 901.428 194.086C900.948 194.007 900.769 193.616 900.447 193.296C899.575 192.431 898.679 194.346 897.999 194.652C897.71 194.782 897.203 194.337 897.01 194.187C896.529 193.814 896.048 193.444 895.565 193.073C894.581 192.316 893.467 191.391 893.029 190.185C892.821 189.614 892.368 188.661 893.028 188.23C893.773 187.744 894.048 186.98 894.112 186.126C894.239 184.428 893.792 182.695 893.21 181.113C892.552 179.324 891.667 177.587 890.52 176.06C889.66 174.913 888.494 173.546 887.028 173.203C885.485 172.842 884.495 174.084 883.922 175.352C883.886 175.433 883.765 175.42 883.725 175.352C882.303 172.942 881.391 169.55 882.663 166.897C882.697 166.824 882.825 166.821 882.859 166.897C883.086 167.405 883.663 167.599 883.997 168.013C885.378 167.08 885.508 164.877 885.241 163.398C884.973 161.907 884.079 160.012 882.279 160.372C882.387 161.158 882.255 161.951 881.797 162.614C881.753 162.677 881.676 162.687 881.618 162.637C880.626 161.786 880.272 160.451 880.18 159.194C880.056 157.507 880.296 155.799 880.642 154.15C881.572 149.727 883.211 145.343 885.223 141.3C886.773 138.186 888.506 135.093 890.42 132.187C891.256 130.918 892.194 129.681 893.066 128.407C883.444 138.089 877.943 151.744 879.1 166.411C881.207 193.123 904.592 213.07 931.331 210.965C958.072 208.861 978.041 185.502 975.934 158.79Z" fill="#A3A3A3"/>
<path d="M891.387 188.383C890.954 188.383 890.498 188.269 890.086 188.077C891.424 187.781 892.385 188.09 891.702 185.278C891.581 184.782 891.121 184.54 890.668 184.336C889.547 183.83 889.004 183.15 888.441 182.084C887.983 181.215 887.628 180.275 887.315 179.345C887.023 178.481 887.106 177.727 887.156 176.855C887.203 176.038 886.639 175.573 885.93 175.573C885.814 175.573 885.693 175.586 885.571 175.611C885.101 175.709 884.7 176.056 884.36 176.484C884.494 175.907 884.691 175.345 884.955 174.816C885.124 174.478 885.325 174.238 885.55 174.08C885.282 174.365 885.1 174.8 884.893 175.239C884.884 175.258 884.898 175.272 884.914 175.272C884.922 175.272 884.931 175.268 884.937 175.259C884.998 175.175 885.052 175.087 885.1 174.995C885.295 174.434 885.723 174.198 886.2 174.198C886.486 174.198 886.789 174.282 887.071 174.432C887.637 174.73 888.128 175.178 888.572 175.629C889.41 176.481 890.028 177.535 890.562 178.594C891.246 179.948 891.874 181.456 892.325 182.992C892.297 183.008 892.265 183.015 892.231 183.015C891.612 183.016 890.072 180.59 889.908 180.33C889.465 179.625 889.014 178.925 888.669 178.166C888.474 177.736 888.425 177.235 888.18 176.835L888.145 176.86C888.284 177.18 888.282 177.594 888.365 177.93C888.513 178.53 888.705 179.084 888.964 179.645C889.379 180.542 889.863 181.422 890.441 182.223C890.693 182.572 891.614 183.582 892.194 183.582C892.296 183.582 892.387 183.551 892.462 183.479C892.703 184.38 892.88 185.285 892.965 186.169C892.97 186.228 893.008 186.253 893.051 186.253C893.111 186.253 893.179 186.205 893.183 186.137C893.216 185.491 893.185 184.829 893.101 184.162C893.21 184.881 893.263 185.604 893.239 186.327C893.189 187.83 892.341 188.383 891.387 188.383ZM892.149 180.476C891.639 179.14 890.983 177.871 890.269 176.763C889.527 175.612 888.5 174.599 887.251 174.021C887.452 174.1 887.655 174.202 887.858 174.32C889.776 175.433 891.224 177.854 891.93 179.845C892.004 180.054 892.077 180.264 892.149 180.476Z" fill="#898989"/>
<path d="M879.582 154.782C879.632 154.429 879.693 154.059 879.773 153.661C879.703 154.033 879.643 154.407 879.582 154.782Z" fill="#898989"/>
<path d="M879.081 166.189C879.081 166.188 879.08 166.186 879.08 166.184C879.08 166.185 879.08 166.185 879.08 166.185V166.185C879.08 166.186 879.08 166.186 879.08 166.186C879.08 166.186 879.08 166.186 879.08 166.186C879.08 166.186 879.08 166.186 879.08 166.186C879.08 166.186 879.08 166.186 879.08 166.187C879.08 166.187 879.08 166.187 879.08 166.187C879.08 166.187 879.08 166.187 879.08 166.187C879.08 166.187 879.081 166.187 879.081 166.187C879.081 166.187 879.081 166.188 879.081 166.188C879.081 166.188 879.081 166.188 879.081 166.188C879.081 166.188 879.081 166.188 879.081 166.188C879.081 166.188 879.081 166.188 879.081 166.188C879.081 166.189 879.081 166.189 879.081 166.189C879.081 166.189 879.081 166.189 879.081 166.189V166.189ZM879.08 166.184C879.08 166.184 879.08 166.184 879.08 166.184C879.08 166.184 879.08 166.184 879.08 166.184ZM879.08 166.183C879.08 166.183 879.08 166.183 879.08 166.183C879.08 166.183 879.08 166.183 879.08 166.183Z" fill="#683108"/>
<path d="M927.471 211.121H927.471H927.471ZM879.107 166.414C879.107 166.407 879.106 166.401 879.106 166.394V166.394C879.106 166.401 879.107 166.407 879.107 166.414ZM879.105 166.384C879.105 166.38 879.104 166.377 879.104 166.374C879.104 166.377 879.105 166.38 879.105 166.384ZM879.103 166.362C879.103 166.361 879.103 166.355 879.102 166.353C879.103 166.357 879.103 166.359 879.103 166.362ZM879.102 166.341C879.101 166.339 879.101 166.335 879.101 166.334C879.101 166.336 879.101 166.338 879.102 166.341ZM879.1 166.32C879.1 166.317 879.1 166.317 879.099 166.313C879.1 166.315 879.1 166.318 879.1 166.32ZM879.098 166.299C879.098 166.296 879.098 166.297 879.098 166.294C879.098 166.296 879.098 166.298 879.098 166.299ZM879.097 166.279C879.097 166.277 879.097 166.276 879.096 166.275C879.097 166.276 879.097 166.277 879.097 166.279ZM879.095 166.258V166.257V166.258Z" fill="#E3A957"/>
<path d="M883.396 166.816C882.724 166.816 882.498 165.937 882.443 165.21C882.462 165.213 882.482 165.214 882.502 165.214C882.607 165.214 882.72 165.182 882.841 165.11C883.359 164.8 883.422 163.889 883.406 163.364C883.383 162.572 883.321 161.461 882.73 160.902C882.756 160.897 882.783 160.892 882.809 160.887C882.834 160.883 882.84 160.839 882.81 160.838C883.709 160.861 883.784 162.004 884.027 162.814C884.368 163.958 884.377 164.892 884.092 166.04C884.063 166.154 884.149 166.221 884.241 166.221C884.286 166.221 884.333 166.205 884.368 166.171C884.386 166.154 884.403 166.137 884.42 166.12C884.269 166.42 884.038 166.657 883.687 166.768C883.582 166.801 883.485 166.816 883.396 166.816ZM882.676 160.855C882.644 160.827 882.61 160.802 882.575 160.778C882.632 160.758 882.688 160.743 882.743 160.732C882.72 160.768 882.698 160.809 882.676 160.855Z" fill="#898989"/>
<path d="M962.912 151.609C962.881 151.609 962.867 151.561 962.896 151.538C963.078 151.39 963.193 151.196 963.381 151.052C963.526 150.941 963.689 150.818 963.851 150.735C964.129 150.591 964.466 150.42 964.793 150.42C964.873 150.42 964.952 150.43 965.03 150.454C965.132 150.484 965.103 150.633 965.023 150.673C964.644 150.859 964.209 150.887 963.819 151.063C963.596 151.164 963.378 151.248 963.193 151.414C963.108 151.489 963.03 151.548 962.932 151.603C962.925 151.607 962.918 151.609 962.912 151.609Z" fill="#929292"/>
<path d="M962.947 148.875C962.945 148.875 962.943 148.875 962.94 148.874C962.937 148.873 962.94 148.869 962.942 148.869C962.942 148.869 962.942 148.869 962.942 148.869C962.944 148.869 962.945 148.869 962.946 148.869C962.958 148.869 962.97 148.861 962.981 148.858C962.982 148.858 962.982 148.858 962.982 148.858C962.986 148.858 962.985 148.864 962.982 148.865C962.971 148.869 962.959 148.875 962.947 148.875Z" fill="#929292"/>
<path d="M964.311 158.965C964.317 158.465 964.284 157.987 964.447 157.466C964.672 156.747 964.965 156.059 965.332 155.4C965.702 154.734 966.302 153.983 967.024 153.564C966.026 152.82 964.892 150.023 964.778 149.639C964.347 148.186 964.052 146.691 963.916 145.182C963.83 144.233 963.705 143.049 964 142.085C963.063 142.437 962.1 142.701 961.161 142.701C960.235 142.701 959.332 142.445 958.5 141.764L958.522 141.732C958.773 141.913 959.029 142.05 959.289 142.148C959.319 142.168 959.35 142.187 959.38 142.205C959.98 142.556 960.486 142.676 961.007 142.676C961.518 142.676 962.043 142.56 962.683 142.432C963.285 142.311 963.775 141.873 964.351 141.683C963.631 142.925 963.941 144.903 964.2 146.413C964.417 147.677 965.263 151.91 966.819 153.123C966.878 153.169 966.934 153.204 966.988 153.228C967.017 153.261 967.048 153.293 967.078 153.324C967.08 153.304 967.081 153.282 967.082 153.262C967.121 153.272 967.159 153.276 967.196 153.276C967.364 153.276 967.501 153.175 967.606 153.043C967.342 153.625 966.954 154.199 966.395 154.892C965.656 155.81 964.982 156.844 964.586 157.96C964.47 158.287 964.376 158.623 964.311 158.965Z" fill="#929292"/>
<path d="M967.078 153.19C966.845 153.004 966.646 152.789 966.481 152.544C966.47 152.53 966.459 152.515 966.448 152.5C966.235 152.166 966.056 151.813 965.881 151.465C965.408 150.525 965.095 149.524 964.83 148.519C964.522 147.355 964.384 146.15 964.285 144.955C964.274 144.823 964.261 144.681 964.249 144.532C964.195 143.832 964.162 143.002 964.353 142.332C965.824 143.713 966.118 146.22 966.492 148.085C966.816 149.698 967.171 151.478 967.091 153.187C967.087 153.188 967.082 153.189 967.078 153.19Z" fill="#909090"/>
<path d="M901.056 133.098C899.291 133.193 897.568 134.199 896.089 135.085C895.287 135.565 894.51 136.081 893.741 136.608C894.267 136.417 894.82 136.331 895.395 136.4C895.964 136.468 897.012 136.665 896.939 137.436C896.908 137.752 896.609 137.793 896.346 137.755C895.963 137.701 895.762 137.657 895.417 137.891C895.38 137.917 895.347 137.943 895.311 137.969C895.319 138.011 895.307 138.057 895.263 138.087C895.09 138.208 894.921 138.337 894.752 138.468C894.68 138.55 894.611 138.636 894.545 138.729C894.504 138.786 894.437 138.789 894.389 138.763C892.713 140.171 891.305 142.041 890.239 143.89C889.071 145.916 887.706 148.998 889.442 151.102C889.491 151.161 889.483 151.274 889.391 151.292C888.649 151.433 887.83 151.411 887.31 150.787C886.831 150.211 886.786 149.341 886.829 148.629C886.932 146.921 887.48 145.236 888.098 143.652C888.554 142.481 889.03 141.186 889.773 140.159C890.41 139.28 891.242 138.249 892.218 137.485C892.207 137.442 892.218 137.392 892.264 137.36C892.339 137.306 892.415 137.254 892.491 137.2C889.454 138.634 887.355 141.592 886.136 144.647C885.253 146.862 884.72 149.234 884.628 151.618C884.545 153.776 884.741 156.115 885.664 158.1C886.327 159.525 887.689 160.879 889.39 160.59C890.62 160.38 891.695 159.742 892.568 158.861C893.705 157.715 894.527 156.342 895.318 154.949C894.886 155.436 894.407 155.872 893.867 156.197C893.028 156.7 891.562 157.025 890.965 155.966C890.517 155.174 890.695 154.102 891.079 153.316C891.739 151.964 892.898 150.989 893.722 149.751C894.645 148.363 895.625 146.946 896.348 145.442C897.107 143.865 897.605 142.188 897.971 140.481C898.122 139.779 898.37 138.535 899.136 138.224C899.89 137.917 900.584 138.756 900.763 139.41C901.257 141.215 900.613 143.172 900.259 144.98C900.98 143.948 901.287 142.645 901.566 141.439C901.902 139.99 902.333 138.596 902.75 137.17C903.206 135.61 903.363 132.974 901.056 133.098Z" fill="#A3A3A3"/>
<path d="M890.186 151.037C889.486 150.03 889.483 148.637 889.674 147.446C889.922 145.891 890.613 144.408 891.447 143.085C892.47 141.463 893.97 139.736 895.688 138.825C896.274 138.514 896.906 138.337 897.557 138.236C897.633 138.761 897.622 139.314 897.561 139.808C897.361 141.421 896.634 143.016 895.849 144.419C894.519 146.8 892.749 149.721 890.186 151.037Z" fill="#909090"/>
<path d="M887.456 150.946C887.408 150.902 887.362 150.853 887.317 150.8C886.838 150.224 886.793 149.354 886.836 148.642C886.872 148.042 886.963 147.445 887.093 146.854C887.066 147.049 887.044 147.244 887.025 147.437C886.927 148.435 886.866 150.071 887.456 150.946Z" fill="#929292"/>
<path d="M894.198 153.636C894.187 153.636 894.177 153.635 894.166 153.633C893.65 153.549 893.543 152.893 893.38 152.484C893.191 152.01 892.902 151.536 892.722 151.061C892.746 151.034 892.768 151.007 892.791 150.979C892.835 150.986 892.889 151.002 892.916 151.037C893.113 151.295 893.308 151.551 893.474 151.83C893.774 152.333 894.074 152.84 894.361 153.348C894.434 153.476 894.34 153.636 894.198 153.636Z" fill="#929292"/>
<path d="M894.414 149.914C894.414 149.914 894.413 149.914 894.413 149.914C894.396 149.908 894.383 149.893 894.374 149.878C894.374 149.876 894.375 149.875 894.377 149.875C894.377 149.875 894.378 149.875 894.378 149.875C894.388 149.889 894.403 149.898 894.417 149.905C894.421 149.907 894.418 149.914 894.414 149.914Z" fill="#929292"/>
<path d="M899.643 140.105C899.24 140.105 898.826 140.013 898.445 139.927L898.456 139.886C898.616 139.901 898.776 139.906 898.935 139.906C899.072 139.906 899.209 139.902 899.346 139.899C899.482 139.895 899.619 139.892 899.756 139.892C899.859 139.892 899.961 139.894 900.065 139.899C900.163 139.905 900.142 140.051 900.06 140.067C899.923 140.093 899.784 140.105 899.643 140.105Z" fill="#929292"/>
<path d="M898.532 141.004C898.508 140.733 898.082 140.623 897.983 140.907C897.431 142.479 897.219 144.141 896.659 145.715C896.069 147.375 894.99 148.696 893.9 150.048C893.814 150.154 893.952 150.311 894.065 150.227C896.761 148.209 898.829 144.421 898.532 141.004Z" fill="#EAEAEA"/>
<path d="M935.728 196.169C937.432 196.635 939.385 196.223 941.068 195.849C941.981 195.646 942.881 195.402 943.777 195.143C943.218 195.159 942.666 195.066 942.142 194.82C941.623 194.576 940.691 194.059 941.004 193.35C941.133 193.06 941.43 193.116 941.667 193.234C942.014 193.407 942.19 193.511 942.591 193.398C942.635 193.385 942.675 193.37 942.717 193.357C942.723 193.315 942.749 193.276 942.8 193.26C943.002 193.2 943.203 193.131 943.405 193.06C943.499 193.005 943.592 192.945 943.684 192.878C943.74 192.836 943.805 192.855 943.843 192.894C945.878 192.086 947.804 190.755 949.4 189.336C951.148 187.783 953.416 185.287 952.434 182.744C952.405 182.672 952.448 182.567 952.541 182.58C953.291 182.679 954.06 182.959 954.357 183.715C954.63 184.412 954.398 185.252 954.132 185.914C953.495 187.502 952.443 188.929 951.357 190.238C950.554 191.205 949.693 192.284 948.663 193.024C947.782 193.657 946.667 194.374 945.5 194.791C945.496 194.836 945.47 194.879 945.416 194.895C945.328 194.922 945.239 194.949 945.15 194.976C948.485 194.572 951.411 192.426 953.532 189.911C955.07 188.087 956.325 186.005 957.164 183.771C957.924 181.749 958.477 179.468 958.228 177.293C958.05 175.732 957.184 174.018 955.478 173.757C954.245 173.568 953.023 173.835 951.917 174.396C950.476 175.125 949.263 176.17 948.072 177.241C948.635 176.916 949.228 176.652 949.843 176.515C950.798 176.302 952.291 176.455 952.524 177.648C952.698 178.541 952.191 179.502 951.579 180.127C950.525 181.203 949.118 181.762 947.945 182.677C946.631 183.703 945.254 184.74 944.092 185.939C942.874 187.196 941.872 188.631 940.986 190.135C940.621 190.754 939.993 191.856 939.168 191.91C938.356 191.964 937.962 190.949 937.998 190.273C938.1 188.403 939.328 186.749 940.235 185.145C939.225 185.897 938.523 187.038 937.877 188.094C937.101 189.363 936.251 190.551 935.405 191.772C934.48 193.109 933.499 195.56 935.728 196.169Z" fill="#A3A3A3"/>
<path d="M941.782 192.505C941.41 192.505 941.038 192.468 940.669 192.405C940.763 191.883 940.948 191.361 941.162 190.912C941.861 189.445 943.055 188.16 944.242 187.076C946.257 185.236 948.858 183.021 951.706 182.58C952.053 183.756 951.615 185.079 951.058 186.149C950.332 187.546 949.208 188.736 947.998 189.729C946.516 190.946 944.547 192.112 942.629 192.436C942.347 192.483 942.064 192.505 941.782 192.505Z" fill="#909090"/>
<path d="M953.323 187.536C953.41 187.359 953.493 187.181 953.572 187.004C953.979 186.088 954.554 184.554 954.27 183.538C954.302 183.596 954.331 183.657 954.356 183.721C954.629 184.418 954.397 185.258 954.132 185.92C953.908 186.478 953.633 187.016 953.323 187.536Z" fill="#929292"/>
<path d="M949.231 181.826C949.192 181.807 949.146 181.775 949.131 181.732C949.026 181.426 948.922 181.121 948.852 180.804C948.727 180.232 948.602 179.657 948.489 179.085C948.465 178.961 948.564 178.853 948.678 178.853C948.707 178.853 948.737 178.86 948.765 178.875C949.228 179.118 949.122 179.774 949.148 180.213C949.178 180.723 949.303 181.263 949.323 181.77C949.292 181.789 949.262 181.808 949.231 181.826Z" fill="#929292"/>
<path d="M946.774 181.434C946.774 181.434 946.773 181.434 946.773 181.433C946.768 181.418 946.757 181.405 946.746 181.394C946.744 181.391 946.747 181.387 946.751 181.387C946.752 181.387 946.752 181.387 946.753 181.388C946.767 181.398 946.774 181.415 946.777 181.432C946.777 181.433 946.776 181.434 946.774 181.434Z" fill="#929292"/>
<path d="M940.333 190.55C939.836 190.332 939.311 190.227 938.811 190.031C938.723 189.996 938.78 189.873 938.859 189.873C938.862 189.873 938.865 189.873 938.868 189.874C939.399 189.942 939.905 190.242 940.357 190.515L940.333 190.55Z" fill="#929292"/>
<path d="M940.617 189.474C940.554 189.739 940.924 189.977 941.108 189.739C942.127 188.421 942.854 186.911 943.882 185.594C944.966 184.204 946.407 183.291 947.869 182.352C947.984 182.278 947.902 182.086 947.769 182.13C944.573 183.195 941.414 186.139 940.617 189.474Z" fill="#EAEAEA"/>
<path d="M954.421 127.298C954.486 127.885 954.425 128.891 953.642 128.454C953.035 128.115 952.683 127.418 952.241 126.907C951.708 126.29 951.108 125.681 950.385 125.287C949.622 124.871 948.793 124.735 947.972 124.487C947.483 124.339 946.98 124.192 946.637 123.791C946.516 123.65 946.381 123.327 946.572 123.177C946.755 123.034 946.976 123.032 947.194 123.075C947.072 122.943 946.941 122.82 946.805 122.703C946.419 122.633 946.027 122.602 945.664 122.68C944.613 122.907 944.986 124.073 945.345 124.766C946.304 126.619 947.97 128.027 949.71 129.121C950.647 129.71 951.629 130.301 952.689 130.637C953.447 130.877 954.661 131.174 955.32 130.533C956.296 129.584 955.378 127.953 954.421 127.298Z" fill="#A3A3A3"/>
<path d="M946.735 123.081C946.735 123.081 946.735 123.081 946.735 123.08C946.733 123.079 946.732 123.078 946.731 123.078C946.732 123.077 946.733 123.077 946.735 123.076C946.735 123.077 946.736 123.078 946.736 123.079C946.736 123.079 946.736 123.081 946.735 123.081Z" fill="#929292"/>
<path d="M953.307 131.352C950.192 128.999 945.734 127.883 944.543 123.69C944.496 123.523 944.242 123.587 944.253 123.752C944.548 128.017 949.396 130.842 953.18 131.628C953.332 131.66 953.433 131.447 953.307 131.352Z" fill="#EAEAEA"/>
<path d="M920.912 120.053C920.992 120.082 921.07 120.117 921.154 120.157C921.188 120.173 921.212 120.218 921.21 120.255C921.15 121.325 919.127 121.565 918.36 121.613C917.757 121.65 916.121 121.58 916.586 120.649C916.363 120.631 916.15 120.663 915.944 120.728C915.461 121.079 914.974 121.427 914.575 121.872C913.963 122.559 913.697 123.602 914.722 124.061C915.961 124.615 917.731 124.411 919.017 124.088C919.913 123.863 920.818 123.613 921.663 123.23C922.476 122.861 923.436 122.353 923.806 121.487C924.553 119.74 922.072 119.372 920.912 120.053Z" fill="#A3A3A3"/>
<path d="M924.312 121.957C923.066 122.912 921.985 123.691 920.458 124.173C919.028 124.623 917.349 124.895 915.849 124.927C915.804 124.928 915.811 124.995 915.855 124.996C918.83 125.035 922.871 125.372 924.764 122.446C924.956 122.15 924.637 121.707 924.312 121.957Z" fill="#EAEAEA"/>
<path d="M899.717 180.675C899.776 180.087 900.046 179.116 900.72 179.707C901.243 180.165 901.441 180.92 901.766 181.513C902.158 182.228 902.617 182.948 903.242 183.485C903.901 184.05 904.683 184.357 905.434 184.771C905.881 185.019 906.342 185.267 906.594 185.73C906.683 185.894 906.747 186.238 906.528 186.344C906.32 186.446 906.103 186.402 905.899 186.314C905.991 186.469 906.093 186.618 906.201 186.76C906.565 186.91 906.941 187.021 907.313 187.021C908.388 187.019 908.267 185.801 908.062 185.047C907.511 183.035 906.178 181.31 904.705 179.877C903.913 179.105 903.076 178.321 902.109 177.771C901.419 177.378 900.293 176.834 899.515 177.323C898.362 178.048 898.918 179.834 899.717 180.675Z" fill="#A3A3A3"/>
<path d="M906.248 186.312C906.248 186.312 906.248 186.312 906.248 186.312C906.247 186.311 906.247 186.31 906.247 186.309C906.246 186.309 906.247 186.308 906.248 186.308C906.248 186.308 906.248 186.308 906.249 186.308C906.25 186.309 906.251 186.311 906.252 186.312C906.251 186.312 906.249 186.312 906.248 186.312Z" fill="#929292"/>
<path d="M901.651 176.944C904.204 179.896 908.33 181.919 908.616 186.268C908.627 186.442 908.889 186.432 908.913 186.268C909.518 182.036 905.369 178.26 901.834 176.7C901.691 176.637 901.547 176.824 901.651 176.944Z" fill="#EAEAEA"/>
<path d="M921.087 195.849C921.029 195.814 920.974 195.774 920.916 195.728C920.892 195.71 920.88 195.671 920.888 195.642C921.114 194.817 922.732 194.967 923.339 195.058C923.816 195.129 925.081 195.457 924.562 196.106C924.733 196.157 924.905 196.168 925.076 196.152C925.512 195.958 925.951 195.768 926.336 195.487C926.929 195.053 927.31 194.284 926.587 193.754C925.713 193.115 924.298 192.979 923.24 193.017C922.503 193.043 921.755 193.087 921.032 193.245C920.336 193.397 919.502 193.633 919.068 194.248C918.193 195.487 920.068 196.187 921.087 195.849Z" fill="#A3A3A3"/>
<path d="M918.74 193.793C919.873 193.255 920.846 192.827 922.118 192.707C923.31 192.594 924.665 192.661 925.841 192.887C925.877 192.894 925.883 192.84 925.848 192.832C923.533 192.305 920.436 191.368 918.469 193.336C918.271 193.535 918.445 193.934 918.74 193.793Z" fill="#EAEAEA"/>
<path d="M901.75 129.637C902.201 128.979 903.117 127.425 902.101 126.865C901.818 126.709 901.482 126.646 901.144 126.657C901.312 127.717 899.824 128.071 899.239 128.749C898.904 129.137 898.601 129.617 898.436 130.104C898.37 130.299 898.271 130.562 898.346 130.767C898.471 131.109 898.946 130.975 899.204 130.91C899.323 130.879 899.383 131.014 899.315 131.1C898.97 131.535 898.507 131.784 898.032 132.039C899.534 132.288 900.984 130.756 901.75 129.637Z" fill="#A3A3A3"/>
<path d="M903.514 127.132C902.874 128.659 902.509 130.207 901.06 131.216C900.947 131.294 901.046 131.502 901.174 131.436C902.647 130.68 903.878 128.881 903.931 127.206C903.939 126.982 903.595 126.94 903.514 127.132Z" fill="#EAEAEA"/>
<path d="M963.52 143.291C963.48 143.123 963.244 143.175 963.211 143.317C962.711 145.488 963.283 147.632 964.293 149.557C964.35 149.664 964.537 149.592 964.516 149.476C964.148 147.439 964.003 145.298 963.52 143.291Z" fill="#EAEAEA"/>
</g>
</g>
<defs>
<radialGradient id="paint0_radial_6_5843" cx="0" cy="0" r="1" gradientUnits="userSpaceOnUse" gradientTransform="translate(927 161) rotate(90) scale(790 790.853)">
<stop stop-color="white" stop-opacity="0.1"/>
<stop offset="1" stop-color="white"/>
</radialGradient>
<radialGradient id="paint1_radial_6_5843" cx="0" cy="0" r="1" gradientUnits="userSpaceOnUse" gradientTransform="translate(926.999 161) rotate(90) scale(452 452.488)">
<stop stop-color="white"/>
<stop offset="1" stop-color="white" stop-opacity="0.4"/>
</radialGradient>
<radialGradient id="paint2_radial_6_5843" cx="0" cy="0" r="1" gradientUnits="userSpaceOnUse" gradientTransform="translate(926.999 161) rotate(90) scale(307 307.331)">
<stop stop-color="white" stop-opacity="0.8"/>
<stop offset="1" stop-color="white" stop-opacity="0.1"/>
</radialGradient>
<radialGradient id="paint3_radial_6_5843" cx="0" cy="0" r="1" gradientUnits="userSpaceOnUse" gradientTransform="translate(926.999 161) rotate(90) scale(83 83.0896)">
<stop stop-color="white"/>
<stop offset="1" stop-color="white" stop-opacity="0.4"/>
</radialGradient>
<clipPath id="clip0_6_5843">
<rect width="1855" height="1121" fill="white"/>
</clipPath>
<clipPath id="clip1_6_5843">
<rect width="1855" height="1119" fill="white"/>
</clipPath>
</defs>
</svg>
