<svg width="1583" height="1580" viewBox="0 0 1583 1580" fill="none" xmlns="http://www.w3.org/2000/svg">
<g style="mix-blend-mode:screen">
<ellipse cx="791.853" cy="790" rx="790.853" ry="790" fill="url(#paint0_radial_6_5910)" fill-opacity="0.02"/>
</g>
<g style="mix-blend-mode:screen">
<ellipse cx="791.853" cy="790" rx="452.488" ry="452" fill="url(#paint1_radial_6_5910)" fill-opacity="0.04"/>
</g>
<g style="mix-blend-mode:screen">
<ellipse cx="791.853" cy="790" rx="307.331" ry="307" fill="url(#paint2_radial_6_5910)" fill-opacity="0.2"/>
</g>
<g style="mix-blend-mode:screen">
<ellipse cx="791.852" cy="790" rx="83.0896" ry="83" fill="url(#paint3_radial_6_5910)" fill-opacity="0.04"/>
</g>
<g clip-path="url(#clip0_6_5910)">
<path d="M796.185 839.971C769.445 842.076 746.06 822.129 743.953 795.417C741.847 768.706 761.815 745.347 788.555 743.242C815.296 741.138 838.681 761.085 840.787 787.796C842.894 814.508 822.925 837.867 796.185 839.971Z" fill="#C2C2C2"/>
<path d="M840.787 787.79C839.695 773.941 832.881 761.911 822.847 753.83C823.388 754.384 823.931 754.939 824.475 755.492C825.004 756.028 825.53 756.572 826.005 757.158C826.443 757.699 826.775 758.302 827.184 758.858C827.615 759.445 828.349 760.512 827.867 761.247C827.744 761.436 827.502 761.613 827.263 761.547C827.084 761.496 826.639 761.083 826.472 761.201C825.954 761.567 826.066 762.4 826.309 762.882C826.569 763.396 826.932 763.846 827.329 764.261C828.009 764.971 828.825 765.575 829.443 766.341C829.482 766.389 829.492 766.456 829.443 766.502C828.038 767.843 825.659 767.99 823.928 767.24C823.04 766.854 822.568 766.316 822.112 765.481C821.827 764.956 821.451 764.032 820.838 763.754C820.932 765.027 821.258 766.303 821.813 767.455C822.365 768.602 823.109 770.537 824.239 771.198C825.427 771.894 826.25 771.684 827.542 771.426C828.143 771.305 828.634 770.867 829.21 770.677C828.49 771.919 828.8 773.896 829.059 775.407C829.276 776.67 830.122 780.904 831.678 782.117C832.028 782.39 832.29 782.257 832.465 782.036C832.201 782.619 831.813 783.192 831.254 783.886C830.515 784.804 829.841 785.838 829.445 786.954C829.248 787.509 829.116 788.091 829.076 788.679C829.059 788.929 829.305 790.291 829.199 790.409C830.36 789.118 830.861 787.341 831.745 785.873C832.584 784.478 833.895 783.139 835.66 783.206C838.914 783.328 839.627 788.053 838.494 790.401C838.466 790.458 838.389 790.47 838.338 790.442C836.854 789.605 835.378 790.951 834.566 792.109C833.666 793.394 832.912 795.069 832.98 796.672C833.006 797.297 833.177 798.031 833.768 798.365C834.648 798.862 835.181 798.122 835.91 797.753C836.435 797.487 836.86 797.781 836.987 798.35C837.106 798.886 836.633 799.642 836.397 800.089C836.023 800.799 835.663 801.517 834.899 801.847C834.398 802.063 833.942 801.943 833.474 801.823C833.188 801.749 832.897 801.675 832.59 801.679C831.092 801.698 830.152 802.949 829.123 803.871C828.659 804.287 828.173 804.751 827.658 805.181C826.439 806.82 825.278 808.508 824.594 810.43C824.308 811.232 824.107 811.991 824.024 812.841C823.977 813.329 823.909 813.814 823.705 814.267C823.196 815.392 822.176 816.159 821.676 817.268C822.568 817.205 823.983 817.253 823.916 818.362C823.84 819.629 822.612 820.786 821.756 821.6C820.526 822.771 819.147 823.917 817.636 824.71C817.195 824.941 816.684 825.221 816.167 825.181C815.056 825.095 813.612 824.173 812.523 824.534C811.597 824.842 811.066 825.689 811.364 826.594C811.458 826.878 811.519 827.133 811.493 827.432C811.422 828.291 810.397 828.918 809.769 829.347C807.386 830.973 804.491 831.806 801.675 832.298C798.807 832.8 795.685 833.294 792.778 832.939C791.784 832.817 790.384 832.7 789.63 831.95C788.953 831.275 788.444 830.541 787.371 830.494C786.892 830.473 786.416 830.491 785.939 830.506C786.588 831.749 785.782 832.595 784.323 832.8C782.707 833.027 780.426 832.702 779.273 831.411C778.825 830.91 778.794 830.448 779.087 829.851C779.72 828.565 779.424 827.358 778.361 826.375C776.789 824.923 774.741 823.984 772.679 823.276C772.386 823.229 772.094 823.158 771.819 823.096C770.6 822.82 769.451 822.91 768.22 823.062C767.577 823.141 766.925 823.192 766.281 823.086C765.802 823.007 765.622 822.616 765.3 822.296C764.428 821.431 763.532 823.346 762.852 823.652C762.563 823.782 762.056 823.337 761.864 823.187C761.383 822.814 760.901 822.444 760.419 822.073C759.434 821.316 758.321 820.391 757.882 819.185C757.674 818.614 757.221 817.661 757.881 817.23C758.626 816.744 758.901 815.98 758.965 815.126C759.092 813.428 758.645 811.695 758.064 810.113C757.405 808.324 756.52 806.587 755.373 805.06C754.513 803.913 753.348 802.546 751.881 802.203C750.338 801.842 749.348 803.084 748.775 804.352C748.739 804.433 748.618 804.42 748.579 804.352C747.156 801.942 746.244 798.55 747.516 795.897C747.55 795.824 747.678 795.821 747.712 795.897C747.939 796.405 748.516 796.599 748.851 797.013C750.231 796.08 750.361 793.877 750.094 792.398C749.826 790.907 748.932 789.012 747.132 789.372C747.24 790.158 747.108 790.951 746.65 791.614C746.606 791.677 746.529 791.687 746.471 791.637C745.48 790.786 745.125 789.451 745.033 788.194C744.91 786.507 745.149 784.799 745.495 783.15C746.425 778.727 748.064 774.343 750.077 770.3C751.626 767.186 753.359 764.093 755.273 761.187C756.11 759.918 757.047 758.681 757.919 757.407C748.297 767.089 742.797 780.744 743.953 795.411C746.06 822.123 769.445 842.07 796.185 839.965C822.925 837.861 842.894 814.502 840.787 787.79Z" fill="#A3A3A3"/>
<path d="M756.241 817.383C755.807 817.383 755.351 817.269 754.94 817.077C756.277 816.781 757.238 817.091 756.555 814.279C756.434 813.782 755.974 813.541 755.521 813.336C754.4 812.83 753.857 812.151 753.294 811.084C752.836 810.215 752.481 809.275 752.168 808.345C751.876 807.481 751.959 806.727 752.009 805.855C752.056 805.039 751.493 804.574 750.783 804.574C750.667 804.574 750.547 804.586 750.425 804.611C749.954 804.71 749.553 805.056 749.213 805.484C749.347 804.907 749.544 804.345 749.808 803.817C749.977 803.478 750.178 803.239 750.403 803.08C750.135 803.366 749.953 803.8 749.746 804.239C749.737 804.258 749.752 804.273 749.767 804.273C749.775 804.273 749.784 804.269 749.79 804.259C749.851 804.175 749.905 804.087 749.954 803.995C750.148 803.434 750.576 803.198 751.053 803.198C751.339 803.198 751.642 803.282 751.925 803.432C752.49 803.73 752.981 804.178 753.425 804.629C754.263 805.481 754.881 806.536 755.416 807.594C756.099 808.949 756.727 810.457 757.179 811.992C757.15 812.008 757.118 812.016 757.084 812.016C756.465 812.016 754.925 809.59 754.761 809.33C754.318 808.625 753.867 807.926 753.523 807.166C753.327 806.736 753.279 806.235 753.033 805.836L752.999 805.861C753.137 806.18 753.135 806.594 753.218 806.93C753.366 807.53 753.558 808.084 753.817 808.645C754.232 809.542 754.716 810.422 755.295 811.224C755.546 811.572 756.467 812.582 757.047 812.582C757.149 812.582 757.24 812.551 757.315 812.479C757.556 813.38 757.733 814.285 757.818 815.17C757.823 815.228 757.862 815.253 757.904 815.253C757.964 815.253 758.032 815.205 758.036 815.137C758.069 814.491 758.038 813.829 757.954 813.163C758.063 813.881 758.117 814.604 758.092 815.328C758.042 816.83 757.194 817.383 756.241 817.383ZM757.002 809.476C756.493 808.141 755.836 806.871 755.122 805.763C754.38 804.612 753.353 803.6 752.104 803.021C752.305 803.1 752.508 803.202 752.711 803.32C754.629 804.434 756.077 806.854 756.783 808.845C756.857 809.054 756.93 809.264 757.002 809.476Z" fill="#898989"/>
<path d="M744.435 783.783C744.485 783.43 744.546 783.06 744.626 782.661C744.556 783.033 744.496 783.408 744.435 783.783Z" fill="#898989"/>
<path d="M743.934 795.189C743.934 795.188 743.934 795.186 743.934 795.185C743.934 795.185 743.934 795.185 743.934 795.186V795.186C743.934 795.186 743.934 795.186 743.934 795.186C743.934 795.186 743.934 795.186 743.934 795.186C743.934 795.186 743.934 795.186 743.934 795.187C743.934 795.187 743.934 795.187 743.934 795.187C743.934 795.187 743.934 795.187 743.934 795.187C743.934 795.187 743.934 795.187 743.934 795.187C743.934 795.187 743.934 795.188 743.934 795.188C743.934 795.188 743.934 795.188 743.934 795.188C743.934 795.188 743.934 795.188 743.934 795.188C743.934 795.188 743.934 795.188 743.934 795.188C743.934 795.189 743.934 795.189 743.934 795.189C743.934 795.189 743.934 795.189 743.934 795.189C743.934 795.189 743.934 795.189 743.934 795.189V795.189ZM743.934 795.185C743.934 795.184 743.934 795.184 743.934 795.184C743.934 795.184 743.934 795.184 743.934 795.185ZM743.934 795.184C743.934 795.184 743.934 795.184 743.934 795.184C743.934 795.184 743.934 795.184 743.934 795.184Z" fill="#683108"/>
<path d="M792.324 840.121H792.324H792.324ZM743.96 795.414C743.96 795.408 743.959 795.401 743.959 795.395V795.394C743.959 795.401 743.96 795.407 743.96 795.414ZM743.958 795.384C743.958 795.381 743.958 795.377 743.957 795.374C743.958 795.378 743.958 795.38 743.958 795.384ZM743.956 795.363C743.956 795.361 743.956 795.355 743.956 795.354C743.956 795.357 743.956 795.359 743.956 795.363ZM743.955 795.341C743.955 795.34 743.954 795.336 743.954 795.334C743.954 795.337 743.955 795.339 743.955 795.341ZM743.953 795.32C743.953 795.317 743.953 795.317 743.953 795.314C743.953 795.316 743.953 795.319 743.953 795.32ZM743.952 795.3C743.951 795.297 743.951 795.297 743.951 795.294C743.951 795.296 743.951 795.298 743.952 795.3ZM743.95 795.279C743.95 795.278 743.95 795.277 743.949 795.275C743.95 795.277 743.95 795.278 743.95 795.279ZM743.948 795.258V795.257V795.258Z" fill="#E3A957"/>
<path d="M748.249 795.817C747.577 795.817 747.351 794.937 747.296 794.211C747.315 794.213 747.335 794.214 747.355 794.214C747.46 794.214 747.573 794.183 747.694 794.11C748.212 793.8 748.275 792.89 748.259 792.364C748.236 791.572 748.174 790.461 747.583 789.903C747.609 789.898 747.636 789.893 747.662 789.888C747.687 789.883 747.693 789.839 747.663 789.838C748.562 789.861 748.637 791.004 748.879 791.814C749.221 792.958 749.23 793.892 748.945 795.04C748.916 795.155 749.002 795.221 749.094 795.221C749.139 795.221 749.186 795.205 749.221 795.171C749.239 795.155 749.256 795.138 749.273 795.121C749.122 795.42 748.891 795.658 748.54 795.768C748.435 795.801 748.338 795.817 748.249 795.817ZM747.529 789.855C747.497 789.828 747.463 789.802 747.428 789.778C747.485 789.758 747.541 789.743 747.596 789.732C747.573 789.768 747.551 789.809 747.529 789.855Z" fill="#898989"/>
<path d="M827.765 780.609C827.734 780.609 827.72 780.561 827.749 780.538C827.931 780.39 828.046 780.196 828.234 780.052C828.379 779.941 828.543 779.818 828.704 779.735C828.982 779.591 829.32 779.42 829.646 779.42C829.726 779.42 829.805 779.43 829.883 779.454C829.986 779.485 829.956 779.634 829.876 779.673C829.497 779.859 829.063 779.887 828.673 780.064C828.449 780.164 828.232 780.248 828.047 780.414C827.962 780.49 827.883 780.548 827.785 780.603C827.778 780.607 827.771 780.609 827.765 780.609Z" fill="#929292"/>
<path d="M827.8 777.875C827.798 777.875 827.796 777.875 827.793 777.875C827.79 777.874 827.793 777.869 827.795 777.869C827.795 777.869 827.795 777.869 827.795 777.869C827.797 777.87 827.798 777.87 827.799 777.87C827.811 777.87 827.823 777.862 827.834 777.859C827.835 777.858 827.835 777.858 827.835 777.858C827.839 777.858 827.838 777.864 827.835 777.865C827.824 777.869 827.812 777.875 827.8 777.875Z" fill="#929292"/>
<path d="M829.164 787.965C829.17 787.465 829.138 786.987 829.301 786.466C829.525 785.747 829.818 785.059 830.185 784.4C830.555 783.735 831.155 782.983 831.878 782.565C830.879 781.821 829.745 779.023 829.631 778.639C829.2 777.186 828.905 775.691 828.769 774.182C828.683 773.233 828.558 772.049 828.854 771.085C827.916 771.438 826.953 771.701 826.014 771.701C825.088 771.701 824.185 771.445 823.353 770.765L823.375 770.732C823.626 770.914 823.882 771.05 824.142 771.148C824.173 771.168 824.203 771.187 824.234 771.205C824.833 771.556 825.34 771.676 825.86 771.676C826.372 771.676 826.896 771.56 827.536 771.432C828.138 771.311 828.629 770.874 829.205 770.684C828.484 771.926 828.794 773.903 829.054 775.413C829.27 776.677 830.116 780.911 831.672 782.124C831.731 782.169 831.787 782.204 831.841 782.228C831.871 782.261 831.901 782.293 831.932 782.325C831.933 782.304 831.934 782.283 831.935 782.262C831.975 782.272 832.013 782.277 832.049 782.277C832.217 782.277 832.354 782.176 832.46 782.043C832.195 782.625 831.807 783.199 831.248 783.892C830.509 784.81 829.836 785.844 829.439 786.96C829.323 787.287 829.23 787.624 829.164 787.965Z" fill="#929292"/>
<path d="M831.931 782.19C831.699 782.005 831.5 781.79 831.334 781.545C831.323 781.53 831.312 781.515 831.301 781.501C831.088 781.167 830.909 780.813 830.734 780.466C830.261 779.525 829.949 778.525 829.683 777.52C829.375 776.355 829.237 775.151 829.138 773.956C829.127 773.823 829.115 773.681 829.103 773.533C829.049 772.833 829.015 772.003 829.206 771.332C830.678 772.713 830.971 775.22 831.346 777.086C831.67 778.698 832.025 780.479 831.944 782.188C831.94 782.188 831.936 782.189 831.931 782.19Z" fill="#909090"/>
<path d="M765.909 762.099C764.144 762.194 762.421 763.2 760.942 764.085C760.14 764.565 759.363 765.081 758.594 765.609C759.12 765.418 759.673 765.332 760.248 765.4C760.817 765.468 761.865 765.666 761.792 766.437C761.762 766.752 761.462 766.793 761.199 766.755C760.816 766.701 760.616 766.658 760.27 766.892C760.234 766.917 760.2 766.944 760.164 766.97C760.172 767.011 760.16 767.057 760.116 767.088C759.943 767.209 759.774 767.337 759.606 767.469C759.534 767.55 759.464 767.636 759.399 767.729C759.358 767.787 759.291 767.789 759.242 767.764C757.566 769.171 756.159 771.042 755.092 772.891C753.924 774.916 752.559 777.999 754.295 780.102C754.344 780.162 754.337 780.275 754.245 780.292C753.502 780.434 752.683 780.411 752.164 779.787C751.684 779.211 751.639 778.341 751.682 777.63C751.785 775.922 752.333 774.237 752.951 772.652C753.408 771.482 753.883 770.186 754.627 769.16C755.263 768.281 756.095 767.249 757.071 766.485C757.06 766.442 757.071 766.393 757.117 766.36C757.193 766.307 757.269 766.254 757.344 766.201C754.307 767.635 752.209 770.592 750.989 773.648C750.106 775.863 749.573 778.234 749.482 780.619C749.399 782.777 749.595 785.116 750.518 787.101C751.18 788.526 752.542 789.88 754.243 789.59C755.474 789.381 756.548 788.743 757.421 787.862C758.558 786.715 759.38 785.342 760.171 783.95C759.74 784.436 759.26 784.873 758.72 785.197C757.881 785.7 756.415 786.025 755.818 784.967C755.371 784.174 755.549 783.102 755.932 782.317C756.592 780.964 757.751 779.99 758.575 778.751C759.499 777.363 760.478 775.946 761.202 774.442C761.961 772.866 762.459 771.188 762.825 769.481C762.975 768.78 763.224 767.536 763.989 767.225C764.743 766.918 765.437 767.757 765.616 768.41C766.11 770.216 765.467 772.172 765.112 773.981C765.834 772.948 766.14 771.645 766.419 770.439C766.755 768.991 767.187 767.596 767.603 766.17C768.059 764.61 768.216 761.975 765.909 762.099Z" fill="#A3A3A3"/>
<path d="M755.039 780.037C754.339 779.031 754.336 777.637 754.527 776.446C754.775 774.892 755.466 773.408 756.3 772.086C757.323 770.463 758.823 768.737 760.541 767.825C761.127 767.514 761.759 767.337 762.41 767.236C762.486 767.761 762.475 768.315 762.414 768.809C762.214 770.421 761.487 772.017 760.702 773.42C759.372 775.801 757.602 778.722 755.039 780.037Z" fill="#909090"/>
<path d="M752.31 779.946C752.261 779.902 752.215 779.853 752.171 779.8C751.691 779.224 751.646 778.354 751.689 777.642C751.725 777.042 751.816 776.445 751.946 775.854C751.919 776.049 751.897 776.244 751.878 776.437C751.78 777.435 751.719 779.071 752.31 779.946Z" fill="#929292"/>
<path d="M759.051 782.636C759.041 782.636 759.03 782.635 759.019 782.633C758.503 782.549 758.396 781.893 758.233 781.484C758.044 781.01 757.755 780.536 757.576 780.061C757.599 780.034 757.622 780.007 757.645 779.979C757.688 779.986 757.742 780.002 757.769 780.037C757.966 780.295 758.161 780.551 758.327 780.83C758.627 781.333 758.927 781.84 759.214 782.348C759.287 782.476 759.193 782.636 759.051 782.636Z" fill="#929292"/>
<path d="M759.267 778.914C759.267 778.914 759.266 778.914 759.266 778.914C759.249 778.908 759.236 778.894 759.228 778.878C759.227 778.877 759.229 778.875 759.23 778.875C759.23 778.875 759.231 778.875 759.231 778.876C759.241 778.889 759.256 778.898 759.271 778.906C759.275 778.908 759.271 778.914 759.267 778.914Z" fill="#929292"/>
<path d="M764.496 769.105C764.093 769.105 763.679 769.014 763.298 768.927L763.309 768.886C763.469 768.901 763.629 768.906 763.788 768.906C763.925 768.906 764.062 768.903 764.199 768.899C764.335 768.896 764.472 768.892 764.609 768.892C764.712 768.892 764.814 768.894 764.918 768.9C765.016 768.905 764.995 769.051 764.913 769.067C764.776 769.094 764.637 769.105 764.496 769.105Z" fill="#929292"/>
<path d="M763.385 770.004C763.362 769.733 762.936 769.624 762.836 769.907C762.285 771.479 762.072 773.141 761.513 774.715C760.923 776.376 759.843 777.696 758.753 779.048C758.667 779.154 758.805 779.311 758.918 779.227C761.614 777.209 763.682 773.421 763.385 770.004Z" fill="#EAEAEA"/>
<path d="M800.581 825.169C802.285 825.635 804.238 825.223 805.921 824.849C806.834 824.646 807.734 824.402 808.63 824.143C808.071 824.159 807.519 824.066 806.995 823.82C806.476 823.576 805.544 823.059 805.857 822.35C805.986 822.06 806.283 822.116 806.52 822.234C806.867 822.407 807.043 822.511 807.444 822.398C807.488 822.385 807.528 822.37 807.57 822.357C807.576 822.315 807.602 822.276 807.653 822.26C807.855 822.2 808.056 822.131 808.258 822.06C808.352 822.005 808.445 821.945 808.537 821.878C808.593 821.836 808.658 821.855 808.696 821.894C810.731 821.086 812.657 819.755 814.253 818.336C816.001 816.783 818.269 814.287 817.287 811.744C817.258 811.672 817.301 811.567 817.394 811.58C818.144 811.679 818.913 811.959 819.21 812.715C819.483 813.412 819.251 814.252 818.985 814.914C818.348 816.502 817.296 817.929 816.21 819.238C815.407 820.205 814.546 821.284 813.516 822.024C812.635 822.657 811.52 823.374 810.353 823.791C810.349 823.836 810.323 823.879 810.269 823.895C810.181 823.922 810.092 823.949 810.003 823.976C813.338 823.572 816.264 821.426 818.385 818.911C819.923 817.087 821.178 815.005 822.017 812.771C822.777 810.749 823.33 808.468 823.081 806.293C822.903 804.732 822.037 803.018 820.331 802.757C819.098 802.568 817.877 802.835 816.77 803.396C815.329 804.125 814.116 805.17 812.925 806.241C813.488 805.916 814.081 805.652 814.696 805.515C815.651 805.302 817.144 805.455 817.377 806.648C817.551 807.541 817.044 808.502 816.432 809.127C815.378 810.203 813.971 810.762 812.798 811.677C811.484 812.703 810.107 813.74 808.945 814.939C807.727 816.196 806.725 817.631 805.839 819.135C805.474 819.754 804.846 820.856 804.021 820.91C803.209 820.964 802.815 819.949 802.852 819.273C802.953 817.403 804.181 815.749 805.088 814.145C804.078 814.897 803.376 816.038 802.73 817.094C801.954 818.363 801.104 819.551 800.258 820.772C799.334 822.109 798.352 824.56 800.581 825.169Z" fill="#A3A3A3"/>
<path d="M806.635 821.505C806.263 821.505 805.892 821.468 805.522 821.406C805.616 820.884 805.801 820.362 806.015 819.913C806.715 818.445 807.908 817.16 809.096 816.076C811.11 814.236 813.711 812.021 816.56 811.581C816.906 812.756 816.468 814.079 815.911 815.15C815.185 816.546 814.061 817.737 812.852 818.729C811.369 819.946 809.4 821.113 807.482 821.436C807.2 821.483 806.917 821.505 806.635 821.505Z" fill="#909090"/>
<path d="M818.176 816.536C818.263 816.359 818.346 816.181 818.425 816.004C818.832 815.088 819.407 813.554 819.124 812.538C819.155 812.596 819.184 812.657 819.209 812.721C819.483 813.418 819.25 814.258 818.985 814.92C818.761 815.478 818.486 816.016 818.176 816.536Z" fill="#929292"/>
<path d="M814.085 810.827C814.046 810.807 813.999 810.775 813.985 810.733C813.879 810.427 813.775 810.122 813.705 809.805C813.58 809.233 813.455 808.658 813.343 808.085C813.318 807.961 813.418 807.854 813.532 807.854C813.56 807.854 813.59 807.861 813.619 807.876C814.081 808.118 813.976 808.774 814.001 809.213C814.031 809.723 814.156 810.263 814.176 810.771C814.146 810.789 814.115 810.808 814.085 810.827Z" fill="#929292"/>
<path d="M811.628 810.434C811.627 810.434 811.626 810.434 811.626 810.433C811.621 810.418 811.611 810.406 811.6 810.394C811.597 810.391 811.601 810.387 811.604 810.387C811.605 810.387 811.606 810.387 811.606 810.388C811.62 810.398 811.627 810.415 811.63 810.432C811.63 810.433 811.629 810.434 811.628 810.434Z" fill="#929292"/>
<path d="M805.186 819.551C804.689 819.332 804.165 819.228 803.664 819.031C803.576 818.997 803.633 818.873 803.712 818.873C803.715 818.873 803.718 818.873 803.721 818.874C804.252 818.942 804.758 819.243 805.21 819.515L805.186 819.551Z" fill="#929292"/>
<path d="M805.471 818.475C805.407 818.74 805.777 818.977 805.961 818.74C806.981 817.421 807.707 815.912 808.735 814.594C809.819 813.204 811.26 812.291 812.722 811.352C812.837 811.278 812.756 811.086 812.622 811.131C809.426 812.196 806.268 815.139 805.471 818.475Z" fill="#EAEAEA"/>
<path d="M819.274 756.299C819.339 756.885 819.278 757.892 818.495 757.455C817.888 757.116 817.536 756.418 817.094 755.907C816.561 755.29 815.961 754.681 815.238 754.287C814.475 753.872 813.646 753.736 812.825 753.487C812.336 753.339 811.833 753.192 811.49 752.792C811.369 752.651 811.234 752.328 811.425 752.178C811.608 752.035 811.829 752.033 812.047 752.076C811.925 751.943 811.795 751.82 811.658 751.703C811.272 751.633 810.88 751.603 810.517 751.681C809.466 751.907 809.839 753.073 810.198 753.767C811.157 755.62 812.823 757.028 814.563 758.121C815.5 758.71 816.482 759.302 817.542 759.638C818.3 759.878 819.514 760.174 820.173 759.534C821.149 758.584 820.231 756.954 819.274 756.299Z" fill="#A3A3A3"/>
<path d="M811.589 752.081C811.588 752.081 811.588 752.081 811.588 752.081C811.587 752.08 811.585 752.079 811.584 752.078C811.585 752.077 811.587 752.077 811.588 752.077C811.589 752.077 811.589 752.078 811.589 752.079C811.59 752.08 811.589 752.081 811.589 752.081Z" fill="#929292"/>
<path d="M818.161 760.352C815.045 757.999 810.587 756.883 809.396 752.69C809.349 752.523 809.095 752.588 809.106 752.752C809.401 757.017 814.249 759.842 818.033 760.629C818.185 760.66 818.286 760.448 818.161 760.352Z" fill="#EAEAEA"/>
<path d="M785.765 749.054C785.845 749.082 785.923 749.117 786.007 749.157C786.041 749.174 786.065 749.219 786.063 749.255C786.003 750.325 783.98 750.565 783.213 750.613C782.61 750.65 780.974 750.58 781.439 749.649C781.216 749.631 781.003 749.663 780.797 749.728C780.314 750.079 779.827 750.427 779.428 750.873C778.816 751.56 778.55 752.602 779.575 753.061C780.814 753.615 782.584 753.411 783.87 753.088C784.766 752.863 785.671 752.614 786.516 752.231C787.329 751.861 788.289 751.354 788.659 750.487C789.406 748.74 786.925 748.373 785.765 749.054Z" fill="#A3A3A3"/>
<path d="M789.165 750.957C787.919 751.912 786.838 752.692 785.311 753.173C783.881 753.623 782.202 753.896 780.702 753.927C780.657 753.928 780.664 753.995 780.708 753.996C783.683 754.036 787.724 754.373 789.617 751.446C789.809 751.15 789.49 750.707 789.165 750.957Z" fill="#EAEAEA"/>
<path d="M764.57 809.675C764.629 809.087 764.899 808.116 765.573 808.707C766.096 809.165 766.295 809.92 766.619 810.513C767.011 811.228 767.47 811.948 768.096 812.485C768.754 813.05 769.536 813.357 770.287 813.771C770.734 814.019 771.195 814.267 771.447 814.73C771.536 814.894 771.6 815.238 771.382 815.344C771.173 815.446 770.956 815.402 770.752 815.314C770.844 815.469 770.946 815.618 771.055 815.76C771.418 815.91 771.794 816.021 772.166 816.021C773.241 816.019 773.12 814.801 772.915 814.047C772.365 812.035 771.031 810.31 769.558 808.877C768.766 808.105 767.929 807.321 766.963 806.771C766.273 806.378 765.146 805.834 764.368 806.323C763.215 807.048 763.772 808.834 764.57 809.675Z" fill="#A3A3A3"/>
<path d="M771.101 815.313C771.101 815.313 771.101 815.313 771.101 815.313C771.1 815.312 771.1 815.311 771.1 815.31C771.099 815.309 771.1 815.308 771.101 815.308C771.101 815.308 771.101 815.308 771.101 815.308C771.103 815.31 771.104 815.311 771.105 815.312C771.104 815.313 771.102 815.313 771.101 815.313Z" fill="#929292"/>
<path d="M766.504 805.944C769.057 808.896 773.183 810.919 773.469 815.268C773.48 815.442 773.742 815.432 773.766 815.268C774.371 811.036 770.222 807.26 766.687 805.7C766.544 805.637 766.401 805.824 766.504 805.944Z" fill="#EAEAEA"/>
<path d="M785.94 824.849C785.882 824.814 785.827 824.774 785.769 824.728C785.745 824.71 785.733 824.671 785.741 824.642C785.967 823.818 787.585 823.967 788.192 824.058C788.669 824.13 789.934 824.457 789.415 825.106C789.586 825.157 789.758 825.168 789.929 825.152C790.365 824.958 790.804 824.768 791.189 824.487C791.782 824.053 792.164 823.284 791.441 822.755C790.566 822.115 789.151 821.979 788.093 822.017C787.356 822.043 786.608 822.087 785.885 822.245C785.189 822.398 784.355 822.633 783.921 823.248C783.046 824.487 784.921 825.187 785.94 824.849Z" fill="#A3A3A3"/>
<path d="M783.594 822.794C784.726 822.256 785.7 821.828 786.972 821.707C788.163 821.594 789.519 821.661 790.695 821.888C790.73 821.895 790.736 821.84 790.702 821.833C788.386 821.306 785.289 820.368 783.323 822.337C783.124 822.536 783.298 822.934 783.594 822.794Z" fill="#EAEAEA"/>
<path d="M766.603 758.637C767.054 757.979 767.97 756.426 766.955 755.866C766.672 755.71 766.335 755.647 765.998 755.658C766.166 756.717 764.677 757.072 764.092 757.75C763.757 758.138 763.455 758.617 763.289 759.105C763.224 759.299 763.125 759.563 763.199 759.767C763.324 760.11 763.8 759.975 764.058 759.91C764.176 759.88 764.236 760.015 764.168 760.1C763.823 760.536 763.36 760.785 762.885 761.039C764.387 761.288 765.837 759.757 766.603 758.637Z" fill="#A3A3A3"/>
<path d="M768.367 756.133C767.727 757.66 767.362 759.208 765.914 760.216C765.801 760.294 765.9 760.502 766.027 760.437C767.501 759.68 768.731 757.882 768.785 756.206C768.792 755.982 768.448 755.94 768.367 756.133Z" fill="#EAEAEA"/>
<path d="M828.373 772.291C828.333 772.123 828.097 772.175 828.065 772.317C827.565 774.488 828.137 776.632 829.147 778.557C829.203 778.664 829.391 778.592 829.369 778.476C829.002 776.439 828.856 774.298 828.373 772.291Z" fill="#EAEAEA"/>
</g>
<defs>
<radialGradient id="paint0_radial_6_5910" cx="0" cy="0" r="1" gradientUnits="userSpaceOnUse" gradientTransform="translate(791.853 790) rotate(90) scale(790 790.853)">
<stop stop-color="white" stop-opacity="0.1"/>
<stop offset="1" stop-color="white"/>
</radialGradient>
<radialGradient id="paint1_radial_6_5910" cx="0" cy="0" r="1" gradientUnits="userSpaceOnUse" gradientTransform="translate(791.853 790) rotate(90) scale(452 452.488)">
<stop stop-color="white"/>
<stop offset="1" stop-color="white" stop-opacity="0.4"/>
</radialGradient>
<radialGradient id="paint2_radial_6_5910" cx="0" cy="0" r="1" gradientUnits="userSpaceOnUse" gradientTransform="translate(791.853 790) rotate(90) scale(307 307.331)">
<stop stop-color="white" stop-opacity="0.8"/>
<stop offset="1" stop-color="white" stop-opacity="0.1"/>
</radialGradient>
<radialGradient id="paint3_radial_6_5910" cx="0" cy="0" r="1" gradientUnits="userSpaceOnUse" gradientTransform="translate(791.852 790) rotate(90) scale(83 83.0896)">
<stop stop-color="white"/>
<stop offset="1" stop-color="white" stop-opacity="0.4"/>
</radialGradient>
<clipPath id="clip0_6_5910">
<rect width="97.1392" height="97.034" fill="white" transform="translate(743.801 743.09)"/>
</clipPath>
</defs>
</svg>
