<?xml version="1.0" encoding="UTF-8" standalone="no"?>
<!DOCTYPE svg PUBLIC "-//W3C//DTD SVG 1.1//EN" "http://www.w3.org/Graphics/SVG/1.1/DTD/svg11.dtd">
<svg width="100%" height="100%" viewBox="0 0 1194 584" version="1.1" xmlns="http://www.w3.org/2000/svg" xmlns:xlink="http://www.w3.org/1999/xlink" xml:space="preserve" xmlns:serif="http://www.serif.com/" style="fill-rule:evenodd;clip-rule:evenodd;stroke-linecap:round;stroke-linejoin:round;stroke-miterlimit:10;">
    <g transform="matrix(1,0,0,1,-181.269,-2416.34)">
        <g transform="matrix(1.33333,0,0,1.33333,0,0)">
            <g transform="matrix(1,0,0,1,415.623,2191.68)">
                <path d="M0,-2.375C2.894,-7.227 8.377,-10.277 14.386,-9.779C22.791,-9.081 29.039,-1.703 28.341,6.701L27.771,13.572L-21.197,9.51L-19.085,-15.947L5.86,-11.135L9.921,-9.494" style="fill:rgb(39,70,79);fill-rule:nonzero;"/>
            </g>
            <g transform="matrix(1,0,0,1,437.617,2201.07)">
                <path d="M0,8.666L-39.721,5.371C-41.91,5.189 -43.536,3.269 -43.354,1.08L-43.245,-0.242L5.723,3.82C5.481,6.739 2.918,8.908 0,8.666" style="fill:rgb(36,62,68);fill-rule:nonzero;"/>
            </g>
            <g transform="matrix(1,0,0,1,420.156,2188.05)">
                <path d="M0,-3.596C10.935,-10.53 22.057,-3.315 23.617,6.934C18.853,-1.813 11.162,-5.628 0,-3.596" style="fill:rgb(36,62,68);fill-rule:nonzero;"/>
            </g>
            <g transform="matrix(1,0,0,1,416.81,2166.31)">
                <path d="M0,20.647L-17.509,19.841C-23.056,19.585 -27.346,14.882 -27.091,9.335C-26.842,3.928 -22.257,-0.252 -16.85,-0.004L0.972,0.816C6.432,1.067 10.655,5.698 10.404,11.158C10.151,16.651 5.493,20.899 0,20.647" style="fill:rgb(242,242,242);fill-rule:nonzero;"/>
            </g>
            <g transform="matrix(1,0,0,1,363.078,2170.14)">
                <path d="M0,-46.753C1.542,-50.865 6.125,-52.948 10.237,-51.406L38.669,-40.746L43.604,-38.896C49.997,-36.499 54.212,-30.363 54.157,-23.537L53.964,0.139C53.937,3.499 51.18,6.195 47.82,6.148L45.005,6.108C41.144,6.055 38.057,2.88 38.111,-0.982L38.348,-17.893C38.398,-21.467 36.2,-24.688 32.853,-25.942L4.654,-36.516C0.542,-38.058 -1.542,-42.641 0,-46.753" style="fill:rgb(242,198,102);fill-rule:nonzero;"/>
            </g>
            <g transform="matrix(1,0,0,1,406.61,2125.92)">
                <clipPath id="_clip1">
                    <path d="M-43.532,-2.536C-45.075,1.578 -42.991,6.16 -38.879,7.701L-10.68,18.276C-7.332,19.53 -5.134,22.751 -5.185,26.325L-5.421,43.237C-5.476,47.098 -2.388,50.273 1.472,50.325L4.288,50.366C7.648,50.413 10.404,47.717 10.431,44.356L10.625,20.68C10.679,13.854 6.464,7.719 0.073,5.322L-4.863,3.472L-33.295,-7.189C-34.214,-7.533 -35.157,-7.697 -36.085,-7.697C-39.305,-7.697 -42.335,-5.728 -43.532,-2.536Z" clip-rule="nonzero"/>
                </clipPath>
                <g clip-path="url(#_clip1)">
                    <path d="M0,51.437L-0.222,24.565C-0.258,20.148 -3.009,16.208 -7.144,14.653L-46.084,0L-45.538,8.868L-8.947,21.625L-7.254,48.546L0,51.437Z" style="fill:rgb(211,170,89);fill-rule:nonzero;"/>
                </g>
            </g>
            <g transform="matrix(1,0,0,1,197.68,2008.38)">
                <path d="M0,15.298L-38.927,15.298C-39.849,15.298 -40.596,14.551 -40.596,13.629L-40.596,1.668C-40.596,0.747 -39.849,0 -38.927,0L0,0C0.921,0 1.668,0.747 1.668,1.668L1.668,13.629C1.668,14.551 0.921,15.298 0,15.298" style="fill:rgb(224,224,224);fill-rule:nonzero;"/>
            </g>
            <g transform="matrix(1,0,0,1,637.244,1877.64)">
                <path d="M0,15.298L-38.927,15.298C-39.849,15.298 -40.596,14.551 -40.596,13.629L-40.596,1.668C-40.596,0.747 -39.849,0 -38.927,0L0,0C0.922,0 1.669,0.747 1.669,1.668L1.669,13.629C1.669,14.551 0.922,15.298 0,15.298" style="fill:rgb(224,224,224);fill-rule:nonzero;"/>
            </g>
            <g transform="matrix(1,0,0,1,176.547,2023.68)">
                <path d="M0,15.298L-38.927,15.298C-39.849,15.298 -40.596,14.551 -40.596,13.63L-40.596,1.669C-40.596,0.747 -39.849,0 -38.927,0L0,0C0.921,0 1.668,0.747 1.668,1.669L1.668,13.63C1.668,14.551 0.921,15.298 0,15.298" style="fill:rgb(224,224,224);fill-rule:nonzero;"/>
            </g>
            <g transform="matrix(1,0,0,1,612.541,1863.82)">
                <path d="M0,15.298L-38.927,15.298C-39.849,15.298 -40.596,14.551 -40.596,13.63L-40.596,1.669C-40.596,0.747 -39.849,0 -38.927,0L0,0C0.921,0 1.668,0.747 1.668,1.669L1.668,13.63C1.668,14.551 0.921,15.298 0,15.298" style="fill:rgb(224,224,224);fill-rule:nonzero;"/>
            </g>
            <g transform="matrix(1,0,0,1,797.064,1829.35)">
                <path d="M0,4.998C7.757,-7.148 31.526,-7.646 37.065,8.653C32.565,9.442 28.904,11.49 25.999,14.677C36.626,2.91 59.02,7.845 59.02,27.391L-104.375,27.391C-104.87,14.378 -90.522,5.757 -78.376,13.348L-84.887,10.787C-82.196,-9.71 -53.374,-21.665 -38.999,-4.443L-40.708,-6.291C-27.44,-22.393 -1.388,-20.775 4.332,0.429C2.647,1.56 1.219,3.108 0,4.998" style="fill:rgb(224,224,224);fill-rule:nonzero;"/>
            </g>
            <g transform="matrix(1,0,0,1,655.593,2054.86)">
                <path d="M0,3.072C0,-0.933 -2.844,-3.44 -6.513,-3.44L-53.125,-3.44L-53.125,-1.973C-53.125,2.823 -49.237,6.711 -44.441,6.711C-39.646,6.711 -35.758,2.823 -35.758,-1.973C-35.697,-3.639 -32.991,-3.44 -33.079,-1.973C-33.079,2.823 -29.191,6.711 -24.396,6.711C-19.6,6.711 -15.712,2.823 -15.712,-1.973L-15.712,-3.44" style="fill:none;fill-rule:nonzero;stroke:rgb(39,70,79);stroke-width:2px;"/>
            </g>
            <g transform="matrix(-1,0,0,1,547.655,-3913.83)">
                <rect x="220.864" y="5807.5" width="105.927" height="81.769" style="fill:rgb(39,70,79);"/>
            </g>
            <g transform="matrix(-1,0,0,1,546.958,-3913.16)">
                <rect x="230.853" y="5817.03" width="85.252" height="62.055" style="fill:rgb(49,86,94);"/>
            </g>
            <g transform="matrix(0,-1,-1,0,294.269,1918.64)">
                <path d="M-7.96,-7.96C-12.355,-7.96 -15.919,-4.396 -15.919,-0C-15.919,4.397 -12.355,7.96 -7.96,7.96C-3.564,7.96 0,4.397 0,-0C0,-4.396 -3.564,-7.96 -7.96,-7.96" style="fill:rgb(62,105,112);fill-rule:nonzero;"/>
            </g>
            <g transform="matrix(1,0,0,1,232.014,1927.37)">
                <path d="M0,38.547L21.044,6.98C25.65,0.07 35.779,0 40.48,6.845L62.255,38.547" style="fill:rgb(62,105,112);fill-rule:nonzero;"/>
            </g>
            <g transform="matrix(1,0,0,1,580.623,1965.68)">
                <path d="M0,76.977L-111.831,76.977C-112.253,76.977 -112.596,76.634 -112.596,76.212L-112.596,0.765C-112.596,0.343 -112.253,0 -111.831,0L0,0C0.422,0 0.765,0.343 0.765,0.765L0.765,76.212C0.765,76.634 0.422,76.977 0,76.977" style="fill:rgb(204,203,202);fill-rule:nonzero;"/>
            </g>
            <g transform="matrix(0,-1,-1,0,481.036,1862.49)">
                <path d="M-36.545,-36.545C-56.728,-36.545 -73.09,-20.183 -73.09,0.001C-73.09,20.184 -56.728,36.545 -36.545,36.545C-16.36,36.545 0.001,20.184 0.001,0.001C0.001,-20.183 -16.36,-36.545 -36.545,-36.545" style="fill:rgb(39,70,79);fill-rule:nonzero;"/>
            </g>
            <g transform="matrix(1,0,0,1,0,-3469.21)">
                <rect x="530.437" y="5549.97" width="14.557" height="152.231" style="fill:rgb(39,70,79);"/>
            </g>
            <g transform="matrix(1,0,0,1,0,-3469.21)">
                <rect x="421.413" y="5549.97" width="14.557" height="152.231" style="fill:rgb(39,70,79);"/>
            </g>
            <g transform="matrix(1,0,0,1,0,-3469.21)">
                <rect x="617.78" y="5549.97" width="14.557" height="152.231" style="fill:rgb(39,70,79);"/>
            </g>
            <g transform="matrix(1,0,0,1,423.96,2080.82)">
                <path d="M0,-17.964L86.666,-17.964L101.209,0L-2.548,-0.063" style="fill:rgb(62,105,112);fill-rule:nonzero;"/>
            </g>
            <g transform="matrix(0,-1,-1,0,622.217,2005.77)">
                <path d="M-6.814,-6.813C-10.577,-6.813 -13.627,-3.762 -13.627,0C-13.627,3.764 -10.577,6.814 -6.814,6.814C-3.05,6.814 -0,3.764 -0,0C-0,-3.762 -3.05,-6.813 -6.814,-6.813" style="fill:white;fill-rule:nonzero;"/>
            </g>
            <g transform="matrix(0,-1,-1,0,650.094,1974.49)">
                <path d="M-6.813,-6.814C-10.578,-6.814 -13.627,-3.763 -13.627,-0C-13.627,3.763 -10.578,6.813 -6.813,6.813C-3.05,6.813 -0,3.763 -0,-0C-0,-3.763 -3.05,-6.814 -6.813,-6.814" style="fill:rgb(224,224,224);fill-rule:nonzero;"/>
            </g>
            <g transform="matrix(0,-1,-1,0,670.845,1940.22)">
                <path d="M-6.814,-6.813C-10.577,-6.813 -13.627,-3.762 -13.627,0C-13.627,3.765 -10.577,6.814 -6.814,6.814C-3.05,6.814 -0,3.765 -0,0C-0,-3.762 -3.05,-6.813 -6.814,-6.813" style="fill:rgb(224,224,224);fill-rule:nonzero;"/>
            </g>
            <g transform="matrix(0,-1,-1,0,887.614,1968.31)">
                <path d="M-6.813,-6.814C-10.578,-6.814 -13.627,-3.764 -13.627,-0C-13.627,3.763 -10.578,6.813 -6.813,6.813C-3.05,6.813 -0,3.763 -0,-0C-0,-3.764 -3.05,-6.814 -6.813,-6.814" style="fill:rgb(224,224,224);fill-rule:nonzero;"/>
            </g>
            <g transform="matrix(0,-1,-1,0,996.796,2169.71)">
                <path d="M-6.814,-6.813C-10.577,-6.813 -13.627,-3.762 -13.627,-0C-13.627,3.764 -10.577,6.814 -6.814,6.814C-3.05,6.814 -0,3.764 -0,-0C-0,-3.762 -3.05,-6.813 -6.814,-6.813" style="fill:rgb(224,224,224);fill-rule:nonzero;"/>
            </g>
            <g transform="matrix(0,-1,-1,0,1010.42,2199.91)">
                <path d="M-6.813,-6.814C-10.578,-6.814 -13.627,-3.763 -13.627,-0.001C-13.627,3.763 -10.578,6.813 -6.813,6.813C-3.05,6.813 -0,3.763 -0,-0.001C-0,-3.763 -3.05,-6.814 -6.813,-6.814" style="fill:rgb(224,224,224);fill-rule:nonzero;"/>
            </g>
            <g transform="matrix(0,-1,-1,0,1024.05,2235.93)">
                <path d="M-6.814,-6.813C-10.577,-6.813 -13.627,-3.762 -13.627,-0C-13.627,3.764 -10.577,6.814 -6.814,6.814C-3.05,6.814 -0,3.764 -0,-0C-0,-3.762 -3.05,-6.813 -6.814,-6.813" style="fill:rgb(224,224,224);fill-rule:nonzero;"/>
            </g>
            <g transform="matrix(0,-1,-1,0,885.582,2003.07)">
                <path d="M-6.814,-6.813C-10.577,-6.813 -13.627,-3.762 -13.627,0C-13.627,3.765 -10.577,6.814 -6.814,6.814C-3.05,6.814 -0,3.765 -0,0C-0,-3.762 -3.05,-6.813 -6.814,-6.813" style="fill:rgb(224,224,224);fill-rule:nonzero;"/>
            </g>
            <g transform="matrix(0,-1,-1,0,880.801,2040.52)">
                <path d="M-6.814,-6.813C-10.577,-6.813 -13.627,-3.762 -13.627,0C-13.627,3.764 -10.577,6.814 -6.814,6.814C-3.05,6.814 -0,3.764 -0,0C-0,-3.762 -3.05,-6.813 -6.814,-6.813" style="fill:rgb(224,224,224);fill-rule:nonzero;"/>
            </g>
            <g transform="matrix(0,-1,-1,0,880.801,2078.72)">
                <path d="M-6.814,-6.813C-10.577,-6.813 -13.627,-3.762 -13.627,0C-13.627,3.764 -10.577,6.814 -6.814,6.814C-3.05,6.814 -0,3.764 -0,0C-0,-3.762 -3.05,-6.813 -6.814,-6.813" style="fill:rgb(224,224,224);fill-rule:nonzero;"/>
            </g>
            <g transform="matrix(0,-1,-1,0,897.213,2116.07)">
                <path d="M-6.814,-6.813C-10.577,-6.813 -13.627,-3.762 -13.627,0C-13.627,3.765 -10.577,6.814 -6.814,6.814C-3.05,6.814 -0,3.765 -0,0C-0,-3.762 -3.05,-6.813 -6.814,-6.813" style="fill:rgb(224,224,224);fill-rule:nonzero;"/>
            </g>
            <g transform="matrix(0,-1,-1,0,928.252,2138.54)">
                <path d="M-6.813,-6.814C-10.578,-6.814 -13.627,-3.763 -13.627,-0C-13.627,3.763 -10.578,6.813 -6.813,6.813C-3.05,6.813 -0,3.763 -0,-0C-0,-3.763 -3.05,-6.814 -6.813,-6.814" style="fill:rgb(224,224,224);fill-rule:nonzero;"/>
            </g>
            <g transform="matrix(0,-1,-1,0,965.378,2148.72)">
                <path d="M-6.813,-6.814C-10.578,-6.814 -13.627,-3.763 -13.627,-0.001C-13.627,3.763 -10.578,6.813 -6.813,6.813C-3.05,6.813 -0,3.763 -0,-0.001C-0,-3.763 -3.05,-6.814 -6.813,-6.814" style="fill:rgb(224,224,224);fill-rule:nonzero;"/>
            </g>
            <g transform="matrix(0,-1,-1,0,688.607,1900.36)">
                <path d="M-6.813,-6.814C-10.578,-6.814 -13.627,-3.763 -13.627,-0C-13.627,3.764 -10.578,6.813 -6.813,6.813C-3.05,6.813 -0,3.764 -0,-0C-0,-3.763 -3.05,-6.814 -6.813,-6.814" style="fill:rgb(224,224,224);fill-rule:nonzero;"/>
            </g>
            <g transform="matrix(0,-1,-1,0,882.809,1933.55)">
                <path d="M-6.813,-6.814C-10.578,-6.814 -13.627,-3.763 -13.627,-0C-13.627,3.763 -10.578,6.813 -6.813,6.813C-3.05,6.813 -0,3.763 -0,-0C-0,-3.763 -3.05,-6.814 -6.813,-6.814" style="fill:rgb(224,224,224);fill-rule:nonzero;"/>
            </g>
            <g transform="matrix(0,-1,-1,0,864.204,1905.99)">
                <path d="M-6.814,-6.814C-10.578,-6.814 -13.628,-3.763 -13.628,0C-13.628,3.763 -10.578,6.814 -6.814,6.814C-3.05,6.814 0,3.763 0,0C0,-3.763 -3.05,-6.814 -6.814,-6.814" style="fill:rgb(224,224,224);fill-rule:nonzero;"/>
            </g>
            <g transform="matrix(1,0,0,1,787.669,2228.31)">
                <path d="M0,-61.884C0.037,-64.464 -2.065,-66.561 -4.645,-66.561L-95.064,-66.561C-97.645,-66.561 -99.747,-64.464 -99.709,-61.884C-99.402,-40.624 -81.104,4.677 -73.084,4.677L-26.625,4.677C-18.605,4.677 -0.307,-40.624 0,-61.884" style="fill:rgb(211,132,68);fill-rule:nonzero;"/>
            </g>
            <g transform="matrix(1,0,0,1,775.726,2228.31)">
                <clipPath id="_clip2">
                    <path d="M7.298,-66.562L-83.122,-66.562C-85.701,-66.562 -87.804,-64.464 -87.765,-61.884C-87.459,-40.625 -69.16,4.676 -61.142,4.676L-14.682,4.676C-6.662,4.676 11.636,-40.625 11.943,-61.884C11.98,-64.464 9.878,-66.562 7.298,-66.562Z" clip-rule="nonzero"/>
                </clipPath>
                <g clip-path="url(#_clip2)">
                    <path d="M0,-61.884C0.037,-64.464 -2.064,-66.561 -4.645,-66.561L-95.064,-66.561C-97.645,-66.561 -99.746,-64.464 -99.709,-61.884C-99.402,-40.624 -81.104,4.677 -73.084,4.677L-26.625,4.677C-18.605,4.677 -0.307,-40.624 0,-61.884" style="fill:rgb(232,148,73);fill-rule:nonzero;"/>
                </g>
            </g>
            <g transform="matrix(1,0,0,1,737.814,2108.08)">
                <path d="M0,53.667C-26.691,45.051 -44.36,29.896 -49.146,5.942C-49.61,3.624 -47.87,1.41 -45.507,1.301C-17.375,0 -1.547,16.504 0,53.667" style="fill:rgb(114,193,116);fill-rule:nonzero;"/>
            </g>
            <g transform="matrix(1,0,0,1,737.814,2107.57)">
                <path d="M0,54.181C28.105,46.327 46.102,30.942 49.527,5.145C49.748,3.482 48.517,1.998 46.842,1.889C17.875,0 1.571,16.434 0,54.181" style="fill:rgb(114,193,116);fill-rule:nonzero;"/>
            </g>
            <g transform="matrix(1,0,0,1,737.814,2055.79)">
                <path d="M0,105.952C-24.756,72.864 -35.037,38.515 -29.042,2.75C-28.709,0.767 -26.272,0 -24.871,1.442C1.635,28.721 9.017,63.934 0,105.952" style="fill:rgb(107,178,107);fill-rule:nonzero;"/>
            </g>
            <g transform="matrix(1,0,0,1,737.332,2055.79)">
                <path d="M0,105.952C24.756,72.864 35.037,38.515 29.041,2.75C28.709,0.767 26.272,0 24.871,1.442C-1.636,28.721 -9.017,63.934 0,105.952" style="fill:rgb(107,178,107);fill-rule:nonzero;"/>
            </g>
            <g transform="matrix(1,0,0,1,502.251,2051.33)">
                <path d="M0,11.46L-65.353,11.46L-65.353,3.611C-65.353,1.617 -63.735,0 -61.741,0L-3.611,0C-1.617,0 0,1.617 0,3.611L0,11.46Z" style="fill:rgb(204,203,202);fill-rule:nonzero;"/>
            </g>
            <g transform="matrix(1,0,0,1,565.618,2053.24)">
                <path d="M0,9.549L-15.695,9.549C-16.877,9.549 -17.836,8.59 -17.836,7.407L-17.836,2.141C-17.836,0.958 -16.877,0 -15.695,0L0,0C1.183,0 2.142,0.958 2.142,2.141L2.142,7.407C2.142,8.59 1.183,9.549 0,9.549" style="fill:rgb(204,203,202);fill-rule:nonzero;"/>
            </g>
            <g transform="matrix(1,0,0,1,569.639,1974.93)">
                <path d="M0,60.088L-90.783,60.088C-92.057,60.088 -93.089,59.055 -93.089,57.78L-93.089,2.308C-93.089,1.033 -92.057,0 -90.783,0L0,0C1.274,0 2.307,1.033 2.307,2.308L2.307,57.78C2.307,59.055 1.274,60.088 0,60.088" style="fill:rgb(192,237,236);fill-rule:nonzero;"/>
            </g>
            <g transform="matrix(1,0,0,1,517.901,2062.79)">
                <path d="M0,-20.132L0,0L13.305,0L13.305,-20.132" style="fill:rgb(204,203,202);fill-rule:nonzero;"/>
            </g>
            <g transform="matrix(0,-1,-1,0,370.618,2209.75)">
                <path d="M-11.615,-11.614C-18.029,-11.614 -23.229,-6.414 -23.229,0.001C-23.229,6.415 -18.029,11.615 -11.615,11.615C-5.2,11.615 0,6.415 0,0.001C0,-6.414 -5.2,-11.614 -11.615,-11.614" style="fill:rgb(39,70,79);fill-rule:nonzero;"/>
            </g>
            <g transform="matrix(0,-1,-1,0,286.372,2209.75)">
                <path d="M-11.615,-11.614C-18.029,-11.614 -23.229,-6.414 -23.229,0.001C-23.229,6.415 -18.029,11.615 -11.615,11.615C-5.2,11.615 0,6.415 0,0.001C0,-6.414 -5.2,-11.614 -11.615,-11.614" style="fill:rgb(39,70,79);fill-rule:nonzero;"/>
            </g>
            <g transform="matrix(1,0,0,1,321.924,2175.98)">
                <path d="M0,35.815L-23.938,44.007L-28.592,36.109L1.305,25.878L1.305,-8.192L12.3,-8.192L12.3,25.878L42.196,36.109L37.543,44.007L13.604,35.815" style="fill:rgb(39,70,79);fill-rule:nonzero;"/>
            </g>
            <g transform="matrix(0,-1,-1,0,273.827,1860.13)">
                <path d="M-5.668,-5.669C-8.799,-5.669 -11.337,-3.131 -11.337,-0.001C-11.337,3.13 -8.799,5.668 -5.668,5.668C-2.538,5.668 0,3.13 0,-0.001C0,-3.131 -2.538,-5.669 -5.668,-5.669" style="fill:rgb(39,70,79);fill-rule:nonzero;"/>
            </g>
            <g transform="matrix(0.617776,-0.786354,-0.786354,-0.617776,261.301,1897.21)">
                <path d="M-7.282,14.98L30.82,14.98" style="fill:none;fill-rule:nonzero;stroke:rgb(39,70,79);stroke-width:1px;stroke-linecap:butt;stroke-linejoin:miter;"/>
            </g>
            <g transform="matrix(-0.617776,-0.786354,-0.786354,0.617776,294.907,1860.19)">
                <path d="M-30.82,14.98L7.282,14.98" style="fill:none;fill-rule:nonzero;stroke:rgb(39,70,79);stroke-width:1px;stroke-linecap:butt;stroke-linejoin:miter;"/>
            </g>
            <g transform="matrix(1,0,0,1,277.493,2232.98)">
                <path d="M509.635,9.757L-75.597,9.757C-78.291,9.757 -80.475,7.572 -80.475,4.879C-80.475,2.185 -78.291,0 -75.597,0L509.635,0C512.329,0 514.513,2.185 514.513,4.879C514.513,7.572 512.329,9.757 509.635,9.757Z" style="fill:rgb(224,224,224);fill-rule:nonzero;"/>
            </g>
            <g transform="matrix(1,0,0,1,403.293,2051.71)">
                <path d="M0,12.602L0,-9.573C0,-11.069 1.213,-12.283 2.71,-12.283L20.343,-12.283C21.913,-12.283 23.186,-11.009 23.186,-9.439L23.186,24.885" style="fill:rgb(204,203,202);fill-rule:nonzero;"/>
            </g>
            <g transform="matrix(0.907303,0.420478,0.420478,-0.907303,301.693,2127.49)">
                <path d="M-1.109,-5.032C6.975,-10.127 15.978,-8.205 22.825,-5.032" style="fill:white;fill-rule:nonzero;stroke:black;stroke-width:0.53px;"/>
            </g>
            <g transform="matrix(1,0,0,1,377.328,2141.77)">
                <path d="M0,26.018L-97.667,26.018C-100.889,26.018 -103.5,23.406 -103.5,20.184L-103.5,5.834C-103.5,2.613 -100.889,0 -97.667,0L0,0C3.222,0 5.833,2.613 5.833,5.834L5.833,20.184C5.833,23.406 3.222,26.018 0,26.018" style="fill:rgb(232,148,73);fill-rule:nonzero;"/>
            </g>
            <g transform="matrix(0,-1,-1,0,328.495,2209.75)">
                <path d="M-11.615,-11.614C-18.029,-11.614 -23.229,-6.414 -23.229,0.001C-23.229,6.415 -18.029,11.615 -11.615,11.615C-5.2,11.615 0,6.415 0,0.001C0,-6.414 -5.2,-11.614 -11.615,-11.614" style="fill:rgb(39,70,79);fill-rule:nonzero;"/>
            </g>
            <g transform="matrix(1,0,0,1,314.985,1936.73)">
                <path d="M0,-7.13C-1.785,-8.206 -7.535,-7.183 -7.408,-4.485L-5.23,1.076L0,-7.13Z" style="fill:rgb(214,115,105);fill-rule:nonzero;"/>
            </g>
            <g transform="matrix(1,0,0,1,245.757,2014.89)">
                <path d="M0,33.103C33.306,50.188 47.125,25.334 44.863,-4.331L44.259,-17.107L44.046,-21.616L43.557,-31.955C42.989,-43.969 46.729,-55.189 53.417,-64.119L53.273,-64.044C49.272,-69.011 47.992,-73.93 47.659,-78.834C47.568,-80.168 49.146,-80.934 50.176,-80.08C54.424,-76.555 58.995,-73.481 62.041,-72.994C62.61,-73.454 63.161,-73.934 63.751,-74.37C62.538,-77.279 61.988,-80.175 61.792,-83.066C61.702,-84.401 69.277,-80.436 71.58,-79.107C77.458,-81.958 83.992,-83.699 90.93,-84.027C118.391,-85.325 141.705,-64.116 143.002,-36.654L143.867,-18.361L146.458,36.463L146.958,47.063L48.553,116.458C10.34,118.428 -10.032,91.553 -18.756,48.914C-21.334,36.316 -11.441,27.234 0,33.103" style="fill:rgb(214,115,105);fill-rule:nonzero;"/>
            </g>
            <g transform="matrix(1,0,0,1,251.65,2031.52)">
                <path d="M0,15.873C32.598,31.974 46.123,7.318 43.883,-22.055L43.279,-34.831L43.066,-39.34L42.578,-49.679C42.01,-61.692 45.75,-72.912 52.437,-81.843L52.293,-81.769C48.303,-86.722 47.019,-91.629 46.682,-96.519C46.589,-97.871 48.153,-98.669 49.196,-97.804C53.444,-94.278 58.016,-91.204 61.061,-90.717C61.067,-90.722 61.072,-90.727 61.078,-90.731C62.05,-91.519 62.443,-92.831 62.06,-94.023C61.336,-96.272 60.969,-98.514 60.815,-100.753C60.722,-102.106 62.287,-102.9 63.33,-102.035C65.763,-100.016 68.298,-98.159 70.6,-96.831C76.478,-99.682 83.012,-101.423 89.95,-101.751L89.951,-101.751C117.412,-103.049 140.725,-81.839 142.023,-54.378L142.887,-36.084L145.478,18.739L145.979,29.34C147.047,91.395 126.7,118.922 52.604,110.132C14.539,112.418 -10.586,75.057 -19.705,31.338C-22.06,20.049 -10.34,10.766 0,15.873" style="fill:rgb(238,127,112);fill-rule:nonzero;"/>
            </g>
            <g transform="matrix(-0.0472329,-0.998884,-0.998884,0.0472329,374.303,1963.02)">
                <path d="M-3.5,-3.67C-5.733,-3.669 -7.545,-2.101 -7.545,-0.166C-7.545,1.769 -5.734,3.337 -3.5,3.338C-1.266,3.337 0.545,1.769 0.546,-0.166C0.545,-2.101 -1.266,-3.67 -3.5,-3.67" style="fill:rgb(39,70,79);fill-rule:nonzero;"/>
            </g>
            <g transform="matrix(-0.0470973,-0.99889,-0.99889,0.0470973,359.838,1964.23)">
                <path d="M-3.499,-3.668C-5.733,-3.668 -7.544,-2.101 -7.545,-0.165C-7.545,1.769 -5.734,3.339 -3.499,3.338C-1.266,3.338 0.545,1.771 0.546,-0.165C0.546,-2.099 -1.266,-3.669 -3.499,-3.668" style="fill:rgb(39,70,79);fill-rule:nonzero;"/>
            </g>
            <g transform="matrix(1,0,0,1,347.462,1950.88)">
                <path d="M0,9.114L12.008,5.298C12.875,5.022 13.354,4.096 13.078,3.23L12.392,1.071C12.117,0.205 11.191,-0.275 10.325,0.001L-1.684,3.817C-2.55,4.093 -3.029,5.017 -2.753,5.884L-2.067,8.044C-1.792,8.91 -0.866,9.389 0,9.114" style="fill:rgb(39,70,79);fill-rule:nonzero;"/>
            </g>
            <g transform="matrix(1,0,0,1,382.808,1949.28)">
                <path d="M0,8.099L-12.314,5.433C-13.203,5.241 -13.767,4.364 -13.575,3.476L-13.095,1.261C-12.902,0.372 -12.026,-0.192 -11.138,-0L1.177,2.667C2.065,2.86 2.629,3.736 2.437,4.624L1.957,6.839C1.765,7.728 0.889,8.291 0,8.099" style="fill:rgb(39,70,79);fill-rule:nonzero;"/>
            </g>
            <g transform="matrix(1,0,0,1,395.731,1997.95)">
                <path d="M0,22.752C-16.7,25.96 -31.908,11.755 -31.812,-3.208L0,22.752Z" style="fill:rgb(214,115,105);fill-rule:nonzero;"/>
            </g>
            <g transform="matrix(1,0,0,1,402.123,2016.65)">
                <path d="M0,-24.51C-9.1,-21.169 -20.455,-23.982 -25.424,-30.104C-27.866,-32.516 -31.245,-34.496 -34.217,-33.221C-38.254,-31.487 -39.555,-26.918 -38.17,-21.219C-31.998,-0.995 -3.429,9.986 8.731,1.719C16.038,-1.419 19.513,-9.666 16.492,-16.701C13.471,-23.737 5.098,-26.896 -2.209,-23.758" style="fill:rgb(242,198,102);fill-rule:nonzero;"/>
            </g>
            <g transform="matrix(0.0472008,0.998885,0.998885,-0.0472008,313.545,1960.85)">
                <path d="M5.016,-4.784C7.789,-4.784 10.037,-2.536 10.037,0.237C10.036,3.01 7.789,5.259 5.016,5.259C2.243,5.258 -0.006,3.01 -0.006,0.237C-0.006,-2.536 2.242,-4.784 5.016,-4.784" style="fill:rgb(214,115,105);fill-rule:nonzero;"/>
            </g>
            <g transform="matrix(0.0469975,0.998895,0.998895,-0.0469975,322.484,1970.9)">
                <path d="M2.508,-2.393C3.896,-2.393 5.019,-1.269 5.019,0.118C5.018,1.505 3.894,2.629 2.508,2.629C1.12,2.628 -0.003,1.504 -0.003,0.117C-0.003,-1.27 1.121,-2.393 2.508,-2.393" style="fill:rgb(214,115,105);fill-rule:nonzero;"/>
            </g>
            <g transform="matrix(0.0473389,0.998879,0.998879,-0.0473389,313.184,1974.88)">
                <path d="M3.671,-3.502C5.7,-3.502 7.347,-1.857 7.347,0.173C7.346,2.204 5.702,3.848 3.671,3.85C1.641,3.85 -0.005,2.204 -0.005,0.174C-0.005,-1.856 1.64,-3.501 3.671,-3.502" style="fill:rgb(214,115,105);fill-rule:nonzero;"/>
            </g>
            <g transform="matrix(0.373057,-0.927808,-0.927808,-0.373057,398.817,2003.77)">
                <path d="M-5.866,-6.543C-11.792,-2.906 -13.513,4.284 -6.937,10.068C-6.482,10.469 -5.786,10.09 -5.866,9.49C-6.535,4.552 -6.079,-0.585 -4.892,-5.849C-4.764,-6.413 -5.373,-6.845 -5.866,-6.543" style="fill:white;fill-rule:nonzero;"/>
            </g>
            <g transform="matrix(1,0,0,1,397.063,2145.84)">
                <path d="M0,-92.893C0.274,-75.268 -0.193,-58.679 -2.494,-44.656C-10.215,-19.085 -29.116,7.078 -104.973,-5.162C-58.652,-11.8 -17.355,-36.242 -13.991,-93.127C-13.778,-96.729 -10.937,-99.615 -7.333,-99.785C-3.384,-99.971 -0.062,-96.845 0,-92.893" style="fill:rgb(214,115,105);fill-rule:nonzero;"/>
            </g>
            <g transform="matrix(-29.6349,-90.6781,90.6781,-29.6349,377.676,2148.03)">
                <path d="M0.733,-0.599C0.299,-0.267 0.286,0.608 0.567,0.72C0.636,0.748 0.713,0.698 0.733,0.626C0.801,0.351 0.967,0.167 1.183,0.022L0.733,-0.599Z" style="fill:url(#_Linear3);fill-rule:nonzero;"/>
            </g>
            <g transform="matrix(1,0,0,1,301.705,2054.17)">
                <path d="M0,45.094C8.131,50.596 17.479,54.094 27.055,56.026C36.651,57.959 46.511,58.391 56.256,57.703C66.006,57.018 75.681,55.217 84.995,52.295C89.646,50.824 94.217,49.088 98.609,46.984C102.998,44.883 107.242,42.46 111.104,39.541C114.944,36.625 118.48,33.211 120.882,29.115C122.091,27.081 122.951,24.864 123.327,22.576C123.5,21.421 123.601,20.285 123.421,19.196C123.382,18.639 123.192,18.112 123.065,17.573C122.851,17.059 122.685,16.526 122.393,16.046C120.287,12.068 115.562,9.674 111.085,9.902C106.151,10.198 101.174,10.177 96.228,9.766C86.357,8.747 76.635,6.18 67.686,1.961C63.209,-0.131 58.869,-2.506 54.75,-5.21C50.639,-7.927 46.671,-10.844 42.89,-13.98C42.847,-14.015 42.841,-14.078 42.876,-14.121C42.91,-14.162 42.971,-14.168 43.013,-14.137C50.926,-8.352 59.267,-3.111 68.253,0.688C72.743,2.571 77.324,4.253 82.051,5.397C86.765,6.573 91.566,7.367 96.402,7.774C101.243,8.149 106.097,8.145 110.961,7.827C116.266,7.591 121.62,10.357 124.146,15.126C125.448,17.463 125.678,20.393 125.186,22.889C124.732,25.444 123.746,27.862 122.421,30.028C119.78,34.391 116.049,37.869 112.062,40.823C108.058,43.784 103.707,46.207 99.227,48.296C94.743,50.387 90.097,52.098 85.378,53.537C75.931,56.395 66.156,58.11 56.32,58.701C46.488,59.262 36.563,58.69 26.932,56.614C17.321,54.539 7.968,50.89 -0.113,45.259C-0.159,45.228 -0.17,45.165 -0.138,45.119C-0.107,45.074 -0.045,45.064 0,45.094" style="fill:rgb(214,115,105);fill-rule:nonzero;"/>
            </g>
            <g transform="matrix(1,0,0,1,309.906,2035.53)">
                <path d="M0,78.671L-31.274,78.671C-46.244,78.671 -58.379,66.535 -58.379,51.566L-58.379,27.106C-58.379,12.136 -46.244,0 -31.274,0L0,0C14.97,0 27.105,12.136 27.105,27.106L27.105,51.566C27.105,66.535 14.97,78.671 0,78.671" style="fill:rgb(204,127,64);fill-rule:nonzero;"/>
            </g>
            <g transform="matrix(1,0,0,1,301.947,2031.13)">
                <clipPath id="_clip4">
                    <path d="M-23.314,4.404C-38.286,4.404 -50.419,16.54 -50.419,31.509L-50.419,55.968C-50.419,70.938 -38.286,83.074 -23.314,83.074L7.96,83.074C22.929,83.074 35.065,70.938 35.065,55.968L35.065,31.509C35.065,16.54 22.929,4.404 7.96,4.404L-23.314,4.404Z" clip-rule="nonzero"/>
                </clipPath>
                <g clip-path="url(#_clip4)">
                    <path d="M0,78.671L-31.274,78.671C-46.244,78.671 -58.38,66.536 -58.38,51.566L-58.38,27.106C-58.38,12.136 -46.244,0 -31.274,0L0,0C14.97,0 27.105,12.136 27.105,27.106L27.105,51.566C27.105,66.536 14.97,78.671 0,78.671" style="fill:rgb(232,148,73);fill-rule:nonzero;"/>
                </g>
            </g>
            <g transform="matrix(1,0,0,1,290.398,2077.04)">
                <path d="M0,75.883C-4.362,75.883 -7.898,72.347 -7.898,67.985L-7.898,7.898C-7.898,3.535 -4.362,0 0,0C4.362,0 7.898,3.535 7.898,7.898L7.898,67.985C7.898,72.347 4.362,75.883 0,75.883" style="fill:rgb(39,70,79);fill-rule:nonzero;"/>
            </g>
            <g transform="matrix(-1,0,0,1,507.362,2080.75)">
                <path d="M-148.05,-17.964L0,-17.964C0,-8.042 -8.043,0 -17.964,0L-130.086,0C-140.007,0 -148.05,-8.042 -148.05,-17.964" style="fill:rgb(39,70,79);fill-rule:nonzero;"/>
            </g>
            <g transform="matrix(0,-1,-1,0,481.036,1871.47)">
                <path d="M-27.566,-27.566C-42.789,-27.566 -55.131,-15.224 -55.131,0C-55.131,15.225 -42.789,27.566 -27.566,27.566C-12.341,27.566 -0.001,15.225 -0.001,0C-0.001,-15.224 -12.341,-27.566 -27.566,-27.566" style="fill:rgb(192,237,236);fill-rule:nonzero;"/>
            </g>
            <g transform="matrix(1,0,0,1,481.035,1910.68)">
                <path d="M0,-25.366L0,-11.645L15.486,0" style="fill:none;fill-rule:nonzero;stroke:rgb(39,70,79);stroke-width:2px;"/>
            </g>
            <g transform="matrix(1,0,0,1,391.893,2197.44)">
                <path d="M0,-3.38C3.443,-7.858 9.247,-10.244 15.155,-9.044C23.42,-7.365 28.759,0.696 27.08,8.961L25.707,15.718L-22.446,5.934L-17.36,-19.098L6.847,-11.391L10.688,-9.285" style="fill:rgb(39,70,79);fill-rule:nonzero;"/>
            </g>
            <g transform="matrix(1,0,0,1,411.336,2203.59)">
                <path d="M0,13.34L-39.06,5.405C-41.211,4.968 -42.602,2.869 -42.164,0.718L-41.9,-0.583L6.252,9.199C5.669,12.069 2.87,13.923 0,13.34" style="fill:rgb(36,62,68);fill-rule:nonzero;"/>
            </g>
            <g transform="matrix(1,0,0,1,396.963,2197.4)">
                <path d="M0,-7.627C11.673,-13.229 21.871,-4.759 22.218,5.602C18.514,-3.643 11.324,-8.335 0,-7.627" style="fill:rgb(36,62,68);fill-rule:nonzero;"/>
            </g>
            <g transform="matrix(1,0,0,1,393.347,2169.39)">
                <path d="M0,22.471L-17.294,19.616C-22.772,18.711 -26.48,13.536 -25.576,8.059C-24.694,2.718 -19.65,-0.896 -14.31,-0.014L3.293,2.892C8.686,3.782 12.336,8.876 11.446,14.269C10.55,19.695 5.426,23.367 0,22.471" style="fill:white;fill-rule:nonzero;"/>
            </g>
            <g transform="matrix(1,0,0,1,347.553,2176)">
                <path d="M0,-53.155C2.014,-57.057 6.81,-58.589 10.712,-56.575L37.696,-42.651L42.381,-40.234C48.448,-37.103 51.914,-30.516 51.057,-23.743L48.087,-0.254C47.666,3.08 44.611,5.434 41.28,4.993L38.489,4.623C34.66,4.116 31.968,0.602 32.475,-3.226L34.695,-19.994C35.165,-23.537 33.359,-26.994 30.183,-28.633L3.42,-42.442C-0.483,-44.457 -2.014,-49.253 0,-53.155" style="fill:rgb(242,198,102);fill-rule:nonzero;"/>
            </g>
            <g transform="matrix(1,0,0,1,384.449,2125.07)">
                <clipPath id="_clip5">
                    <path d="M-36.897,-2.218C-38.911,1.685 -37.38,6.48 -33.477,8.493L-6.713,22.302C-3.537,23.942 -1.731,27.399 -2.201,30.943L-4.422,47.711C-4.928,51.538 -2.236,55.052 1.592,55.558L4.383,55.93C7.715,56.369 10.768,54.015 11.19,50.682L14.161,27.193C15.017,20.419 11.552,13.833 5.485,10.702L0.801,8.284L-26.183,-5.639C-27.35,-6.241 -28.595,-6.525 -29.823,-6.525C-32.704,-6.525 -35.485,-4.954 -36.897,-2.218Z" clip-rule="nonzero"/>
                </clipPath>
                <g clip-path="url(#_clip5)">
                    <path d="M0,56.49L2.934,29.778C3.416,25.386 1.146,21.151 -2.777,19.121L-39.729,0L-40.227,8.87L-5.386,25.835L-6.865,52.768L0,56.49Z" style="fill:rgb(211,170,89);fill-rule:nonzero;"/>
                </g>
            </g>
        </g>
    </g>
    <defs>
        <linearGradient id="_Linear3" x1="0" y1="0" x2="1" y2="0" gradientUnits="userSpaceOnUse" gradientTransform="matrix(0.530911,-0.847428,-0.847428,-0.530911,0.351898,0.635718)"><stop offset="0" style="stop-color:rgb(214,115,105);stop-opacity:1"/><stop offset="0" style="stop-color:rgb(214,115,105);stop-opacity:1"/><stop offset="1" style="stop-color:rgb(238,127,112);stop-opacity:1"/></linearGradient>
    </defs>
</svg>
