<svg id="Layer_1" data-name="Layer 1" xmlns="http://www.w3.org/2000/svg" xmlns:xlink="http://www.w3.org/1999/xlink" viewBox="0 0 1000.81 614.39"><defs><clipPath id="clip-path-6"><path class="cls-1" d="M179.82 269v42.18a4.14 4.14 0 0 1-4.1 4.18h-.29a4.18 4.18 0 0 1-4-4.19V269"/></clipPath><clipPath id="clip-path-10"><path class="cls-1" d="M96.87 284.51h4.77v8.13a2.38 2.38 0 0 1-2.39 2.36 2.38 2.38 0 0 1-2.38-2.38v-8.13.02Z"/></clipPath><clipPath id="clip-path-9"><path class="cls-1" d="M77.81 284.51h4.77v8.13a2.38 2.38 0 0 1-2.39 2.36 2.38 2.38 0 0 1-2.38-2.38v-8.13.02Z"/></clipPath><clipPath id="clip-path-2"><path class="cls-2" d="M685.52 545.18a9.4 9.4 0 0 0-9.36-8.26h-88.54a9.4 9.4 0 0 0-9.36 8.26c-3.51 31.11 4 52.86 19 68.13l34.61.58 34.62-.58c15.08-15.31 22.51-37.02 19.03-68.13Z"/></clipPath><clipPath id="clip-path-3"><path class="cls-1" d="M312.58 439.16a8 8 0 0 1 10-5.09l28.87 9.42 5 1.64A16.25 16.25 0 0 1 367.68 460l.83 23.66a6.06 6.06 0 0 1-5.88 6.27l-2.81.08a7 7 0 0 1-7.19-6.79l-.5-16.9a8.48 8.48 0 0 0-5.83-7.81l-28.63-9.34a8 8 0 0 1-5.09-10.01Z"/></clipPath><clipPath id="clip-path-4"><rect x="33.13" y="152.09" width="143.51" height="122.47" rx="2.3" style="fill:none"/></clipPath><clipPath id="clip-path-5"><path class="cls-1" d="m154.93 271.65-6.38 12.29a10.58 10.58 0 0 0 .39 10.42l6.52 10.56a4.15 4.15 0 0 1-1.35 5.69 4.29 4.29 0 0 1-5.91-1.4L141 297.6a16.53 16.53 0 0 1-.6-16.32l7-13.47a3.92 3.92 0 0 1 5.29-1.67l.56.29a3.87 3.87 0 0 1 1.68 5.22Z"/></clipPath><clipPath id="clip-path"><path class="cls-1" d="M310.48 437.61a8 8 0 0 1 11.16-1.42l24 18.58 4.17 3.23a16.26 16.26 0 0 1 5.54 17.79l-7.18 22.56a6.06 6.06 0 0 1-7.64 3.93l-2.68-.87a7 7 0 0 1-4.49-8.81l5.22-16.09a8.46 8.46 0 0 0-2.87-9.31l-23.81-18.43a8 8 0 0 1-1.42-11.16Z"/></clipPath><clipPath id="clip-path-8"><path class="cls-1" d="m91.65 279.21-8.4 12.87c-2.45 3-3.18 6.95-1 10.27.11.17.18.36.28.54L97 327.71a1.18 1.18 0 0 1-.26 1.49c-1.36 1.11-4.38.76-5.31-.82L76.63 303c-.1-.18-.19-.36-.28-.54a10.31 10.31 0 0 1 .9-10.2l10.51-15.44"/></clipPath><clipPath id="clip-path-7"><path class="cls-1" d="m109.65 284.68 7.27 19.32a10.37 10.37 0 0 1-1 9.13l-9 14.29a1.18 1.18 0 0 0 .17 1.51c1.29 1.18 4.33 1 5.35-.53l9.38-14.88a10.36 10.36 0 0 0 .94-9.14l-7.29-19.94"/></clipPath><linearGradient id="linear-gradient-3" x1="124.77" y1="215.33" x2="140.26" y2="220.72" xlink:href="#linear-gradient-2"/><linearGradient id="linear-gradient-2" x1="61.14" y1="238.09" x2="82.02" y2="245.24" gradientUnits="userSpaceOnUse"><stop offset="0" stop-color="#f29538"/><stop offset="1" stop-color="#eda74c"/></linearGradient><linearGradient id="linear-gradient-4" x1="103.79" y1="279.46" x2="151.75" y2="255.62" xlink:href="#linear-gradient-2"/><linearGradient id="linear-gradient" x1="-1562.57" y1="457.88" x2="-1471.19" y2="430.51" gradientTransform="matrix(-1 .05 .05 1 -1197.86 29.79)" gradientUnits="userSpaceOnUse"><stop offset="0" stop-color="#d67369"/><stop offset="1" stop-color="#ee7f70"/></linearGradient><style>.cls-1{fill:#f2c666}.cls-2{fill:#d38444}.cls-20,.cls-29,.cls-37,.cls-50{fill:none}.cls-28,.cls-4{fill:#27464f}.cls-5{fill:#243e44}.cls-6{fill:#f2f2f2}.cls-8{fill:#d3aa59}.cls-9{fill:#cccbca}.cls-11{fill:#3e6970}.cls-11,.cls-28,.cls-37{stroke:#27464f}.cls-11,.cls-20,.cls-29{stroke-miterlimit:10}.cls-50{stroke:#000}.cls-28,.cls-29,.cls-37,.cls-50{stroke-linecap:round}.cls-28,.cls-37,.cls-50{stroke-linejoin:round}.cls-28,.cls-50{stroke-width:.53px}.cls-14{fill:#d67369}.cls-15{fill:#ee7f70}.cls-16{fill:#fff}.cls-20{stroke:#6bb26b;stroke-width:2px}.cls-21{fill:#72c174}.cls-22{fill:#db5852}.cls-23{fill:#fbb03b}.cls-27{fill:#21a396}.cls-29{stroke:#67a8a0;stroke-width:3px}.cls-31{fill:#ddb462}.cls-34{fill:#f29538}.cls-36{fill:#eda74c}.cls-40{fill:#d8b060}.cls-44{fill:#ccc}.cls-47{fill:#cea85b}.cls-49{fill:#c0edec}.cls-51{fill:#ea5353}</style></defs><path class="cls-4" d="M341.2 516.12a15.27 15.27 0 0 1 24.4 17l-2.58 6.4-45.58-18.35 9.54-23.7 22.41 12 3.4 2.77"/><path class="cls-5" d="M320 529.83h39.86a4 4 0 0 1 4 4v1.33h-49.13a5.3 5.3 0 0 1 5.27-5.33Z" transform="rotate(-158.07 339.318 532.471)"/><path class="cls-5" d="M347 512.82c12.49-3.39 21 6.79 19.45 17-2-9.72-8.22-15.64-19.45-17Z"/><path class="cls-6" d="M329.14 492H347a9.9 9.9 0 0 1 9.9 9.9 10 10 0 0 1-10 10h-17.51a10.05 10.05 0 0 1-10.05-10.05 9.8 9.8 0 0 1 9.8-9.85Z" transform="rotate(19.82 338.067 501.83)"/><path class="cls-1" d="M310.48 437.61a8 8 0 0 1 11.16-1.42l24 18.58 4.17 3.23a16.26 16.26 0 0 1 5.54 17.79l-7.18 22.56a6.06 6.06 0 0 1-7.64 3.93l-2.68-.87a7 7 0 0 1-4.49-8.81l5.22-16.09a8.46 8.46 0 0 0-2.87-9.31l-23.81-18.43a8 8 0 0 1-1.42-11.16Z"/><path class="cls-8" d="m336.12 502 7.73-25.74a10.69 10.69 0 0 0-3.68-11.52l-32.88-25.5-2.09 8.63 31.18 23-6.33 26.22Z" style="clip-path:url(#clip-path)"/><path class="cls-9" d="M372.88 383.15h63.02l-27.37 15.71h-34.97M408.92 411v-12.1l27-15.71q7.74 13.91 5.16 27.81"/><rect class="cls-9" y="427.13" width="42.26" height="15.3" rx="1.67"/><rect class="cls-9" x="21.13" y="402.91" width="42.26" height="15.3" rx="1.67"/><rect class="cls-9" x="348.37" y="168.84" width="42.26" height="15.3" rx="1.67"/><rect class="cls-9" x="775.24" y="396.8" width="42.26" height="15.3" rx="1.67"/><rect class="cls-9" x="754.11" y="365.42" width="42.26" height="15.3" rx="1.67"/><path d="M553.53 411H134.58a14.88 14.88 0 0 0 14.88 14.88h389.2A14.88 14.88 0 0 0 553.53 411Z" style="fill:#3e6970"/><path class="cls-4" d="M553.53 411h75a14.88 14.88 0 0 1-14.88 14.88h-83.32M157.79 425.84h17.26v188.05h-17.26zM231.98 425.84h17.26v188.05h-17.26z"/><path class="cls-4" d="M588.65 425.84h17.26v188.05h-17.26z"/><path class="cls-11" d="M425.59 425.84h104.74v62.68H425.59zM425.59 488.52h104.74v62.68H425.59zM425.59 551.21h104.74v62.68H425.59z"/><circle class="cls-4" cx="477.96" cy="457.18" r="6.55"/><circle class="cls-4" cx="477.96" cy="582.55" r="6.55"/><circle class="cls-4" cx="477.96" cy="519.86" r="6.55"/><rect x="21.13" y="141.57" width="171.34" height="144.98" rx="3.96" style="stroke-width:.53px;stroke-linejoin:round;stroke-linecap:round;stroke:#000;fill:#27464f"/><rect class="cls-11" x="33.5" y="152.09" width="143.51" height="122.47" rx="2.3"/><path d="m43.4 141.57 57.22-57.22a7.44 7.44 0 0 1 10.51 0l58.77 58.77" style="stroke-miterlimit:10;stroke:#27464f;fill:none"/><circle class="cls-4" cx="104.88" cy="87.76" r="6.03"/><path class="cls-2" d="M249.14 533.55h60.7v10.41h-60.7z"/><path class="cls-2" d="M337.89 604 310 473.44h13.7a9.94 9.94 0 0 0 0-19.88h-90.21a9.94 9.94 0 0 0 0 19.88h15.6L221.23 604a7.74 7.74 0 0 0 15.14 3.22l28.55-133.81h29.3l28.54 133.75a7.74 7.74 0 0 0 15.13-3.16Z"/><path class="cls-9" d="M480.73 411a14.29 14.29 0 0 1 28.57 0M525.57 378.83v32.13h42.92V381.8"/><rect class="cls-4" x="636.28" width="364.53" height="200.38" rx="5.15"/><path class="cls-14" d="M205.45 364.13c33.31 17.08 47.13-7.77 44.87-37.44l-.61-12.77-.21-4.51-.5-10.34a49.55 49.55 0 0 1 9.86-32.17l-.14.08a25 25 0 0 1-5.62-14.79 1.53 1.53 0 0 1 2.52-1.25c4.25 3.53 8.82 6.6 11.86 7.09.57-.46 1.12-.94 1.71-1.38a27.08 27.08 0 0 1-2-8.69c-.09-1.34 7.49 2.63 9.79 4a49.47 49.47 0 0 1 19.4-4.96 49.77 49.77 0 0 1 52.07 47.37l.87 18.29 2.59 54.83.5 10.6L254 447.48c-38.22 2-58.59-24.9-67.31-67.54-2.57-12.6 7.31-21.68 18.76-15.81Z"/><path class="cls-15" d="M211.35 363.52c32.59 16.11 46.12-8.55 43.88-37.92l-.61-12.78-.21-4.51-.49-10.31a49.65 49.65 0 0 1 9.86-32.16l-.14.07a25 25 0 0 1-5.64-14.78 1.53 1.53 0 0 1 2.51-1.28c4.25 3.52 8.82 6.6 11.87 7.09a3 3 0 0 0 1-3.29 27.58 27.58 0 0 1-1.25-6.73 1.53 1.53 0 0 1 2.52-1.28 54.19 54.19 0 0 0 7.27 5.2 49.6 49.6 0 0 1 19.35-4.92 49.77 49.77 0 0 1 52.07 47.37l.86 18.3 2.59 54.82.5 10.6c1.07 62.06-19.27 89.58-93.37 80.79-38.07 2.29-63.19-35.07-72.31-78.79-2.32-11.31 9.39-20.59 19.74-15.49Z"/><ellipse class="cls-4" cx="334.33" cy="282.64" rx="3.5" ry="4.05" transform="rotate(-2.71 333.843 282.215)"/><ellipse class="cls-4" cx="319.86" cy="283.85" rx="3.5" ry="4.05" transform="rotate(-2.71 319.223 283.35)"/><rect class="cls-4" x="304.37" y="268.79" width="15.89" height="5.56" rx="1.65" transform="rotate(162.37 312.32 271.568)"/><rect class="cls-4" x="328.99" y="266.68" width="15.89" height="5.56" rx="1.65" transform="rotate(12.22 336.92 269.416)"/><path class="cls-14" d="M355.43 336.83c-16.7 3.21-31.91-11-31.82-26Z"/><path class="cls-1" d="M361.82 308.27c-9.1 3.34-20.46.53-25.43-5.59-2.44-2.41-5.82-4.39-8.79-3.12-4 1.74-5.34 6.31-4 12 6.17 20.23 34.74 31.21 46.9 22.94a13.87 13.87 0 1 0-10.89-25.5"/><circle class="cls-14" cx="273.71" cy="281.98" r="5.02"/><circle class="cls-14" cx="282.41" cy="289.53" r="2.51"/><circle class="cls-14" cx="273.23" cy="294.67" r="3.68"/><path class="cls-16" d="M362.39 327.79c-5.58 4.14-12.89 3-15.81-5.21a.65.65 0 0 1 .94-.77 43.32 43.32 0 0 0 14.59 4.81.65.65 0 0 1 .28 1.17Z"/><path d="M261.34 415.48C304.28 445 384 420.23 385.86 391.36c.46-7.06-6.33-12.53-13.41-12.19-27 1.94-48.6-7.64-68.1-22.93" style="fill:url(#linear-gradient)"/><path class="cls-14" d="M261.4 415.4a74.4 74.4 0 0 0 27.06 10.93 109.54 109.54 0 0 0 29.2 1.68 126 126 0 0 0 28.74-5.41 104.53 104.53 0 0 0 13.6-5.31 72.44 72.44 0 0 0 12.49-7.45 37 37 0 0 0 9.78-10.42 19 19 0 0 0 2.45-6.54 11 11 0 0 0 .09-3.38 11.26 11.26 0 0 0-.35-1.63 10.85 10.85 0 0 0-.68-1.52 12.35 12.35 0 0 0-11.3-6.15 103.82 103.82 0 0 1-14.86-.13 88.28 88.28 0 0 1-28.54-7.81 101.91 101.91 0 0 1-12.94-7.17 133.92 133.92 0 0 1-11.86-8.77.1.1 0 0 1 0-.14.09.09 0 0 1 .13 0A127.23 127.23 0 0 0 329.65 371a88.61 88.61 0 0 0 28.15 7.09 102.53 102.53 0 0 0 14.56.05 14.3 14.3 0 0 1 13.19 7.3 11.72 11.72 0 0 1 1 7.76 20.71 20.71 0 0 1-2.77 7.14 38.61 38.61 0 0 1-10.36 10.79 73.56 73.56 0 0 1-12.83 7.48 106.16 106.16 0 0 1-13.85 5.24 126.5 126.5 0 0 1-29.02 5.15 110.2 110.2 0 0 1-29.39-2.08 74.9 74.9 0 0 1-27-11.36.1.1 0 0 1 0-.14.11.11 0 0 1 .07-.02Z"/><path class="cls-16" d="M663.13 59.43a5.8 5.8 0 0 0 3.5 1.28c1.47 0 2.27-.66 2.27-1.62 0-2.33-6-1.92-6-5.2 0-1.78 1.54-2.89 3.71-2.89a4.63 4.63 0 0 1 3.5 1.45l-.84.92a3.94 3.94 0 0 0-2.77-1.07c-1.26 0-2.06.61-2.06 1.55 0 2.07 6 1.68 6 5.13 0 1.81-1.62 3-4 3a6.57 6.57 0 0 1-4.05-1.49ZM666 48.54h1.12v3H666Zm1.12 12.93v3.26H666v-3.26ZM685.13 53.49h1.28l.13 1.55h.08a4.72 4.72 0 0 1 3.45-1.78c2.17 0 3.17 1.29 3.17 3.7v5.7h-1.57v-5.49c0-1.74-.6-2.55-2.09-2.55-1.1 0-1.83.55-2.88 1.65v6.39h-1.57ZM696.42 53.49h1.29l.13 1.17a4.89 4.89 0 0 1 3.17-1.4c2.47 0 3.79 1.83 3.79 4.68 0 3.12-2 4.94-4.16 4.94a4.31 4.31 0 0 1-2.64-1.19l.08 1.74v3.09h-1.57Zm6.83 4.45c0-2-.76-3.35-2.58-3.35a3.87 3.87 0 0 0-2.67 1.35v4.57a3.81 3.81 0 0 0 2.43 1.05c1.62 0 2.82-1.35 2.82-3.62ZM707.06 53.49h1.24l.13 1.21a2.28 2.28 0 0 1 2.09-1.44c.91 0 1.47.53 1.74 1.58.52-1 1.09-1.58 2.15-1.58 1.28 0 2 1 2 2.83v6.57h-1.55V56.2c0-1.05-.3-1.6-1-1.6s-1 .48-1.47 1.42v6.64h-1.44V56.2c0-1.05-.26-1.6-.94-1.6s-1.05.48-1.51 1.42v6.64h-1.54ZM734.49 54.76h-4.24v-1.27h5.81v9.17h-1.57Zm-.62-4.4a1.25 1.25 0 1 1 1.24 1.21 1.18 1.18 0 0 1-1.24-1.21ZM741.6 53.49h1.28L743 55h.07a4.76 4.76 0 0 1 3.46-1.78c2.17 0 3.17 1.29 3.17 3.7v5.7h-1.57v-5.45c0-1.74-.6-2.55-2.09-2.55-1.1 0-1.83.55-2.89 1.65v6.39h-1.55ZM752.48 61.45l.72-1a6.46 6.46 0 0 0 4 1.25c1.55 0 2.31-.65 2.31-1.42s-.36-1.19-2.85-1.69-3.66-1.34-3.66-2.72 1.3-2.61 3.81-2.61a6.91 6.91 0 0 1 3.7 1.17l-.75 1a5.41 5.41 0 0 0-3.08-1c-1.54 0-2.11.62-2.11 1.32s.79 1.13 2.67 1.53c3 .66 3.78 1.42 3.78 2.83s-1.45 2.73-4.08 2.73a8.05 8.05 0 0 1-4.46-1.39ZM766.32 59.09v-4.33h-2.61v-1.18l2.66-.09.21-2.94h1.3v2.94h4.49v1.27h-4.49v4.35c0 1.64.55 2.49 2.32 2.49a6.15 6.15 0 0 0 2.19-.41l.34 1.14a7.8 7.8 0 0 1-2.87.55c-2.67 0-3.54-1.53-3.54-3.79ZM775.23 60.28c0-2.05 1.93-3.06 6.66-3.43a2.17 2.17 0 0 0-2.43-2.3 6.38 6.38 0 0 0-3.21 1.09l-.62-1a8 8 0 0 1 4.09-1.33c2.51 0 3.74 1.5 3.74 3.78v5.62h-1.3l-.16-1.3a6.18 6.18 0 0 1-3.61 1.47c-1.74 0-3.16-.96-3.16-2.6Zm6.66 0v-2.4c-3.92.31-5.11 1.08-5.11 2.28 0 1 1 1.46 2 1.46a5 5 0 0 0 3.11-1.36ZM789.66 59.59v-9.1h-3.24v-1.26h4.81V59.7a1.65 1.65 0 0 0 1.8 1.88 4.17 4.17 0 0 0 1.72-.41l.4 1.16a5.54 5.54 0 0 1-2.45.55c-1.96 0-3.04-1.13-3.04-3.29ZM801 59.59v-9.1h-3.24v-1.26h4.81V59.7a1.66 1.66 0 0 0 1.81 1.88 4.17 4.17 0 0 0 1.71-.41l.4 1.16a5.54 5.54 0 0 1-2.45.55c-2.04 0-3.04-1.13-3.04-3.29ZM820.51 55.85h8.1V57h-8.1ZM831.55 64.34a2.55 2.55 0 0 1 1.51-2v-.08a1.65 1.65 0 0 1-.94-1.51 2.24 2.24 0 0 1 1.09-1.75v-.07a3 3 0 0 1-1.13-2.38 3.37 3.37 0 0 1 3.6-3.29 3.72 3.72 0 0 1 1.36.23h3.79v1.27h-2.38a2.73 2.73 0 0 1 .78 1.84c0 2-1.57 3.15-3.55 3.15a4.08 4.08 0 0 1-1.55-.33 1.24 1.24 0 0 0-.71 1c0 .72.7 1.05 1.9 1.05h2.06c2.36 0 3.49.61 3.49 2.15 0 1.73-2 3.21-5.09 3.21-2.68.05-4.23-.83-4.23-2.49Zm7.79-.42c0-.86-.7-1.11-2.09-1.11h-1.79a5.37 5.37 0 0 1-1.4-.15c-.87.47-1.17 1-1.17 1.52 0 1 1 1.57 3 1.57 2.11 0 3.45-.89 3.45-1.83Zm-1.55-7.37a2.11 2.11 0 1 0-2.11 2.17 2.07 2.07 0 0 0 2.11-2.17ZM853.71 57.94c0-4.81 2.43-7.26 5.54-7.26 2.61 0 3.83 2 3.83 4.49v5.6h-.94l-.14-1.1h-.07a3.39 3.39 0 0 1-2.49 1.33 2.37 2.37 0 0 1-2.44-2.47c0-1.93 1.78-2.83 5-3.23V55c0-1.81-.83-3.32-2.82-3.32-2.26 0-4.27 2.11-4.27 6.27s1.92 6.35 4.35 6.35a4.08 4.08 0 0 0 2.66-.86l.53.86a5.38 5.38 0 0 1-3.22 1c-3 .07-5.52-2.51-5.52-7.36Zm8.15.75v-2.37c-2.59.37-3.61 1-3.61 2.16a1.34 1.34 0 0 0 1.51 1.4 3 3 0 0 0 2.1-1.19ZM866 53.58l2.66-.09H874v1.27h-8Zm2.62-.86c0-2.23 1.17-3.72 3.7-3.72a7 7 0 0 1 2.64.52l-.36 1.18a5 5 0 0 0-2.13-.44 2.09 2.09 0 0 0-2.31 2.4v10h-1.54ZM876.65 58.05a4.62 4.62 0 0 1 4.68-4.79 4 4 0 0 1 4.19 4.3 6.14 6.14 0 0 1-.08.95h-7.75V57.3h6.83l-.4.44c0-2.17-1.07-3.25-2.75-3.25a3.23 3.23 0 0 0-3.17 3.56 3.33 3.33 0 0 0 3.58 3.59 4.94 4.94 0 0 0 2.79-.87l.57 1a6.29 6.29 0 0 1-3.55 1.09 4.64 4.64 0 0 1-4.94-4.81ZM888.17 60.28c0-2.05 1.92-3.06 6.66-3.43a2.17 2.17 0 0 0-2.43-2.3 6.38 6.38 0 0 0-3.21 1.09l-.62-1a8 8 0 0 1 4.09-1.33c2.51 0 3.73 1.5 3.73 3.78v5.62h-1.3l-.09-1.3h-.06a6.12 6.12 0 0 1-3.6 1.47c-1.75 0-3.17-.96-3.17-2.6Zm6.66 0v-2.4c-3.92.31-5.11 1.08-5.11 2.28 0 1 .94 1.46 2 1.46a5 5 0 0 0 3.11-1.36ZM901.84 59.09v-4.33h-2.6v-1.18l2.66-.09.2-2.94h1.31v2.94h4.49v1.27h-4.49v4.35c0 1.64.55 2.49 2.32 2.49a6 6 0 0 0 2.18-.41l.35 1.14a7.88 7.88 0 0 1-2.87.55c-2.68 0-3.55-1.53-3.55-3.79ZM911 49.23h1.57v3.65l-.1 2.17h.06a4.59 4.59 0 0 1 3.47-1.79c2.17 0 3.17 1.29 3.17 3.7v5.7h-1.57v-5.49c0-1.74-.6-2.55-2.09-2.55-1.1 0-1.83.55-2.89 1.65v6.39H911ZM921.82 58.05a4.63 4.63 0 0 1 4.69-4.79 3.94 3.94 0 0 1 4.18 4.3 7.91 7.91 0 0 1-.07.95h-7.75V57.3h6.82l-.4.44c0-2.17-1.07-3.25-2.75-3.25a3.24 3.24 0 0 0-3.17 3.56 3.33 3.33 0 0 0 3.63 3.59 5 5 0 0 0 2.79-.87l.56 1a6.28 6.28 0 0 1-3.54 1.09 4.64 4.64 0 0 1-4.99-4.81ZM934.57 53.49h1.31l.14 2.17h.05a4.81 4.81 0 0 1 4.08-2.4 3.94 3.94 0 0 1 1.82.38l-.36 1.36a4.54 4.54 0 0 0-1.7-.3c-1.37 0-2.68.7-3.77 2.62v5.36h-1.57ZM944.47 61.45l.72-1a6.49 6.49 0 0 0 4 1.25c1.54 0 2.3-.65 2.3-1.42s-.36-1.19-2.85-1.69-3.64-1.34-3.64-2.72 1.3-2.61 3.81-2.61a6.88 6.88 0 0 1 3.69 1.17l-.75 1a5.39 5.39 0 0 0-3.08-1c-1.54 0-2.11.62-2.11 1.32s.8 1.13 2.68 1.53c3 .66 3.77 1.42 3.77 2.83s-1.45 2.73-4.07 2.73a8.09 8.09 0 0 1-4.47-1.39ZM955.46 66.13 956 65a4.79 4.79 0 0 0 2.1.52c1.81 0 2.3-.93 2.3-2.48v-8.28h-4.25v-1.27h5.81v9.39c0 2.25-.89 3.87-3.85 3.87a6.09 6.09 0 0 1-2.65-.62Zm4.28-15.77a1.25 1.25 0 0 1 2.49 0 1.25 1.25 0 0 1-2.49 0ZM967.06 61.45l.72-1a6.49 6.49 0 0 0 4 1.25c1.54 0 2.3-.65 2.3-1.42s-.36-1.19-2.85-1.69-3.59-1.3-3.59-2.68 1.3-2.61 3.82-2.61a6.91 6.91 0 0 1 3.69 1.17l-.75 1a5.39 5.39 0 0 0-3.08-1c-1.54 0-2.11.62-2.11 1.32s.79 1.13 2.68 1.53c3 .66 3.77 1.42 3.77 2.83s-1.45 2.73-4.07 2.73a8.09 8.09 0 0 1-4.53-1.43ZM985.06 49.27h1.4l-6.18 16.41h-1.4ZM663.13 82a5.8 5.8 0 0 0 3.5 1.28c1.47 0 2.27-.66 2.27-1.62 0-2.34-6-1.92-6-5.2 0-1.78 1.54-2.89 3.71-2.89a4.63 4.63 0 0 1 3.5 1.45l-.84.93a3.91 3.91 0 0 0-2.77-1.08c-1.26 0-2.06.61-2.06 1.55 0 2.07 6 1.68 6 5.13 0 1.81-1.62 3-4 3a6.63 6.63 0 0 1-4.05-1.49ZM666 71.14h1.12v3H666Zm1.12 12.92v3.26H666v-3.26ZM684.47 76.08h1.24l.13 1.2a2.29 2.29 0 0 1 2.1-1.43c.9 0 1.47.53 1.73 1.59.53-1 1.1-1.59 2.15-1.59 1.28 0 2 1 2 2.83v6.57h-1.55V78.8c0-1.06-.3-1.61-1-1.61s-1 .47-1.47 1.42v6.64h-1.43V78.8c0-1.06-.27-1.61-1-1.61s-1 .47-1.5 1.42v6.64h-1.55ZM696.65 71.82h1.57v9.07h.07l4.92-4.81H705l-6.79 6.68v2.49h-1.57Zm3.53 8.57.94-1 4.38 5.89h-1.74ZM707.1 80.68c0-3 2-4.83 4.14-4.83A4 4 0 0 1 714 77v-5.18h1.57v13.43h-1.29l-.17-1.25h-.05a4.43 4.43 0 0 1-3 1.43c-2.38.04-3.96-1.69-3.96-4.75Zm6.9 2.12v-4.57a3.43 3.43 0 0 0-2.4-1.06c-1.58 0-2.87 1.4-2.87 3.5s1 3.48 2.7 3.48A3.47 3.47 0 0 0 714 82.8ZM723.2 77.35H719v-1.27h5.81v9.17h-1.61Zm-.63-4.4a1.25 1.25 0 0 1 2.49 0 1.25 1.25 0 0 1-2.49 0ZM731.28 76.08h1.31l.14 2.17a4.81 4.81 0 0 1 4.08-2.4 3.94 3.94 0 0 1 1.82.38l-.36 1.34a4.54 4.54 0 0 0-1.7-.3c-1.37 0-2.68.7-3.77 2.62v5.36h-1.57ZM752.23 76.08h1.25l.13 1.2a2.29 2.29 0 0 1 2.1-1.43c.91 0 1.47.53 1.73 1.59.53-1 1.1-1.59 2.15-1.59 1.28 0 2 1 2 2.83v6.57h-1.55V78.8c0-1.06-.3-1.61-1-1.61s-1 .47-1.47 1.42v6.64h-1.43V78.8c0-1.06-.26-1.61-.94-1.61s-1.06.47-1.51 1.42v6.64h-1.55ZM763.69 89l.33-1.24a3.06 3.06 0 0 0 .82.13 2.65 2.65 0 0 0 2.51-1.89l.26-.69-4.25-9.18h1.58l2.23 5c.35.82.75 1.78 1.12 2.66h.08l1-2.66 2-5h1.51L768.79 86c-.68 1.81-1.79 3.19-3.89 3.19a4 4 0 0 1-1.21-.19ZM775.33 78.44h8.11v1.17h-8.11ZM786.53 82.87c0-2.06 1.92-3.05 6.66-3.43a2.18 2.18 0 0 0-2.44-2.3 6.41 6.41 0 0 0-3.21 1.09l-.62-1.06a8.09 8.09 0 0 1 4.1-1.32c2.5 0 3.73 1.5 3.73 3.78v5.62h-1.3l-.13-1.25h-.06a6.11 6.11 0 0 1-3.6 1.47c-1.72 0-3.13-.95-3.13-2.6Zm6.66 0v-2.4c-3.93.31-5.11 1.08-5.11 2.29 0 1 .94 1.45 2 1.45a5 5 0 0 0 3.11-1.36ZM798.06 76.08h1.29l.13 1.17h.06a4.86 4.86 0 0 1 3.16-1.4c2.48 0 3.8 1.83 3.8 4.68 0 3.12-2 4.94-4.17 4.94a4.29 4.29 0 0 1-2.73-1.19h-.05l.08 1.74v3.09h-1.57Zm6.84 4.45c0-2-.76-3.36-2.59-3.36a3.92 3.92 0 0 0-2.68 1.36v4.56a3.8 3.8 0 0 0 2.44 1.06c1.62 0 2.83-1.35 2.83-3.62ZM809.36 76.08h1.29l.12 1.17h.06a4.89 4.89 0 0 1 3.17-1.4c2.47 0 3.79 1.83 3.79 4.68 0 3.12-2 4.94-4.17 4.94a4.31 4.31 0 0 1-2.73-1.19l.08 1.74v3.09h-1.57Zm6.83 4.45c0-2-.76-3.36-2.58-3.36a3.89 3.89 0 0 0-2.68 1.36v4.56a3.76 3.76 0 0 0 2.43 1.06c1.64 0 2.83-1.35 2.83-3.62ZM663.13 104.62a5.86 5.86 0 0 0 3.5 1.28c1.47 0 2.27-.67 2.27-1.63 0-2.34-6-1.92-6-5.21 0-1.76 1.54-2.88 3.71-2.88a4.67 4.67 0 0 1 3.5 1.45l-.84.93a3.91 3.91 0 0 0-2.77-1.08c-1.26 0-2.06.6-2.06 1.55 0 2.07 6 1.68 6 5.13 0 1.82-1.62 3-4 3a6.69 6.69 0 0 1-4.05-1.49ZM666 93.73h1.12v3H666Zm1.12 12.92v3.26H666v-3.26ZM684.88 103.27c0-3.07 2.34-4.83 5.11-4.83a4.62 4.62 0 0 1 3.34 1.35l-.77 1a3.72 3.72 0 0 0-2.51-1 3.36 3.36 0 0 0-3.56 3.52 3.32 3.32 0 0 0 3.53 3.49 4.31 4.31 0 0 0 2.82-1.15l.7 1a5.44 5.44 0 0 1-3.64 1.44c-2.9-.02-5.02-1.78-5.02-4.82ZM695.8 103.27c0-3 2-4.83 4.15-4.83a4 4 0 0 1 2.75 1.17l-.08-1.67v-3.53h1.57v13.43H703l-.13-1.21h-.06a4.44 4.44 0 0 1-3 1.44c-2.43 0-4.01-1.74-4.01-4.8Zm6.86 2.12v-4.57a3.35 3.35 0 0 0-2.39-1.06c-1.58 0-2.87 1.4-2.87 3.49s1 3.5 2.7 3.5a3.46 3.46 0 0 0 2.56-1.36ZM718.35 98.67h1.25l.12 1.21a2.28 2.28 0 0 1 2.1-1.44c.9 0 1.47.54 1.73 1.59.53-1 1.1-1.59 2.15-1.59 1.28 0 2 1 2 2.84v6.56h-1.55v-6.45c0-1.06-.3-1.6-1-1.6s-1 .46-1.47 1.41v6.64h-1.43v-6.45c0-1.06-.27-1.6-1-1.6s-1 .46-1.5 1.41v6.64h-1.55ZM729.81 111.59l.33-1.24a3.06 3.06 0 0 0 .82.13 2.67 2.67 0 0 0 2.51-1.94l.26-.68-4.26-9.19h1.59l2.23 5.06c.35.81.75 1.77 1.12 2.66h.08l1-2.66 2-5.06H739l-4.06 9.92c-.67 1.81-1.79 3.19-3.88 3.19a3.7 3.7 0 0 1-1.25-.19ZM741.45 101h8.11v1.17h-8.11ZM752.64 105.46c0-2.06 1.93-3 6.67-3.43a2.19 2.19 0 0 0-2.44-2.31 6.38 6.38 0 0 0-3.21 1.1l-.66-1.06a8.09 8.09 0 0 1 4.1-1.32c2.5 0 3.73 1.49 3.73 3.77v5.63h-1.3l-.14-1.25a6.19 6.19 0 0 1-3.6 1.48c-1.73 0-3.15-.97-3.15-2.61Zm6.67 0v-2.38c-3.93.3-5.12 1.08-5.12 2.29 0 1 .95 1.45 2 1.45a5 5 0 0 0 3.12-1.38ZM764.18 98.67h1.29l.13 1.17a4.91 4.91 0 0 1 3.17-1.4c2.48 0 3.8 1.84 3.8 4.68 0 3.11-2 4.95-4.17 4.95a4.34 4.34 0 0 1-2.73-1.19h-.05l.08 1.73v3.1h-1.57Zm6.84 4.45c0-2-.76-3.36-2.59-3.36a3.91 3.91 0 0 0-2.68 1.36v4.57a3.8 3.8 0 0 0 2.43 1.06c1.63 0 2.82-1.36 2.82-3.63ZM775.48 98.67h1.28l.13 1.17h.11a4.89 4.89 0 0 1 3.17-1.4c2.47 0 3.79 1.84 3.79 4.68 0 3.11-2 4.95-4.17 4.95a4.36 4.36 0 0 1-2.73-1.19l.08 1.73v3.1h-1.57Zm6.83 4.45c0-2-.76-3.36-2.59-3.36a3.89 3.89 0 0 0-2.67 1.36v4.57a3.76 3.76 0 0 0 2.43 1.06c1.62 0 2.83-1.36 2.83-3.63ZM663.13 127.2a5.81 5.81 0 0 0 3.5 1.29c1.47 0 2.27-.66 2.27-1.63 0-2.34-6-1.92-6-5.2 0-1.77 1.54-2.89 3.71-2.89a4.67 4.67 0 0 1 3.5 1.45l-.84.93a3.91 3.91 0 0 0-2.77-1.08c-1.26 0-2.06.61-2.06 1.55 0 2.08 6 1.68 6 5.13 0 1.81-1.62 3-4 3a6.58 6.58 0 0 1-4.05-1.5Zm2.87-10.88h1.12v3H666Zm1.12 12.92v3.26H666v-3.26ZM685.32 121.36l2.66-.1h5.33v1.27h-8Zm2.62-.87c0-2.23 1.17-3.72 3.69-3.72a6.81 6.81 0 0 1 2.65.53l-.36 1.17a5 5 0 0 0-2.13-.43 2.09 2.09 0 0 0-2.31 2.39v10h-1.54ZM696 125.83a4.61 4.61 0 0 1 4.68-4.79 3.94 3.94 0 0 1 4.19 4.3 5.89 5.89 0 0 1-.08.94H697v-1.21h6.83l-.4.44c0-2.17-1.07-3.25-2.75-3.25s-3.17 1.28-3.17 3.57a3.32 3.32 0 0 0 3.58 3.58 5 5 0 0 0 2.79-.87l.57 1a6.26 6.26 0 0 1-3.55 1.1 4.65 4.65 0 0 1-4.9-4.81ZM707.47 128.05c0-2.05 1.92-3.05 6.66-3.43a2.18 2.18 0 0 0-2.43-2.3 6.29 6.29 0 0 0-3.21 1.1l-.62-1.06A8 8 0 0 1 712 121c2.51 0 3.73 1.49 3.73 3.77v5.62h-1.3l-.13-1.24h-.06a6.22 6.22 0 0 1-3.6 1.47c-1.76.04-3.17-.93-3.17-2.57Zm6.66 0v-2.38c-3.92.3-5.11 1.07-5.11 2.28 0 1 .94 1.45 2 1.45a5 5 0 0 0 3.11-1.4ZM721.14 126.86v-4.33h-2.6v-1.17l2.66-.1.2-2.94h1.31v2.94h4.48v1.27h-4.48v4.35c0 1.65.54 2.49 2.32 2.49a6 6 0 0 0 2.18-.41l.35 1.15a8.1 8.1 0 0 1-2.87.55c-2.69 0-3.55-1.53-3.55-3.8ZM730.3 117h1.57v3.66l-.1 2.17h.06a4.59 4.59 0 0 1 3.42-1.79c2.17 0 3.17 1.28 3.17 3.69v5.7h-1.57v-5.49c0-1.73-.6-2.55-2.09-2.55-1.1 0-1.84.55-2.89 1.64v6.4h-1.57ZM741.12 125.83a4.61 4.61 0 0 1 4.69-4.79 3.93 3.93 0 0 1 4.18 4.3 7.57 7.57 0 0 1-.07.94h-7.75v-1.21H749l-.4.44c0-2.17-1.07-3.25-2.75-3.25s-3.17 1.28-3.17 3.57a3.33 3.33 0 0 0 3.59 3.58 5 5 0 0 0 2.79-.87l.56 1a6.2 6.2 0 0 1-3.54 1.1 4.65 4.65 0 0 1-4.96-4.81ZM753.87 121.26h1.31l.14 2.17a4.79 4.79 0 0 1 4.08-2.39 3.93 3.93 0 0 1 1.82.37l-.37 1.34a4.69 4.69 0 0 0-1.69-.3c-1.38 0-2.68.7-3.77 2.62v5.36h-1.57ZM763.77 129.22l.72-1a6.49 6.49 0 0 0 4 1.25c1.54 0 2.3-.65 2.3-1.42s-.36-1.19-2.85-1.69-3.58-1.31-3.58-2.68 1.3-2.6 3.81-2.6a6.87 6.87 0 0 1 3.69 1.16l-.75 1a5.39 5.39 0 0 0-3.08-1c-1.54 0-2.11.62-2.11 1.32s.8 1.14 2.68 1.53c3 .66 3.77 1.41 3.77 2.83s-1.45 2.74-4.07 2.74a8 8 0 0 1-4.53-1.44ZM786.38 132.11a2.53 2.53 0 0 1 1.51-2V130a1.68 1.68 0 0 1-.95-1.51 2.23 2.23 0 0 1 1.1-1.72v-.08a2.89 2.89 0 0 1-1.13-2.37 3.36 3.36 0 0 1 3.6-3.28 3.67 3.67 0 0 1 1.35.22h3.8v1.27h-2.38a2.72 2.72 0 0 1 .77 1.84c0 2-1.56 3.15-3.54 3.15a3.92 3.92 0 0 1-1.55-.34 1.26 1.26 0 0 0-.72 1.06c0 .72.7 1.06 1.91 1.06h2.06c2.36 0 3.48.6 3.48 2.14 0 1.73-2 3.21-5.09 3.21-2.68 0-4.22-.92-4.22-2.54Zm7.79-.42c0-.87-.7-1.11-2.1-1.11h-1.79a5.41 5.41 0 0 1-1.4-.15c-.87.47-1.17 1-1.17 1.53 0 1 1 1.57 3 1.57s3.46-.9 3.46-1.84Zm-1.55-7.37a2.12 2.12 0 1 0-2.11 2.17 2.07 2.07 0 0 0 2.11-2.17ZM797.59 125.83a4.61 4.61 0 0 1 4.68-4.79 3.94 3.94 0 0 1 4.19 4.3 7.57 7.57 0 0 1-.07.94h-7.76v-1.21h6.83l-.4.44c0-2.17-1.07-3.25-2.75-3.25s-3.17 1.28-3.17 3.57a3.33 3.33 0 0 0 3.59 3.58 5 5 0 0 0 2.79-.87l.56 1a6.2 6.2 0 0 1-3.54 1.1 4.65 4.65 0 0 1-4.95-4.81ZM809.36 121.26h1.29l.12 1.55h.08a4.75 4.75 0 0 1 3.45-1.81c2.17 0 3.17 1.28 3.17 3.69v5.7h-1.57v-5.49c0-1.73-.6-2.55-2.09-2.55-1.09 0-1.83.55-2.88 1.64v6.4h-1.57ZM820.18 125.83a4.61 4.61 0 0 1 4.68-4.79 3.94 3.94 0 0 1 4.19 4.3 5.89 5.89 0 0 1-.08.94h-7.75v-1.21h6.83l-.4.44c0-2.17-1.07-3.25-2.75-3.25s-3.17 1.28-3.17 3.57a3.32 3.32 0 0 0 3.59 3.58 4.93 4.93 0 0 0 2.78-.87l.57 1a6.2 6.2 0 0 1-3.54 1.1 4.65 4.65 0 0 1-4.95-4.81ZM832.93 121.26h1.3l.15 2.17a4.82 4.82 0 0 1 4.09-2.39 3.87 3.87 0 0 1 1.81.37l-.36 1.34a4.75 4.75 0 0 0-1.7-.3c-1.37 0-2.67.7-3.76 2.62v5.36h-1.57ZM843 128.05c0-2.05 1.93-3.05 6.67-3.43a2.19 2.19 0 0 0-2.44-2.3 6.29 6.29 0 0 0-3.21 1.1l-.62-1.06a8 8 0 0 1 4.1-1.32c2.5 0 3.73 1.49 3.73 3.77v5.62h-1.3l-.14-1.24a6.24 6.24 0 0 1-3.6 1.47c-1.78 0-3.19-.97-3.19-2.61Zm6.67 0v-2.38c-3.93.3-5.11 1.07-5.11 2.28 0 1 .94 1.45 2 1.45a5 5 0 0 0 3.1-1.4ZM856.67 126.86v-4.33h-2.61v-1.17l2.66-.1.21-2.94h1.3v2.94h4.49v1.27h-4.49v4.35c0 1.65.55 2.49 2.32 2.49a6.15 6.15 0 0 0 2.19-.41l.34 1.15a8 8 0 0 1-2.87.55c-2.67 0-3.54-1.53-3.54-3.8ZM865.36 125.83A4.61 4.61 0 0 1 870 121a3.93 3.93 0 0 1 4.18 4.3 6 6 0 0 1-.07.94h-7.71v-1.21h6.82l-.39.44c0-2.17-1.08-3.25-2.76-3.25s-3.16 1.28-3.16 3.57a3.32 3.32 0 0 0 3.58 3.58 5 5 0 0 0 2.79-.87l.56 1a6.2 6.2 0 0 1-3.54 1.1 4.64 4.64 0 0 1-4.94-4.77ZM888.17 128.05c0-2.05 1.92-3.05 6.66-3.43a2.17 2.17 0 0 0-2.43-2.3 6.29 6.29 0 0 0-3.21 1.1l-.62-1.06a8 8 0 0 1 4.09-1.32c2.51 0 3.73 1.49 3.73 3.77v5.62h-1.3l-.13-1.24h-.06a6.19 6.19 0 0 1-3.6 1.47c-1.71 0-3.13-.97-3.13-2.61Zm6.66 0v-2.38c-3.92.3-5.11 1.07-5.11 2.28 0 1 .94 1.45 2 1.45a5 5 0 0 0 3.11-1.4ZM899.71 121.26H901l.12 1.18h.06a4.84 4.84 0 0 1 3.17-1.4c2.47 0 3.79 1.82 3.79 4.67 0 3.12-2 5-4.17 5a4.36 4.36 0 0 1-2.73-1.19l.08 1.73v3.1h-1.57Zm6.83 4.45c0-2-.76-3.35-2.58-3.35a3.87 3.87 0 0 0-2.68 1.35v4.57a3.83 3.83 0 0 0 2.43 1.06c1.62 0 2.83-1.34 2.83-3.63ZM911 121.26h1.29l.13 1.18h.05a4.86 4.86 0 0 1 3.17-1.4c2.48 0 3.79 1.82 3.79 4.67 0 3.12-2 5-4.16 5a4.39 4.39 0 0 1-2.74-1.19l.08 1.73v3.1H911Zm6.84 4.45c0-2-.76-3.35-2.59-3.35a3.89 3.89 0 0 0-2.68 1.35v4.57a3.85 3.85 0 0 0 2.43 1.06c1.63 0 2.84-1.34 2.84-3.63ZM663.13 149.79a5.81 5.81 0 0 0 3.5 1.29c1.47 0 2.27-.66 2.27-1.63 0-2.33-6-1.91-6-5.2 0-1.78 1.54-2.89 3.71-2.89a4.6 4.6 0 0 1 3.5 1.46l-.84.92a3.91 3.91 0 0 0-2.77-1.08c-1.26 0-2.06.61-2.06 1.55 0 2.08 6 1.68 6 5.13 0 1.81-1.62 3-4 3a6.63 6.63 0 0 1-4.05-1.49Zm2.87-10.88h1.12v3H666Zm1.12 12.92v3.27H666v-3.27ZM685.13 143.85h1.28l.13 1.55h.08a4.75 4.75 0 0 1 3.45-1.77c2.17 0 3.17 1.28 3.17 3.7V153h-1.57v-5.48c0-1.75-.6-2.55-2.09-2.55-1.1 0-1.83.54-2.88 1.64V153h-1.57ZM696.42 143.85h1.29l.13 1.17a4.88 4.88 0 0 1 3.17-1.39c2.47 0 3.79 1.82 3.79 4.68 0 3.11-2 4.94-4.16 4.94a4.36 4.36 0 0 1-2.74-1.19l.08 1.73v3.1h-1.57Zm6.83 4.46c0-2-.76-3.36-2.58-3.36a3.91 3.91 0 0 0-2.67 1.35v4.57a3.81 3.81 0 0 0 2.43 1c1.62.05 2.82-1.3 2.82-3.56ZM707.06 143.85h1.24l.13 1.21a2.27 2.27 0 0 1 2.09-1.43c.91 0 1.47.52 1.74 1.58.52-1 1.09-1.58 2.15-1.58 1.28 0 2 1 2 2.83V153h-1.55v-6.45c0-1.06-.3-1.61-1-1.61s-1 .48-1.47 1.42V153h-1.44v-6.45c0-1.06-.26-1.61-.94-1.61s-1.05.48-1.51 1.42V153h-1.54ZM729.89 151.81l.72-1a6.49 6.49 0 0 0 4 1.25c1.54 0 2.3-.64 2.3-1.41s-.36-1.19-2.85-1.7-3.59-1.3-3.59-2.68 1.3-2.6 3.82-2.6a6.91 6.91 0 0 1 3.71 1.13l-.75 1a5.46 5.46 0 0 0-3.08-1c-1.54 0-2.11.62-2.11 1.32s.79 1.13 2.68 1.53c3 .66 3.77 1.42 3.77 2.83s-1.45 2.74-4.07 2.74a8.09 8.09 0 0 1-4.55-1.41ZM743.73 149.45v-4.33h-2.61v-1.18l2.66-.09.21-2.94h1.31v2.94h4.48v1.27h-4.48v4.35c0 1.64.54 2.49 2.31 2.49a6.1 6.1 0 0 0 2.19-.41l.34 1.14a7.78 7.78 0 0 1-2.86.56c-2.68 0-3.55-1.54-3.55-3.8ZM752.64 150.64c0-2 1.93-3.06 6.67-3.43a2.19 2.19 0 0 0-2.44-2.3 6.47 6.47 0 0 0-3.21 1.09l-.66-1a8 8 0 0 1 4.1-1.32c2.5 0 3.73 1.49 3.73 3.77V153h-1.3l-.14-1.24a6.18 6.18 0 0 1-3.6 1.47c-1.73.02-3.15-.95-3.15-2.59Zm6.67 0v-2.37c-3.93.3-5.12 1.07-5.12 2.28 0 1 .95 1.45 2 1.45a5 5 0 0 0 3.12-1.38ZM765.16 143.85h1.31l.15 2.17a4.83 4.83 0 0 1 4.1-2.39 3.75 3.75 0 0 1 1.81.38l-.36 1.33a4.54 4.54 0 0 0-1.7-.3c-1.37 0-2.68.7-3.77 2.62V153h-1.57ZM777.61 149.45v-4.33H775v-1.18l2.65-.09.21-2.94h1.31v2.94h4.48v1.27h-4.48v4.35c0 1.64.54 2.49 2.31 2.49a6.06 6.06 0 0 0 2.19-.41l.35 1.14a7.88 7.88 0 0 1-2.87.56c-2.67 0-3.54-1.54-3.54-3.8Z"/><rect class="cls-4" x="576.78" y="169.12" width="91.42" height="51.81" rx="9.21"/><rect class="cls-4" x="538.17" y="206.63" width="58.36" height="33.07" rx="9.79"/><path class="cls-4" d="M530.33 425.84h58.32v188.05h-58.32z"/><circle class="cls-1" cx="679.29" cy="425.84" r="15.27"/><circle class="cls-1" cx="613.24" cy="462.44" r="15.27"/><path class="cls-2" d="M685.52 545.18a9.4 9.4 0 0 0-9.36-8.26h-88.54a9.4 9.4 0 0 0-9.36 8.26c-3.51 31.11 4 52.86 19 68.13l34.61.58 34.62-.58c15.08-15.31 22.51-37.02 19.03-68.13Z"/><g style="clip-path:url(#clip-path-2)"><path d="M664.52 545.18a9.4 9.4 0 0 0-9.36-8.26h-88.54a9.4 9.4 0 0 0-9.36 8.26c-3.51 31.11 4 52.86 19 68.13l34.61.58 34.62-.58c15.08-15.31 22.51-37.02 19.03-68.13Z" style="fill:#e89449"/></g><path class="cls-20" d="M616.45 477.72a209.94 209.94 0 0 1 6.78 59.2M670.62 438.74c-22.11 25.47-27.77 60.95-30.53 98.18"/><path class="cls-21" d="M613.24 536.92q-3-43.26-40.86-61.08a2.72 2.72 0 0 0-3.88 2.63 87.18 87.18 0 0 0 4 22.1l3.53-2.37a2.86 2.86 0 0 1 4 .77l1.62 2.4a2.87 2.87 0 0 1-.78 4l-5 3.4a52.6 52.6 0 0 0 5.35 8.6l3-2.69a3.29 3.29 0 0 1 4.63.26l.41.46a3.29 3.29 0 0 1-.26 4.6l-3 2.65c7.18 6.96 16.36 11.6 27.24 14.27ZM645.22 536.92q3.85-56.23 53.12-79.4a3.54 3.54 0 0 1 5 3.42 113.22 113.22 0 0 1-5.22 28.74l-4.59-3.09a3.73 3.73 0 0 0-5.18 1l-2.1 3.12a3.72 3.72 0 0 0 1 5.17l6.56 4.41a68.44 68.44 0 0 1-7 11.18L683 508a4.26 4.26 0 0 0-6 .34l-.53.59a4.27 4.27 0 0 0 .34 6l3.86 3.45c-9.38 9.04-21.31 15.07-35.45 18.54Z"/><circle class="cls-22" cx="662.11" cy="15.54" r="4.01"/><circle class="cls-23" cx="675.34" cy="15.54" r="4.01"/><circle class="cls-21" cx="688.56" cy="15.54" r="4.01"/><rect class="cls-2" x="223.55" y="381.2" width="13.69" height="78.55" rx="2.94"/><path class="cls-4" d="M367.75 502.35a15.27 15.27 0 0 1 28.7 7.85l-.27 6.89-49.1-2 1-25.52 25.13 3.73 4.13 1.46"/><path class="cls-5" d="M352.54 515.69h39.86a4 4 0 0 1 4 4V521h-49.16a5.3 5.3 0 0 1 5.3-5.31Z" transform="rotate(-177.73 371.811 518.345)"/><path class="cls-5" d="M372.07 497.31c10.62-7.4 22-.67 24 9.5-5.07-8.53-12.94-12.01-24-9.5Z"/><path class="cls-16" d="M351.08 480.08h17.84a9.9 9.9 0 0 1 9.9 9.9 10 10 0 0 1-10 10h-17.49a10.05 10.05 0 0 1-10.05-10.05 9.8 9.8 0 0 1 9.8-9.85Z" transform="rotate(.16 362.37 493.67)"/><path class="cls-1" d="M312.58 439.16a8 8 0 0 1 10-5.09l28.87 9.42 5 1.64A16.25 16.25 0 0 1 367.68 460l.83 23.66a6.06 6.06 0 0 1-5.88 6.27l-2.81.08a7 7 0 0 1-7.19-6.79l-.5-16.9a8.48 8.48 0 0 0-5.83-7.81l-28.63-9.34a8 8 0 0 1-5.09-10.01Z"/><path class="cls-8" d="m358.4 491.2-1.4-26.83a10.68 10.68 0 0 0-7.34-9.61l-39.54-13 .93 8.84 37.11 11.17 2.84 26.86Z" style="clip-path:url(#clip-path-3)"/><g style="clip-path:url(#clip-path-4)"><path class="cls-16" d="M56.86 201c2.36 1.58 5.34 1 6.37-2.44a.27.27 0 0 0-.4-.3A18 18 0 0 1 57 200.5a.26.26 0 0 0-.14.5Z"/><rect x="75.79" y="188.11" width="6.51" height="2.28" rx="1.14" transform="rotate(14.92 79.05 189.323)" style="fill:#34344c"/><path class="cls-27" d="M131 209.75V173.5a15.72 15.72 0 1 0-31.44 0v41.06a6.15 6.15 0 1 1-12.3 0V206l-9.57 4.72v4.05a15.72 15.72 0 0 0 31.44 0v-41.06a6.15 6.15 0 1 1 12.3 0v55.15"/><path class="cls-28" d="M62.85 189.9a4.33 4.33 0 0 1-3.54-4.26h0a4.34 4.34 0 0 1 4.34-4.34h22.46a4.34 4.34 0 0 1 4.34 4.34h0a4.33 4.33 0 0 1-3 4.11M71.86 173.58h7.42A7.71 7.71 0 0 1 87 181.3v0h0-22.85 0v0a7.71 7.71 0 0 1 7.71-7.71Z"/><path class="cls-27" d="M198.94 261.73a19.79 19.79 0 0 1-4.47-6c-1-2.13-2.71-11.14-3.34-16.44a9.88 9.88 0 0 0 7.07.9.77.77 0 0 0 .25-1.4c-2.4-1.61-4.23-3.33-5-5.24-.89-2.07-2.45-6.55-4-11v.07c-.35-1-.75-2-1.19-3a10.62 10.62 0 0 0 4.42-1.43.78.78 0 0 0-.17-1.42c-2.78-.81-8.54-4.19-9.88-5.77A35.22 35.22 0 0 0 121 234.32c0 .66 0 1.32.06 2a34 34 0 0 1-3.06 10.3.77.77 0 0 0 .86 1.13 10.65 10.65 0 0 0 4.11-2 35 35 0 0 0 6.71 11.63 32.44 32.44 0 0 1-.13 7.75.78.78 0 0 0 1.18.81 10.32 10.32 0 0 0 3.7-3.92 34.24 34.24 0 0 0 16.94 7.18 5.09 5.09 0 0 1 3.46 2.08 9.76 9.76 0 0 1 1.92 5.6c0 .69 1.06.78 1.41.19a12.15 12.15 0 0 0 .85-1.91 5.77 5.77 0 0 1 2-2.61c4.51-3.35 10.33-4.09 16.9-3.56l.88.07a13.82 13.82 0 0 1 7.12 3.15 5.85 5.85 0 0 0 1.59.91.57.57 0 0 0 .78-.66 7.92 7.92 0 0 1 0-4.75 7.31 7.31 0 0 1 1.5-2.34c1.76-1.79 4.2-2.35 7.45-2.35h1.29a.77.77 0 0 0 .42-1.29Z"/><path class="cls-29" d="M177.56 237c.19 1.8 1.86 2.88 3.9 3.78a.73.73 0 0 1 .12 1.28 6.58 6.58 0 0 1-5.47.87M160.91 228.87c-.23 1.56.94 2.83 2.47 4a.64.64 0 0 1-.18 1.11 5.69 5.69 0 0 1-4.79-.45M148.61 242.65c.68 1.42-.07 3-1.18 4.57a.64.64 0 0 0 .5 1 5.71 5.71 0 0 0 4.44-1.84M147.7 207.4c.68 1.42-.07 3-1.18 4.57a.63.63 0 0 0 .5 1 5.7 5.7 0 0 0 4.44-1.83M170 216.32c.22 1.63 1.76 2.56 3.64 3.32a.66.66 0 0 1 .14 1.16 6 6 0 0 1-4.93.93"/><path class="cls-6" d="M171.31 312h8.53a3.74 3.74 0 0 1 3.74 3.74 3.9 3.9 0 0 1-3.9 3.9h-8.21a3.9 3.9 0 0 1-3.9-3.9 3.74 3.74 0 0 1 3.74-3.74Z"/><path class="cls-4" d="M172.09 324.67a7.42 7.42 0 1 0-14.83 0v4h23.64v-9.35l-11.46-.49Z"/><path class="cls-5" d="M157.26 328.67h23.64v.14a2.65 2.65 0 0 1-2.65 2.65h-18.82a2.17 2.17 0 0 1-2.17-2.17v-.62Z"/><path class="cls-6" d="M149.79 306.84h8.53a3.74 3.74 0 0 1 3.74 3.74 3.9 3.9 0 0 1-3.9 3.9H150a3.9 3.9 0 0 1-3.9-3.9 3.74 3.74 0 0 1 3.74-3.74Z" transform="rotate(-30.48 154.02 310.613)"/><path class="cls-4" d="M155.54 320.05a7.41 7.41 0 0 0-12.78 7.52l2 3.45 20.37-12-4.74-8-11.26 6.78Z"/><path class="cls-5" d="M143.86 324.84h23.64v.31a2.47 2.47 0 0 1-2.47 2.47h-18.4a2.77 2.77 0 0 1-2.77-2.77v-.01Z" transform="rotate(-30.48 155.655 326.18)"/><path class="cls-29" d="M135.73 223.85a11.37 11.37 0 0 1-2.44 5.84.68.68 0 0 0 .66 1.06 8.61 8.61 0 0 0 5.52-3M168.71 254.29c0 1.6 1.37 2.71 3.09 3.68a.64.64 0 0 1 0 1.14 5.82 5.82 0 0 1-4.88.27"/><path class="cls-1" d="m154.93 271.65-6.38 12.29a10.58 10.58 0 0 0 .39 10.42l6.52 10.56a4.15 4.15 0 0 1-1.35 5.69 4.29 4.29 0 0 1-5.91-1.4L141 297.6a16.53 16.53 0 0 1-.6-16.32l7-13.47a3.92 3.92 0 0 1 5.29-1.67l.56.29a3.87 3.87 0 0 1 1.68 5.22Z"/><path class="cls-31" d="m159.62 271.63-6.38 12.28a10.58 10.58 0 0 0 .39 10.42l6.52 10.57a4.15 4.15 0 0 1-1.35 5.69 4.3 4.3 0 0 1-5.91-1.4l-7.16-11.61a16.53 16.53 0 0 1-.6-16.32l7-13.47a3.93 3.93 0 0 1 5.29-1.68l.56.3a3.86 3.86 0 0 1 1.64 5.22Z" style="clip-path:url(#clip-path-5)"/><path class="cls-1" d="M179.82 269v42.18a4.14 4.14 0 0 1-4.1 4.18h-.29a4.18 4.18 0 0 1-4-4.19V269"/><path class="cls-31" d="M184 269v42.18a4.14 4.14 0 0 1-4.1 4.18h-.29a4.18 4.18 0 0 1-4-4.19V269" style="clip-path:url(#clip-path-6)"/><rect x="62.11" y="185.19" width="25.54" height="25.54" rx="12.67" style="fill:#67a8a0"/><ellipse class="cls-4" cx="69.55" cy="192.34" rx="1.27" ry="1.56"/><ellipse class="cls-4" cx="74.99" cy="192.34" rx="1.27" ry="1.56"/><path class="cls-1" d="M73 201.51A166.36 166.36 0 0 1 48 204q-6 .12-12-.25c0-7 22.09-7.81 26.21-7.88l5.31-.09a5.58 5.58 0 0 1 5.48 5.73 5.76 5.76 0 0 1-5.44 5.71c-8.17.25-13.2-.3-19.78-3.2"/><path class="cls-16" d="M50.53 203.89c2.37 1.59 5.34 1 6.37-2.43a.26.26 0 0 0-.39-.3 17.94 17.94 0 0 1-5.88 2.25.27.27 0 0 0-.1.48Z"/><rect class="cls-4" x="74.44" y="187.27" width="6.51" height="2.28" rx="1.14" transform="rotate(14.92 77.73 188.447)"/><rect class="cls-4" x="62.3" y="187.27" width="6.51" height="2.28" rx="1.14" transform="rotate(165.08 65.561 188.4)"/><path class="cls-4" d="M112.23 335.34a5.57 5.57 0 0 1 10.58 2.44v2.52h-17.93V331l9.22 1 1.52.47M92.42 335.05a5.57 5.57 0 0 0-10.57 2.44V340h17.92v-9.32l-9.21 1-1.53.48"/><path class="cls-34" d="m89.07 235.74-2.07.86a10.58 10.58 0 0 1-9.21-.6 6.93 6.93 0 0 0-10.35 6.57l.26 3.24c1.43 17.67 22.57 36.79 42.89 36.79s30.69-16.47 30.69-36.79c-.51-12.46-13.62-18.93-18.92-20.06a13.23 13.23 0 0 0-5.82 0Z"/><path class="cls-34" d="M142.24 202.09c6 16.85 4.89 32.66-1.13 47.75a2 2 0 0 1-3.18.76c-12.47-11.24-10.05-36.17.35-49.22a2.31 2.31 0 0 1 3.96.71Z"/><path class="cls-34" d="M126.84 212.3a50 50 0 0 1 11.9 34.46 1.53 1.53 0 0 1-2.08 1.39c-11.91-4.72-16.81-23.2-12.84-35.3a1.76 1.76 0 0 1 3.02-.55Z"/><path d="m89.69 237.88-2.08.85a10.6 10.6 0 0 1-9.22-.6 6.93 6.93 0 0 0-10.34 6.57l.26 3.24c1.42 17.67 22.56 36.79 42.88 36.79s30.7-16.47 30.7-36.79c-.51-12.46-13.63-18.93-18.93-20.06a13.19 13.19 0 0 0-5.81 0Z" style="fill:url(#linear-gradient-2)"/><path class="cls-34" d="M86.56 225.59c2.12 24.32 24.63 34.84 28.53 24.41M145.42 168.49a18.64 18.64 0 0 0-8.59 2.09 4.76 4.76 0 0 1-3.73-2.52.4.4 0 0 0-.7 0 5.46 5.46 0 0 0 0 4.48.41.41 0 0 1-.52.54 6.17 6.17 0 0 1-3.64-4.26.52.52 0 0 0-1-.09 10.89 10.89 0 0 0 .88 11.31 18.71 18.71 0 1 0 17.3-11.57Z"/><path class="cls-36" d="M146.7 168.16a18.71 18.71 0 0 0-8.6 2.09 4.7 4.7 0 0 1-3.72-2.52.4.4 0 0 0-.7 0 5.49 5.49 0 0 0 0 4.49.41.41 0 0 1-.52.54 6.15 6.15 0 0 1-3.64-4.26.52.52 0 0 0-1-.09 10.89 10.89 0 0 0 .87 11.3 18.71 18.71 0 1 0 17.3-11.58Z"/><circle class="cls-37" cx="141.27" cy="181.27" r="6.41"/><circle class="cls-37" cx="154.1" cy="179.33" r="6.41"/><path class="cls-37" d="M134.91 180.46h0a6.94 6.94 0 0 0-7.72 2.17l-.89 1.09"/><path class="cls-1" d="M163.32 196.84c-4-.22-7.84-3.25-8.73-6.5a3.28 3.28 0 0 0-6.28 1.34c-.09 7 8.52 17.2 14.05 17a5.95 5.95 0 1 0 0-11.89"/><path d="M136.34 235.78a189.46 189.46 0 0 0 7.64-30.2l-4.79-1.58a164.88 164.88 0 0 1-7.19 28.07" style="fill:url(#linear-gradient-3)"/><circle class="cls-34" cx="77.33" cy="250.72" r="1.63"/><circle class="cls-34" cx="78.37" cy="244.7" r="1.07"/><circle class="cls-34" cx="82.07" cy="247.55" r="1.53"/><path class="cls-36" d="M108 244.7c-13.11-1.44-24.09-17.52-22.63-31.18a1.6 1.6 0 0 1 2.32-1.25 18.87 18.87 0 0 1 7.87 7.86"/><path class="cls-6" d="M107.18 326.4h5.39a3 3 0 0 1 3 3 3 3 0 0 1-3 3h-5.2a3 3 0 0 1-3-3 2.89 2.89 0 0 1 2.89-2.89ZM91.27 326h6.17a3 3 0 0 1 3 3 3 3 0 0 1-3 3h-6a3 3 0 0 1-3-3 2.89 2.89 0 0 1 2.83-3Z"/><path class="cls-1" d="m109.65 284.68 7.27 19.32a10.37 10.37 0 0 1-1 9.13l-9 14.29a1.18 1.18 0 0 0 .17 1.51c1.29 1.18 4.33 1 5.35-.53l9.38-14.88a10.36 10.36 0 0 0 .94-9.14l-7.29-19.94"/><path class="cls-40" d="m112.43 284.22 7.57 20.06a10.36 10.36 0 0 1-.94 9.14l-9 14.29c-.31.48-1.65 3.37-1.23 3.75 1.29 1.18 5.73-1.24 6.75-2.77l9.42-14.88a10.36 10.36 0 0 0 .94-9.14l-7.29-19.94" style="clip-path:url(#clip-path-7)"/><path class="cls-1" d="m91.65 279.21-8.4 12.87c-2.45 3-3.18 6.95-1 10.27.11.17.18.36.28.54L97 327.71a1.18 1.18 0 0 1-.26 1.49c-1.36 1.11-4.38.76-5.31-.82L76.63 303c-.1-.18-.19-.36-.28-.54a10.31 10.31 0 0 1 .9-10.2l10.51-15.44"/><path class="cls-40" d="m94.22 279-8.41 12.87c-2.44 3-3.17 6.95-1 10.27.11.17.18.36.28.54l14.48 24.82a1.18 1.18 0 0 1-.25 1.49c-1.36 1.11-3.11 2.92-4 1.34l-16.1-27.59c-.1-.18-.19-.36-.28-.54a10.31 10.31 0 0 1 .91-10.2l10.51-15.44" style="clip-path:url(#clip-path-8)"/><path d="M142 247.55c-5 25.05-29.54 32.32-53.55 29.79a42.29 42.29 0 0 0 22.76 7.39c17.57-.49 29.58-9.89 30.7-36.79Z" style="fill:url(#linear-gradient-4)"/><path class="cls-5" d="M81.85 340h17.92v1.22a1.28 1.28 0 0 1-1.28 1.28H84.3a2.46 2.46 0 0 1-2.45-2.5Z"/><path class="cls-5" d="M107.38 340.3h14.47a1 1 0 0 1 1 1v1.55h-17.97a2.5 2.5 0 0 1 2.5-2.55Z" transform="rotate(-180 113.845 341.55)"/><ellipse class="cls-4" cx="144.63" cy="181.27" rx="1.28" ry="1.58" transform="rotate(-9.19 144.54 181.175)"/><ellipse class="cls-4" cx="150.72" cy="180.28" rx="1.28" ry="1.58" transform="rotate(-9.19 150.628 180.224)"/><path class="cls-16" d="M155.91 200.67c.83 2.76 3.53 4.21 6.54 2.19a.27.27 0 0 0-.11-.49 18.2 18.2 0 0 1-6.05-2 .26.26 0 0 0-.38.3Z"/><rect class="cls-4" x="148.6" y="172.4" width="6.59" height="2.3" rx="1.15" transform="rotate(14.92 151.912 173.606)"/><rect class="cls-4" x="135.52" y="173.23" width="6.59" height="2.3" rx="1.15" transform="rotate(-14.92 138.848 174.432)"/><path d="M148.62 194.28c.42 5.05 2.43 8.35 5.64 9.77h-.16a24 24 0 0 1-5.48-9.77Z" style="opacity:.21"/><path class="cls-34" d="M110 203a21.63 21.63 0 0 0-.69-2.06c-.87-2.22-4.21-1.7-5.82.05-10.93 11.8-10 23.81-.85 36.47"/><path class="cls-36" d="M112.82 213.24c-.55-3.82-1.17-7.52-2.63-9.94a1.78 1.78 0 0 0-2.78-.3c-9.24 9.47-11 32.1 1.12 42.57"/><path class="cls-1" d="M112.82 213.24a50 50 0 0 1 2.45 36.38 1.53 1.53 0 0 1-2.37.8c-10.26-7.68-10.14-26.8-3.14-37.44a1.76 1.76 0 0 1 3.06.26Z"/><path class="cls-36" d="M112.84 245.2a1 1 0 0 1-.56-1.2 33.76 33.76 0 0 0 1.13-9.13 30.28 30.28 0 0 0-1.59-10.45 1 1 0 0 1 .44-1.29 1 1 0 0 1 1.49.54 33.61 33.61 0 0 1 1.64 11.14 36.75 36.75 0 0 1-1.19 9.76 1 1 0 0 1-1.36.63Z"/><path class="cls-5" d="M90.89 333.13a5.49 5.49 0 0 0-8.9 3.12c2.01-3.04 4.9-4.19 8.9-3.12ZM113.73 333.44a5.5 5.5 0 0 1 8.91 3.11c-2-3.03-4.91-4.19-8.91-3.11Z"/><path class="cls-44" d="M114.22 252.29a11.13 11.13 0 0 1 3.26-3.38 3.41 3.41 0 0 1 5.31 2.32A19.11 19.11 0 0 1 118 267.5"/><path d="M66.39 245.56c-5.73 8.2-13.44 11.62-22.92 10.76a2.17 2.17 0 0 0-2.12 3.13c4 8 17.81 9.9 26.22 3.81" style="fill:#b8dddb"/><path class="cls-4" d="M77.47 298.33a4.76 4.76 0 0 0-9 2.09v2.14h15.3v-7.95l-7.86.85-1.31.41"/><path class="cls-5" d="M68.44 302.56h15.3v1a1.11 1.11 0 0 1-1.11 1.11h-12a2.13 2.13 0 0 1-2.13-2.13l-.06.02ZM76.16 296.7a4.69 4.69 0 0 0-7.6 2.66c1.71-2.59 4.19-3.58 7.6-2.66Z"/><path class="cls-4" d="M96.32 298.51a4.75 4.75 0 0 0-9 2.09v2.15h15.29v-7.95l-7.86.85-1.3.4"/><path class="cls-5" d="M87.3 302.75h15.29v1a1.11 1.11 0 0 1-1.11 1.11h-12a2.13 2.13 0 0 1-2.13-2.13ZM95 296.88a4.69 4.69 0 0 0-7.59 2.66C89.12 297 91.6 296 95 296.88Z"/><path class="cls-6" d="M77.42 292.63h4.94a2.33 2.33 0 0 1 2.33 2.37 2.44 2.44 0 0 1-2.44 2.44h-4.73a2.44 2.44 0 0 1-2.44-2.44 2.33 2.33 0 0 1 2.33-2.33ZM96.63 293h4.94a2.33 2.33 0 0 1 2.33 2.33 2.44 2.44 0 0 1-2.44 2.44h-4.73a2.44 2.44 0 0 1-2.44-2.44 2.33 2.33 0 0 1 2.34-2.33Z"/><path class="cls-1" d="M77.81 284.51h4.77v8.13a2.38 2.38 0 0 1-2.39 2.36 2.38 2.38 0 0 1-2.38-2.38v-8.13.02Z"/><path class="cls-47" d="M82.34 295c-1.32 0-2.56 1.9-2.56.59l.17-11.1h4.77v8.12a2.39 2.39 0 0 1-2.38 2.39Z" style="clip-path:url(#clip-path-9)"/><path class="cls-1" d="M96.87 284.51h4.77v8.13a2.38 2.38 0 0 1-2.39 2.36 2.38 2.38 0 0 1-2.38-2.38v-8.13.02Z"/><path class="cls-47" d="M101.42 294.49c-1.31 0-2.55 1.91-2.55.59L99 284h4.77v8.12a2.39 2.39 0 0 1-2.35 2.37Z" style="clip-path:url(#clip-path-10)"/><path class="cls-44" d="M82.1 237.19h7.15a5.92 5.92 0 0 0 5.92-5.92v-9.74a4.94 4.94 0 0 0-4.94-4.94l-1.45.15-7.13-.15H69a3.62 3.62 0 0 0-3.62 3.63v16.32h2.82v4.68L65.6 249v23.87a11.64 11.64 0 0 0 11.63 11.64H104a2.26 2.26 0 0 0 2.25-2.26L90 241.71v-4.57"/><circle class="cls-37" cx="71.96" cy="222.19" r="6.57"/><path class="cls-37" d="M91.68 222.19a6.59 6.59 0 1 1-2.9-5.45 6.57 6.57 0 0 1 2.9 5.45Z"/><path class="cls-16" d="M65.6 272.34h4.31a10 10 0 0 0 10-10v-18.15l-14.33 3Z"/><path class="cls-49" d="M83.77 253.43a13.32 13.32 0 0 1 13.32-13.32c9.35-.14 22.27 10.84 21.81 30.8a11.65 11.65 0 0 1-11.65 11.65c-9.12.67-22.91-16.69-23.48-28.82Z"/><path class="cls-1" d="M69 226.89h-3.7a6.69 6.69 0 0 0-5.4 2.75l-.2.28c-.13.21-.65 1.08-1.2 2a39.43 39.43 0 0 0-2.74 5.62l-1.54 3.89c-.22 1.13-.17 2.34.82 2.93a2.21 2.21 0 0 0 3.13-.95 11.68 11.68 0 0 1 10.55-6.67H69a4.93 4.93 0 0 0 4.93-4.93 4.94 4.94 0 0 0-4.93-4.92Z"/><path class="cls-37" d="M91.68 222.19H96a3 3 0 0 1 3 3h0"/><path class="cls-16" d="M62.44 234.93c2.22 1.49 5 .94 6-2.28a.25.25 0 0 0-.37-.29 16.61 16.61 0 0 1-5.52 2.12.25.25 0 0 0-.11.45Z"/><ellipse class="cls-4" cx="75.51" cy="222.49" rx="1.19" ry="1.46"/><ellipse class="cls-4" cx="81.24" cy="222.49" rx="1.19" ry="1.46"/><path class="cls-51" d="M77.08 239.61h.27a4.78 4.78 0 0 1 4.78 4.78 5 5 0 0 1-5 5H77a1.41 1.41 0 0 1-1.38-1.39v-6.92a1.46 1.46 0 0 1 1.46-1.46Z" transform="rotate(-180 78.875 244.505)"/><path class="cls-51" d="M64.64 239.61h.1a5 5 0 0 1 5 5A4.78 4.78 0 0 1 65 249.4h-.27a1.46 1.46 0 0 1-1.46-1.46V241a1.41 1.41 0 0 1 1.41-1.41Z"/><path d="M65.6 249v23.87c0 7.29 5.54 11.87 11.63 11.64-7.6-4.03-10.59-17.73-11.63-35.51Z" style="fill:#606060;opacity:.44"/><circle cx="72.43" cy="244.51" r="3.66" style="fill:#d85050"/><path class="cls-14" d="M82 256.28c12.48 6.4 17.65-2.91 16.81-14l-.23-4.79-.08-1.69-.18-3.87a18.55 18.55 0 0 1 3.68-12.08 9.43 9.43 0 0 1-2.11-5.54.58.58 0 0 1 1-.47c1.59 1.32 3.3 2.47 4.44 2.65.22-.17.42-.35.64-.51a10.16 10.16 0 0 1-.73-3.26c0-.5 2.8 1 3.67 1.48a18.48 18.48 0 0 1 7.25-1.84 18.65 18.65 0 0 1 19.51 17.75l.32 6.85 1 20.55.19 4-36.87 26c-14.32.74-22-9.33-25.22-25.31-1.09-4.72 2.57-8.12 6.91-5.92Z"/><path class="cls-15" d="M84.15 256.05c12.22 6 17.29-3.2 16.45-14.21l-.23-4.79-.08-1.69-.18-3.87a18.55 18.55 0 0 1 3.69-12.05 9.32 9.32 0 0 1-2.1-5.53.57.57 0 0 1 .94-.48c1.59 1.32 3.3 2.47 4.44 2.65a1.17 1.17 0 0 0 .37-1.24 10.65 10.65 0 0 1-.47-2.52.58.58 0 0 1 .94-.48 19.92 19.92 0 0 0 2.73 1.95 18.48 18.48 0 0 1 7.25-1.84 18.65 18.65 0 0 1 19.51 17.75l.32 6.85 1 20.54.19 4c.4 23.25-7.22 33.56-35 30.27-14.26.85-23.67-13.14-27.09-29.52a5.24 5.24 0 0 1 7.32-5.79Z"/><ellipse class="cls-4" cx="130.23" cy="225.74" rx="1.31" ry="1.52" transform="rotate(-2.71 130.03 225.365)"/><ellipse class="cls-4" cx="124.81" cy="226.2" rx="1.31" ry="1.52" transform="rotate(-2.71 124.52 225.869)"/><rect class="cls-4" x="119.01" y="220.56" width="5.95" height="2.08" rx="1.04" transform="rotate(162.37 121.987 221.597)"/><rect class="cls-4" x="128.23" y="219.76" width="5.95" height="2.08" rx="1.04" transform="rotate(11.5 129.796 224.353)"/><path class="cls-14" d="M138.14 246.05a10.25 10.25 0 0 1-11.92-9.73Z"/><path class="cls-1" d="M140.53 235.35c-3.41 1.25-7.66.2-9.52-2.1-.92-.9-2.18-1.64-3.3-1.16-1.51.64-2 2.36-1.48 4.49 2.31 7.58 13 11.69 17.58 8.6a5.2 5.2 0 1 0-4.1-9.55"/><circle class="cls-14" cx="107.52" cy="225.5" r="1.88"/><circle class="cls-14" cx="110.78" cy="228.33" r=".94"/><circle class="cls-14" cx="107.34" cy="230.25" r="1.38"/><path class="cls-16" d="M140.75 242.66c-2.09 1.55-4.83 1.15-5.92-1.95a.24.24 0 0 1 .35-.29 16.17 16.17 0 0 0 5.47 1.8.25.25 0 0 1 .1.44Z"/></g><rect class="cls-9" x="387.9" y="257.29" width="167.42" height="127.68" rx="7.99"/><rect class="cls-49" x="401.78" y="270.32" width="139.65" height="102.75" rx="2.13"/><path class="cls-9" d="m551.55 264.71 26.13 39.48a47 47 0 0 1 7.79 25.89v48.42a9.9 9.9 0 0 1-14.31 8.87l-19.65-9.77"/><rect class="cls-4" x="417.02" y="293.76" width="106.53" height="58.56" rx="5.15"/><path class="cls-16" d="M424.87 311.13a1.71 1.71 0 0 0 1 .37c.43 0 .66-.19.66-.47 0-.68-1.74-.56-1.74-1.52 0-.52.45-.85 1.08-.85a1.35 1.35 0 0 1 1 .43l-.24.27a1.16 1.16 0 0 0-.81-.32c-.37 0-.6.18-.6.46 0 .6 1.75.49 1.75 1.5 0 .53-.48.88-1.17.88a1.91 1.91 0 0 1-1.19-.43Zm.83-3.18h.3v.89h-.33Zm.33 3.77v1h-.33v-1ZM431.3 309.39h.37v.46a1.36 1.36 0 0 1 1-.52c.63 0 .93.37.93 1.08v1.66h-.46v-1.6c0-.51-.18-.75-.61-.75a1.16 1.16 0 0 0-.85.48v1.87h-.45ZM434.6 309.39h.4v.34a1.43 1.43 0 0 1 .92-.4c.73 0 1.11.53 1.11 1.36a1.2 1.2 0 0 1-2 1.1V313.2h-.45Zm2 1.3c0-.59-.22-1-.75-1a1.15 1.15 0 0 0-.79.4v1.33a1.11 1.11 0 0 0 .72.31c.46.02.81-.38.81-1.04ZM437.71 309.39h.36v.36a.65.65 0 0 1 .61-.42c.26 0 .43.15.51.46.15-.29.32-.46.62-.46s.6.29.6.82v1.92H440v-1.88c0-.31-.09-.47-.29-.47s-.29.14-.43.41v1.94h-.42v-1.88c0-.31-.07-.47-.27-.47s-.31.14-.44.41v1.94h-.45ZM445.72 309.76h-1.24v-.37h1.7v2.68h-.46Zm-.18-1.28a.35.35 0 0 1 .36-.36.35.35 0 0 1 .37.36.35.35 0 0 1-.37.35.34.34 0 0 1-.36-.35ZM447.8 309.39h.37v.46a1.36 1.36 0 0 1 1-.52c.64 0 .93.37.93 1.08v1.66h-.46v-1.6c0-.51-.17-.75-.61-.75a1.13 1.13 0 0 0-.84.48v1.87h-.46ZM451 311.72l.21-.31a1.85 1.85 0 0 0 1.16.37c.45 0 .67-.19.67-.41s-.1-.35-.83-.5-1.05-.38-1.05-.78.38-.76 1.12-.76a2.06 2.06 0 0 1 1.08.34l-.22.29a1.6 1.6 0 0 0-.9-.28c-.45 0-.62.18-.62.38s.23.34.78.45c.89.19 1.11.42 1.11.83s-.43.8-1.2.8a2.37 2.37 0 0 1-1.31-.42ZM455 311v-1.27h-.76v-.34h.78l.06-.86h.38v.86h1.31v.37h-1.31V311c0 .48.16.73.68.73a1.78 1.78 0 0 0 .64-.12l.1.34a2.33 2.33 0 0 1-.84.16c-.76.03-1.04-.42-1.04-1.11ZM457.63 311.38c0-.6.56-.9 1.94-1a.63.63 0 0 0-.71-.67 1.88 1.88 0 0 0-.93.32l-.19-.31a2.43 2.43 0 0 1 1.2-.38 1 1 0 0 1 1.09 1.1v1.64h-.38v-.36a1.84 1.84 0 0 1-1.06.43.81.81 0 0 1-.96-.77Zm1.94 0v-.69c-1.14.09-1.49.31-1.49.66s.28.43.58.43a1.42 1.42 0 0 0 .91-.41ZM461.84 311.17v-2.65h-.94v-.37h1.4v3.06a.49.49 0 0 0 .53.55 1.25 1.25 0 0 0 .5-.12l.12.34a1.73 1.73 0 0 1-.72.16c-.57 0-.89-.33-.89-.97ZM465.14 311.17v-2.65h-.94v-.37h1.4v3.06a.49.49 0 0 0 .53.55 1.25 1.25 0 0 0 .5-.12l.12.34a1.73 1.73 0 0 1-.72.16c-.57 0-.89-.33-.89-.97ZM470.86 310.08h2.37v.34h-2.37ZM474.09 312.56a.73.73 0 0 1 .44-.59.46.46 0 0 1-.28-.44.66.66 0 0 1 .32-.5.87.87 0 0 1-.33-.69 1 1 0 0 1 1.05-1 1.16 1.16 0 0 1 .4.06h1.11v.37h-.7a.79.79 0 0 1 .23.54.94.94 0 0 1-1 .92 1.12 1.12 0 0 1-.45-.1.38.38 0 0 0-.21.31c0 .21.21.31.56.31h.6c.69 0 1 .18 1 .63s-.58.94-1.49.94-1.25-.32-1.25-.76Zm2.27-.12c0-.25-.2-.32-.61-.32h-.52a1.28 1.28 0 0 1-.41-.05c-.25.14-.34.29-.34.45s.3.46.87.46 1.01-.26 1.01-.54Zm-.45-2.15a.62.62 0 1 0-.62.63.6.6 0 0 0 .62-.63ZM480.56 310.69c0-1.4.71-2.12 1.62-2.12.76 0 1.12.57 1.12 1.31v1.64h-.3v-.32a1 1 0 0 1-.72.39.7.7 0 0 1-.72-.73c0-.56.52-.82 1.46-.94v-.07c0-.53-.24-1-.82-1s-1.25.62-1.25 1.84.56 1.85 1.27 1.85a1.23 1.23 0 0 0 .78-.25l.15.25a1.55 1.55 0 0 1-.94.3c-.91.02-1.65-.73-1.65-2.15Zm2.38.22v-.69c-.75.11-1.05.3-1.05.63a.39.39 0 0 0 .44.41.85.85 0 0 0 .61-.35ZM484.16 309.42h2.34v.37h-2.34Zm.76-.25a1 1 0 0 1 1.08-1.09 2.12 2.12 0 0 1 .78.15l-.11.35a1.36 1.36 0 0 0-.62-.13c-.48 0-.67.27-.67.7v2.92h-.46ZM487.27 310.73a1.35 1.35 0 0 1 1.36-1.4 1.15 1.15 0 0 1 1.23 1.25 2 2 0 0 1 0 .28h-2.27v-.35h2l-.11.12c0-.63-.31-.95-.81-.95a1 1 0 0 0-.92 1.05 1 1 0 0 0 1 1 1.41 1.41 0 0 0 .81-.25l.17.3a1.91 1.91 0 0 1-1 .32 1.35 1.35 0 0 1-1.46-1.37ZM490.63 311.38c0-.6.56-.9 1.95-1a.64.64 0 0 0-.71-.67 1.92 1.92 0 0 0-.94.32l-.18-.31a2.39 2.39 0 0 1 1.19-.38 1 1 0 0 1 1.1 1.1v1.64h-.38v-.36a1.81 1.81 0 0 1-1.05.43.82.82 0 0 1-.98-.77Zm1.95 0v-.69c-1.15.09-1.49.31-1.49.66s.27.43.58.43a1.44 1.44 0 0 0 .91-.41ZM494.63 311v-1.27h-.76v-.34h.77l.06-.86h.39v.86h1.31v.37h-1.31V311c0 .48.16.73.67.73a1.78 1.78 0 0 0 .64-.12l.1.34a2.28 2.28 0 0 1-.84.16c-.78.03-1.03-.42-1.03-1.11ZM497.3 308.15h.46V309.85a1.34 1.34 0 0 1 1-.52c.63 0 .93.37.93 1.08v1.66h-.46v-1.6c0-.51-.18-.75-.61-.75a1.16 1.16 0 0 0-.85.48v1.87h-.46ZM500.47 310.73a1.35 1.35 0 0 1 1.37-1.4 1.15 1.15 0 0 1 1.22 1.25 2 2 0 0 1 0 .28h-2.27v-.35h2l-.12.12c0-.63-.31-.95-.8-.95a1 1 0 0 0-.93 1.05 1 1 0 0 0 1.05 1 1.39 1.39 0 0 0 .81-.25l.17.3a1.91 1.91 0 0 1-1 .32 1.36 1.36 0 0 1-1.5-1.37ZM504.19 309.39h.38l.05.64a1.4 1.4 0 0 1 1.19-.7 1 1 0 0 1 .53.11l-.1.39a1.39 1.39 0 0 0-.5-.09 1.25 1.25 0 0 0-1.1.77v1.56h-.46ZM507.09 311.72l.21-.31a1.83 1.83 0 0 0 1.16.37c.45 0 .67-.19.67-.41s-.1-.35-.83-.5-1.05-.38-1.05-.78.38-.76 1.11-.76a2 2 0 0 1 1.08.34l-.22.29a1.54 1.54 0 0 0-.89-.28c-.46 0-.62.18-.62.38s.23.34.78.45c.89.19 1.1.42 1.1.83s-.42.8-1.19.8a2.37 2.37 0 0 1-1.31-.42ZM510.3 313.09l.15-.35a1.31 1.31 0 0 0 .61.15c.53 0 .67-.27.67-.72v-2.41h-1.24v-.37h1.7v2.75a1 1 0 0 1-1.13 1.13 1.81 1.81 0 0 1-.76-.18Zm1.25-4.61a.35.35 0 0 1 .36-.36.35.35 0 0 1 .37.36.35.35 0 0 1-.37.35.34.34 0 0 1-.36-.35ZM513.69 311.72l.21-.31a1.83 1.83 0 0 0 1.16.37c.45 0 .67-.19.67-.41s-.1-.35-.83-.5-1-.38-1-.78.38-.76 1.12-.76a2.06 2.06 0 0 1 1.08.34l-.22.29a1.6 1.6 0 0 0-.9-.28c-.46 0-.62.18-.62.38s.23.34.78.45c.89.19 1.1.42 1.1.83s-.42.8-1.19.8a2.37 2.37 0 0 1-1.36-.42ZM519 308.16h.41l-1.86 4.84h-.41ZM424.87 317.73a1.71 1.71 0 0 0 1 .37c.43 0 .66-.19.66-.47 0-.68-1.74-.56-1.74-1.52 0-.52.45-.84 1.08-.84a1.34 1.34 0 0 1 1 .42l-.24.27a1.15 1.15 0 0 0-.81-.31c-.37 0-.6.17-.6.45 0 .6 1.75.49 1.75 1.5 0 .53-.48.89-1.17.89a1.92 1.92 0 0 1-1.19-.44Zm.83-3.18h.3v.89h-.33Zm.33 3.78v.95h-.33v-.95ZM431.1 316h.37v.36a.65.65 0 0 1 .61-.42c.26 0 .43.15.51.46.15-.29.32-.46.62-.46s.6.29.6.82v1.92h-.45v-1.88c0-.31-.09-.47-.29-.47s-.29.14-.43.41v1.94h-.42v-1.88c0-.31-.08-.47-.27-.47s-.31.14-.44.41v1.94h-.46ZM434.66 314.75h.46v2.65l1.44-1.41h.53l-2 2v.72h-.46Zm1 2.5.28-.3 1.28 1.72h-.51ZM437.72 317.34a1.28 1.28 0 0 1 1.21-1.41 1.15 1.15 0 0 1 .8.34v-1.49h.46v3.92h-.38v-.35a1.27 1.27 0 0 1-.88.42c-.75-.03-1.21-.54-1.21-1.43Zm2 .62v-1.34a1 1 0 0 0-.7-.31.92.92 0 0 0-.84 1c0 .64.3 1 .79 1a1 1 0 0 0 .75-.31ZM442.42 316.36h-1.24V316h1.7v2.68h-.46Zm-.18-1.28a.34.34 0 0 1 .36-.35.35.35 0 1 1 0 .7.34.34 0 0 1-.36-.35ZM444.78 316h.39v.64a1.4 1.4 0 0 1 1.2-.7 1.2 1.2 0 0 1 .53.11l-.11.39a1.39 1.39 0 0 0-.5-.09 1.26 1.26 0 0 0-1.1.77v1.56h-.46ZM450.91 316h.36v.36a.66.66 0 0 1 .61-.42c.27 0 .43.15.51.46a.68.68 0 0 1 .63-.46c.37 0 .59.29.59.82v1.92h-.45v-1.88c0-.31-.09-.47-.29-.47s-.28.14-.43.41v1.94h-.42v-1.88c0-.31-.07-.47-.27-.47s-.31.14-.44.41v1.94h-.45ZM454.26 319.77l.09-.36a.93.93 0 0 0 .24 0 .76.76 0 0 0 .73-.56l.08-.2-1.24-2.65h.46l.65 1.48.33.78c.1-.25.2-.54.29-.78l.58-1.48h.44l-1.19 2.9a1.19 1.19 0 0 1-1.13.94 1.16 1.16 0 0 1-.33-.07ZM457.66 316.68H460v.32h-2.37ZM460.93 318c0-.6.56-.89 1.94-1a.63.63 0 0 0-.71-.68 1.88 1.88 0 0 0-.93.32l-.19-.31a2.43 2.43 0 0 1 1.2-.38 1 1 0 0 1 1.09 1.1v1.64H463v-.36a1.84 1.84 0 0 1-1.06.43.81.81 0 0 1-1.01-.76Zm1.94 0v-.69c-1.14.09-1.49.31-1.49.67s.28.42.59.42a1.42 1.42 0 0 0 .9-.4ZM464.3 316h.38v.35a1.41 1.41 0 0 1 .93-.41c.72 0 1.1.53 1.1 1.37a1.29 1.29 0 0 1-1.21 1.44 1.27 1.27 0 0 1-.8-.35V319.81h-.46Zm2 1.31c0-.6-.23-1-.76-1a1.16 1.16 0 0 0-.78.4V318a1.11 1.11 0 0 0 .71.31c.47.04.83-.31.83-1.01ZM467.6 316h.4v.35a1.41 1.41 0 0 1 .93-.41c.72 0 1.1.53 1.1 1.37a1.29 1.29 0 0 1-1.21 1.44 1.27 1.27 0 0 1-.8-.35V319.81h-.46Zm2 1.31c0-.6-.22-1-.76-1a1.16 1.16 0 0 0-.78.4V318a1.11 1.11 0 0 0 .71.31c.47.04.83-.31.83-1.01ZM424.87 324.33a1.65 1.65 0 0 0 1 .38c.43 0 .66-.2.66-.48 0-.68-1.74-.56-1.74-1.52 0-.52.45-.84 1.08-.84a1.34 1.34 0 0 1 1 .42l-.24.27a1.15 1.15 0 0 0-.81-.31c-.37 0-.6.17-.6.45 0 .61 1.75.49 1.75 1.5 0 .53-.48.89-1.17.89a1.92 1.92 0 0 1-1.19-.44Zm.83-3.18h.3v.85h-.33Zm.33 3.78v.95h-.33v-.95ZM431.22 323.94a1.39 1.39 0 0 1 1.5-1.41 1.38 1.38 0 0 1 1 .39l-.22.29a1.13 1.13 0 0 0-.73-.3 1 1 0 0 0-1.05 1 1 1 0 0 0 1 1 1.27 1.27 0 0 0 .83-.34l.2.3a1.54 1.54 0 0 1-1.06.42 1.35 1.35 0 0 1-1.47-1.35ZM434.42 323.94a1.28 1.28 0 0 1 1.21-1.41 1.15 1.15 0 0 1 .8.34v-1.49h.46v3.92h-.38v-.35a1.27 1.27 0 0 1-.88.42c-.75-.03-1.21-.54-1.21-1.43Zm2 .62v-1.34a1 1 0 0 0-.7-.31.92.92 0 0 0-.84 1c0 .63.3 1 .79 1a1 1 0 0 0 .75-.35ZM441 322.6h.36v.35a.66.66 0 0 1 .61-.42c.26 0 .43.16.51.46a.69.69 0 0 1 .63-.46c.37 0 .59.29.59.83v1.91h-.45v-1.88c0-.31-.09-.47-.29-.47s-.28.14-.43.41v1.94h-.42v-1.88c0-.31-.07-.47-.27-.47s-.31.14-.44.41v1.94h-.4ZM444.35 326.37l.1-.36a.93.93 0 0 0 .24 0 .77.77 0 0 0 .73-.57l.08-.2-1.24-2.68h.46l.65 1.47.33.78c.1-.25.2-.54.29-.78l.58-1.47h.43l-1.19 2.9a1.19 1.19 0 0 1-1.13.93 1.29 1.29 0 0 1-.33-.02ZM447.76 323.29h2.36v.34h-2.36ZM451 324.58c0-.6.56-.89 1.94-1a.63.63 0 0 0-.71-.68 2 2 0 0 0-.94.32l-.18-.31a2.43 2.43 0 0 1 1.2-.38 1 1 0 0 1 1.09 1.1v1.64h-.38v-.36a1.78 1.78 0 0 1-1.05.43.81.81 0 0 1-.97-.76Zm1.94 0v-.69c-1.14.09-1.49.31-1.49.67s.28.42.58.42a1.42 1.42 0 0 0 .97-.41ZM454.4 322.6h.37v.34a1.41 1.41 0 0 1 .92-.41c.73 0 1.11.54 1.11 1.37a1.29 1.29 0 0 1-1.21 1.44 1.27 1.27 0 0 1-.8-.35V326.4h-.46Zm2 1.3c0-.59-.23-1-.76-1a1.16 1.16 0 0 0-.78.4v1.34a1.14 1.14 0 0 0 .71.31c.43.05.83-.39.83-1.05ZM457.7 322.6h.38v.34a1.41 1.41 0 0 1 .93-.41c.72 0 1.1.54 1.1 1.37a1.29 1.29 0 0 1-1.21 1.44 1.27 1.27 0 0 1-.8-.35V326.4h-.46Zm2 1.3c0-.59-.23-1-.76-1a1.16 1.16 0 0 0-.78.4v1.34a1.14 1.14 0 0 0 .71.31c.47.05.83-.39.83-1.05ZM424.87 330.93a1.65 1.65 0 0 0 1 .38c.43 0 .66-.19.66-.48 0-.68-1.74-.56-1.74-1.52 0-.51.45-.84 1.08-.84a1.34 1.34 0 0 1 1 .42l-.24.27a1.2 1.2 0 0 0-.81-.31c-.37 0-.6.18-.6.45 0 .61 1.75.49 1.75 1.5 0 .53-.48.89-1.17.89a1.92 1.92 0 0 1-1.19-.44Zm.83-3.18h.3v.89h-.33Zm.33 3.78v1h-.33v-1ZM431.35 329.23h2.34v.37h-2.34Zm.77-.26a1 1 0 0 1 1.08-1.08 2.07 2.07 0 0 1 .77.15l-.1.34a1.55 1.55 0 0 0-.63-.13.61.61 0 0 0-.67.7v2.93h-.45ZM434.46 330.53a1.35 1.35 0 0 1 1.37-1.4 1.15 1.15 0 0 1 1.22 1.26 2.3 2.3 0 0 1 0 .28h-2.27v-.36h2l-.12.13c0-.64-.31-.95-.8-.95a.94.94 0 0 0-.93 1 1 1 0 0 0 1 1.05 1.4 1.4 0 0 0 .81-.26l.17.3a1.81 1.81 0 0 1-1 .32 1.36 1.36 0 0 1-1.45-1.37ZM437.83 331.18c0-.6.56-.89 1.94-1a.63.63 0 0 0-.71-.67 1.82 1.82 0 0 0-.94.32l-.18-.31a2.34 2.34 0 0 1 1.2-.39 1 1 0 0 1 1.09 1.1v1.65h-.38v-.37a1.78 1.78 0 0 1-1.05.43.81.81 0 0 1-.97-.76Zm1.94 0v-.7c-1.14.09-1.49.32-1.49.67s.27.42.58.42a1.48 1.48 0 0 0 .91-.39ZM441.82 330.83v-1.26h-.76v-.34h.78l.06-.86h.38v.86h1.31v.37h-1.31v1.27c0 .48.16.73.68.73a1.87 1.87 0 0 0 .64-.12l.1.33a2.37 2.37 0 0 1-.84.16c-.79-.03-1.04-.47-1.04-1.14ZM444.5 328h.5V329.64a1.32 1.32 0 0 1 1-.53c.64 0 .93.38.93 1.08v1.67h-.46v-1.61c0-.5-.18-.74-.61-.74a1.13 1.13 0 0 0-.84.48v1.87h-.46ZM447.66 330.53a1.35 1.35 0 0 1 1.37-1.4 1.15 1.15 0 0 1 1.22 1.26 2.3 2.3 0 0 1 0 .28H448v-.36h2l-.12.13c0-.64-.31-.95-.8-.95a.94.94 0 0 0-.93 1 1 1 0 0 0 1.05 1.05 1.45 1.45 0 0 0 .82-.26l.16.3a1.78 1.78 0 0 1-1 .32 1.36 1.36 0 0 1-1.52-1.37ZM451.38 329.2h.39v.63a1.42 1.42 0 0 1 1.2-.7 1.17 1.17 0 0 1 .53.11l-.11.39a1.39 1.39 0 0 0-.5-.09 1.26 1.26 0 0 0-1.1.77v1.57h-.46ZM454.28 331.52l.21-.3a1.91 1.91 0 0 0 1.16.37c.45 0 .67-.19.67-.42s-.1-.35-.83-.49-1.05-.39-1.05-.79.38-.76 1.12-.76a2.06 2.06 0 0 1 1.08.34l-.22.3a1.53 1.53 0 0 0-.9-.29c-.45 0-.62.19-.62.39s.23.33.78.45c.89.19 1.11.41 1.11.82s-.43.8-1.19.8a2.3 2.3 0 0 1-1.32-.42ZM460.89 332.37a.74.74 0 0 1 .44-.6.48.48 0 0 1-.28-.44.65.65 0 0 1 .32-.5.87.87 0 0 1-.33-.7 1.07 1.07 0 0 1 1.45-.89h1.11v.37h-.7a.79.79 0 0 1 .23.54.94.94 0 0 1-1 .92 1.26 1.26 0 0 1-.45-.1.37.37 0 0 0-.21.31c0 .21.2.31.56.31h.6c.69 0 1 .17 1 .62s-.58.94-1.49.94-1.25-.31-1.25-.78Zm2.27-.13c0-.25-.2-.32-.61-.32H462a1.62 1.62 0 0 1-.41 0c-.26.14-.34.29-.34.44s.3.46.87.46 1.04-.3 1.04-.58Zm-.45-2.15a.62.62 0 1 0-1.24 0 .62.62 0 1 0 1.24 0ZM464.16 330.53a1.35 1.35 0 0 1 1.37-1.4 1.15 1.15 0 0 1 1.22 1.26 2.3 2.3 0 0 1 0 .28h-2.26v-.36h2l-.11.13c0-.64-.32-.95-.81-.95a.94.94 0 0 0-.92 1 1 1 0 0 0 1 1.05 1.43 1.43 0 0 0 .82-.26l.16.3a1.78 1.78 0 0 1-1 .32 1.36 1.36 0 0 1-1.47-1.37ZM467.6 329.2h.4v.45a1.4 1.4 0 0 1 1-.52c.63 0 .92.38.92 1.08v1.67h-.46v-1.61c0-.5-.17-.74-.61-.74s-.53.16-.84.48v1.87h-.46ZM470.76 330.53a1.35 1.35 0 0 1 1.37-1.4 1.15 1.15 0 0 1 1.22 1.26 2.3 2.3 0 0 1 0 .28h-2.26v-.36h2l-.11.13c0-.64-.32-.95-.81-.95a.94.94 0 0 0-.92 1 1 1 0 0 0 1 1.05 1.43 1.43 0 0 0 .82-.26l.16.3a1.78 1.78 0 0 1-1 .32 1.36 1.36 0 0 1-1.47-1.37ZM474.49 329.2h.38v.63a1.42 1.42 0 0 1 1.2-.7 1.17 1.17 0 0 1 .53.11l-.11.39a1.3 1.3 0 0 0-.49-.09 1.26 1.26 0 0 0-1.1.77v1.57h-.46ZM477.43 331.18c0-.6.56-.89 1.95-1a.64.64 0 0 0-.71-.67 1.82 1.82 0 0 0-.94.32l-.18-.31a2.27 2.27 0 0 1 1.19-.39 1 1 0 0 1 1.09 1.1v1.65h-.38v-.37a1.81 1.81 0 0 1-1 .43c-.61 0-1.02-.28-1.02-.76Zm1.95 0v-.7c-1.15.09-1.5.32-1.5.67s.28.42.59.42a1.48 1.48 0 0 0 .91-.39ZM481.43 330.83v-1.26h-.77v-.34h.78l.06-.86h.38v.86h1.32v.37h-1.32v1.27c0 .48.16.73.68.73a1.78 1.78 0 0 0 .64-.12l.1.33a2.28 2.28 0 0 1-.84.16c-.78-.03-1.03-.47-1.03-1.14ZM484 330.53a1.35 1.35 0 0 1 1.36-1.4 1.15 1.15 0 0 1 1.23 1.26 1.2 1.2 0 0 1 0 .28h-2.26v-.36h2l-.11.13c0-.64-.32-.95-.81-.95a.94.94 0 0 0-.92 1 1 1 0 0 0 1.05 1.05 1.42 1.42 0 0 0 .81-.26l.17.3a1.83 1.83 0 0 1-1 .32 1.35 1.35 0 0 1-1.52-1.37ZM490.63 331.18c0-.6.56-.89 1.95-1a.64.64 0 0 0-.71-.67 1.82 1.82 0 0 0-.94.32l-.18-.31a2.3 2.3 0 0 1 1.19-.39 1 1 0 0 1 1.1 1.1v1.65h-.38v-.37a1.81 1.81 0 0 1-1.05.43.82.82 0 0 1-.98-.76Zm1.95 0v-.7c-1.15.09-1.49.32-1.49.67s.27.42.58.42a1.48 1.48 0 0 0 .91-.39ZM494 329.2h.38v.34a1.44 1.44 0 0 1 .93-.41c.72 0 1.11.54 1.11 1.37a1.29 1.29 0 0 1-1.22 1.44 1.31 1.31 0 0 1-.8-.34v1.4h-.4Zm2 1.3c0-.59-.22-1-.75-1a1.16 1.16 0 0 0-.79.39v1.34a1.16 1.16 0 0 0 .71.31c.48.02.83-.38.83-1.04ZM497.3 329.2h.38v.34a1.44 1.44 0 0 1 .93-.41c.72 0 1.11.54 1.11 1.37a1.29 1.29 0 0 1-1.22 1.44 1.31 1.31 0 0 1-.8-.34v1.4h-.46Zm2 1.3c0-.59-.22-1-.75-1a1.16 1.16 0 0 0-.79.39v1.34a1.16 1.16 0 0 0 .71.31c.53.02.83-.38.83-1.04ZM424.87 337.53a1.65 1.65 0 0 0 1 .38c.43 0 .66-.19.66-.47 0-.69-1.74-.56-1.74-1.52 0-.52.45-.85 1.08-.85a1.31 1.31 0 0 1 1 .43l-.24.27a1.16 1.16 0 0 0-.81-.32c-.37 0-.6.18-.6.46 0 .6 1.75.49 1.75 1.49 0 .53-.48.89-1.17.89a2 2 0 0 1-1.19-.43Zm.83-3.18h.3v.89h-.33Zm.33 3.78v1h-.33v-1ZM431.3 335.8h.37v.45a1.4 1.4 0 0 1 1-.52c.63 0 .93.38.93 1.08v1.67h-.46v-1.6c0-.51-.18-.75-.61-.75a1.16 1.16 0 0 0-.85.48v1.87h-.45ZM434.6 335.8h.4v.34a1.44 1.44 0 0 1 .92-.41c.73 0 1.11.54 1.11 1.37a1.29 1.29 0 0 1-1.22 1.44 1.28 1.28 0 0 1-.8-.34V339.61h-.45Zm2 1.3c0-.59-.22-1-.75-1a1.15 1.15 0 0 0-.79.4v1.33a1.11 1.11 0 0 0 .72.31c.46.02.81-.38.81-1.04ZM437.71 335.8h.36v.35a.67.67 0 0 1 .61-.42c.26 0 .43.16.51.47.15-.29.32-.47.62-.47s.6.3.6.83v1.92H440v-1.89c0-.31-.09-.47-.29-.47s-.29.14-.43.42v1.94h-.42v-1.89c0-.31-.07-.47-.27-.47s-.31.14-.44.42v1.94h-.45ZM444.38 338.13l.21-.31a1.91 1.91 0 0 0 1.16.37c.45 0 .67-.19.67-.42s-.1-.34-.83-.49-1-.38-1-.79.38-.76 1.12-.76a2 2 0 0 1 1.08.35l-.22.29a1.6 1.6 0 0 0-.9-.28c-.45 0-.62.18-.62.38s.23.33.78.45c.89.19 1.1.41 1.1.83s-.42.79-1.19.79a2.37 2.37 0 0 1-1.36-.41ZM448.42 337.44v-1.27h-.76v-.34h.78l.06-.86h.38v.86h1.31v.37h-1.31v1.27c0 .48.16.73.68.73a1.82 1.82 0 0 0 .64-.12l.1.33a2.37 2.37 0 0 1-.84.16c-.78-.03-1.04-.47-1.04-1.13ZM451 337.78c0-.6.56-.89 1.94-1a.63.63 0 0 0-.71-.67 1.85 1.85 0 0 0-.94.32l-.18-.31a2.34 2.34 0 0 1 1.2-.39 1 1 0 0 1 1.09 1.11v1.64h-.38v-.37a1.72 1.72 0 0 1-1.05.43.81.81 0 0 1-.97-.76Zm1.94 0v-.7c-1.14.09-1.49.32-1.49.67s.28.43.58.43a1.47 1.47 0 0 0 .97-.4ZM454.69 335.8h.38v.63a1.42 1.42 0 0 1 1.2-.7 1.17 1.17 0 0 1 .53.11l-.11.39a1.33 1.33 0 0 0-.49-.08 1.25 1.25 0 0 0-1.11.76v1.57h-.45ZM458.32 337.44v-1.27h-.76v-.34h.78l.06-.86h.38v.86h1.31v.37h-1.31v1.27c0 .48.16.73.68.73a1.78 1.78 0 0 0 .64-.12l.1.33a2.33 2.33 0 0 1-.84.16c-.78-.03-1.04-.47-1.04-1.13Z"/><circle class="cls-22" cx="425.43" cy="299.75" r="1.69"/><circle class="cls-23" cx="431.01" cy="299.75" r="1.69"/><circle class="cls-21" cx="436.59" cy="299.75" r="1.69"/></svg>