<?xml version="1.0" encoding="utf-8"?>
<!-- Generator: Adobe Illustrator 26.0.3, SVG Export Plug-In . SVG Version: 6.00 Build 0)  -->
<svg version="1.1" id="Layer_1" xmlns="http://www.w3.org/2000/svg" xmlns:xlink="http://www.w3.org/1999/xlink" x="0px" y="0px"
	 viewBox="0 0 1000.8 614.4" style="enable-background:new 0 0 1000.8 614.4;" xml:space="preserve">
<style type="text/css">
	.st0{fill:#27464F;}
	.st1{fill:#243E44;}
	.st2{fill:#F2F2F2;}
	.st3{clip-path:url(#XMLID_00000025411863423825954680000015550358487165694141_);fill:#D3AA59;}
	.st4{fill:#CCCBCA;}
	.st5{fill:#3E6970;}
	.st6{fill:#3E6970;stroke:#27464F;stroke-miterlimit:10;}
	.st7{fill:#27464F;stroke:#000000;stroke-width:0.527;stroke-linecap:round;stroke-linejoin:round;stroke-miterlimit:10;}
	.st8{fill:none;stroke:#27464F;stroke-miterlimit:10;}
	.st9{fill:#D38444;}
	.st10{fill:#D67369;}
	.st11{fill:#EE7F70;}
	.st12{fill:#F2C666;}
	.st13{fill:#FFFFFF;}
	.st14{fill:url(#SVGID_1_);}
	.st15{clip-path:url(#XMLID_00000042737231956468490250000015686677858636685237_);fill:#E89449;}
	.st16{fill:none;stroke:#6BB26B;stroke-width:2;stroke-miterlimit:10;}
	.st17{fill:#72C174;}
	.st18{fill:#DB5852;}
	.st19{fill:#FBB03B;}
	.st20{clip-path:url(#XMLID_00000129208260836143782260000002812627172175731843_);fill:#D3AA59;}
	.st21{clip-path:url(#SVGID_00000022547552627392137680000013177991691521006469_);}
	.st22{fill:#34344C;}
	.st23{fill:#21A396;}
	.st24{fill:#27464F;stroke:#27464F;stroke-width:0.527;stroke-linecap:round;stroke-linejoin:round;stroke-miterlimit:10;}
	.st25{fill:none;stroke:#67A8A0;stroke-width:3;stroke-linecap:round;stroke-miterlimit:10;}
	.st26{clip-path:url(#XMLID_00000154426193017831142640000000441841965385550994_);fill:#DDB462;}
	.st27{clip-path:url(#XMLID_00000070085960156724665880000001450166324770247600_);fill:#DDB462;}
	.st28{fill:#67A8A0;}
	.st29{fill:#F29538;}
	.st30{fill:url(#SVGID_00000126291168095959252640000001278583916414098108_);}
	.st31{fill:#EDA74C;}
	.st32{fill:none;stroke:#27464F;stroke-linecap:round;stroke-linejoin:round;stroke-miterlimit:10;}
	.st33{fill:url(#SVGID_00000039105773003641112490000005472218632009458588_);}
	.st34{clip-path:url(#XMLID_00000045602275166540309690000006792191527590348731_);fill:#D8B060;}
	.st35{clip-path:url(#XMLID_00000093896550452254926940000010980370165918662314_);fill:#D8B060;}
	.st36{fill:url(#SVGID_00000155107410219879252090000018354525684599235236_);}
	.st37{opacity:0.21;}
	.st38{fill:#CCCCCC;}
	.st39{fill:#B8DDDB;}
	.st40{clip-path:url(#XMLID_00000076596236015209970820000011334597141717258418_);fill:#CEA85B;}
	.st41{clip-path:url(#XMLID_00000021092981824075104190000000352368530928467641_);fill:#CEA85B;}
	.st42{fill:#C0EDEC;}
	.st43{fill:none;stroke:#000000;stroke-width:0.527;stroke-linecap:round;stroke-linejoin:round;stroke-miterlimit:10;}
	.st44{fill:#EA5353;}
	.st45{opacity:0.44;fill:#606060;}
	.st46{fill:#D85050;}
</style>
<g>
	<path class="st0" d="M341.2,516.1c4.2-3.8,10.3-5.1,15.9-2.8c7.8,3.1,11.6,12,8.5,19.9l-2.6,6.4l-45.6-18.3l9.5-23.7l22.4,12
		l3.4,2.8"/>
	<path class="st1" d="M356.2,542.1l-37-14.9c-2-0.8-3-3.1-2.2-5.2l0.5-1.2l45.6,18.3l0,0C362,541.9,358.9,543.2,356.2,542.1z"/>
	<path class="st1" d="M347,512.8c12.5-3.4,21,6.8,19.5,17C364.5,520.1,358.2,514.2,347,512.8z"/>
	<path class="st2" d="M343,514.2l-16.5-5.9c-5.2-1.9-7.9-7.6-6-12.9v0c1.8-5.1,7.5-7.7,12.5-5.9l16.8,6c5.1,1.9,7.8,7.5,6,12.7v0
		C353.9,513.4,348.2,516.1,343,514.2z"/>
	<g>
		<defs>
			<path id="XMLID_46_" d="M310.5,437.6L310.5,437.6c2.7-3.5,7.7-4.1,11.2-1.4l24,18.6l0,0l4.2,3.2c5.4,4.2,7.6,11.3,5.5,17.8
				l-7.2,22.6c-1,3.2-4.4,5-7.6,3.9l-2.7-0.9c-3.7-1.2-5.7-5.1-4.5-8.8l5.2-16.1c1.1-3.4,0-7.1-2.9-9.3l-23.8-18.4
				C308.4,446.1,307.8,441.1,310.5,437.6z"/>
		</defs>
		<use xlink:href="#XMLID_46_"  style="overflow:visible;fill:#F2C666;"/>
		<clipPath id="XMLID_00000095337403720968240940000006903241707630466743_">
			<use xlink:href="#XMLID_46_"  style="overflow:visible;"/>
		</clipPath>
		<path style="clip-path:url(#XMLID_00000095337403720968240940000006903241707630466743_);fill:#D3AA59;" d="M336.1,502l7.7-25.7
			c1.3-4.2-0.2-8.8-3.7-11.5l-32.9-25.5l-2.1,8.6l31.2,23l-6.3,26.2L336.1,502z"/>
	</g>
</g>
<polyline class="st4" points="372.9,383.2 435.9,383.2 408.5,398.9 373.6,398.9 "/>
<path class="st4" d="M408.9,411v-12.1l27-15.7c5.2,9.3,6.9,18.5,5.2,27.8"/>
<path class="st4" d="M40.6,442.4H1.7c-0.9,0-1.7-0.7-1.7-1.7v-12c0-0.9,0.7-1.7,1.7-1.7h38.9c0.9,0,1.7,0.7,1.7,1.7v12
	C42.3,441.7,41.5,442.4,40.6,442.4z"/>
<path class="st4" d="M61.7,418.2H22.8c-0.9,0-1.7-0.7-1.7-1.7v-12c0-0.9,0.7-1.7,1.7-1.7h38.9c0.9,0,1.7,0.7,1.7,1.7v12
	C63.4,417.5,62.6,418.2,61.7,418.2z"/>
<path class="st4" d="M389,184.1H350c-0.9,0-1.7-0.7-1.7-1.7v-12c0-0.9,0.7-1.7,1.7-1.7H389c0.9,0,1.7,0.7,1.7,1.7v12
	C390.6,183.4,389.9,184.1,389,184.1z"/>
<path class="st4" d="M815.8,412.1h-38.9c-0.9,0-1.7-0.7-1.7-1.7v-12c0-0.9,0.7-1.7,1.7-1.7h38.9c0.9,0,1.7,0.7,1.7,1.7v12
	C817.5,411.4,816.8,412.1,815.8,412.1z"/>
<path class="st4" d="M794.7,380.7h-38.9c-0.9,0-1.7-0.7-1.7-1.7v-12c0-0.9,0.7-1.7,1.7-1.7h38.9c0.9,0,1.7,0.7,1.7,1.7v12
	C796.4,380,795.6,380.7,794.7,380.7z"/>
<path class="st5" d="M553.5,411h-419v0c0,8.2,6.7,14.9,14.9,14.9h389.2C546.9,425.8,553.5,419.2,553.5,411L553.5,411z"/>
<path class="st0" d="M553.5,411h75v0c0,8.2-6.7,14.9-14.9,14.9h-83.3"/>
<rect x="157.8" y="425.8" class="st0" width="17.3" height="188.1"/>
<rect x="232" y="425.8" class="st0" width="17.3" height="188.1"/>
<rect x="588.6" y="425.8" class="st0" width="17.3" height="188.1"/>
<rect x="425.6" y="425.8" class="st6" width="104.7" height="62.7"/>
<rect x="425.6" y="488.5" class="st6" width="104.7" height="62.7"/>
<rect x="425.6" y="551.2" class="st6" width="104.7" height="62.7"/>
<circle class="st0" cx="478" cy="457.2" r="6.5"/>
<circle class="st0" cx="478" cy="582.5" r="6.5"/>
<circle class="st0" cx="478" cy="519.9" r="6.5"/>
<path class="st7" d="M188.5,286.5H25.1c-2.2,0-4-1.8-4-4V145.5c0-2.2,1.8-4,4-4h163.4c2.2,0,4,1.8,4,4v137.1
	C192.5,284.8,190.7,286.5,188.5,286.5z"/>
<path class="st6" d="M174.7,274.6H35.8c-1.3,0-2.3-1-2.3-2.3V154.4c0-1.3,1-2.3,2.3-2.3h138.9c1.3,0,2.3,1,2.3,2.3v117.9
	C177,273.5,176,274.6,174.7,274.6z"/>
<path class="st8" d="M43.4,141.6l57.2-57.2c2.9-2.9,7.6-2.9,10.5,0l58.8,58.8"/>
<circle class="st0" cx="104.9" cy="87.8" r="6"/>
<rect x="249.1" y="533.6" class="st9" width="60.7" height="10.4"/>
<path class="st9" d="M337.9,604L310,473.4h13.7c5.5,0,9.9-4.5,9.9-9.9c0-5.5-4.5-9.9-9.9-9.9h-90.2c-5.5,0-9.9,4.5-9.9,9.9
	c0,5.5,4.5,9.9,9.9,9.9h15.6L221.2,604c-0.9,4.2,1.8,8.3,6,9.2c4.2,0.9,8.3-1.8,9.2-6l28.5-133.8h29.3l28.5,133.7
	c0.9,4.2,5,6.8,9.2,6C336.1,612.2,338.8,608.1,337.9,604z"/>
<path class="st4" d="M480.7,411c0-7.9,6.4-14.3,14.3-14.3s14.3,6.4,14.3,14.3"/>
<polyline class="st4" points="525.6,378.8 525.6,411 568.5,411 568.5,381.8 "/>
<path class="st0" d="M995.7,200.4H641.4c-2.8,0-5.2-2.3-5.2-5.2V5.2c0-2.8,2.3-5.2,5.2-5.2h354.2c2.8,0,5.2,2.3,5.2,5.2v190.1
	C1000.8,198.1,998.5,200.4,995.7,200.4z"/>
<path class="st10" d="M205.5,364.1c33.3,17.1,47.1-7.8,44.9-37.4l-0.6-12.8l-0.2-4.5l-0.5-10.3c-0.6-12,3.2-23.2,9.9-32.2l-0.1,0.1
	c-4-5-5.3-9.9-5.6-14.8c-0.1-1.3,1.5-2.1,2.5-1.2c4.2,3.5,8.8,6.6,11.9,7.1c0.6-0.5,1.1-0.9,1.7-1.4c-1.2-2.9-1.8-5.8-2-8.7
	c-0.1-1.3,7.5,2.6,9.8,4c5.9-2.9,12.4-4.6,19.4-4.9l0,0c27.5-1.3,50.8,19.9,52.1,47.4l0.9,18.3l2.6,54.8l0.5,10.6L254,447.5
	c-38.2,2-58.6-24.9-67.3-67.5C184.1,367.3,194,358.3,205.5,364.1z"/>
<path class="st11" d="M211.3,363.5c32.6,16.1,46.1-8.6,43.9-37.9l-0.6-12.8l-0.2-4.5l-0.5-10.3c-0.6-12,3.2-23.2,9.9-32.2l-0.1,0.1
	c-4-5-5.3-9.9-5.6-14.8c-0.1-1.4,1.5-2.1,2.5-1.3c4.2,3.5,8.8,6.6,11.9,7.1c0,0,0,0,0,0c1-0.8,1.4-2.1,1-3.3
	c-0.7-2.2-1.1-4.5-1.2-6.7c-0.1-1.4,1.5-2.1,2.5-1.3c2.4,2,5,3.9,7.3,5.2c5.9-2.9,12.4-4.6,19.4-4.9h0c27.5-1.3,50.8,19.9,52.1,47.4
	l0.9,18.3l2.6,54.8l0.5,10.6c1.1,62.1-19.3,89.6-93.4,80.8c-38.1,2.3-63.2-35.1-72.3-78.8C189.3,367.7,201,358.4,211.3,363.5z"/>
<ellipse transform="matrix(0.9989 -4.720328e-02 4.720328e-02 0.9989 -12.9687 16.0965)" class="st0" cx="334.3" cy="282.6" rx="3.5" ry="4"/>
<ellipse transform="matrix(0.9989 -4.720328e-02 4.720328e-02 0.9989 -13.0422 15.415)" class="st0" cx="319.9" cy="283.9" rx="3.5" ry="4"/>
<path class="st0" d="M307.2,276.1l12-3.8c0.9-0.3,1.3-1.2,1.1-2.1l-0.7-2.2c-0.3-0.9-1.2-1.3-2.1-1.1l-12,3.8
	c-0.9,0.3-1.3,1.2-1.1,2.1l0.7,2.2C305.4,275.9,306.3,276.4,307.2,276.1z"/>
<path class="st0" d="M342.5,273.5l-12.3-2.7c-0.9-0.2-1.5-1.1-1.3-2l0.5-2.2c0.2-0.9,1.1-1.5,2-1.3l12.3,2.7c0.9,0.2,1.5,1.1,1.3,2
	l-0.5,2.2C344.3,273.1,343.4,273.7,342.5,273.5z"/>
<path class="st10" d="M355.4,336.8c-16.7,3.2-31.9-11-31.8-26L355.4,336.8z"/>
<path class="st12" d="M361.8,308.3c-9.1,3.3-20.5,0.5-25.4-5.6c-2.4-2.4-5.8-4.4-8.8-3.1c-4,1.7-5.3,6.3-4,12
	c6.2,20.2,34.7,31.2,46.9,22.9c7.3-3.1,10.8-11.4,7.8-18.4c-3-7-11.4-10.2-18.7-7.1"/>
<circle class="st10" cx="273.7" cy="282" r="5"/>
<circle class="st10" cx="282.4" cy="289.5" r="2.5"/>
<circle class="st10" cx="273.2" cy="294.7" r="3.7"/>
<path class="st13" d="M362.4,327.8c-5.6,4.1-12.9,3.1-15.8-5.2c-0.2-0.6,0.4-1.1,0.9-0.8c4.3,2.5,9.3,4,14.6,4.8
	C362.7,326.7,362.9,327.4,362.4,327.8z"/>
<g>
	
		<linearGradient id="SVGID_1_" gradientUnits="userSpaceOnUse" x1="-1562.5734" y1="457.8846" x2="-1471.187" y2="430.5117" gradientTransform="matrix(-0.9989 4.720328e-02 4.720328e-02 0.9989 -1197.8561 29.7948)">
		<stop  offset="4.511231e-07" style="stop-color:#D67369"/>
		<stop  offset="1" style="stop-color:#EE7F70"/>
	</linearGradient>
	<path class="st14" d="M261.3,415.5c42.9,29.5,122.6,4.7,124.5-24.1c0.5-7.1-6.3-12.5-13.4-12.2c-27,1.9-48.6-7.6-68.1-22.9"/>
	<path class="st10" d="M261.4,415.4c8.1,5.5,17.5,9,27.1,10.9c9.6,1.9,19.5,2.4,29.2,1.7c9.7-0.7,19.4-2.5,28.7-5.4
		c4.7-1.5,9.2-3.2,13.6-5.3c4.4-2.1,8.6-4.5,12.5-7.4c3.8-2.9,7.4-6.3,9.8-10.4c1.2-2,2.1-4.3,2.4-6.5c0.2-1.2,0.3-2.3,0.1-3.4
		c0-0.6-0.2-1.1-0.4-1.6c-0.2-0.5-0.4-1-0.7-1.5c-2.1-4-6.8-6.4-11.3-6.1c-4.9,0.3-9.9,0.3-14.9-0.1c-9.9-1-19.6-3.6-28.5-7.8
		c-4.5-2.1-8.8-4.5-12.9-7.2c-4.1-2.7-8.1-5.6-11.9-8.8c0,0,0-0.1,0-0.1c0,0,0.1,0,0.1,0c7.9,5.8,16.3,11,25.2,14.8
		c4.5,1.9,9.1,3.6,13.8,4.7c4.7,1.2,9.5,2,14.4,2.4c4.8,0.4,9.7,0.4,14.6,0.1c5.3-0.2,10.7,2.5,13.2,7.3c1.3,2.3,1.5,5.3,1,7.8
		c-0.5,2.6-1.4,5-2.8,7.1c-2.6,4.4-6.4,7.8-10.4,10.8c-4,3-8.4,5.4-12.8,7.5c-4.5,2.1-9.1,3.8-13.8,5.2c-9.4,2.9-19.2,4.6-29.1,5.2
		c-9.8,0.6-19.8,0-29.4-2.1c-9.6-2.1-19-5.7-27-11.4c0,0-0.1-0.1,0-0.1C261.3,415.4,261.4,415.4,261.4,415.4z"/>
</g>
<path class="st0" d="M659,220.9h-73c-5.1,0-9.2-4.1-9.2-9.2v-33.4c0-5.1,4.1-9.2,9.2-9.2h73c5.1,0,9.2,4.1,9.2,9.2v33.4
	C668.2,216.8,664.1,220.9,659,220.9z"/>
<path class="st0" d="M586.7,239.7H548c-5.4,0-9.8-4.4-9.8-9.8v-13.5c0-5.4,4.4-9.8,9.8-9.8h38.8c5.4,0,9.8,4.4,9.8,9.8v13.5
	C596.5,235.3,592.1,239.7,586.7,239.7z"/>
<rect x="530.3" y="425.8" class="st0" width="58.3" height="188.1"/>
<circle class="st12" cx="679.3" cy="425.8" r="15.3"/>
<circle class="st12" cx="613.2" cy="462.4" r="15.3"/>
<g>
	<defs>
		<path id="XMLID_44_" d="M685.5,545.2c-0.5-4.7-4.6-8.3-9.4-8.3l-44.3,0l-44.3,0c-4.8,0-8.8,3.5-9.4,8.3
			c-3.5,31.1,3.9,52.9,19,68.1l34.6,0.6l34.6-0.6C681.6,598,689,576.3,685.5,545.2z"/>
	</defs>
	<use xlink:href="#XMLID_44_"  style="overflow:visible;fill:#D38444;"/>
	<clipPath id="XMLID_00000104666085300362476740000012829732322956144027_">
		<use xlink:href="#XMLID_44_"  style="overflow:visible;"/>
	</clipPath>
	<path style="clip-path:url(#XMLID_00000104666085300362476740000012829732322956144027_);fill:#E89449;" d="M664.5,545.2
		c-0.5-4.7-4.6-8.3-9.4-8.3l-44.3,0l-44.3,0c-4.8,0-8.8,3.5-9.4,8.3c-3.5,31.1,3.9,52.9,19,68.1l34.6,0.6l34.6-0.6
		C660.6,598,668,576.3,664.5,545.2z"/>
</g>
<path class="st16" d="M616.5,477.7c5.3,19.9,7.2,39.6,6.8,59.2"/>
<path class="st16" d="M670.6,438.7c-22.1,25.5-27.8,60.9-30.5,98.2"/>
<path class="st17" d="M613.2,536.9c-2-28.8-15.6-49.2-40.9-61.1c-1.9-0.9-4,0.6-3.9,2.6c0.5,8.3,1.9,15.7,4,22.1l3.5-2.4
	c1.3-0.9,3.1-0.5,4,0.8l1.6,2.4c0.9,1.3,0.5,3.1-0.8,4l-5,3.4c1.6,3.1,3.3,6,5.4,8.6l3-2.7c1.3-1.2,3.4-1.1,4.6,0.3l0.4,0.5
	c1.2,1.3,1.1,3.4-0.3,4.6l-3,2.7C593.2,529.6,602.4,534.3,613.2,536.9z"/>
<path class="st17" d="M645.2,536.9c2.6-37.5,20.3-64,53.1-79.4c2.4-1.1,5.2,0.7,5,3.4c-0.7,10.8-2.5,20.4-5.2,28.7l-4.6-3.1
	c-1.7-1.2-4-0.7-5.2,1l-2.1,3.1c-1.1,1.7-0.7,4,1,5.2l6.6,4.4c-2,4.1-4.3,7.8-7,11.2L683,508c-1.8-1.6-4.4-1.4-6,0.3l-0.5,0.6
	c-1.6,1.8-1.4,4.4,0.3,6l3.9,3.5C671.3,527.4,659.4,533.5,645.2,536.9z"/>
<circle class="st18" cx="662.1" cy="15.5" r="4"/>
<circle class="st19" cx="675.3" cy="15.5" r="4"/>
<circle class="st17" cx="688.6" cy="15.5" r="4"/>
<path class="st9" d="M234.3,459.8h-7.8c-1.6,0-2.9-1.3-2.9-2.9v-72.7c0-1.6,1.3-2.9,2.9-2.9h7.8c1.6,0,2.9,1.3,2.9,2.9v72.7
	C237.2,458.4,235.9,459.8,234.3,459.8z"/>
<g>
	<path class="st0" d="M367.7,502.4c2.7-5,8-8.3,14.1-8c8.4,0.3,15,7.4,14.7,15.9l-0.3,6.9l-49.1-1.9l1-25.5l25.1,3.7l4.1,1.5"/>
	<path class="st1" d="M391,521.8l-39.8-1.6c-2.2-0.1-3.9-1.9-3.8-4.1l0.1-1.3l49.1,1.9l0,0C396.3,519.6,393.9,521.9,391,521.8z"/>
	<path class="st1" d="M372.1,497.3c10.6-7.4,22-0.7,24,9.5C391,498.3,383.1,494.8,372.1,497.3z"/>
	<path class="st13" d="M368.8,500l-17.5,0c-5.6,0-10-4.5-10-10.1l0,0c0-5.4,4.4-9.8,9.8-9.8l17.8,0.1c5.5,0,9.9,4.5,9.9,9.9l0,0
		C378.8,495.5,374.3,500,368.8,500z"/>
	<g>
		<defs>
			<path id="XMLID_43_" d="M312.6,439.2L312.6,439.2c1.4-4.2,5.9-6.5,10-5.1l28.9,9.4l0,0l5,1.6c6.5,2.1,11,8.1,11.2,14.9l0.8,23.7
				c0.1,3.4-2.5,6.2-5.9,6.3l-2.8,0.1c-3.9,0.1-7.1-2.9-7.2-6.8l-0.5-16.9c-0.1-3.6-2.4-6.7-5.8-7.8l-28.6-9.3
				C313.5,447.8,311.2,443.3,312.6,439.2z"/>
		</defs>
		<use xlink:href="#XMLID_43_"  style="overflow:visible;fill:#F2C666;"/>
		<clipPath id="XMLID_00000090275129767106827840000008974740742804676238_">
			<use xlink:href="#XMLID_43_"  style="overflow:visible;"/>
		</clipPath>
		<path style="clip-path:url(#XMLID_00000090275129767106827840000008974740742804676238_);fill:#D3AA59;" d="M358.4,491.2
			l-1.4-26.8c-0.2-4.4-3.1-8.2-7.3-9.6l-39.5-13l0.9,8.8l37.1,11.2l2.9,26.8L358.4,491.2z"/>
	</g>
</g>
<g>
	<defs>
		<path id="SVGID_00000044167863771983616340000010790218973862986672_" d="M174.3,274.6H35.4c-1.3,0-2.3-1-2.3-2.3V154.4
			c0-1.3,1-2.3,2.3-2.3h138.9c1.3,0,2.3,1,2.3,2.3v117.9C176.6,273.5,175.6,274.6,174.3,274.6z"/>
	</defs>
	<clipPath id="SVGID_00000154399693318619521180000004878125943581293696_">
		<use xlink:href="#SVGID_00000044167863771983616340000010790218973862986672_"  style="overflow:visible;"/>
	</clipPath>
	<g style="clip-path:url(#SVGID_00000154399693318619521180000004878125943581293696_);">
		<g>
			<path class="st13" d="M56.9,201c2.4,1.6,5.3,1,6.4-2.4c0.1-0.2-0.2-0.4-0.4-0.3c-1.7,1.1-3.7,1.8-5.9,2.3
				C56.7,200.5,56.7,200.8,56.9,201z"/>
			<path class="st22" d="M80.8,190.9l-4.1-1.1c-0.6-0.2-1-0.8-0.8-1.4l0,0c0.2-0.6,0.8-1,1.4-0.8l4.1,1.1c0.6,0.2,1,0.8,0.8,1.4l0,0
				C82,190.7,81.4,191.1,80.8,190.9z"/>
			<path class="st23" d="M131,209.7v-36.3c0-8.7-7-15.7-15.7-15.7s-15.7,7-15.7,15.7v1.6v39.5c0,3.4-2.8,6.2-6.2,6.2
				c-3.4,0-6.2-2.8-6.2-6.2V206l-9.6,4.7v4.1c0,8.7,7,15.7,15.7,15.7s15.7-7,15.7-15.7v-1.6v-39.5c0-3.4,2.8-6.2,6.2-6.2
				s6.2,2.8,6.2,6.2v8.6v46.6"/>
			<path class="st24" d="M62.8,189.9c-2-0.4-3.5-2.1-3.5-4.3v0c0-2.4,1.9-4.3,4.3-4.3h22.5c2.4,0,4.3,1.9,4.3,4.3v0
				c0,1.9-1.2,3.5-3,4.1"/>
			<path class="st24" d="M79.3,173.6h-7.4c-4.3,0-7.7,3.5-7.7,7.7v0H87v0C87,177,83.5,173.6,79.3,173.6z"/>
			<path class="st23" d="M198.9,261.7c-2.1-2-3.4-3.8-4.5-6c-1-2.1-2.7-11.1-3.3-16.4c2.1,1.2,4.5,1.5,7.1,0.9
				c0.7-0.1,0.8-1,0.3-1.4c-2.4-1.6-4.2-3.3-5-5.2c-0.9-2.1-2.4-6.6-4-11.1l0,0.1c-0.4-1-0.8-2-1.2-3c1.5-0.1,3-0.6,4.4-1.4
				c0.6-0.3,0.5-1.2-0.2-1.4c-2.8-0.8-8.5-4.2-9.9-5.8l0,0c-6.5-7.3-15.9-11.9-26.4-11.9c-19.5,0-35.2,15.8-35.2,35.2
				c0,0.7,0,1.3,0.1,2c-0.2,2.5-1.8,8-3.1,10.3c-0.3,0.6,0.2,1.3,0.9,1.1c1.6-0.4,3-1.1,4.1-2c1.5,4.3,3.8,8.3,6.7,11.6
				c0.2,2.7,0.2,6-0.1,7.7c-0.1,0.7,0.6,1.2,1.2,0.8c1.6-1.1,2.9-2.4,3.7-3.9c4.8,3.9,10.6,6.3,16.9,7.2c1.4,0.2,2.6,0.9,3.5,2.1
				c1.3,1.8,2,4,1.9,5.6c0,0.7,1.1,0.8,1.4,0.2c0.3-0.5,0.6-1.3,0.8-1.9c0.4-1,1.1-2,2-2.6c4.5-3.4,10.3-4.1,16.9-3.6
				c0.3,0,0.6,0,0.9,0.1c2.6,0.3,5.1,1.5,7.1,3.2c0.5,0.4,1,0.7,1.6,0.9c0.4,0.2,0.9-0.2,0.8-0.7c-0.4-1.7-0.6-3.4,0-4.7
				c0.4-1,0.9-1.7,1.5-2.3c1.8-1.8,4.2-2.4,7.4-2.4c0.4,0,0.8,0,1.3,0C199.1,263,199.4,262.2,198.9,261.7z"/>
			<path class="st25" d="M177.6,237c0.2,1.8,1.9,2.9,3.9,3.8c0.5,0.2,0.6,1,0.1,1.3c-1.8,1.1-3.6,1.4-5.5,0.9"/>
			<path class="st25" d="M160.9,228.9c-0.2,1.6,0.9,2.8,2.5,4c0.4,0.3,0.3,1-0.2,1.1c-1.7,0.5-3.3,0.4-4.8-0.5"/>
			<path class="st25" d="M148.6,242.7c0.7,1.4-0.1,3-1.2,4.6c-0.3,0.4,0,1,0.5,1c1.8,0,3.3-0.6,4.4-1.8"/>
			<path class="st25" d="M147.7,207.4c0.7,1.4-0.1,3-1.2,4.6c-0.3,0.4,0,1,0.5,1c1.8,0,3.3-0.6,4.4-1.8"/>
			<path class="st25" d="M170,216.3c0.2,1.6,1.8,2.6,3.6,3.3c0.5,0.2,0.6,0.9,0.1,1.2c-1.6,1.1-3.2,1.4-4.9,0.9"/>
			<path class="st2" d="M179.7,319.6h-8.2c-2.2,0-3.9-1.7-3.9-3.9l0,0c0-2.1,1.7-3.7,3.7-3.7h8.5c2.1,0,3.7,1.7,3.7,3.7l0,0
				C183.6,317.9,181.8,319.6,179.7,319.6z"/>
			<path class="st0" d="M172.1,324.7c0-4.1-3.3-7.4-7.4-7.4c-4.1,0-7.4,3.3-7.4,7.4v4h23.6v-9.3l-11.5-0.5L172.1,324.7z"/>
			<path class="st1" d="M178.3,331.5h-18.8c-1.2,0-2.2-1-2.2-2.2v-0.6h23.6v0.1C180.9,330.3,179.7,331.5,178.3,331.5z"/>
			<path class="st2" d="M159.5,311.9l-7.1,4.2c-1.9,1.1-4.2,0.5-5.3-1.4l0,0c-1-1.8-0.5-4.1,1.3-5.1l7.4-4.3c1.8-1,4.1-0.5,5.1,1.3
				l0,0C162,308.4,161.4,310.8,159.5,311.9z"/>
			<path class="st0" d="M155.5,320.1c-2.1-3.5-6.6-4.7-10.2-2.6c-3.5,2.1-4.7,6.6-2.6,10.2l2,3.5l20.4-12l-4.7-8.1l-11.3,6.8
				L155.5,320.1z"/>
			<path class="st1" d="M164.4,322.7l-15.9,9.3c-1.3,0.8-3,0.3-3.8-1l0,0l20.4-12l0.2,0.3C166,320.5,165.6,322,164.4,322.7z"/>
			<path class="st25" d="M135.7,223.8c-0.1,1.8-1,3.8-2.4,5.8c-0.3,0.5,0.1,1.1,0.7,1.1c2.3-0.4,4.2-1.4,5.5-3"/>
			<path class="st25" d="M168.7,254.3c0,1.6,1.4,2.7,3.1,3.7c0.4,0.3,0.4,0.9,0,1.1c-1.7,0.8-3.3,0.9-4.9,0.3"/>
			<g>
				<defs>
					<path id="XMLID_24_" d="M154.9,271.7l-6.4,12.3c-1.7,3.3-1.6,7.3,0.4,10.4l6.5,10.6c1.2,1.9,0.6,4.5-1.3,5.7v0
						c-2,1.2-4.7,0.6-5.9-1.4l-7.2-11.6c-3.1-5-3.3-11.2-0.6-16.3l7-13.5c1-1.9,3.4-2.7,5.3-1.7l0.6,0.3
						C155.2,267.4,155.9,269.8,154.9,271.7z"/>
				</defs>
				<use xlink:href="#XMLID_24_"  style="overflow:visible;fill:#F2C666;"/>
				<clipPath id="XMLID_00000142896092950390306860000015022790017351957662_">
					<use xlink:href="#XMLID_24_"  style="overflow:visible;"/>
				</clipPath>
				<path style="clip-path:url(#XMLID_00000142896092950390306860000015022790017351957662_);fill:#DDB462;" d="M159.6,271.6
					l-6.4,12.3c-1.7,3.3-1.6,7.3,0.4,10.4l6.5,10.6c1.2,1.9,0.6,4.5-1.3,5.7h0c-2,1.2-4.7,0.6-5.9-1.4l-7.2-11.6
					c-3.1-5-3.3-11.2-0.6-16.3l7-13.5c1-1.9,3.4-2.7,5.3-1.7l0.6,0.3C159.9,267.4,160.6,269.7,159.6,271.6z"/>
			</g>
			<g>
				<defs>
					<path id="XMLID_4_" d="M179.8,269v42.2c0,2.3-1.8,4.2-4.1,4.2c-0.1,0-0.2,0-0.3,0c-2.3-0.1-4-1.9-4-4.2V269"/>
				</defs>
				<use xlink:href="#XMLID_4_"  style="overflow:visible;fill:#F2C666;"/>
				<clipPath id="XMLID_00000067939452509716994450000016386772638618841737_">
					<use xlink:href="#XMLID_4_"  style="overflow:visible;"/>
				</clipPath>
				<path style="clip-path:url(#XMLID_00000067939452509716994450000016386772638618841737_);fill:#DDB462;" d="M184,269v42.2
					c0,2.3-1.8,4.2-4.1,4.2c-0.1,0-0.2,0-0.3,0c-2.3-0.1-4-1.9-4-4.2l0-42.2"/>
			</g>
			<path class="st28" d="M75,210.7h-0.2c-7,0-12.7-5.7-12.7-12.7v-0.2c0-7,5.7-12.7,12.7-12.7H75c7,0,12.7,5.7,12.7,12.7v0.2
				C87.6,205.1,82,210.7,75,210.7z"/>
			<ellipse class="st0" cx="69.6" cy="192.3" rx="1.3" ry="1.6"/>
			<ellipse class="st0" cx="75" cy="192.3" rx="1.3" ry="1.6"/>
			<path class="st12" d="M73,201.5c-8.5,1.5-16.8,2.3-25,2.5c-4,0.1-8,0-12-0.2l0,0c0-7,22.1-7.8,26.2-7.9l5.3-0.1
				C70.5,195.8,73,198.4,73,201.5c0,3.2-2.4,5.4-5.4,5.7c-8.2,0.3-13.2-0.3-19.8-3.2"/>
			<path class="st13" d="M50.5,203.9c2.4,1.6,5.3,1,6.4-2.4c0.1-0.2-0.2-0.4-0.4-0.3c-1.7,1.1-3.7,1.8-5.9,2.3
				C50.4,203.5,50.3,203.8,50.5,203.9z"/>
			<path class="st0" d="M79.5,190.1l-4.1-1.1c-0.6-0.2-1-0.8-0.8-1.4l0,0c0.2-0.6,0.8-1,1.4-0.8l4.1,1.1c0.6,0.2,1,0.8,0.8,1.4l0,0
				C80.7,189.9,80.1,190.2,79.5,190.1z"/>
			<path class="st0" d="M63.8,190.1l4.1-1.1c0.6-0.2,1-0.8,0.8-1.4l0,0c-0.2-0.6-0.8-1-1.4-0.8l-4.1,1.1c-0.6,0.2-1,0.8-0.8,1.4l0,0
				C62.6,189.9,63.2,190.2,63.8,190.1z"/>
		</g>
		<g>
			<path class="st0" d="M112.2,335.3c0.9-1.9,2.8-3.1,5-3.1c3.1,0,5.6,2.5,5.6,5.6v2.5h-17.9V331l9.2,1l1.5,0.5"/>
			<path class="st0" d="M92.4,335c-0.9-1.9-2.8-3.1-5-3.1c-3.1,0-5.6,2.5-5.6,5.6v2.5h17.9v-9.3l-9.2,1l-1.5,0.5"/>
			<path class="st29" d="M89.1,235.7l-2.1,0.9c-3,1.2-6.4,1-9.2-0.6h0c-4.8-2.8-10.8,1-10.3,6.6l0.3,3.2
				c1.4,17.7,22.6,36.8,42.9,36.8s30.7-16.5,30.7-36.8c-0.5-12.5-13.6-18.9-18.9-20.1c-2.2-0.5-4.2-0.4-5.8,0L89.1,235.7z"/>
			<path class="st29" d="M142.2,202.1c6,16.9,4.9,32.7-1.1,47.8c-0.5,1.3-2.2,1.7-3.2,0.8c-12.5-11.2-10.1-36.2,0.3-49.2
				C139.4,200,141.6,200.4,142.2,202.1z"/>
			<path class="st29" d="M126.8,212.3c8.8,10.5,12.2,22.1,11.9,34.5c0,1.1-1.1,1.8-2.1,1.4c-11.9-4.7-16.8-23.2-12.8-35.3
				C124.2,211.5,126,211.2,126.8,212.3z"/>
			
				<linearGradient id="SVGID_00000049936647058537595600000013597477894380542851_" gradientUnits="userSpaceOnUse" x1="61.1378" y1="238.0863" x2="82.0197" y2="245.2437">
				<stop  offset="4.210266e-03" style="stop-color:#F29538"/>
				<stop  offset="1" style="stop-color:#EDA74C"/>
			</linearGradient>
			<path style="fill:url(#SVGID_00000049936647058537595600000013597477894380542851_);" d="M89.7,237.9l-2.1,0.9
				c-3,1.2-6.4,1-9.2-0.6h0c-4.8-2.8-10.8,1-10.3,6.6l0.3,3.2c1.4,17.7,22.6,36.8,42.9,36.8s30.7-16.5,30.7-36.8
				c-0.5-12.5-13.6-18.9-18.9-20.1c-2.2-0.5-4.2-0.4-5.8,0L89.7,237.9z"/>
			<path class="st29" d="M86.6,225.6c2.1,24.3,24.6,34.8,28.5,24.4"/>
			<path class="st29" d="M145.4,168.5c-3.1,0-6,0.8-8.6,2.1l0,0c-1.6-0.1-2.8-1.1-3.7-2.5c-0.2-0.3-0.6-0.2-0.7,0
				c-0.7,1.4-0.7,2.9,0,4.5c0.1,0.3-0.2,0.7-0.5,0.5c-1.9-0.8-3.1-2.2-3.6-4.3c-0.1-0.5-0.8-0.5-1-0.1c-1.8,4-1.5,7.8,0.9,11.3l0,0
				c-0.9,2.2-1.4,4.6-1.4,7.1c0,10.3,8.4,18.7,18.7,18.7c10.3,0,18.7-8.4,18.7-18.7C164.1,176.9,155.7,168.5,145.4,168.5z"/>
			<path class="st31" d="M146.7,168.2c-3.1,0-6,0.8-8.6,2.1l0,0c-1.6-0.1-2.8-1.1-3.7-2.5c-0.2-0.3-0.6-0.2-0.7,0
				c-0.7,1.4-0.7,2.9,0,4.5c0.1,0.3-0.2,0.7-0.5,0.5c-1.9-0.8-3.1-2.2-3.6-4.3c-0.1-0.5-0.8-0.5-1-0.1c-1.8,4-1.5,7.8,0.9,11.3l0,0
				c-0.9,2.2-1.4,4.6-1.4,7.1c0,10.3,8.4,18.7,18.7,18.7c10.3,0,18.7-8.4,18.7-18.7C165.4,176.5,157,168.2,146.7,168.2z"/>
			<circle class="st32" cx="141.3" cy="181.3" r="6.4"/>
			<circle class="st32" cx="154.1" cy="179.3" r="6.4"/>
			<path class="st32" d="M134.9,180.5L134.9,180.5c-2.8-1-5.9-0.1-7.7,2.2l-0.9,1.1"/>
			<g>
				<defs>
					<path id="XMLID_30_" d="M163.3,196.8c-4-0.2-7.8-3.3-8.7-6.5c-0.5-1.1-1.7-1.9-3-1.9c-1.8,0-3.3,1.5-3.3,3.3
						c-0.1,7,8.5,17.2,14.1,17c3.3,0,5.9-2.7,5.9-5.9c0-3.3-2.7-5.9-5.9-5.9"/>
				</defs>
				<use xlink:href="#XMLID_30_"  style="overflow:visible;fill:#F2C666;"/>
				<clipPath id="XMLID_00000125587243745123388330000017718363949883830452_">
					<use xlink:href="#XMLID_30_"  style="overflow:visible;"/>
				</clipPath>
			</g>
			
				<linearGradient id="SVGID_00000137850935116838441010000018195089052404969119_" gradientUnits="userSpaceOnUse" x1="124.7684" y1="215.3288" x2="140.2638" y2="220.7153">
				<stop  offset="4.210266e-03" style="stop-color:#F29538"/>
				<stop  offset="1" style="stop-color:#EDA74C"/>
			</linearGradient>
			<path style="fill:url(#SVGID_00000137850935116838441010000018195089052404969119_);" d="M136.3,235.8c2.8-8,6.4-21.6,7.6-30.2
				l-4.8-1.6c-1.2,8.6-4.4,20-7.2,28.1"/>
			<circle class="st29" cx="77.3" cy="250.7" r="1.6"/>
			<circle class="st29" cx="78.4" cy="244.7" r="1.1"/>
			<circle class="st29" cx="82.1" cy="247.6" r="1.5"/>
			<path class="st31" d="M108,244.7c-13.1-1.4-24.1-17.5-22.6-31.2c0.1-1.1,1.3-1.8,2.3-1.3c3.4,1.8,6,4.5,7.9,7.9"/>
			<path class="st2" d="M112.5,332.3h-5.2c-1.7,0-3-1.4-3-3l0,0c0-1.6,1.3-2.9,2.9-2.9h5.4c1.6,0,3,1.3,3,3l0,0
				C115.5,331,114.2,332.3,112.5,332.3z"/>
			<path class="st2" d="M97.4,331.9h-6c-1.7,0-3-1.4-3-3l0,0c0-1.6,1.3-2.9,2.9-2.9h6.2c1.6,0,3,1.3,3,3l0,0
				C100.4,330.6,99.1,331.9,97.4,331.9z"/>
			<g>
				<defs>
					<path id="XMLID_29_" d="M109.7,284.7l7.3,19.3c1.1,3,0.8,6.4-0.9,9.1l-9,14.3c-0.3,0.5-0.2,1.1,0.2,1.5c1.3,1.2,4.3,1,5.3-0.5
						l9.4-14.9c1.7-2.7,2.1-6.1,0.9-9.1l-7.3-19.9"/>
				</defs>
				<use xlink:href="#XMLID_29_"  style="overflow:visible;fill:#F2C666;"/>
				<clipPath id="XMLID_00000093173204024648307280000004249687253021771149_">
					<use xlink:href="#XMLID_29_"  style="overflow:visible;"/>
				</clipPath>
				<path style="clip-path:url(#XMLID_00000093173204024648307280000004249687253021771149_);fill:#D8B060;" d="M112.4,284.2
					l7.6,20.1c1.1,3,0.8,6.4-0.9,9.1l-9,14.3c-0.3,0.5-1.6,3.4-1.2,3.8c1.3,1.2,5.7-1.2,6.8-2.8l9.4-14.9c1.7-2.7,2.1-6.1,0.9-9.1
					l-7.3-19.9"/>
			</g>
			<g>
				<defs>
					<path id="XMLID_28_" d="M91.7,279.2l-8.4,12.9c-2.4,3-3.2,7-1,10.3c0.1,0.2,0.2,0.4,0.3,0.5L97,327.7c0.3,0.5,0.2,1.1-0.3,1.5
						c-1.4,1.1-4.4,0.8-5.3-0.8l-14.8-25.4c-0.1-0.2-0.2-0.4-0.3-0.5c-1.6-3.3-1.1-7.2,0.9-10.2l10.5-15.4"/>
				</defs>
				<use xlink:href="#XMLID_28_"  style="overflow:visible;fill:#F2C666;"/>
				<clipPath id="XMLID_00000005949433064696508140000014600776680640927919_">
					<use xlink:href="#XMLID_28_"  style="overflow:visible;"/>
				</clipPath>
				<path style="clip-path:url(#XMLID_00000005949433064696508140000014600776680640927919_);fill:#D8B060;" d="M94.2,279l-8.4,12.9
					c-2.4,3-3.2,7-1,10.3c0.1,0.2,0.2,0.4,0.3,0.5l14.5,24.8c0.3,0.5,0.2,1.1-0.3,1.5c-1.4,1.1-3.1,2.9-4,1.3l-16.1-27.6
					c-0.1-0.2-0.2-0.4-0.3-0.5c-1.6-3.3-1.1-7.2,0.9-10.2l10.5-15.4"/>
			</g>
			
				<linearGradient id="SVGID_00000139975222281691171840000000826712305262062259_" gradientUnits="userSpaceOnUse" x1="103.7909" y1="279.4551" x2="151.7456" y2="255.6204">
				<stop  offset="4.210266e-03" style="stop-color:#F29538"/>
				<stop  offset="1" style="stop-color:#EDA74C"/>
			</linearGradient>
			<path style="fill:url(#SVGID_00000139975222281691171840000000826712305262062259_);" d="M142,247.6c-5,25.1-29.5,32.3-53.6,29.8
				c6.9,4.5,14.4,7.3,22.8,7.4c17.6-0.5,29.6-9.9,30.7-36.8L142,247.6z"/>
			<path class="st1" d="M84.3,342.5h14.2c0.7,0,1.3-0.6,1.3-1.3V340H81.8v0C81.8,341.4,82.9,342.5,84.3,342.5z"/>
			<path class="st1" d="M120.3,342.8h-14.5c-0.5,0-1-0.4-1-1v-1.5h17.9l0,0C122.8,341.7,121.7,342.8,120.3,342.8z"/>
			
				<ellipse transform="matrix(0.9872 -0.1596 0.1596 0.9872 -27.0817 25.4121)" class="st0" cx="144.6" cy="181.3" rx="1.3" ry="1.6"/>
			
				<ellipse transform="matrix(0.9872 -0.1596 0.1596 0.9872 -26.8465 26.3711)" class="st0" cx="150.7" cy="180.3" rx="1.3" ry="1.6"/>
			<path class="st13" d="M155.9,200.7c0.8,2.8,3.5,4.2,6.5,2.2c0.2-0.1,0.1-0.5-0.1-0.5c-2-0.3-4.1-1-6-2
				C156.1,200.2,155.8,200.4,155.9,200.7z"/>
			<path class="st0" d="M153.7,175.2l-4.1-1.1c-0.6-0.2-1-0.8-0.8-1.4l0,0c0.2-0.6,0.8-1,1.4-0.8l4.1,1.1c0.6,0.2,1,0.8,0.8,1.4l0,0
				C154.9,175,154.3,175.4,153.7,175.2z"/>
			<path class="st0" d="M141.2,174.9l-4.1,1.1c-0.6,0.2-1.2-0.2-1.4-0.8l0,0c-0.2-0.6,0.2-1.2,0.8-1.4l4.1-1.1
				c0.6-0.2,1.2,0.2,1.4,0.8v0C142.2,174.2,141.8,174.8,141.2,174.9z"/>
			<path class="st37" d="M148.6,194.3c0.4,5,2.4,8.3,5.6,9.8h-0.2C151.2,200.9,149.8,197.9,148.6,194.3z"/>
			<path class="st29" d="M110,203c-0.2-0.7-0.4-1.4-0.7-2.1c-0.9-2.2-4.2-1.7-5.8,0.1c-10.9,11.8-10,23.8-0.8,36.5"/>
			<path class="st31" d="M112.8,213.2c-0.5-3.8-1.2-7.5-2.6-9.9c-0.6-1-2-1.1-2.8-0.3c-9.2,9.5-11,32.1,1.1,42.6"/>
			<path class="st12" d="M112.8,213.2c5.7,12.4,6,24.5,2.5,36.4c-0.3,1-1.5,1.4-2.4,0.8c-10.3-7.7-10.1-26.8-3.1-37.4
				C110.5,211.8,112.2,212,112.8,213.2z"/>
			<path class="st31" d="M112.8,245.2c-0.5-0.2-0.7-0.7-0.6-1.2c0.7-2.4,1.1-5.6,1.1-9.1c0-4.2-0.6-8-1.6-10.5c-0.2-0.5,0-1,0.4-1.3
				l0,0c0.6-0.3,1.3-0.1,1.5,0.5c1,2.7,1.6,6.7,1.6,11.1c0,3.8-0.5,7.2-1.2,9.8C114,245.1,113.4,245.4,112.8,245.2L112.8,245.2z"/>
			<path class="st1" d="M90.9,333.1c-3.8-2.9-8-0.6-8.9,3.1C84,333.2,86.9,332.1,90.9,333.1z"/>
			<path class="st1" d="M113.7,333.4c3.8-2.9,8-0.6,8.9,3.1C120.6,333.5,117.7,332.4,113.7,333.4z"/>
		</g>
		<g>
			<path class="st38" d="M114.2,252.3c0.8-1.3,1.9-2.4,3.3-3.4c2.1-1.5,4.9-0.2,5.3,2.3c0.9,6.4-0.8,11.7-4.8,16.3"/>
			<path class="st39" d="M66.4,245.6c-5.7,8.2-13.4,11.6-22.9,10.8c-1.7-0.2-2.9,1.6-2.1,3.1c4,8,17.8,9.9,26.2,3.8"/>
			<path class="st0" d="M77.5,298.3c-0.8-1.6-2.4-2.7-4.3-2.7c-2.6,0-4.8,2.1-4.8,4.8v2.1h15.3v-7.9l-7.9,0.9l-1.3,0.4"/>
			<path class="st1" d="M70.6,304.7h12c0.6,0,1.1-0.5,1.1-1.1v-1H68.4l0,0C68.4,303.7,69.4,304.7,70.6,304.7z"/>
			<path class="st1" d="M76.2,296.7c-3.2-2.4-6.8-0.5-7.6,2.7C70.3,296.8,72.7,295.8,76.2,296.7z"/>
			<path class="st0" d="M96.3,298.5c-0.8-1.6-2.4-2.7-4.3-2.7c-2.6,0-4.8,2.1-4.8,4.8v2.1h15.3v-7.9l-7.9,0.9l-1.3,0.4"/>
			<path class="st1" d="M89.4,304.9h12c0.6,0,1.1-0.5,1.1-1.1v-1H87.3l0,0C87.3,303.9,88.3,304.9,89.4,304.9z"/>
			<path class="st1" d="M95,296.9c-3.2-2.4-6.8-0.5-7.6,2.7C89.1,297,91.6,296,95,296.9z"/>
			<path class="st2" d="M82.3,297.4h-4.7c-1.3,0-2.4-1.1-2.4-2.4l0,0c0-1.3,1-2.3,2.3-2.3h4.9c1.3,0,2.3,1,2.3,2.3l0,0
				C84.7,296.3,83.6,297.4,82.3,297.4z"/>
			<path class="st2" d="M101.5,297.7h-4.7c-1.3,0-2.4-1.1-2.4-2.4l0,0c0-1.3,1-2.3,2.3-2.3h4.9c1.3,0,2.3,1,2.3,2.3l0,0
				C103.9,296.6,102.8,297.7,101.5,297.7z"/>
			<g>
				<defs>
					<path id="XMLID_48_" d="M80.2,295L80.2,295c-1.3,0-2.4-1.1-2.4-2.4v-8.1h4.8v8.1C82.6,293.9,81.5,295,80.2,295z"/>
				</defs>
				<use xlink:href="#XMLID_48_"  style="overflow:visible;fill:#F2C666;"/>
				<clipPath id="XMLID_00000165215218641389147870000005585085409038599049_">
					<use xlink:href="#XMLID_48_"  style="overflow:visible;"/>
				</clipPath>
				<path style="clip-path:url(#XMLID_00000165215218641389147870000005585085409038599049_);fill:#CEA85B;" d="M82.3,295L82.3,295
					c-1.3,0-2.6,1.9-2.6,0.6l0.2-11.1h4.8v8.1C84.7,293.9,83.7,295,82.3,295z"/>
			</g>
			<g>
				<defs>
					<path id="XMLID_47_" d="M99.3,295L99.3,295c-1.3,0-2.4-1.1-2.4-2.4v-8.1h4.8v8.1C101.6,293.9,100.6,295,99.3,295z"/>
				</defs>
				<use xlink:href="#XMLID_47_"  style="overflow:visible;fill:#F2C666;"/>
				<clipPath id="XMLID_00000121987008666612426310000014625772544129533881_">
					<use xlink:href="#XMLID_47_"  style="overflow:visible;"/>
				</clipPath>
				<path style="clip-path:url(#XMLID_00000121987008666612426310000014625772544129533881_);fill:#CEA85B;" d="M101.4,294.5
					L101.4,294.5c-1.3,0-2.6,1.9-2.6,0.6L99,284h4.8v8.1C103.8,293.4,102.7,294.5,101.4,294.5z"/>
			</g>
			<path class="st38" d="M82.1,237.2h7.1c3.3,0,5.9-2.6,5.9-5.9v-9.7c0-2.7-2.2-4.9-4.9-4.9l-1.5,0.1l-7.1-0.1h-6.1H69
				c-2,0-3.6,1.6-3.6,3.6v16.3h2.8v4.7l-2.6,7.8c0,0,0,14.1,0,20.4v3.4c0,6.4,5.2,11.6,11.6,11.6H104c1.2,0,2.3-1,2.3-2.3l0,0
				L90,241.7v-4.6"/>
			<circle class="st32" cx="72" cy="222.2" r="6.6"/>
			<path class="st32" d="M91.7,222.2c0,3.6-2.9,6.6-6.6,6.6s-6.6-2.9-6.6-6.6c0-2.4,1.2-4.4,3.1-5.6c1-0.6,2.2-1,3.5-1
				c1.4,0,2.6,0.4,3.7,1.1C90.5,217.9,91.7,219.9,91.7,222.2z"/>
			<path class="st13" d="M65.6,272.3h4.3c5.5,0,10-4.5,10-10l0-18.1l-14.3,3L65.6,272.3z"/>
			<path class="st42" d="M83.8,253.4c0-7.4,6-13.3,13.3-13.3c9.3-0.1,22.3,10.8,21.8,30.8c0,6.4-5.2,11.6-11.6,11.6
				c-9.1,0.7-22.9-16.7-23.5-28.8L83.8,253.4z"/>
			<path class="st43" d="M66.5,239.3"/>
			<path class="st43" d="M66.5,237.1"/>
			<path class="st12" d="M69,226.9h-3.7c-2.2,0-4.2,1.1-5.4,2.7l-0.2,0.3c-0.1,0.2-0.7,1.1-1.2,2c-1.1,1.8-2,3.7-2.7,5.6l-1.5,3.9
				c-0.2,1.1-0.2,2.3,0.8,2.9c1.1,0.7,2.6,0.2,3.1-0.9h0c1.9-4.1,6-6.7,10.6-6.7H69c2.7,0,4.9-2.2,4.9-4.9v0
				C73.9,229.1,71.7,226.9,69,226.9z"/>
			<path class="st32" d="M91.7,222.2H96c1.6,0,3,1.3,3,3v0"/>
			<path class="st13" d="M62.4,234.9c2.2,1.5,5,0.9,6-2.3c0.1-0.2-0.2-0.4-0.4-0.3c-1.6,1-3.5,1.7-5.5,2.1
				C62.3,234.5,62.3,234.8,62.4,234.9z"/>
			<ellipse class="st0" cx="75.5" cy="222.5" rx="1.2" ry="1.5"/>
			<ellipse class="st0" cx="81.2" cy="222.5" rx="1.2" ry="1.5"/>
			<path class="st44" d="M80.4,249.4h0.3c0.8,0,1.5-0.7,1.5-1.5V241c0-0.8-0.6-1.4-1.4-1.4h-0.1c-2.8,0-5,2.2-5,5v0
				C75.6,247.2,77.8,249.4,80.4,249.4z"/>
			<path class="st44" d="M65,249.4h-0.3c-0.8,0-1.5-0.7-1.5-1.5V241c0-0.8,0.6-1.4,1.4-1.4h0.1c2.8,0,5,2.2,5,5v0
				C69.7,247.2,67.6,249.4,65,249.4z"/>
			<path class="st45" d="M65.6,249v23.9c0,7.3,5.5,11.9,11.6,11.6C69.6,280.5,66.6,266.8,65.6,249z"/>
			<circle class="st46" cx="72.4" cy="244.5" r="3.7"/>
		</g>
		<g>
			<path class="st10" d="M81.9,256.3c12.5,6.4,17.7-2.9,16.8-14l-0.2-4.8l-0.1-1.7l-0.2-3.9c-0.2-4.5,1.2-8.7,3.7-12.1l-0.1,0
				c-1.5-1.9-2-3.7-2.1-5.5c0-0.5,0.6-0.8,0.9-0.5c1.6,1.3,3.3,2.5,4.4,2.7c0.2-0.2,0.4-0.4,0.6-0.5c-0.5-1.1-0.7-2.2-0.7-3.3
				c0-0.5,2.8,1,3.7,1.5c2.2-1.1,4.7-1.7,7.3-1.8l0,0c10.3-0.5,19,7.5,19.5,17.7l0.3,6.9l1,20.5l0.2,4l-36.9,26
				c-14.3,0.7-22-9.3-25.2-25.3C74,257.5,77.7,254.1,81.9,256.3z"/>
			<path class="st11" d="M84.2,256.1c12.2,6,17.3-3.2,16.4-14.2l-0.2-4.8l-0.1-1.7l-0.2-3.9c-0.2-4.5,1.2-8.7,3.7-12.1l-0.1,0
				c-1.5-1.9-2-3.7-2.1-5.5c0-0.5,0.6-0.8,0.9-0.5c1.6,1.3,3.3,2.5,4.4,2.7c0,0,0,0,0,0c0.4-0.3,0.5-0.8,0.4-1.2
				c-0.3-0.8-0.4-1.7-0.5-2.5c0-0.5,0.6-0.8,0.9-0.5c0.9,0.8,1.9,1.5,2.7,1.9c2.2-1.1,4.7-1.7,7.3-1.8h0c10.3-0.5,19,7.5,19.5,17.7
				l0.3,6.9l1,20.5l0.2,4c0.4,23.3-7.2,33.6-35,30.3c-14.3,0.9-23.7-13.1-27.1-29.5C75.9,257.6,80.3,254.1,84.2,256.1z"/>
			
				<ellipse transform="matrix(0.9989 -4.720328e-02 4.720328e-02 0.9989 -10.5106 6.3991)" class="st0" cx="130.2" cy="225.7" rx="1.3" ry="1.5"/>
			
				<ellipse transform="matrix(0.9989 -4.720328e-02 4.720328e-02 0.9989 -10.5382 6.1438)" class="st0" cx="124.8" cy="226.2" rx="1.3" ry="1.5"/>
			<path class="st0" d="M120.5,223.2l3.7-1.2c0.5-0.2,0.9-0.8,0.7-1.3l0,0c-0.2-0.5-0.8-0.9-1.3-0.7l-3.7,1.2
				c-0.5,0.2-0.9,0.8-0.7,1.3l0,0C119.3,223,119.9,223.3,120.5,223.2z"/>
			<path class="st0" d="M132.9,222.2l-3.8-0.8c-0.6-0.1-0.9-0.7-0.8-1.2l0,0c0.1-0.6,0.7-0.9,1.2-0.8l3.8,0.8
				c0.6,0.1,0.9,0.7,0.8,1.2l0,0C134,222,133.4,222.4,132.9,222.2z"/>
			<path class="st10" d="M138.1,246c-6.3,1.2-12-4.1-11.9-9.7L138.1,246z"/>
			<path class="st12" d="M140.5,235.3c-3.4,1.3-7.7,0.2-9.5-2.1c-0.9-0.9-2.2-1.6-3.3-1.2c-1.5,0.6-2,2.4-1.5,4.5
				c2.3,7.6,13,11.7,17.6,8.6c2.7-1.2,4-4.3,2.9-6.9s-4.3-3.8-7-2.6"/>
			<circle class="st10" cx="107.5" cy="225.5" r="1.9"/>
			<circle class="st10" cx="110.8" cy="228.3" r="0.9"/>
			<circle class="st10" cx="107.3" cy="230.3" r="1.4"/>
			<path class="st13" d="M140.7,242.7c-2.1,1.6-4.8,1.1-5.9-1.9c-0.1-0.2,0.2-0.4,0.4-0.3c1.6,0.9,3.5,1.5,5.5,1.8
				C140.9,242.3,140.9,242.5,140.7,242.7z"/>
		</g>
	</g>
</g>
<path class="st4" d="M547.3,385H395.9c-4.4,0-8-3.6-8-8V265.3c0-4.4,3.6-8,8-8h151.5c4.4,0,8,3.6,8,8V377
	C555.3,381.4,551.7,385,547.3,385z"/>
<path class="st42" d="M539.3,373.1H403.9c-1.2,0-2.1-1-2.1-2.1v-98.5c0-1.2,1-2.1,2.1-2.1h135.4c1.2,0,2.1,1,2.1,2.1v98.5
	C541.4,372.1,540.5,373.1,539.3,373.1z"/>
<path class="st4" d="M551.6,264.7l26.1,39.5c5.1,7.7,7.8,16.7,7.8,25.9v48.4c0,7.4-7.7,12.1-14.3,8.9l-19.6-9.8"/>
<path class="st0" d="M518.4,352.3h-96.2c-2.8,0-5.2-2.3-5.2-5.2v-48.3c0-2.8,2.3-5.2,5.2-5.2h96.2c2.8,0,5.2,2.3,5.2,5.2v48.3
	C523.5,350,521.2,352.3,518.4,352.3z"/>
<circle class="st18" cx="425.4" cy="299.8" r="1.7"/>
<circle class="st19" cx="431" cy="299.8" r="1.7"/>
<circle class="st17" cx="436.6" cy="299.8" r="1.7"/>
<g>
	<path class="st13" d="M658.4,70.9h1.4l0.1,1.7h0.1c1-1.1,2.2-1.9,3.8-1.9c2.4,0,3.4,1.4,3.4,4v6.2h-1.7v-6c0-1.9-0.7-2.8-2.3-2.8
		c-1.2,0-2,0.6-3.1,1.8v7h-1.7V70.9z"/>
	<path class="st13" d="M670.7,70.9h1.4l0.1,1.3h0.1c0.9-0.9,2.2-1.5,3.4-1.5c2.7,0,4.1,2,4.1,5.1c0,3.4-2.1,5.4-4.5,5.4
		c-0.9,0-2.1-0.5-3-1.3h0l0.1,1.9v3.4h-1.7V70.9z M678.1,75.8c0-2.2-0.8-3.7-2.8-3.7c-0.9,0-1.9,0.5-2.9,1.5v5
		c0.9,0.8,2,1.1,2.6,1.1C676.8,79.7,678.1,78.2,678.1,75.8z"/>
	<path class="st13" d="M682.3,70.9h1.4l0.1,1.3h0c0.5-0.9,1.1-1.6,2.3-1.6c1,0,1.6,0.6,1.9,1.7c0.6-1.1,1.2-1.7,2.3-1.7
		c1.4,0,2.2,1.1,2.2,3.1v7.1h-1.7v-7c0-1.1-0.3-1.7-1.1-1.7c-0.7,0-1.1,0.5-1.6,1.5v7.2h-1.6v-7c0-1.1-0.3-1.7-1-1.7
		c-0.7,0-1.1,0.5-1.6,1.5v7.2h-1.7V70.9z"/>
	<path class="st13" d="M707.3,75.9c0-3.3,2.5-5.3,5.6-5.3c1.6,0,2.8,0.7,3.6,1.5l-0.8,1.1c-0.8-0.7-1.7-1.1-2.7-1.1
		c-2.3,0-3.9,1.5-3.9,3.8c0,2.3,1.6,3.8,3.8,3.8c1.2,0,2.3-0.6,3.1-1.3l0.8,1.1c-1.1,1-2.5,1.6-4,1.6
		C709.7,81.1,707.3,79.2,707.3,75.9z"/>
	<path class="st13" d="M721,70.9h1.4l0.2,2.4h0c1-1.6,2.6-2.6,4.5-2.6c0.7,0,1.4,0.1,2,0.4l-0.4,1.5c-0.7-0.2-1.1-0.3-1.8-0.3
		c-1.5,0-2.9,0.8-4.1,2.9v5.8H721V70.9z"/>
	<path class="st13" d="M731.7,75.9c0-3.2,2.4-5.2,5.1-5.2c2.9,0,4.6,1.9,4.6,4.7c0,0.4,0,0.8-0.1,1h-8.4v-1.3h7.4l-0.4,0.5
		c0-2.4-1.2-3.5-3-3.5c-1.8,0-3.4,1.4-3.4,3.9c0,2.6,1.7,3.9,3.9,3.9c1.2,0,2.1-0.4,3-0.9l0.6,1.1c-1,0.7-2.3,1.2-3.9,1.2
		C734.1,81.1,731.7,79.2,731.7,75.9z"/>
	<path class="st13" d="M744.3,78.3c0-2.2,2.1-3.3,7.2-3.7c-0.1-1.4-0.7-2.5-2.6-2.5c-1.3,0-2.6,0.6-3.5,1.2l-0.7-1.1
		c1-0.7,2.7-1.4,4.5-1.4c2.7,0,4.1,1.6,4.1,4.1v6.1h-1.4l-0.1-1.4h-0.1c-1.1,0.9-2.5,1.6-3.9,1.6C745.8,81.1,744.3,80.1,744.3,78.3z
		 M751.5,78.3v-2.6c-4.3,0.3-5.6,1.2-5.6,2.5c0,1.1,1,1.6,2.2,1.6C749.3,79.8,750.4,79.2,751.5,78.3z"/>
	<path class="st13" d="M759.2,77v-4.7h-2.8V71l2.9-0.1l0.2-3.2h1.4v3.2h4.9v1.4h-4.9V77c0,1.8,0.6,2.7,2.5,2.7
		c0.9,0,1.7-0.2,2.4-0.5l0.4,1.3c-0.9,0.3-1.9,0.6-3.1,0.6C760.1,81.1,759.2,79.5,759.2,77z"/>
	<path class="st13" d="M768.7,75.9c0-3.2,2.4-5.2,5.1-5.2c2.9,0,4.6,1.9,4.6,4.7c0,0.4,0,0.8-0.1,1h-8.4v-1.3h7.4l-0.4,0.5
		c0-2.4-1.2-3.5-3-3.5c-1.8,0-3.4,1.4-3.4,3.9c0,2.6,1.7,3.9,3.9,3.9c1.2,0,2.1-0.4,3-0.9l0.6,1.1c-1,0.7-2.3,1.2-3.9,1.2
		C771,81.1,768.7,79.2,768.7,75.9z"/>
	<path class="st13" d="M794,71l2.9-0.1h5.8v1.4H794V71z M796.8,70.1c0-2.4,1.3-4,4-4c1,0,1.9,0.2,2.9,0.6l-0.4,1.3
		c-0.8-0.3-1.5-0.5-2.3-0.5c-1.8,0-2.5,1-2.5,2.6v10.9h-1.7V70.1z"/>
	<path class="st13" d="M805.6,75.9c0-3.2,2.4-5.2,5.1-5.2c2.9,0,4.6,1.9,4.6,4.7c0,0.4,0,0.8-0.1,1h-8.4v-1.3h7.4l-0.4,0.5
		c0-2.4-1.2-3.5-3-3.5c-1.8,0-3.4,1.4-3.4,3.9c0,2.6,1.7,3.9,3.9,3.9c1.2,0,2.1-0.4,3-0.9l0.6,1.1c-1,0.7-2.3,1.2-3.9,1.2
		C808,81.1,805.6,79.2,805.6,75.9z"/>
	<path class="st13" d="M818.1,78.3c0-2.2,2.1-3.3,7.2-3.7c-0.1-1.4-0.7-2.5-2.6-2.5c-1.3,0-2.6,0.6-3.5,1.2l-0.7-1.1
		c1-0.7,2.7-1.4,4.5-1.4c2.7,0,4.1,1.6,4.1,4.1v6.1h-1.4l-0.1-1.4h-0.1c-1.1,0.9-2.5,1.6-3.9,1.6C819.7,81.1,818.1,80.1,818.1,78.3z
		 M825.4,78.3v-2.6c-4.3,0.3-5.6,1.2-5.6,2.5c0,1.1,1,1.6,2.2,1.6C823.1,79.8,824.2,79.2,825.4,78.3z"/>
	<path class="st13" d="M833,77v-4.7h-2.8V71l2.9-0.1l0.2-3.2h1.4v3.2h4.9v1.4h-4.9V77c0,1.8,0.6,2.7,2.5,2.7c0.9,0,1.7-0.2,2.4-0.5
		l0.4,1.3c-0.9,0.3-1.9,0.6-3.1,0.6C834,81.1,833,79.5,833,77z"/>
	<path class="st13" d="M843,66.3h1.7v4l-0.1,2.4h0.1c1-1.1,2.2-1.9,3.7-1.9c2.4,0,3.4,1.4,3.4,4v6.2h-1.7v-6c0-1.9-0.7-2.8-2.3-2.8
		c-1.2,0-2,0.6-3.1,1.8v7H843V66.3z"/>
	<path class="st13" d="M854.8,75.9c0-3.2,2.4-5.2,5.1-5.2c2.9,0,4.6,1.9,4.6,4.7c0,0.4,0,0.8-0.1,1H856v-1.3h7.4l-0.4,0.5
		c0-2.4-1.2-3.5-3-3.5c-1.8,0-3.4,1.4-3.4,3.9c0,2.6,1.7,3.9,3.9,3.9c1.2,0,2.1-0.4,3-0.9l0.6,1.1c-1,0.7-2.3,1.2-3.9,1.2
		C857.2,81.1,854.8,79.2,854.8,75.9z"/>
	<path class="st13" d="M868.7,70.9h1.4l0.2,2.4h0c1-1.6,2.6-2.6,4.5-2.6c0.7,0,1.4,0.1,2,0.4l-0.4,1.5c-0.7-0.2-1.1-0.3-1.8-0.3
		c-1.5,0-2.9,0.8-4.1,2.9v5.8h-1.7V70.9z"/>
	<path class="st13" d="M879.5,79.6l0.8-1.1c1.1,0.8,2.5,1.4,4.3,1.4c1.7,0,2.5-0.7,2.5-1.5c0-0.8-0.4-1.3-3.1-1.8
		c-2.6-0.5-3.9-1.4-3.9-2.9c0-1.6,1.4-2.8,4.1-2.8c1.5,0,3,0.6,4,1.3l-0.8,1.1c-0.9-0.6-2.1-1-3.3-1c-1.7,0-2.3,0.7-2.3,1.4
		c0,0.9,0.9,1.2,2.9,1.7c3.3,0.7,4.1,1.5,4.1,3.1c0,1.6-1.6,3-4.4,3C882.5,81.1,880.7,80.4,879.5,79.6z"/>
	<path class="st13" d="M903.9,70.9h1.4l0.1,1.3h0c0.5-0.9,1.1-1.6,2.3-1.6c1,0,1.6,0.6,1.9,1.7c0.6-1.1,1.2-1.7,2.3-1.7
		c1.4,0,2.2,1.1,2.2,3.1v7.1h-1.7v-7c0-1.1-0.3-1.7-1.1-1.7c-0.7,0-1.1,0.5-1.6,1.5v7.2h-1.6v-7c0-1.1-0.3-1.7-1-1.7
		c-0.7,0-1.1,0.5-1.6,1.5v7.2h-1.7V70.9z"/>
	<path class="st13" d="M916.4,85l0.3-1.4c0.3,0.1,0.6,0.1,0.9,0.1c1.4,0,2.2-0.9,2.7-2.1l0.3-0.7l-4.6-10h1.7l2.4,5.5
		c0.4,0.9,0.8,1.9,1.2,2.9h0.1c0.3-0.9,0.7-2,1.1-2.9l2.2-5.5h1.6l-4.4,10.8c-0.7,2-1.9,3.5-4.2,3.5C917.2,85.2,916.7,85.1,916.4,85
		z"/>
	<path class="st13" d="M929.1,73.5h8.8v1.3h-8.8V73.5z"/>
	<path class="st13" d="M941.3,78.3c0-2.2,2.1-3.3,7.2-3.7c-0.1-1.4-0.7-2.5-2.6-2.5c-1.3,0-2.6,0.6-3.5,1.2l-0.7-1.1
		c1-0.7,2.7-1.4,4.5-1.4c2.7,0,4.1,1.6,4.1,4.1v6.1h-1.4l-0.1-1.4h-0.1c-1.1,0.9-2.5,1.6-3.9,1.6C942.8,81.1,941.3,80.1,941.3,78.3z
		 M948.5,78.3v-2.6c-4.3,0.3-5.6,1.2-5.6,2.5c0,1.1,1,1.6,2.2,1.6C946.3,79.8,947.4,79.2,948.5,78.3z"/>
	<path class="st13" d="M953.8,70.9h1.4l0.1,1.3h0.1c0.9-0.9,2.2-1.5,3.4-1.5c2.7,0,4.1,2,4.1,5.1c0,3.4-2.1,5.4-4.5,5.4
		c-0.9,0-2.1-0.5-3-1.3h0l0.1,1.9v3.4h-1.7V70.9z M961.3,75.8c0-2.2-0.8-3.7-2.8-3.7c-0.9,0-1.9,0.5-2.9,1.5v5
		c0.9,0.8,2,1.1,2.6,1.1C960,79.7,961.3,78.2,961.3,75.8z"/>
	<path class="st13" d="M966.2,70.9h1.4l0.1,1.3h0.1c0.9-0.9,2.2-1.5,3.4-1.5c2.7,0,4.1,2,4.1,5.1c0,3.4-2.1,5.4-4.5,5.4
		c-0.9,0-2.1-0.5-3-1.3h0l0.1,1.9v3.4h-1.7V70.9z M973.6,75.8c0-2.2-0.8-3.7-2.8-3.7c-0.9,0-1.9,0.5-2.9,1.5v5
		c0.9,0.8,2,1.1,2.6,1.1C972.3,79.7,973.6,78.2,973.6,75.8z"/>
	<path class="st13" d="M658.1,100.5c0-3.3,2.5-5.3,5.6-5.3c1.6,0,2.8,0.7,3.6,1.5l-0.8,1.1c-0.8-0.7-1.7-1.1-2.7-1.1
		c-2.3,0-3.9,1.5-3.9,3.8c0,2.3,1.6,3.8,3.8,3.8c1.2,0,2.3-0.6,3.1-1.3l0.8,1.1c-1.1,1-2.5,1.6-4,1.6
		C660.4,105.8,658.1,103.9,658.1,100.5z"/>
	<path class="st13" d="M670,100.5c0-3.2,2.2-5.3,4.5-5.3c1.2,0,2.1,0.5,3,1.3h0l-0.1-1.8v-3.8h1.7v14.6h-1.4l-0.1-1.3h-0.1
		c-0.8,0.8-2,1.6-3.3,1.6C671.7,105.8,670,103.9,670,100.5z M677.5,102.8v-5c-0.9-0.8-1.7-1.1-2.6-1.1c-1.7,0-3.1,1.5-3.1,3.8
		c0,2.4,1.1,3.8,2.9,3.8C675.7,104.3,676.6,103.8,677.5,102.8z"/>
	<path class="st13" d="M694.6,95.5h1.4l0.1,1.3h0c0.5-0.9,1.1-1.6,2.3-1.6c1,0,1.6,0.6,1.9,1.7c0.6-1.1,1.2-1.7,2.3-1.7
		c1.4,0,2.2,1.1,2.2,3.1v7.1h-1.7v-7c0-1.1-0.3-1.7-1.1-1.7c-0.7,0-1.1,0.5-1.6,1.5v7.2h-1.6v-7c0-1.1-0.3-1.7-1-1.7
		c-0.7,0-1.1,0.5-1.6,1.5v7.2h-1.7V95.5z"/>
	<path class="st13" d="M707.1,109.6l0.3-1.4c0.3,0.1,0.6,0.1,0.9,0.1c1.4,0,2.2-0.9,2.7-2.1l0.3-0.7l-4.6-10h1.7l2.4,5.5
		c0.4,0.9,0.8,1.9,1.2,2.9h0.1c0.3-0.9,0.7-2,1.1-2.9l2.2-5.5h1.6l-4.4,10.8c-0.7,2-1.9,3.5-4.2,3.5
		C707.9,109.8,707.4,109.7,707.1,109.6z"/>
	<path class="st13" d="M719.8,98.1h8.8v1.3h-8.8V98.1z"/>
	<path class="st13" d="M732,102.9c0-2.2,2.1-3.3,7.2-3.7c-0.1-1.4-0.7-2.5-2.6-2.5c-1.3,0-2.6,0.6-3.5,1.2l-0.7-1.1
		c1-0.7,2.7-1.4,4.5-1.4c2.7,0,4.1,1.6,4.1,4.1v6.1h-1.4l-0.1-1.4h-0.1c-1.1,0.9-2.5,1.6-3.9,1.6C733.5,105.8,732,104.7,732,102.9z
		 M739.2,102.9v-2.6c-4.3,0.3-5.6,1.2-5.6,2.5c0,1.1,1,1.6,2.2,1.6C737,104.4,738.1,103.9,739.2,102.9z"/>
	<path class="st13" d="M744.5,95.5h1.4l0.1,1.3h0.1c0.9-0.9,2.2-1.5,3.4-1.5c2.7,0,4.1,2,4.1,5.1c0,3.4-2.1,5.4-4.5,5.4
		c-0.9,0-2.1-0.5-3-1.3h0l0.1,1.9v3.4h-1.7V95.5z M752,100.4c0-2.2-0.8-3.7-2.8-3.7c-0.9,0-1.9,0.5-2.9,1.5v5c0.9,0.8,2,1.1,2.6,1.1
		C750.7,104.3,752,102.8,752,100.4z"/>
	<path class="st13" d="M756.9,95.5h1.4l0.1,1.3h0.1c0.9-0.9,2.2-1.5,3.4-1.5c2.7,0,4.1,2,4.1,5.1c0,3.4-2.1,5.4-4.5,5.4
		c-0.9,0-2.1-0.5-3-1.3h0l0.1,1.9v3.4h-1.7V95.5z M764.3,100.4c0-2.2-0.8-3.7-2.8-3.7c-0.9,0-1.9,0.5-2.9,1.5v5
		c0.9,0.8,2,1.1,2.6,1.1C763,104.3,764.3,102.8,764.3,100.4z"/>
	<path class="st13" d="M658.4,120.2h1.4l0.1,1.7h0.1c1-1.1,2.2-1.9,3.8-1.9c2.4,0,3.4,1.4,3.4,4v6.2h-1.7v-6c0-1.9-0.7-2.8-2.3-2.8
		c-1.2,0-2,0.6-3.1,1.8v7h-1.7V120.2z"/>
	<path class="st13" d="M670.7,120.2h1.4l0.1,1.3h0.1c0.9-0.9,2.2-1.5,3.4-1.5c2.7,0,4.1,2,4.1,5.1c0,3.4-2.1,5.4-4.5,5.4
		c-0.9,0-2.1-0.5-3-1.3h0l0.1,1.9v3.4h-1.7V120.2z M678.1,125c0-2.2-0.8-3.7-2.8-3.7c-0.9,0-1.9,0.5-2.9,1.5v5
		c0.9,0.8,2,1.1,2.6,1.1C676.8,128.9,678.1,127.5,678.1,125z"/>
	<path class="st13" d="M682.3,120.2h1.4l0.1,1.3h0c0.5-0.9,1.1-1.6,2.3-1.6c1,0,1.6,0.6,1.9,1.7c0.6-1.1,1.2-1.7,2.3-1.7
		c1.4,0,2.2,1.1,2.2,3.1v7.1h-1.7v-7c0-1.1-0.3-1.7-1.1-1.7c-0.7,0-1.1,0.5-1.6,1.5v7.2h-1.6v-7c0-1.1-0.3-1.7-1-1.7
		c-0.7,0-1.1,0.5-1.6,1.5v7.2h-1.7V120.2z"/>
	<path class="st13" d="M708.7,120.2h1.4l0.2,2.4h0c1-1.6,2.6-2.6,4.5-2.6c0.7,0,1.4,0.1,2,0.4l-0.4,1.5c-0.7-0.2-1.1-0.3-1.8-0.3
		c-1.5,0-2.9,0.8-4.1,2.9v5.8h-1.7V120.2z"/>
	<path class="st13" d="M719.6,126.4v-6.2h1.7v6c0,1.9,0.7,2.8,2.3,2.8c1.1,0,2-0.5,3.1-1.8v-6.9h1.7v10H727l-0.1-1.7h-0.1
		c-1,1.2-2.2,2-3.7,2C720.7,130.4,719.6,129,719.6,126.4z"/>
	<path class="st13" d="M732.2,120.2h1.4l0.1,1.7h0.1c1-1.1,2.2-1.9,3.8-1.9c2.4,0,3.4,1.4,3.4,4v6.2h-1.7v-6c0-1.9-0.7-2.8-2.3-2.8
		c-1.2,0-2,0.6-3.1,1.8v7h-1.7V120.2z"/>
	<path class="st13" d="M756.2,125.2c0-3.2,2.2-5.3,4.5-5.3c1.2,0,2.1,0.5,3,1.3h0l-0.1-1.8v-3.8h1.7v14.6H764l-0.1-1.3h-0.1
		c-0.8,0.8-2,1.6-3.3,1.6C757.9,130.4,756.2,128.5,756.2,125.2z M763.6,127.5v-5c-0.9-0.8-1.7-1.1-2.6-1.1c-1.7,0-3.1,1.5-3.1,3.8
		c0,2.4,1.1,3.8,2.9,3.8C761.8,128.9,762.8,128.5,763.6,127.5z"/>
	<path class="st13" d="M768.7,125.1c0-3.2,2.4-5.2,5.1-5.2c2.9,0,4.6,1.9,4.6,4.7c0,0.4,0,0.8-0.1,1h-8.4v-1.3h7.4l-0.4,0.5
		c0-2.4-1.2-3.5-3-3.5c-1.8,0-3.4,1.4-3.4,3.9c0,2.6,1.7,3.9,3.9,3.9c1.2,0,2.1-0.4,3-0.9l0.6,1.1c-1,0.7-2.3,1.2-3.9,1.2
		C771,130.4,768.7,128.5,768.7,125.1z"/>
	<path class="st13" d="M780.6,120.2h1.7l2.3,5.6c0.4,1,0.8,2,1.1,3h0.1c0.3-1,0.7-1.9,1.1-3l2.3-5.6h1.6l-4.1,10h-1.9L780.6,120.2z"
		/>
</g>
<g>
	<path class="st13" d="M426.9,314.5h0.4l0,0.5h0c0.3-0.3,0.6-0.5,1-0.5c0.7,0,1,0.4,1,1.1v1.7h-0.5v-1.7c0-0.5-0.2-0.8-0.6-0.8
		c-0.3,0-0.6,0.2-0.9,0.5v1.9h-0.5V314.5z"/>
	<path class="st13" d="M430.4,314.5h0.4l0,0.4h0c0.3-0.2,0.6-0.4,1-0.4c0.7,0,1.1,0.6,1.1,1.4c0,0.9-0.6,1.5-1.3,1.5
		c-0.3,0-0.6-0.1-0.8-0.4h0l0,0.5v0.9h-0.5V314.5z M432.4,315.8c0-0.6-0.2-1-0.8-1c-0.2,0-0.5,0.1-0.8,0.4v1.4
		c0.3,0.2,0.5,0.3,0.7,0.3C432.1,316.9,432.4,316.5,432.4,315.8z"/>
	<path class="st13" d="M433.6,314.5h0.4l0,0.4h0c0.1-0.3,0.3-0.4,0.6-0.4c0.3,0,0.4,0.2,0.5,0.5c0.2-0.3,0.3-0.5,0.6-0.5
		c0.4,0,0.6,0.3,0.6,0.9v2H436v-1.9c0-0.3-0.1-0.5-0.3-0.5c-0.2,0-0.3,0.1-0.4,0.4v2h-0.4v-1.9c0-0.3-0.1-0.5-0.3-0.5
		c-0.2,0-0.3,0.1-0.5,0.4v2h-0.5V314.5z"/>
	<path class="st13" d="M440.5,315.9c0-0.9,0.7-1.5,1.5-1.5c0.5,0,0.8,0.2,1,0.4l-0.2,0.3c-0.2-0.2-0.5-0.3-0.8-0.3
		c-0.6,0-1.1,0.4-1.1,1.1c0,0.6,0.4,1.1,1.1,1.1c0.3,0,0.6-0.2,0.9-0.3l0.2,0.3c-0.3,0.3-0.7,0.4-1.1,0.4
		C441.2,317.3,440.5,316.8,440.5,315.9z"/>
	<path class="st13" d="M444.3,314.5h0.4l0,0.7h0c0.3-0.5,0.7-0.7,1.2-0.7c0.2,0,0.4,0,0.5,0.1l-0.1,0.4c-0.2-0.1-0.3-0.1-0.5-0.1
		c-0.4,0-0.8,0.2-1.1,0.8v1.6h-0.5V314.5z"/>
	<path class="st13" d="M447.3,315.8c0-0.9,0.7-1.4,1.4-1.4c0.8,0,1.3,0.5,1.3,1.3c0,0.1,0,0.2,0,0.3h-2.3v-0.4h2.1l-0.1,0.1
		c0-0.7-0.3-1-0.8-1c-0.5,0-1,0.4-1,1.1c0,0.7,0.5,1.1,1.1,1.1c0.3,0,0.6-0.1,0.8-0.3l0.2,0.3c-0.3,0.2-0.6,0.3-1.1,0.3
		C448,317.3,447.3,316.8,447.3,315.8z"/>
	<path class="st13" d="M450.8,316.5c0-0.6,0.6-0.9,2-1c0-0.4-0.2-0.7-0.7-0.7c-0.4,0-0.7,0.2-1,0.3l-0.2-0.3
		c0.3-0.2,0.8-0.4,1.2-0.4c0.8,0,1.1,0.5,1.1,1.1v1.7h-0.4l0-0.4h0c-0.3,0.2-0.7,0.4-1.1,0.4C451.2,317.3,450.8,317,450.8,316.5z
		 M452.8,316.5v-0.7c-1.2,0.1-1.5,0.3-1.5,0.7c0,0.3,0.3,0.4,0.6,0.4C452.2,316.9,452.5,316.8,452.8,316.5z"/>
	<path class="st13" d="M454.9,316.2v-1.3h-0.8v-0.4l0.8,0l0.1-0.9h0.4v0.9h1.4v0.4h-1.4v1.3c0,0.5,0.2,0.8,0.7,0.8
		c0.3,0,0.5-0.1,0.7-0.1l0.1,0.3c-0.3,0.1-0.5,0.2-0.9,0.2C455.2,317.3,454.9,316.8,454.9,316.2z"/>
	<path class="st13" d="M457.6,315.8c0-0.9,0.7-1.4,1.4-1.4c0.8,0,1.3,0.5,1.3,1.3c0,0.1,0,0.2,0,0.3h-2.3v-0.4h2.1l-0.1,0.1
		c0-0.7-0.3-1-0.8-1c-0.5,0-1,0.4-1,1.1c0,0.7,0.5,1.1,1.1,1.1c0.3,0,0.6-0.1,0.8-0.3l0.2,0.3c-0.3,0.2-0.6,0.3-1.1,0.3
		C458.2,317.3,457.6,316.8,457.6,315.8z"/>
	<path class="st13" d="M464.6,314.5l0.8,0h1.6v0.4h-2.4V314.5z M465.4,314.2c0-0.7,0.4-1.1,1.1-1.1c0.3,0,0.5,0.1,0.8,0.2l-0.1,0.4
		c-0.2-0.1-0.4-0.1-0.6-0.1c-0.5,0-0.7,0.3-0.7,0.7v3h-0.5V314.2z"/>
	<path class="st13" d="M467.8,315.8c0-0.9,0.7-1.4,1.4-1.4c0.8,0,1.3,0.5,1.3,1.3c0,0.1,0,0.2,0,0.3h-2.3v-0.4h2.1l-0.1,0.1
		c0-0.7-0.3-1-0.8-1c-0.5,0-1,0.4-1,1.1c0,0.7,0.5,1.1,1.1,1.1c0.3,0,0.6-0.1,0.8-0.3l0.2,0.3c-0.3,0.2-0.6,0.3-1.1,0.3
		C468.5,317.3,467.8,316.8,467.8,315.8z"/>
	<path class="st13" d="M471.3,316.5c0-0.6,0.6-0.9,2-1c0-0.4-0.2-0.7-0.7-0.7c-0.4,0-0.7,0.2-1,0.3l-0.2-0.3
		c0.3-0.2,0.8-0.4,1.2-0.4c0.8,0,1.1,0.5,1.1,1.1v1.7h-0.4l0-0.4h0c-0.3,0.2-0.7,0.4-1.1,0.4C471.8,317.3,471.3,317,471.3,316.5z
		 M473.3,316.5v-0.7c-1.2,0.1-1.5,0.3-1.5,0.7c0,0.3,0.3,0.4,0.6,0.4C472.7,316.9,473,316.8,473.3,316.5z"/>
	<path class="st13" d="M475.5,316.2v-1.3h-0.8v-0.4l0.8,0l0.1-0.9h0.4v0.9h1.4v0.4h-1.4v1.3c0,0.5,0.2,0.8,0.7,0.8
		c0.3,0,0.5-0.1,0.7-0.1l0.1,0.3c-0.3,0.1-0.5,0.2-0.9,0.2C475.7,317.3,475.5,316.8,475.5,316.2z"/>
	<path class="st13" d="M478.2,313.2h0.5v1.1l0,0.7h0c0.3-0.3,0.6-0.5,1-0.5c0.7,0,1,0.4,1,1.1v1.7h-0.5v-1.7c0-0.5-0.2-0.8-0.6-0.8
		c-0.3,0-0.6,0.2-0.9,0.5v1.9h-0.5V313.2z"/>
	<path class="st13" d="M481.5,315.8c0-0.9,0.7-1.4,1.4-1.4c0.8,0,1.3,0.5,1.3,1.3c0,0.1,0,0.2,0,0.3h-2.3v-0.4h2.1l-0.1,0.1
		c0-0.7-0.3-1-0.8-1c-0.5,0-1,0.4-1,1.1c0,0.7,0.5,1.1,1.1,1.1c0.3,0,0.6-0.1,0.8-0.3l0.2,0.3c-0.3,0.2-0.6,0.3-1.1,0.3
		C482.2,317.3,481.5,316.8,481.5,315.8z"/>
	<path class="st13" d="M485.4,314.5h0.4l0,0.7h0c0.3-0.5,0.7-0.7,1.2-0.7c0.2,0,0.4,0,0.5,0.1l-0.1,0.4c-0.2-0.1-0.3-0.1-0.5-0.1
		c-0.4,0-0.8,0.2-1.1,0.8v1.6h-0.5V314.5z"/>
	<path class="st13" d="M488.4,316.9l0.2-0.3c0.3,0.2,0.7,0.4,1.2,0.4c0.5,0,0.7-0.2,0.7-0.4c0-0.2-0.1-0.4-0.9-0.5
		c-0.7-0.1-1.1-0.4-1.1-0.8c0-0.4,0.4-0.8,1.2-0.8c0.4,0,0.8,0.2,1.1,0.4l-0.2,0.3c-0.3-0.2-0.6-0.3-0.9-0.3c-0.5,0-0.6,0.2-0.6,0.4
		c0,0.2,0.2,0.3,0.8,0.5c0.9,0.2,1.1,0.4,1.1,0.9c0,0.5-0.4,0.8-1.2,0.8C489.2,317.3,488.7,317.1,488.4,316.9z"/>
	<path class="st13" d="M495.2,314.5h0.4l0,0.4h0c0.1-0.3,0.3-0.4,0.6-0.4c0.3,0,0.4,0.2,0.5,0.5c0.2-0.3,0.3-0.5,0.7-0.5
		c0.4,0,0.6,0.3,0.6,0.9v2h-0.5v-1.9c0-0.3-0.1-0.5-0.3-0.5c-0.2,0-0.3,0.1-0.4,0.4v2h-0.4v-1.9c0-0.3-0.1-0.5-0.3-0.5
		c-0.2,0-0.3,0.1-0.5,0.4v2h-0.5V314.5z"/>
	<path class="st13" d="M498.6,318.4l0.1-0.4c0.1,0,0.2,0,0.3,0c0.4,0,0.6-0.2,0.8-0.6l0.1-0.2l-1.3-2.8h0.5l0.7,1.5
		c0.1,0.2,0.2,0.5,0.3,0.8h0c0.1-0.3,0.2-0.6,0.3-0.8l0.6-1.5h0.5l-1.2,3c-0.2,0.5-0.5,1-1.2,1C498.9,318.4,498.7,318.4,498.6,318.4
		z"/>
	<path class="st13" d="M502.2,315.2h2.5v0.4h-2.5V315.2z"/>
	<path class="st13" d="M505.5,316.5c0-0.6,0.6-0.9,2-1c0-0.4-0.2-0.7-0.7-0.7c-0.4,0-0.7,0.2-1,0.3l-0.2-0.3
		c0.3-0.2,0.8-0.4,1.2-0.4c0.8,0,1.1,0.5,1.1,1.1v1.7h-0.4l0-0.4h0c-0.3,0.2-0.7,0.4-1.1,0.4C506,317.3,505.5,317,505.5,316.5z
		 M507.6,316.5v-0.7c-1.2,0.1-1.5,0.3-1.5,0.7c0,0.3,0.3,0.4,0.6,0.4C506.9,316.9,507.2,316.8,507.6,316.5z"/>
	<path class="st13" d="M509,314.5h0.4l0,0.4h0c0.3-0.2,0.6-0.4,1-0.4c0.7,0,1.1,0.6,1.1,1.4c0,0.9-0.6,1.5-1.3,1.5
		c-0.3,0-0.6-0.1-0.8-0.4h0l0,0.5v0.9H509V314.5z M511.1,315.8c0-0.6-0.2-1-0.8-1c-0.2,0-0.5,0.1-0.8,0.4v1.4
		c0.3,0.2,0.5,0.3,0.7,0.3C510.7,316.9,511.1,316.5,511.1,315.8z"/>
	<path class="st13" d="M512.5,314.5h0.4l0,0.4h0c0.3-0.2,0.6-0.4,1-0.4c0.7,0,1.1,0.6,1.1,1.4c0,0.9-0.6,1.5-1.3,1.5
		c-0.3,0-0.6-0.1-0.8-0.4h0l0,0.5v0.9h-0.5V314.5z M514.5,315.8c0-0.6-0.2-1-0.8-1c-0.2,0-0.5,0.1-0.8,0.4v1.4
		c0.3,0.2,0.5,0.3,0.7,0.3C514.2,316.9,514.5,316.5,514.5,315.8z"/>
	<path class="st13" d="M426.9,322.7c0-0.9,0.7-1.5,1.5-1.5c0.5,0,0.8,0.2,1,0.4l-0.2,0.3c-0.2-0.2-0.5-0.3-0.8-0.3
		c-0.6,0-1.1,0.4-1.1,1.1c0,0.6,0.4,1.1,1.1,1.1c0.3,0,0.6-0.2,0.9-0.3l0.2,0.3c-0.3,0.3-0.7,0.4-1.1,0.4
		C427.5,324.1,426.9,323.6,426.9,322.7z"/>
	<path class="st13" d="M430.2,322.7c0-0.9,0.6-1.5,1.3-1.5c0.3,0,0.6,0.1,0.8,0.4h0l0-0.5V320h0.5v4.1h-0.4l0-0.4h0
		c-0.2,0.2-0.6,0.4-0.9,0.4C430.6,324.1,430.2,323.6,430.2,322.7z M432.2,323.3V322c-0.3-0.2-0.5-0.3-0.7-0.3
		c-0.5,0-0.9,0.4-0.9,1.1c0,0.7,0.3,1.1,0.8,1.1C431.7,323.7,432,323.6,432.2,323.3z"/>
	<path class="st13" d="M437,321.3h0.4l0,0.4h0c0.1-0.3,0.3-0.4,0.6-0.4c0.3,0,0.4,0.2,0.5,0.5c0.2-0.3,0.3-0.5,0.6-0.5
		c0.4,0,0.6,0.3,0.6,0.9v2h-0.5v-1.9c0-0.3-0.1-0.5-0.3-0.5c-0.2,0-0.3,0.1-0.4,0.4v2h-0.4v-1.9c0-0.3-0.1-0.5-0.3-0.5
		c-0.2,0-0.3,0.1-0.5,0.4v2H437V321.3z"/>
	<path class="st13" d="M440.5,325.2l0.1-0.4c0.1,0,0.2,0,0.3,0c0.4,0,0.6-0.2,0.8-0.6l0.1-0.2l-1.3-2.8h0.5l0.7,1.5
		c0.1,0.2,0.2,0.5,0.3,0.8h0c0.1-0.3,0.2-0.6,0.3-0.8l0.6-1.5h0.5l-1.2,3c-0.2,0.5-0.5,1-1.2,1C440.7,325.3,440.6,325.2,440.5,325.2
		z"/>
	<path class="st13" d="M444,322h2.5v0.4H444V322z"/>
	<path class="st13" d="M447.4,323.4c0-0.6,0.6-0.9,2-1c0-0.4-0.2-0.7-0.7-0.7c-0.4,0-0.7,0.2-1,0.3l-0.2-0.3
		c0.3-0.2,0.8-0.4,1.2-0.4c0.8,0,1.1,0.5,1.1,1.1v1.7h-0.4l0-0.4h0c-0.3,0.2-0.7,0.4-1.1,0.4C447.8,324.1,447.4,323.9,447.4,323.4z
		 M449.4,323.4v-0.7c-1.2,0.1-1.5,0.3-1.5,0.7c0,0.3,0.3,0.4,0.6,0.4C448.8,323.8,449.1,323.6,449.4,323.4z"/>
	<path class="st13" d="M450.9,321.3h0.4l0,0.4h0c0.3-0.2,0.6-0.4,1-0.4c0.7,0,1.1,0.6,1.1,1.4c0,0.9-0.6,1.5-1.3,1.5
		c-0.3,0-0.6-0.1-0.8-0.4h0l0,0.5v0.9h-0.5V321.3z M452.9,322.7c0-0.6-0.2-1-0.8-1c-0.2,0-0.5,0.1-0.8,0.4v1.4
		c0.3,0.2,0.5,0.3,0.7,0.3C452.6,323.7,452.9,323.3,452.9,322.7z"/>
	<path class="st13" d="M454.3,321.3h0.4l0,0.4h0c0.3-0.2,0.6-0.4,1-0.4c0.7,0,1.1,0.6,1.1,1.4c0,0.9-0.6,1.5-1.3,1.5
		c-0.3,0-0.6-0.1-0.8-0.4h0l0,0.5v0.9h-0.5V321.3z M456.4,322.7c0-0.6-0.2-1-0.8-1c-0.2,0-0.5,0.1-0.8,0.4v1.4
		c0.3,0.2,0.5,0.3,0.7,0.3C456,323.7,456.4,323.3,456.4,322.7z"/>
	<path class="st13" d="M426.9,328.2h0.4l0,0.5h0c0.3-0.3,0.6-0.5,1-0.5c0.7,0,1,0.4,1,1.1v1.7h-0.5v-1.7c0-0.5-0.2-0.8-0.6-0.8
		c-0.3,0-0.6,0.2-0.9,0.5v1.9h-0.5V328.2z"/>
	<path class="st13" d="M430.4,328.2h0.4l0,0.4h0c0.3-0.2,0.6-0.4,1-0.4c0.7,0,1.1,0.6,1.1,1.4c0,0.9-0.6,1.5-1.3,1.5
		c-0.3,0-0.6-0.1-0.8-0.4h0l0,0.5v0.9h-0.5V328.2z M432.4,329.5c0-0.6-0.2-1-0.8-1c-0.2,0-0.5,0.1-0.8,0.4v1.4
		c0.3,0.2,0.5,0.3,0.7,0.3C432.1,330.6,432.4,330.2,432.4,329.5z"/>
	<path class="st13" d="M433.6,328.2h0.4l0,0.4h0c0.1-0.3,0.3-0.4,0.6-0.4c0.3,0,0.4,0.2,0.5,0.5c0.2-0.3,0.3-0.5,0.6-0.5
		c0.4,0,0.6,0.3,0.6,0.9v2H436V329c0-0.3-0.1-0.5-0.3-0.5c-0.2,0-0.3,0.1-0.4,0.4v2h-0.4V329c0-0.3-0.1-0.5-0.3-0.5
		c-0.2,0-0.3,0.1-0.5,0.4v2h-0.5V328.2z"/>
	<path class="st13" d="M440.9,328.2h0.4l0,0.7h0c0.3-0.5,0.7-0.7,1.2-0.7c0.2,0,0.4,0,0.5,0.1l-0.1,0.4c-0.2-0.1-0.3-0.1-0.5-0.1
		c-0.4,0-0.8,0.2-1.1,0.8v1.6h-0.5V328.2z"/>
	<path class="st13" d="M443.9,329.9v-1.7h0.5v1.7c0,0.5,0.2,0.8,0.6,0.8c0.3,0,0.6-0.1,0.9-0.5v-1.9h0.5v2.8H446l0-0.5h0
		c-0.3,0.3-0.6,0.6-1,0.6C444.2,331,443.9,330.6,443.9,329.9z"/>
	<path class="st13" d="M447.5,328.2h0.4l0,0.5h0c0.3-0.3,0.6-0.5,1-0.5c0.7,0,1,0.4,1,1.1v1.7h-0.5v-1.7c0-0.5-0.2-0.8-0.6-0.8
		c-0.3,0-0.6,0.2-0.9,0.5v1.9h-0.5V328.2z"/>
	<path class="st13" d="M454.1,329.5c0-0.9,0.6-1.5,1.3-1.5c0.3,0,0.6,0.1,0.8,0.4h0l0-0.5v-1.1h0.5v4.1h-0.4l0-0.4h0
		c-0.2,0.2-0.6,0.4-0.9,0.4C454.6,331,454.1,330.5,454.1,329.5z M456.2,330.2v-1.4c-0.3-0.2-0.5-0.3-0.7-0.3c-0.5,0-0.9,0.4-0.9,1.1
		c0,0.7,0.3,1.1,0.8,1.1C455.7,330.6,455.9,330.5,456.2,330.2z"/>
	<path class="st13" d="M457.6,329.5c0-0.9,0.7-1.4,1.4-1.4c0.8,0,1.3,0.5,1.3,1.3c0,0.1,0,0.2,0,0.3h-2.3v-0.4h2.1l-0.1,0.1
		c0-0.7-0.3-1-0.8-1c-0.5,0-1,0.4-1,1.1c0,0.7,0.5,1.1,1.1,1.1c0.3,0,0.6-0.1,0.8-0.3l0.2,0.3c-0.3,0.2-0.6,0.3-1.1,0.3
		C458.2,331,457.6,330.5,457.6,329.5z"/>
	<path class="st13" d="M460.9,328.2h0.5l0.6,1.6c0.1,0.3,0.2,0.6,0.3,0.8h0c0.1-0.3,0.2-0.5,0.3-0.8l0.6-1.6h0.5l-1.2,2.8h-0.5
		L460.9,328.2z"/>
</g>
</svg>
