<svg id="Layer_1" data-name="Layer 1" xmlns="http://www.w3.org/2000/svg" xmlns:xlink="http://www.w3.org/1999/xlink" viewBox="0 0 374.63 224.69"><defs><linearGradient id="linear-gradient" x1="124.95" y1="97.06" x2="173.95" y2="97.06" gradientUnits="userSpaceOnUse"><stop offset="0" stop-color="#d67369"/><stop offset="1" stop-color="#ee7f70"/></linearGradient><linearGradient id="linear-gradient-2" x1="150.44" y1="123.24" x2="215.96" y2="103.62" xlink:href="#linear-gradient"/><clipPath id="clip-path"><path class="cls-1" d="M217.7 127.65a5.71 5.71 0 0 0-7.79-2.09l-18.85 10.89-3.28 1.88a11.67 11.67 0 0 0-5.65 12.11l2.92 16.72a4.35 4.35 0 0 0 5 3.53l2-.36a5 5 0 0 0 4-5.83L194 152.57a6.08 6.08 0 0 1 2.94-6.34l18.7-10.8a5.69 5.69 0 0 0 2.06-7.78Z"/></clipPath><clipPath id="clip-path-2"><path class="cls-1" d="M252.08 127.65a5.71 5.71 0 0 0-7.79-2.09l-18.85 10.89-3.27 1.88a11.68 11.68 0 0 0-5.66 12.11l2.92 16.72a4.36 4.36 0 0 0 5.06 3.53l2-.36a5 5 0 0 0 4-5.83l-2.16-11.93a6.08 6.08 0 0 1 2.94-6.34l18.7-10.8a5.69 5.69 0 0 0 2.11-7.78Z"/></clipPath><style>.cls-1{fill:#f2c666}.cls-2{fill:#27464f}.cls-3{fill:#e27b27}.cls-4{fill:#e89449}.cls-6{fill:#d67369}.cls-7{fill:#243e44}.cls-9{fill:#f2f2f2}.cls-10{fill:#ee7f70}.cls-12{fill:#fff}.cls-14{fill:#d3aa59}</style></defs><path class="cls-2" d="M69.84 58.6h8.29v147.95a4.15 4.15 0 0 1-4.13 4.14 4.15 4.15 0 0 1-4.15-4.15V58.6h-.01ZM344.82 210.69l.43-150.21h8.29l.38 150.21"/><rect class="cls-3" x="41.05" y="81.99" width="328.29" height="11.31" rx="5.66"/><rect class="cls-3" x="42.07" y="56.66" width="328.29" height="11.31" rx="5.66"/><rect class="cls-4" x="37.71" y="64.42" width="334.98" height="20.83" rx="6.1"/><path class="cls-4" d="M52.93 41.36h315.6a6.1 6.1 0 0 1 6.1 6.1v7.19a6.1 6.1 0 0 1-6.1 6.1H45.75a6.1 6.1 0 0 1-6.1-6.1 13.28 13.28 0 0 1 13.28-13.29ZM43.8 88.57h322.79a6.1 6.1 0 0 1 6.1 6.1 12.3 12.3 0 0 1-12.3 12.3H43.8a6.1 6.1 0 0 1-6.1-6.1v-6.2a6.1 6.1 0 0 1 6.1-6.1Z"/><rect class="cls-4" x="35.78" y="127.94" width="319.29" height="5.58" rx="2.79"/><rect class="cls-3" x="27.36" y="129.55" width="320.44" height="5.66" rx="2.83"/><rect class="cls-4" x="19.99" y="132.5" width="322.15" height="7.76" rx="3"/><path class="cls-2" d="M303.9 224.69v-54.42h8.29l.49 54.42M20 224.69a4.15 4.15 0 0 1-4.15-4.15v-50.27h8.29v50.27a4.14 4.14 0 0 1-4.14 4.15Z"/><rect class="cls-3" x="9.76" y="138.76" width="328.29" height="11.31" rx="5.66"/><path class="cls-4" d="M8.81 147.08H327a7.62 7.62 0 0 1 7.62 7.62v1.76a14.3 14.3 0 0 1-14.3 14.3H11.24A11.24 11.24 0 0 1 0 159.52v-3.63a8.81 8.81 0 0 1 8.81-8.81Z"/><path d="M151.25 113.75c-14.44-4.3-25.27-12-26.25-20.66-.57-5 4.11-9.19 9.19-9.19a63.2 63.2 0 0 0 30.9-7l8.91 40.3" style="stroke:#d67369;stroke-linecap:round;stroke-linejoin:round;stroke-width:.75px;fill:url(#linear-gradient)"/><path class="cls-6" d="M219.83.38c1.24-.83 5.4-.3 5.4 1.64l-1.38 4.06ZM230.26 2.93c1.24-.83 5.88-.83 5.21 2.19l-1.19 3.51Z"/><path class="cls-6" d="M273.41 82.82c-23.27 13.36-34-4-33.39-25.29V37.7a35.55 35.55 0 0 0-8.15-22.7l.11.05a18 18 0 0 0 3.52-10.78 1.1 1.1 0 0 0-1.85-.81c-2.92 2.67-6.09 5-8.25 5.48-.43-.31-.84-.64-1.28-.93a19.27 19.27 0 0 0 1.11-6.29c0-1-5.27 2.13-6.87 3.16a35.64 35.64 0 0 0-14-2.86 35.67 35.67 0 0 0-35.71 35.68v60.09l72.81 46.36c27.44.12 41.12-19.82 45.92-50.65 1.42-9.11-5.97-15.27-13.97-10.68Z"/><path class="cls-2" d="M187.12 185.05a11.77 11.77 0 1 0-21.77 9l.77 2.51a2.6 2.6 0 0 0 3.12 1.75l34.93-9a2.58 2.58 0 0 0 1.84-3.2l-2.71-9.8a2.58 2.58 0 0 0-2.27-1.89l-17.1-1.47a2.55 2.55 0 0 0-2.63 1.65 9.81 9.81 0 0 1-4.48 5.38"/><path class="cls-7" d="M164.85 192.54a11.77 11.77 0 0 1 6.9-13.9c4.22-1.73 7.89-1.37 11.8 1.52a.28.28 0 0 1-.26.48c-9.29-3.74-17.44 4.11-18.44 11.9Z"/><path d="M115.81 136h48.65a8.29 8.29 0 0 0-8.29-8.29h-32" style="fill:#cccbca"/><path class="cls-9" d="M183 163.93h16a4.89 4.89 0 0 1 4.89 4.89V172a4.77 4.77 0 0 1-4.77 4.77h-16a4.91 4.91 0 0 1-4.91-4.91v-3.19a4.76 4.76 0 0 1 4.76-4.76Z" transform="rotate(-10.87 191.08 170.316)"/><path class="cls-10" d="M168.65 125.94c3.8 4.74 12.54 11 19.13 12.39l14.36 4.88c4.71 1.33 10.66 1.44 17.07 1.09l1-2 2.15-2.57 4.51-2.89 3.6-2.08 9.34-5.39"/><path d="M104.43 80.65H44a8.18 8.18 0 0 0-7.62 11.13l15.85 40.87A5.18 5.18 0 0 0 57 136h65.51a3.15 3.15 0 0 0 3-4.09L111 85.5a6.91 6.91 0 0 0-6.57-4.85Z" style="fill:#e0e0e0"/><circle class="cls-12" cx="76.71" cy="109.3" r="7.03"/><path class="cls-10" d="M269.17 82.58c-22.8 12.64-33.32-4.56-32.71-25.67V37.08a35.55 35.55 0 0 0-8.14-22.7h.1a18 18 0 0 0 3.52-10.75 1.1 1.1 0 0 0-1.84-.84c-2.93 2.67-6.1 5-8.26 5.48A2.18 2.18 0 0 1 221 6a20.6 20.6 0 0 0 .67-4.86 1.1 1.1 0 0 0-1.85-.84 38.64 38.64 0 0 1-5 4 35.39 35.39 0 0 0-14-2.87 35.68 35.68 0 0 0-35.69 35.68v60.06c21.3 23.31 41.66 49.47 72.74 47 27.33.35 40.93-19.54 46-51.16 1.24-8.18-7.47-14.43-14.7-10.43Z"/><ellipse class="cls-2" cx="178.37" cy="28.82" rx="2.51" ry="2.9"/><ellipse class="cls-2" cx="188.77" cy="29.2" rx="2.51" ry="2.9"/><rect class="cls-2" x="188.06" y="18.16" width="11.39" height="3.98" rx="1.65" transform="rotate(14.92 193.81 20.18)"/><rect class="cls-2" x="170.36" y="17.48" width="11.39" height="3.98" rx="1.65" transform="rotate(165.08 176.052 19.467)"/><path class="cls-6" d="M165.09 68.34c12.07 1.74 22.48-9 21.9-19.66Z"/><path class="cls-1" d="M159.55 48.11c6.63 2.09 14.66-.31 18-4.87 1.66-1.8 4-3.34 6.19-2.52 3 1.1 4 4.33 3.23 8.46-3.73 14.69-23.82 23.52-32.81 18a9.95 9.95 0 1 1 7-18.62"/><path class="cls-7" d="M166.39 197.11a3 3 0 0 0 3.66 1.94l36.06-9.48-1.05-3Z"/><circle class="cls-6" cx="221.75" cy="26.3" r="3.6"/><circle class="cls-6" cx="215.78" cy="32" r="1.8"/><circle class="cls-6" cx="222.53" cy="35.37" r="2.63"/><path class="cls-2" d="M223.58 185.05a11.77 11.77 0 1 0-21.77 9l.78 2.51a2.59 2.59 0 0 0 3.11 1.75l34.93-9a2.59 2.59 0 0 0 1.85-3.2l-2.72-9.8a2.56 2.56 0 0 0-2.27-1.89l-17.09-1.47a2.54 2.54 0 0 0-2.63 1.65 9.87 9.87 0 0 1-4.49 5.38"/><path class="cls-9" d="M218.61 164.33h16a4.87 4.87 0 0 1 4.87 4.87v3.24a4.74 4.74 0 0 1-4.74 4.74h-16a4.88 4.88 0 0 1-4.88-4.88v-3.24a4.73 4.73 0 0 1 4.73-4.73Z" transform="rotate(-10.87 226.675 170.733)"/><path class="cls-7" d="M202.59 196.3a3.06 3.06 0 0 0 3.66 1.95l35.41-9.25a1.5 1.5 0 0 0 1.07-1.83l-.42-1.64Z"/><path class="cls-12" d="M159.8 62.1c4.14 2.78 9.34 1.76 11.14-4.26a.46.46 0 0 0-.69-.52A31.16 31.16 0 0 1 160 61.26a.46.46 0 0 0-.2.84Z"/><path class="cls-7" d="M201.25 191.55a.09.09 0 0 1-.18 0c-1.68-4.81 2.18-11.24 6.91-13.18s8.58-1.28 12.92 2.42a.09.09 0 0 1-.11.15c-9.73-4.94-18.3 2.6-19.54 10.61Z"/><path class="cls-6" d="M165.23 91.48c.4 12.63 1.29 24.5 3.42 34.46 13.49 15.66 42.69 23 72.81 18.21-33.39-3.19-61.89-12.68-66.22-53.31a5 5 0 0 0-5-4.54 5 5 0 0 0-5.01 5.18Z"/><path class="cls-1" d="M217.7 127.65a5.71 5.71 0 0 0-7.79-2.09l-18.85 10.89-3.28 1.88a11.67 11.67 0 0 0-5.65 12.11l2.92 16.72a4.35 4.35 0 0 0 5 3.53l2-.36a5 5 0 0 0 4-5.83L194 152.57a6.08 6.08 0 0 1 2.94-6.34l18.7-10.8a5.69 5.69 0 0 0 2.06-7.78Z"/><path class="cls-14" d="m193.26 170.94-3-19a7.66 7.66 0 0 1 3.72-7.83l25.82-14.94.66 6.34-24.38 13.29 2 19.24Z" style="clip-path:url(#clip-path)"/><path class="cls-1" d="M252.08 127.65a5.71 5.71 0 0 0-7.79-2.09l-18.85 10.89-3.27 1.88a11.68 11.68 0 0 0-5.66 12.11l2.92 16.72a4.36 4.36 0 0 0 5.06 3.53l2-.36a5 5 0 0 0 4-5.83l-2.16-11.93a6.08 6.08 0 0 1 2.94-6.34l18.7-10.8a5.69 5.69 0 0 0 2.11-7.78Z"/><path class="cls-14" d="m227.64 170.94-3-19a7.66 7.66 0 0 1 3.73-7.83l25.81-14.94.66 6.34-24.38 13.29 2 19.24Z" style="clip-path:url(#clip-path-2)"/><path d="M238.77 120.55c-29.75 22.56-87.67 7.55-90-13-.56-5 4.12-9.19 9.19-9.19 19.4.48 34.55-7.12 48-18.72" style="fill:url(#linear-gradient-2)"/><path class="cls-6" d="M238.83 120.63a54 54 0 0 1-9 5.49 66.48 66.48 0 0 1-10 3.62 78.28 78.28 0 0 1-10.41 2 83.22 83.22 0 0 1-10.59.57 89 89 0 0 1-10.58-.73 86 86 0 0 1-10.44-2 63.62 63.62 0 0 1-19.61-8.2 28.2 28.2 0 0 1-7.87-7.42 7.53 7.53 0 0 1-.72-1.19c-.22-.41-.46-.81-.66-1.23l-.5-1.32c-.07-.22-.17-.44-.23-.67l-.15-.69a8.37 8.37 0 0 1 .47-5.77 10.52 10.52 0 0 1 9.46-5.82 71.91 71.91 0 0 0 10.38-.52 63.73 63.73 0 0 0 19.87-5.92 93.31 93.31 0 0 0 17.65-11.32.1.1 0 0 1 .13.16 94.41 94.41 0 0 1-8.14 6.76 72.76 72.76 0 0 1-9 5.64 63 63 0 0 1-20.22 6.66 74.8 74.8 0 0 1-10.67.62 8.58 8.58 0 0 0-7.64 4.6 6 6 0 0 0-.61 2.19 5.53 5.53 0 0 0 0 1.15c0 .39.14.79.21 1.19l.11.6c0 .2.13.38.19.58l.41 1.15c.17.38.38.74.57 1.11a7.33 7.33 0 0 0 .62 1.08 26.94 26.94 0 0 0 7.27 7.08 62.34 62.34 0 0 0 19 8.26 83.36 83.36 0 0 0 10.27 2.07 87 87 0 0 0 10.45.87 85.24 85.24 0 0 0 10.48-.36 78.78 78.78 0 0 0 10.35-1.76 67.23 67.23 0 0 0 9.93-3.4 54.59 54.59 0 0 0 9.08-5.29.11.11 0 0 1 .14 0 .11.11 0 0 1 0 .16Z"/></svg>