<?xml version="1.0" encoding="UTF-8"?>
<svg viewBox="0 0 100 84" version="1.1" xmlns="http://www.w3.org/2000/svg" xmlns:xlink="http://www.w3.org/1999/xlink">
    <title>server-bird</title>
    <defs>
        <path d="M11.5841377,0 L0.566145404,0 C0.251654926,0 -0.00459657427,0.255566336 0,0.569645715 C0.0374725223,3.16052653 2.26740871,8.68062235 3.24431617,8.68062235 L8.90582993,8.68062235 C9.88314849,8.68062235 12.1126736,3.16052653 12.1502796,0.569645715 C12.1547427,0.255566336 11.8986282,0 11.5841377,0 Z" id="path-1"></path>
        <path d="M0,0 L0,3.50132732 C0,3.83746899 0.272421381,4.11002741 0.608700088,4.11002741 L1.25494719,4.11002741 C1.59095183,4.11002741 1.86351024,3.83746899 1.86351024,3.50132732 L1.86351024,0 L0,0 Z" id="path-3"></path>
        <path d="M0,0 L0,3.50132732 C0,3.83746899 0.272558414,4.11002741 0.608700088,4.11002741 L1.25481016,4.11002741 C1.59095183,4.11002741 1.86351024,3.83746899 1.86351024,3.50132732 L1.86351024,0 L0,0 Z" id="path-5"></path>
    </defs>
    <g id="Page-1" stroke="none" stroke-width="1" fill="none" fill-rule="evenodd">
        <g id="server-bird" transform="translate(-0.000903, -0.000776)">
            <g id="Group" transform="translate(39.181540, 40.294521)" fill="#27464F" fill-rule="nonzero">
                <path d="M8.05698568,2.58293291 L7.10542736e-15,2.58293291 L7.10542736e-15,0.400136033 C7.10542736e-15,0.179239017 0.179239017,0 0.400136033,0 L7.65684965,0 C7.87774666,0 8.05698568,0.179239017 8.05698568,0.400136033 L8.05698568,2.58293291 Z" id="Path"></path>
            </g>
            <g id="Group" transform="translate(83.920311, 40.389622) scale(-1, 1) translate(-83.920311, -40.389622) translate(78.469965, 34.939275)" fill="#E0E0E0">
                <rect id="Rectangle" x="0" y="0" width="10.9006922" height="10.9006922"></rect>
            </g>
            <g id="big-fan" transform="translate(79.128973, 35.612694)" fill-rule="nonzero">
                <g id="Group" transform="translate(4.791886, 4.776927) scale(-1, 1) rotate(-90.000000) translate(-4.791886, -4.776927) translate(0.415741, 0.400919)" fill="#BCBCBC">
                    <path d="M4.37614528,0 C1.95929623,0 -7.10542736e-15,1.9591592 -7.10542736e-15,4.37614528 C-7.10542736e-15,6.79285729 1.95929623,8.75201649 4.37614528,8.75201649 C6.79299432,8.75201649 8.75229055,6.79285729 8.75229055,4.37614528 C8.75229055,1.9591592 6.79299432,0 4.37614528,0" id="Path"></path>
                </g>
                <g id="Group" transform="translate(4.897610, 2.443197) scale(-1, 1) rotate(-141.651077) translate(-4.897610, -2.443197) translate(3.413003, 0.502387)" fill="#E0E0E0">
                    <path d="M0.586089755,0.00766156847 C2.08577792,-0.121149367 3.46035504,1.39991593 2.79862312,2.63869344 C2.24761379,3.53557383 1.5214764,3.97421618 0.586089755,3.86527501 C0.0867418319,3.80703603 -0.219526722,3.082406 0.326412391,2.403682 C0.757380892,1.86637596 0.559094272,1.34839156 1.42108547e-14,0.774223666" id="Path"></path>
                </g>
                <g id="Group" transform="translate(7.052865, 4.836435) scale(-1, 1) rotate(128.347697) translate(-7.052865, -4.836435) translate(5.568302, 2.895613)" fill="#E0E0E0">
                    <path d="M0.586089549,0.00764641838 C2.08564015,-0.121027439 3.46035382,1.39990029 2.7984851,2.63881439 C2.24747596,3.5358315 1.52147586,3.97433666 0.586089549,3.8652585 C0.0867418014,3.80701954 -0.219526644,3.08238977 0.326412276,2.40394007 C0.757243593,1.86663422 0.559094075,1.34865 -1.42108547e-14,0.774208246" id="Path"></path>
                </g>
                <g id="Group" transform="translate(4.698560, 7.144819) scale(-1, 1) rotate(38.348923) translate(-4.698560, -7.144819) translate(3.213953, 5.204009)" fill="#E0E0E0">
                    <path d="M0.586089755,0.00766156847 C2.08577792,-0.121149367 3.46035504,1.39991593 2.79862312,2.63869344 C2.24761379,3.53557383 1.5214764,3.97421618 0.586089755,3.86527501 C0.0867418319,3.80703603 -0.219389689,3.082406 0.326412391,2.403682 C0.757380892,1.86637596 0.559094272,1.34866562 7.10542736e-15,0.774223666" id="Path"></path>
                </g>
                <g id="Group" transform="translate(2.443137, 4.683933) scale(-1, 1) rotate(-51.652303) translate(-2.443137, -4.683933) translate(0.958643, 2.743111)" fill="#E0E0E0">
                    <path d="M0.585952516,0.00764641838 C2.08550312,-0.121027439 3.46021679,1.39990029 2.79834807,2.63881439 C2.24733893,3.5358315 1.52133883,3.97433666 0.585952516,3.8652585 C0.0866047685,3.80701954 -0.219663677,3.08238977 0.326275243,2.40394007 C0.757243593,1.86649719 0.558957042,1.34865 0,0.774208246" id="Path"></path>
                </g>
                <g id="Group" transform="translate(4.791886, 4.776516) scale(-1, 1) rotate(-90.000000) translate(-4.791886, -4.776516) translate(4.191545, 4.176175)" fill="#BCBCBC">
                    <path d="M0.600341082,0 C0.268721493,0 0,0.268721493 0,0.600341082 C0,0.931823638 0.268721493,1.20068216 0.600341082,1.20068216 C0.931960671,1.20068216 1.20068216,0.931823638 1.20068216,0.600341082 C1.20068216,0.268721493 0.931960671,0 0.600341082,0" id="Path"></path>
                </g>
            </g>
            <g id="Group" transform="translate(19.436882, 82.308804)" fill="#E0E0E0" fill-rule="nonzero">
                <path d="M75.1648686,1.24261423 L0.621307114,1.24261423 C0.278313795,1.24261423 0,0.964574498 0,0.621307114 C0,0.278176763 0.278313795,0 0.621307114,0 L75.1648686,0 C75.507999,0 75.7861757,0.278176763 75.7861757,0.621307114 C75.7861757,0.964574498 75.507999,1.24261423 75.1648686,1.24261423 Z" id="Path"></path>
            </g>
            <g id="Group" transform="translate(21.711621, 38.944739) scale(-1, 1) rotate(125.747264) translate(-21.711621, -38.944739) translate(16.788846, 33.163612)" fill="#27464F" fill-rule="nonzero">
                <path d="M2.2599572,0 C-0.17593978,1.75333606 -0.729141631,5.14955967 1.02419443,7.58545665 L2.2599572,9.30220492 C4.0134303,11.7381019 7.4096539,12.2914408 9.84555088,10.5381047 L2.2599572,0 Z" id="Path"></path>
            </g>
            <g id="Group" transform="translate(20.398442, 40.159817)" fill="#F2C666" fill-rule="nonzero">
                <path d="M3.11695007,0 C3.11695007,0.860703569 2.4191786,1.55847503 1.55847503,1.55847503 C0.697771466,1.55847503 0,0.860703569 0,0" id="Path"></path>
            </g>
            <g id="Group" transform="translate(20.671959, 33.441506)" fill="#3E6970" fill-rule="nonzero">
                <path d="M0,1.28440926 C0,0.574989998 0.574989998,0 1.28427223,0 C1.99369149,0 2.56868149,0.574989998 2.56868149,1.28440926" id="Path"></path>
            </g>
            <g id="Group" transform="translate(21.956369, 30.228564) scale(-1, 1) translate(-21.956369, -30.228564) translate(21.577199, 27.016034)" fill="#3E6970">
                <rect id="Rectangle" x="0" y="0" width="1" height="6.42506102"></rect>
            </g>
            <g id="Group" transform="translate(33.540718, 42.877591)" fill="#27464F">
                <rect id="Rectangle" x="0" y="7.10542736e-15" width="1.70605946" height="39.6216892"></rect>
            </g>
            <g id="Group" transform="translate(51.045299, 42.877591)" fill="#27464F">
                <rect id="Rectangle" x="0" y="7.10542736e-15" width="1.70619649" height="39.6216892"></rect>
            </g>
            <g id="Group" transform="translate(24.598637, 63.888843)" fill="#E0E0E0" fill-rule="nonzero">
                <path d="M4.92153617,1.86419541 L0.22870789,1.86419541 C0.102363567,1.86419541 3.55271368e-15,1.76183184 3.55271368e-15,1.63548752 L3.55271368e-15,0.228570857 C3.55271368e-15,0.1025006 0.102363567,0 0.22870789,0 L4.92153617,0 C5.04788049,0 5.15024406,0.1025006 5.15024406,0.228570857 L5.15024406,1.63548752 C5.15024406,1.76183184 5.04788049,1.86419541 4.92153617,1.86419541" id="Path"></path>
            </g>
            <g id="Group" transform="translate(22.023926, 65.753861)" fill="#E0E0E0" fill-rule="nonzero">
                <path d="M4.92139914,1.86419541 L0.228570857,1.86419541 C0.102363567,1.86419541 0,1.76183184 0,1.63562455 L0,0.22870789 C0,0.1025006 0.102363567,0 0.228570857,0 L4.92139914,0 C5.04774346,0 5.15010703,0.1025006 5.15010703,0.22870789 L5.15010703,1.63562455 C5.15010703,1.76183184 5.04774346,1.86419541 4.92139914,1.86419541" id="Path"></path>
            </g>
            <g id="Group" transform="translate(64.425875, 35.925912)" fill="#E0E0E0" fill-rule="nonzero">
                <path d="M4.92153617,1.86419541 L0.22870789,1.86419541 C0.102363567,1.86419541 0,1.76183184 0,1.63562455 L0,0.22870789 C0,0.1025006 0.102363567,0 0.22870789,0 L4.92153617,0 C5.04788049,0 5.15024406,0.1025006 5.15024406,0.22870789 L5.15024406,1.63562455 C5.15024406,1.76183184 5.04788049,1.86419541 4.92153617,1.86419541" id="Path"></path>
            </g>
            <g id="Group" transform="translate(94.267527, 51.109156)" fill="#E0E0E0" fill-rule="nonzero">
                <path d="M4.92153617,1.86419541 L0.22870789,1.86419541 C0.102363567,1.86419541 0,1.76183184 0,1.63548752 L0,0.228570857 C0,0.102363567 0.102363567,0 0.22870789,0 L4.92153617,0 C5.04788049,0 5.15024406,0.102363567 5.15024406,0.228570857 L5.15024406,1.63548752 C5.15024406,1.76183184 5.04788049,1.86419541 4.92153617,1.86419541" id="Path"></path>
            </g>
            <g id="Group" transform="translate(43.146244, 45.642298) scale(-1, 1) translate(-43.146244, -45.642298) translate(35.247188, 42.877591)" fill="#3E6970">
                <rect id="Rectangle" x="0" y="-7.10542736e-15" width="15.7981106" height="5.52941406"></rect>
            </g>
            <g id="led1" transform="translate(36.195319, 44.837161)" fill="#72C174" fill-rule="nonzero">
                <path d="M5.26589982,1.48502541 L0.358341002,1.48502541 C0.160328479,1.48502541 0,1.32469693 0,1.12682144 L0,0.358203969 C0,0.160465512 0.160328479,0 0.358341002,0 L5.26589982,0 C5.46363828,0 5.62410379,0.160465512 5.62410379,0.358203969 L5.62410379,1.12682144 C5.62410379,1.32469693 5.46363828,1.48502541 5.26589982,1.48502541" id="Path"></path>
            </g>
            <g id="Group" transform="translate(46.401186, 45.579674) scale(-1, 1) rotate(-90.000000) translate(-46.401186, -45.579674) translate(45.927258, 45.105745)" fill="#27464F" fill-rule="nonzero">
                <path d="M0.473859727,0 C0.212126911,0 0,0.212263943 0,0.47399676 C0,0.735729576 0.212126911,0.947856486 0.473859727,0.947856486 C0.735592543,0.947856486 0.947856486,0.735729576 0.947856486,0.47399676 C0.947856486,0.212263943 0.735592543,0 0.473859727,0" id="Path"></path>
            </g>
            <g id="Group" transform="translate(47.948287, 45.579674) scale(-1, 1) rotate(-90.000000) translate(-47.948287, -45.579674) translate(47.474359, 45.105745)" fill="#27464F" fill-rule="nonzero">
                <path d="M0.473859727,0 C0.212126911,0 0,0.212263943 0,0.47399676 C0,0.735592543 0.212126911,0.947856486 0.473859727,0.947856486 C0.735592543,0.947856486 0.947856486,0.735592543 0.947856486,0.47399676 C0.947856486,0.212263943 0.735592543,0 0.473859727,0" id="Path"></path>
            </g>
            <g id="Group" transform="translate(40.419769, 41.719594) scale(-1, 1) rotate(-90.000000) translate(-40.419769, -41.719594) translate(39.945841, 41.245597)" fill="#3E6970" fill-rule="nonzero">
                <path d="M0.47399676,0 C0.212263943,0 0,0.212263943 0,0.473859727 C0,0.735729576 0.212263943,0.947993519 0.47399676,0.947993519 C0.735729576,0.947993519 0.947856486,0.735729576 0.947856486,0.473859727 C0.947856486,0.212263943 0.735729576,0 0.47399676,0" id="Path"></path>
            </g>
            <g id="Group" transform="translate(41.968309, 41.719457) scale(-1, 1) rotate(-90.000000) translate(-41.968309, -41.719457) translate(41.494381, 41.245529)" fill="#3E6970" fill-rule="nonzero">
                <path d="M0.47399676,0 C0.212263943,0 0,0.212263943 0,0.47399676 C0,0.735729576 0.212263943,0.947856486 0.47399676,0.947856486 C0.735729576,0.947856486 0.947856486,0.735729576 0.947856486,0.47399676 C0.947856486,0.212263943 0.735729576,0 0.47399676,0" id="Path"></path>
            </g>
            <g id="Group" transform="translate(49.496759, 45.579674) scale(-1, 1) rotate(-90.000000) translate(-49.496759, -45.579674) translate(49.022831, 45.105745)" fill="#27464F" fill-rule="nonzero">
                <path d="M0.473859727,0 C0.212126911,0 0,0.212126911 0,0.473859727 C0,0.735592543 0.212126911,0.947856486 0.473859727,0.947856486 C0.735592543,0.947856486 0.947856486,0.735592543 0.947856486,0.473859727 C0.947856486,0.212126911 0.735592543,0 0.473859727,0" id="Path"></path>
            </g>
            <g id="Group" transform="translate(45.927189, 41.719457) scale(-1, 1) rotate(-90.000000) translate(-45.927189, -41.719457) translate(45.453261, 41.245529)" fill="#3E6970" fill-rule="nonzero">
                <path d="M0.47399676,0 C0.212263943,0 0,0.212126911 0,0.473859727 C0,0.735592543 0.212263943,0.947856486 0.47399676,0.947856486 C0.735729576,0.947856486 0.947856486,0.735592543 0.947856486,0.473859727 C0.947856486,0.212126911 0.735729576,0 0.47399676,0" id="Path"></path>
            </g>
            <g id="Group" transform="translate(43.146244, 51.171575) scale(-1, 1) translate(-43.146244, -51.171575) translate(35.247188, 48.406868)" fill="#3E6970">
                <rect id="Rectangle" x="0" y="-7.10542736e-15" width="15.7981106" height="5.52941406"></rect>
            </g>
            <g id="led2" transform="translate(36.195319, 50.366438)" fill="#72C174" fill-rule="nonzero">
                <path d="M5.26589982,1.48502541 L0.358341002,1.48502541 C0.160328479,1.48502541 0,1.3245599 0,1.12682144 L0,0.358203969 C0,0.160328479 0.160328479,0 0.358341002,0 L5.26589982,0 C5.46363828,0 5.62410379,0.160328479 5.62410379,0.358203969 L5.62410379,1.12682144 C5.62410379,1.3245599 5.46363828,1.48502541 5.26589982,1.48502541" id="Path"></path>
            </g>
            <g id="Group" transform="translate(46.399953, 51.108951) scale(-1, 1) rotate(-90.000000) translate(-46.399953, -51.108951) translate(45.926024, 50.635022)" fill="#27464F" fill-rule="nonzero">
                <path d="M0.47399676,0 C0.212263943,0 0,0.212263943 0,0.47399676 C0,0.735729576 0.212263943,0.947856486 0.47399676,0.947856486 C0.735729576,0.947856486 0.947856486,0.735729576 0.947856486,0.47399676 C0.947856486,0.212263943 0.735729576,0 0.47399676,0" id="Path"></path>
            </g>
            <g id="Group" transform="translate(47.948424, 51.108951) scale(-1, 1) rotate(-90.000000) translate(-47.948424, -51.108951) translate(47.474496, 50.635022)" fill="#27464F" fill-rule="nonzero">
                <path d="M0.47399676,0 C0.212263943,0 0,0.212263943 0,0.47399676 C0,0.735592543 0.212263943,0.947856486 0.47399676,0.947856486 C0.735729576,0.947856486 0.947856486,0.735592543 0.947856486,0.47399676 C0.947856486,0.212263943 0.735729576,0 0.47399676,0" id="Path"></path>
            </g>
            <g id="Group" transform="translate(49.496896, 51.108951) scale(-1, 1) rotate(-90.000000) translate(-49.496896, -51.108951) translate(49.022968, 50.635022)" fill="#27464F" fill-rule="nonzero">
                <path d="M0.47399676,0 C0.212263943,0 0,0.212126911 0,0.473859727 C0,0.735592543 0.212263943,0.947856486 0.47399676,0.947856486 C0.735729576,0.947856486 0.947856486,0.735592543 0.947856486,0.473859727 C0.947856486,0.212126911 0.735729576,0 0.47399676,0" id="Path"></path>
            </g>
            <g id="Group" transform="translate(43.146244, 56.700852) scale(-1, 1) translate(-43.146244, -56.700852) translate(35.247188, 53.936145)" fill="#3E6970">
                <rect id="Rectangle" x="0" y="0" width="15.7981106" height="5.52941406"></rect>
            </g>
            <g id="led3" transform="translate(36.195319, 55.895715)" fill="#EA5353" fill-rule="nonzero">
                <path d="M5.26589982,1.48502541 L0.358341002,1.48502541 C0.160328479,1.48502541 0,1.3245599 0,1.12682144 L0,0.358203969 C0,0.160328479 0.160328479,0 0.358341002,0 L5.26589982,0 C5.46363828,0 5.62410379,0.160328479 5.62410379,0.358203969 L5.62410379,1.12682144 C5.62410379,1.3245599 5.46363828,1.48502541 5.26589982,1.48502541" id="Path"></path>
            </g>
            <g id="Group" transform="translate(46.399953, 56.638228) scale(-1, 1) rotate(-90.000000) translate(-46.399953, -56.638228) translate(45.926024, 56.164299)" fill="#27464F" fill-rule="nonzero">
                <path d="M0.47399676,0 C0.212263943,0 0,0.212263943 0,0.47399676 C0,0.735729576 0.212263943,0.947856486 0.47399676,0.947856486 C0.735729576,0.947856486 0.947856486,0.735729576 0.947856486,0.47399676 C0.947856486,0.212263943 0.735729576,0 0.47399676,0" id="Path"></path>
            </g>
            <g id="Group" transform="translate(47.948424, 56.638228) scale(-1, 1) rotate(-90.000000) translate(-47.948424, -56.638228) translate(47.474496, 56.164299)" fill="#27464F" fill-rule="nonzero">
                <path d="M0.47399676,0 C0.212263943,0 0,0.212263943 0,0.47399676 C0,0.735592543 0.212263943,0.947856486 0.47399676,0.947856486 C0.735729576,0.947856486 0.947856486,0.735592543 0.947856486,0.47399676 C0.947856486,0.212263943 0.735729576,0 0.47399676,0" id="Path"></path>
            </g>
            <g id="Group" transform="translate(49.496896, 56.638228) scale(-1, 1) rotate(-90.000000) translate(-49.496896, -56.638228) translate(49.022968, 56.164299)" fill="#27464F" fill-rule="nonzero">
                <path d="M0.47399676,0 C0.212263943,0 0,0.212126911 0,0.473859727 C0,0.735592543 0.212263943,0.947856486 0.47399676,0.947856486 C0.735729576,0.947856486 0.947856486,0.735592543 0.947856486,0.473859727 C0.947856486,0.212126911 0.735729576,0 0.47399676,0" id="Path"></path>
            </g>
            <g id="Group" transform="translate(35.260481, 64.741188)" fill="#3E6970">
                <rect id="Rectangle" x="0" y="1.42108547e-14" width="15.7981106" height="11.0585541"></rect>
            </g>
            <g id="led4" transform="translate(44.486357, 66.699388)" fill="#72C174" fill-rule="nonzero">
                <path d="M0.358203969,1.48502541 L5.26576279,1.48502541 C5.46377531,1.48502541 5.62410379,1.32469693 5.62410379,1.12682144 L5.62410379,0.358203969 C5.62410379,0.160465512 5.46377531,0 5.26576279,0 L0.358203969,0 C0.160465512,0 1.21709654e-16,0.160465512 1.21709654e-16,0.358203969 L1.21709654e-16,1.12682144 C1.21709654e-16,1.32469693 0.160465512,1.48502541 0.358203969,1.48502541" id="Path"></path>
            </g>
            <g id="Group" transform="translate(39.904594, 67.441901) scale(-1, 1) rotate(90.000000) translate(-39.904594, -67.441901) translate(39.430665, 66.967972)" fill="#27464F" fill-rule="nonzero">
                <path d="M0.47399676,0 C0.735729576,0 0.947856486,0.212263943 0.947856486,0.47399676 C0.947856486,0.735729576 0.735729576,0.947856486 0.47399676,0.947856486 C0.212263943,0.947856486 0,0.735729576 0,0.47399676 C0,0.212263943 0.212263943,0 0.47399676,0" id="Path"></path>
            </g>
            <g id="Group" transform="translate(38.356122, 67.441901) scale(-1, 1) rotate(90.000000) translate(-38.356122, -67.441901) translate(37.882194, 66.967972)" fill="#27464F" fill-rule="nonzero">
                <path d="M0.47399676,0 C0.735729576,0 0.947856486,0.212263943 0.947856486,0.47399676 C0.947856486,0.735729576 0.735729576,0.947856486 0.47399676,0.947856486 C0.212263943,0.947856486 0,0.735729576 0,0.47399676 C0,0.212263943 0.212263943,0 0.47399676,0" id="Path"></path>
            </g>
            <g id="Group" transform="translate(36.809021, 67.441901) scale(-1, 1) rotate(90.000000) translate(-36.809021, -67.441901) translate(36.335092, 66.967972)" fill="#27464F" fill-rule="nonzero">
                <path d="M0.47399676,0 C0.735729576,0 0.947856486,0.212126911 0.947856486,0.473859727 C0.947856486,0.735592543 0.735729576,0.947856486 0.47399676,0.947856486 C0.212263943,0.947856486 0,0.735592543 0,0.473859727 C0,0.212126911 0.212263943,0 0.47399676,0" id="Path"></path>
            </g>
            <g id="led5" transform="translate(44.486357, 72.228665)" fill="#72C174" fill-rule="nonzero">
                <path d="M0.358203969,1.48502541 L5.26576279,1.48502541 C5.46377531,1.48502541 5.62410379,1.32469693 5.62410379,1.12682144 L5.62410379,0.358203969 C5.62410379,0.160465512 5.46377531,0 5.26576279,0 L0.358203969,0 C0.160465512,0 1.21709654e-16,0.160465512 1.21709654e-16,0.358203969 L1.21709654e-16,1.12682144 C1.21709654e-16,1.32469693 0.160465512,1.48502541 0.358203969,1.48502541" id="Path"></path>
            </g>
            <g id="Group" transform="translate(39.904594, 72.971178) scale(-1, 1) rotate(90.000000) translate(-39.904594, -72.971178) translate(39.430665, 72.497249)" fill="#27464F" fill-rule="nonzero">
                <path d="M0.47399676,0 C0.735729576,0 0.947856486,0.212263943 0.947856486,0.47399676 C0.947856486,0.735729576 0.735729576,0.947856486 0.47399676,0.947856486 C0.212263943,0.947856486 0,0.735729576 0,0.47399676 C0,0.212263943 0.212263943,0 0.47399676,0" id="Path"></path>
            </g>
            <g id="Group" transform="translate(38.356122, 72.971178) scale(-1, 1) rotate(90.000000) translate(-38.356122, -72.971178) translate(37.882194, 72.497249)" fill="#27464F" fill-rule="nonzero">
                <path d="M0.47399676,0 C0.735729576,0 0.947856486,0.212263943 0.947856486,0.47399676 C0.947856486,0.735729576 0.735729576,0.947856486 0.47399676,0.947856486 C0.212263943,0.947856486 0,0.735729576 0,0.47399676 C0,0.212263943 0.212263943,0 0.47399676,0" id="Path"></path>
            </g>
            <g id="Group" transform="translate(36.809021, 72.971178) scale(-1, 1) rotate(90.000000) translate(-36.809021, -72.971178) translate(36.335092, 72.497249)" fill="#27464F" fill-rule="nonzero">
                <path d="M0.47399676,0 C0.735729576,0 0.947856486,0.212126911 0.947856486,0.473859727 C0.947856486,0.735592543 0.735729576,0.947856486 0.47399676,0.947856486 C0.212263943,0.947856486 0,0.735592543 0,0.473859727 C0,0.212126911 0.212263943,0 0.47399676,0" id="Path"></path>
            </g>
            <g id="Group" transform="translate(35.260481, 75.798372)" fill="#3E6970">
                <rect id="Rectangle" x="0" y="0" width="15.7981106" height="5.52941406"></rect>
            </g>
            <g id="led6" transform="translate(44.486357, 77.757942)" fill="#EA5353" fill-rule="nonzero">
                <path d="M0.358203969,1.48502541 L5.26576279,1.48502541 C5.46377531,1.48502541 5.62410379,1.3245599 5.62410379,1.12682144 L5.62410379,0.358203969 C5.62410379,0.160328479 5.46377531,0 5.26576279,0 L0.358203969,0 C0.160465512,0 1.21709654e-16,0.160328479 1.21709654e-16,0.358203969 L1.21709654e-16,1.12682144 C1.21709654e-16,1.3245599 0.160465512,1.48502541 0.358203969,1.48502541" id="Path"></path>
            </g>
            <g id="Group" transform="translate(39.904457, 78.500455) scale(-1, 1) rotate(90.000000) translate(-39.904457, -78.500455) translate(39.430528, 78.026526)" fill="#27464F" fill-rule="nonzero">
                <path d="M0.473859727,0 C0.735592543,0 0.947856486,0.212263943 0.947856486,0.47399676 C0.947856486,0.735729576 0.735592543,0.947856486 0.473859727,0.947856486 C0.212126911,0.947856486 0,0.735729576 0,0.47399676 C0,0.212263943 0.212126911,0 0.473859727,0" id="Path"></path>
            </g>
            <g id="Group" transform="translate(38.357355, 78.500455) scale(-1, 1) rotate(90.000000) translate(-38.357355, -78.500455) translate(37.883427, 78.026526)" fill="#27464F" fill-rule="nonzero">
                <path d="M0.473859727,0 C0.735592543,0 0.947856486,0.212263943 0.947856486,0.47399676 C0.947856486,0.735729576 0.735592543,0.947856486 0.473859727,0.947856486 C0.212126911,0.947856486 0,0.735729576 0,0.47399676 C0,0.212263943 0.212126911,0 0.473859727,0" id="Path"></path>
            </g>
            <g id="Group" transform="translate(36.808884, 78.500455) scale(-1, 1) rotate(90.000000) translate(-36.808884, -78.500455) translate(36.334955, 78.026526)" fill="#27464F" fill-rule="nonzero">
                <path d="M0.473859727,0 C0.735592543,0 0.947856486,0.212126911 0.947856486,0.473859727 C0.947856486,0.735592543 0.735592543,0.947856486 0.473859727,0.947856486 C0.212126911,0.947856486 0,0.735592543 0,0.473859727 C0,0.212126911 0.212126911,0 0.473859727,0" id="Path"></path>
            </g>
            <g id="Group" transform="translate(37.885140, 62.104196) scale(-1, 1) translate(-37.885140, -62.104196) translate(35.247736, 59.466792)" fill="#27464F">
                <rect id="Rectangle" x="7.10542736e-15" y="0" width="5.27480696" height="5.27480696"></rect>
            </g>
            <g id="Group" transform="translate(43.158165, 62.104196) scale(-1, 1) translate(-43.158165, -62.104196) translate(40.520762, 59.466792)" fill="#27464F">
                <rect id="Rectangle" x="0" y="0" width="5.27480696" height="5.27480696"></rect>
            </g>
            <g id="Group" transform="translate(48.407895, 62.104196) scale(-1, 1) translate(-48.407895, -62.104196) translate(45.770492, 59.466792)" fill="#27464F">
                <rect id="Rectangle" x="7.10542736e-15" y="0" width="5.27480696" height="5.27480696"></rect>
            </g>
            <g id="Group" transform="translate(37.884660, 62.102757) scale(-1, 1) rotate(-90.000000) translate(-37.884660, -62.102757) translate(37.565922, 61.784018)" fill="#FFFFFF" fill-rule="nonzero">
                <path d="M0.318738497,0 C0.142651236,0 0,0.142651236 0,0.318738497 C0,0.494825758 0.142651236,0.637476995 0.318738497,0.637476995 C0.494825758,0.637476995 0.637476995,0.494825758 0.637476995,0.318738497 C0.637476995,0.142651236 0.494825758,0 0.318738497,0" id="Path"></path>
            </g>
            <g id="Group" transform="translate(37.884660, 62.102757) scale(-1, 1) rotate(-90.000000) translate(-37.884660, -62.102757) translate(37.565922, 61.784018)" stroke="#000000" stroke-width="0.5">
                <circle id="Oval" cx="0.318738497" cy="0.318738497" r="1"></circle>
            </g>
            <g id="server-fan1" transform="translate(35.406507, 59.601729)" fill-rule="nonzero">
                <g id="Group" transform="translate(2.556092, 1.274905) scale(-1, 1) rotate(-141.656339) translate(-2.556092, -1.274905) translate(1.781359, 0.262187)" fill="#E0E0E0">
                    <path d="M0.305857465,0.00398940272 C1.08845244,-0.0631567254 1.80568271,0.730674948 1.4604968,1.37692217 C1.17272768,1.84488958 0.793831673,2.07387158 0.305857465,2.01686588 C0.0453578947,1.98644458 -0.114559516,1.60837077 0.170331913,1.25441475 C0.395202925,0.973908371 0.291743075,0.703542431 0,0.404125513" id="Path"></path>
                </g>
                <g id="Group" transform="translate(3.681265, 2.524592) scale(-1, 1) rotate(128.346722) translate(-3.681265, -2.524592) translate(2.906506, 1.511806)" fill="#E0E0E0">
                    <path d="M0.305994552,0.00398939469 C1.08845263,-0.0631567452 1.80582006,0.730675067 1.46049706,1.37705944 C1.17286492,1.84502692 0.793968846,2.07400896 0.305994552,2.01700326 C0.0454949356,1.98671898 -0.114422504,1.60850807 0.170468975,1.25441496 C0.395340027,0.974045566 0.291880159,0.703679579 1.42108547e-14,0.404125575" id="Path"></path>
                </g>
                <g id="Group" transform="translate(2.452436, 3.727963) scale(-1, 1) rotate(38.349129) translate(-2.452436, -3.727963) translate(1.677702, 2.715254)" fill="#E0E0E0">
                    <path d="M0.305994577,0.00400581766 C1.08845272,-0.0632773608 1.80568318,0.730417485 1.46049718,1.37680191 C1.17286502,1.84490647 0.793968912,2.07375149 0.305994577,2.01688282 C0.0453579064,1.9864615 -0.114422513,1.6083876 0.170331957,1.25429445 C0.395340061,0.973788004 0.291880183,0.703559027 1.77635684e-15,0.404004999" id="Path"></path>
                </g>
                <g id="Group" transform="translate(1.274944, 2.444379) scale(-1, 1) rotate(-51.653278) translate(-1.274944, -2.444379) translate(0.500211, 1.431610)" fill="#E0E0E0">
                    <path d="M0.305857519,0.00398940342 C1.08845263,-0.0631567364 1.80568303,0.730675076 1.46049706,1.37692241 C1.17272789,1.84502693 0.793968846,2.07387194 0.305857519,2.01700327 C0.0453579026,1.98671899 -0.114422504,1.60837105 0.170468975,1.25441497 C0.395340027,0.974045575 0.291880159,0.703542554 0,0.404125584" id="Path"></path>
                </g>
                <g id="Group" transform="translate(2.501449, 2.492805) scale(-1, 1) rotate(-90.000000) translate(-2.501449, -2.492805) translate(2.188192, 2.179548)" fill="#27464F">
                    <path d="M0.313257182,0 C0.140184644,0 0,0.140184644 0,0.313120149 C0,0.486192687 0.140184644,0.626514364 0.313257182,0.626514364 C0.486329719,0.626514364 0.626514364,0.486192687 0.626514364,0.313120149 C0.626514364,0.140184644 0.486329719,0 0.313257182,0" id="Path"></path>
                </g>
            </g>
            <g id="server-fan2" transform="translate(40.682273, 59.592137)" fill-rule="nonzero">
                <g id="Group" transform="translate(2.554722, 1.274905) scale(-1, 1) rotate(-141.656339) translate(-2.554722, -1.274905) translate(1.779989, 0.262187)" fill="#E0E0E0">
                    <path d="M0.305857465,0.00398940272 C1.08845244,-0.0631567254 1.80568271,0.730674948 1.4604968,1.37692217 C1.17272768,1.84488958 0.793831673,2.07387158 0.305857465,2.01686588 C0.0453578947,1.98644458 -0.114559516,1.60837077 0.170331913,1.25441475 C0.395202925,0.973908371 0.291743075,0.703542431 -7.10542736e-15,0.404125513" id="Path"></path>
                </g>
                <g id="Group" transform="translate(3.679894, 2.524592) scale(-1, 1) rotate(128.346722) translate(-3.679894, -2.524592) translate(2.905136, 1.511806)" fill="#E0E0E0">
                    <path d="M0.305994552,0.00398939469 C1.08845263,-0.0631567452 1.80582006,0.730675067 1.46049706,1.37705944 C1.17286492,1.84502692 0.793968846,2.07400896 0.305994552,2.01700326 C0.0454949356,1.98671898 -0.114422504,1.60850807 0.170468975,1.25441496 C0.395340027,0.974045566 0.291880159,0.703679579 0,0.404125575" id="Path"></path>
                </g>
                <g id="Group" transform="translate(2.451055, 3.729245) scale(-1, 1) rotate(38.346069) translate(-2.451055, -3.729245) translate(1.676317, 2.716586)" fill="#E0E0E0">
                    <path d="M0.305994523,0.00400518525 C1.08858956,-0.0632779812 1.80568286,0.730553757 1.46049692,1.37680103 C1.17286481,1.84490551 0.793968771,2.07375049 0.305994523,2.0167448 C0.0452208655,1.98646052 -0.114422493,1.60838668 0.170331927,1.2542936 C0.39533999,0.9737872 0.291880132,0.703558271 0,0.404004295" id="Path"></path>
                </g>
                <g id="Group" transform="translate(1.274944, 2.445750) scale(-1, 1) rotate(-51.653278) translate(-1.274944, -2.445750) translate(0.500211, 1.432980)" fill="#E0E0E0">
                    <path d="M0.305857519,0.00398940342 C1.08845263,-0.0631567364 1.80568303,0.730675076 1.46049706,1.37692241 C1.17272789,1.84502693 0.793968846,2.07387194 0.305857519,2.01700327 C0.0453579026,1.98671899 -0.114422504,1.60837105 0.170468975,1.25441497 C0.395340027,0.974045575 0.291880159,0.703542554 0,0.404125584" id="Path"></path>
                </g>
                <g id="Group" transform="translate(2.500079, 2.494176) scale(-1, 1) rotate(-90.000000) translate(-2.500079, -2.494176) translate(2.186822, 2.180918)" fill="#27464F">
                    <path d="M0.313257182,0 C0.140184644,0 0,0.140184644 0,0.313120149 C0,0.486192687 0.140184644,0.626514364 0.313257182,0.626514364 C0.486329719,0.626514364 0.626514364,0.486192687 0.626514364,0.313120149 C0.626514364,0.140184644 0.486329719,0 0.313257182,0" id="Path"></path>
                </g>
            </g>
            <g id="server-fan3" transform="translate(45.942966, 59.601748)" fill-rule="nonzero">
                <g id="Group" transform="translate(2.555992, 1.274916) scale(-1, 1) rotate(-141.653278) translate(-2.555992, -1.274916) translate(1.781303, 0.262148)" fill="#E0E0E0">
                    <path d="M0.305857519,0.00399003273 C1.0883156,-0.0631561071 1.80568303,0.730538673 1.46036003,1.37692304 C1.17272789,1.84489053 0.793831813,2.07387257 0.305857519,2.0170039 C0.0452208697,1.98658259 -0.11469657,1.60850871 0.170331943,1.2544156 C0.395065962,0.974046204 0.291606093,0.703680217 0,0.404126213" id="Path"></path>
                </g>
                <g id="Group" transform="translate(3.681309, 2.524657) scale(-1, 1) rotate(128.346722) translate(-3.681309, -2.524657) translate(2.906594, 1.511887)" fill="#E0E0E0">
                    <path d="M0.305994552,0.00399002401 C1.0883156,-0.0631561158 1.80582006,0.730538664 1.46036003,1.37706007 C1.17286492,1.84502755 0.793968846,2.07387256 0.305994552,2.01700389 C0.0453579026,1.98658258 -0.114559537,1.6085087 0.170468975,1.25441559 C0.395202995,0.974046195 0.291743126,0.703680208 0,0.404126204" id="Path"></path>
                </g>
                <g id="Group" transform="translate(2.452474, 3.727923) scale(-1, 1) rotate(38.349129) translate(-2.452474, -3.727923) translate(1.677784, 2.715221)" fill="#E0E0E0">
                    <path d="M0.305994577,0.00399067131 C1.08831569,-0.0631554742 1.80568318,0.730402339 1.46036015,1.37678676 C1.17286502,1.84489132 0.793968912,2.07373635 0.305994577,2.01686767 C0.0453579064,1.98644636 -0.114422513,1.60850948 0.170331957,1.25427931 C0.395340061,0.973772858 0.29174315,0.703680914 4.6629367e-15,0.403989852" id="Path"></path>
                </g>
                <g id="Group" transform="translate(1.274944, 2.444360) scale(-1, 1) rotate(-51.653278) translate(-1.274944, -2.444360) translate(0.500211, 1.431591)" fill="#E0E0E0">
                    <path d="M0.305857519,0.00398940342 C1.08845263,-0.0631567364 1.80568303,0.730675076 1.46049706,1.37692241 C1.17272789,1.84502693 0.793968846,2.07387194 0.305857519,2.01700327 C0.0453579026,1.98671899 -0.114422504,1.60837105 0.170331943,1.25441497 C0.395340027,0.974045575 0.291880159,0.703542554 0,0.403988551" id="Path"></path>
                </g>
                <g id="Group" transform="translate(2.501449, 2.492786) scale(-1, 1) rotate(-90.000000) translate(-2.501449, -2.492786) translate(2.188192, 2.179529)" fill="#27464F">
                    <path d="M0.313257182,0 C0.140184644,0 0,0.140184644 0,0.313257182 C0,0.486329719 0.140184644,0.626514364 0.313257182,0.626514364 C0.486329719,0.626514364 0.626514364,0.486329719 0.626514364,0.313257182 C0.626514364,0.140184644 0.486329719,0 0.313257182,0" id="Path"></path>
                </g>
            </g>
            <g id="Group" transform="translate(40.260954, 34.807867)" fill="#27464F" fill-rule="nonzero">
                <path d="M3.61615473,5.48651662 L5.77949293,0.714483325 C5.89487462,0.460150285 5.78223359,0.160596392 5.52790055,0.0452147 C5.27356751,-0.0700299588 4.97401361,0.0426110751 4.85863192,0.296944115 L3.05363472,4.27884577 C2.9985475,4.39998285 2.82616013,4.39998285 2.77120994,4.27884577 L0.966075707,0.296944115 C0.850831048,0.0426110751 0.551277155,-0.0700299588 0.296944115,0.0452147 C0.0426110751,0.160596392 -0.0700299588,0.460150285 0.0452147,0.714483325 L2.20868994,5.48651662" id="Path"></path>
            </g>
            <g id="Group" transform="translate(79.020563, 60.218203)" fill="#CCCCCC" fill-rule="nonzero">
                <path d="M0,1.56238969 C0.302157518,1.0486534 0.74162199,0.616177603 1.27618729,0.240296392 C2.08577759,-0.329075258 3.20793991,0.169176323 3.35086521,1.14855037 C3.7133172,3.63268257 3.0470633,5.74011135 1.45761883,7.50934297" id="Path"></path>
            </g>
            <g id="Group" transform="translate(45.254749, 58.010052) scale(-1, 1) rotate(73.453162) translate(-45.254749, -58.010052) translate(33.012611, 55.567901)" stroke="#27464F" stroke-width="0.5">
                <path d="M0,0 C20.3734966,6.44191448 28.2546672,6.58251018 22.8073372,0" id="Path"></path>
            </g>
            <g id="Group" transform="translate(45.811626, 63.798485) scale(-1, 1) rotate(66.311237) translate(-45.811626, -63.798485) translate(33.331883, 60.657325)" stroke="#27464F" stroke-width="0.5">
                <path d="M0,0 C16.9678157,6.75489616 28.6765856,9.85567496 23.8745442,0" id="Path"></path>
            </g>
            <g id="Group" transform="translate(47.838907, 69.239406) scale(-1, 1) rotate(66.311132) translate(-47.838907, -69.239406) translate(35.633074, 65.694713)" stroke="#27464F" stroke-width="0.5">
                <path d="M7.10542736e-15,0 C17.3346665,8.71899467 26.8409154,10.1586627 23.8744264,0" id="Path"></path>
            </g>
            <g id="Group" transform="translate(50.432783, 59.149150)" fill="#B8DDDB" fill-rule="nonzero">
                <path d="M9.88553098,0 C7.64202854,3.20410299 4.6268939,4.54236617 0.920565383,4.20882812 C0.264451916,4.14976695 -0.205707923,4.84192006 0.0906942137,5.43020225 C1.66328364,8.55181144 7.05676107,9.3028887 10.3451393,6.91947568" id="Path"></path>
            </g>
            <g id="Group" transform="translate(4.458159, 4.167650) scale(-1, 1) rotate(-90.000000) translate(-4.458159, -4.167650) translate(3.524486, 3.233976)" fill="#E0E0E0" fill-rule="nonzero">
                <path d="M0.933605066,0 C0.417950308,0 0,0.418087341 0,0.933605066 C0,1.44939686 0.417950308,1.86734716 0.933605066,1.86734716 C1.44939686,1.86734716 1.86734716,1.44939686 1.86734716,0.933605066 C1.86734716,0.418087341 1.44939686,0 0.933605066,0" id="Path"></path>
            </g>
            <g id="Group" transform="translate(0.933674, 0.933674) scale(-1, 1) rotate(-90.000000) translate(-0.933674, -0.933674) translate(0.000000, 0.000000)" fill="#E0E0E0" fill-rule="nonzero">
                <path d="M0.933605066,0 C0.417950308,0 0,0.418087341 0,0.933605066 C0,1.44939686 0.417950308,1.86734716 0.933605066,1.86734716 C1.44939686,1.86734716 1.86734716,1.44939686 1.86734716,0.933605066 C1.86734716,0.418087341 1.44939686,0 0.933605066,0" id="Path"></path>
            </g>
            <g id="Group" transform="translate(9.126938, 6.479463) scale(-1, 1) rotate(-90.000000) translate(-9.126938, -6.479463) translate(8.193196, 5.545721)" fill="#E0E0E0" fill-rule="nonzero">
                <path d="M0.933742099,0 C0.417950308,0 0,0.418087341 0,0.933742099 C0,1.44939686 0.417950308,1.8674842 0.933742099,1.8674842 C1.44953389,1.8674842 1.8674842,1.44939686 1.8674842,0.933742099 C1.8674842,0.418087341 1.44953389,0 0.933742099,0" id="Path"></path>
            </g>
            <g id="Group" transform="translate(24.214191, 16.016884) scale(-1, 1) rotate(-90.000000) translate(-24.214191, -16.016884) translate(23.280517, 15.083210)" fill="#E0E0E0" fill-rule="nonzero">
                <path d="M0.933605066,0 C0.417813275,0 0,0.418087341 0,0.933605066 C0,1.44939686 0.417813275,1.86734716 0.933605066,1.86734716 C1.44939686,1.86734716 1.86734716,1.44939686 1.86734716,0.933605066 C1.86734716,0.418087341 1.44939686,0 0.933605066,0" id="Path"></path>
            </g>
            <g id="Group" transform="translate(32.304750, 20.797961) scale(-1, 1) rotate(-90.000000) translate(-32.304750, -20.797961) translate(31.371076, 19.864287)" fill="#E0E0E0" fill-rule="nonzero">
                <path d="M0.933742099,0 C0.417813275,0 -3.55271368e-15,0.418087341 -3.55271368e-15,0.933742099 C-3.55271368e-15,1.44939686 0.417813275,1.86734716 0.933742099,1.86734716 C1.44939686,1.86734716 1.86734716,1.44939686 1.86734716,0.933742099 C1.86734716,0.418087341 1.44939686,0 0.933742099,0" id="Path"></path>
            </g>
            <g id="Group" transform="translate(13.653066, 7.560584) scale(-1, 1) rotate(-90.000000) translate(-13.653066, -7.560584) translate(12.719393, 6.626910)" fill="#E0E0E0" fill-rule="nonzero">
                <path d="M0.933605066,0 C0.417950308,0 0,0.418087341 0,0.933605066 C0,1.44939686 0.417950308,1.86734716 0.933605066,1.86734716 C1.44939686,1.86734716 1.86734716,1.44939686 1.86734716,0.933605066 C1.86734716,0.418087341 1.44939686,0 0.933605066,0" id="Path"></path>
            </g>
            <g id="Group" transform="translate(21.613444, 12.134742) scale(-1, 1) rotate(-90.000000) translate(-21.613444, -12.134742) translate(20.679770, 11.201068)" fill="#E0E0E0" fill-rule="nonzero">
                <path d="M0.933742099,0 C0.417813275,0 0,0.418087341 0,0.933742099 C0,1.44939686 0.417813275,1.86734716 0.933742099,1.86734716 C1.44953389,1.86734716 1.86734716,1.44939686 1.86734716,0.933742099 C1.86734716,0.418087341 1.44953389,0 0.933742099,0" id="Path"></path>
            </g>
            <g id="Group" transform="translate(28.133469, 18.427429) scale(-1, 1) rotate(-90.000000) translate(-28.133469, -18.427429) translate(27.199795, 17.493618)" fill="#E0E0E0" fill-rule="nonzero">
                <path d="M0.933742099,0 C0.417950308,0 -3.55271368e-15,0.418087341 -3.55271368e-15,0.933742099 C-3.55271368e-15,1.44953389 0.417950308,1.86762123 0.933742099,1.86762123 C1.44953389,1.86762123 1.86734716,1.44953389 1.86734716,0.933742099 C1.86734716,0.418087341 1.44953389,0 0.933742099,0" id="Path"></path>
            </g>
            <g id="Group" transform="translate(34.841091, 24.395074) scale(-1, 1) rotate(-90.000000) translate(-34.841091, -24.395074) translate(33.907418, 23.461401)" fill="#E0E0E0" fill-rule="nonzero">
                <path d="M0.933605066,0 C0.417950308,0 -3.55271368e-15,0.418087341 -3.55271368e-15,0.933605066 C-3.55271368e-15,1.44939686 0.417950308,1.86734716 0.933605066,1.86734716 C1.44939686,1.86734716 1.86734716,1.44939686 1.86734716,0.933605066 C1.86734716,0.418087341 1.44939686,0 0.933605066,0" id="Path"></path>
            </g>
            <g id="Group" transform="translate(17.851754, 9.428342) scale(-1, 1) rotate(-90.000000) translate(-17.851754, -9.428342) translate(16.918080, 8.494669)" fill="#E0E0E0" fill-rule="nonzero">
                <path d="M0.933605066,0 C0.417813275,0 0,0.418087341 0,0.933605066 C0,1.44939686 0.417813275,1.86734716 0.933605066,1.86734716 C1.44939686,1.86734716 1.86734716,1.44939686 1.86734716,0.933605066 C1.86734716,0.418087341 1.44939686,0 0.933605066,0" id="Path"></path>
            </g>
            <g id="Group" transform="translate(87.748677, 73.321091)" fill="#D38444" fill-rule="nonzero">
                <path d="M12.150276,0.569782748 C12.1547391,0.255429303 11.8986246,0 11.5841342,0 L0.566141837,0 C0.251651359,0 -0.00446310841,0.255429303 0,0.569782748 C0.0374689553,3.1603895 2.26726811,8.68048532 3.24444963,8.68048532 L8.90582637,8.68048532 C9.88300789,8.68048532 12.112807,3.1603895 12.150276,0.569782748" id="Path"></path>
            </g>
            <g id="Clipped" transform="translate(87.748810, 73.321091)">
                <mask id="mask-2" fill="white">
                    <use xlink:href="#path-1"></use>
                </mask>
                <g id="Path"></g>
                <path d="M10.6948533,0.569782748 C10.6993164,0.255429303 10.4432019,0 10.1288485,0 L-0.889280899,0 C-1.20363434,0 -1.45974881,0.255429303 -1.4552857,0.569782748 C-1.41795378,3.1603895 0.811982405,8.68048532 1.78916393,8.68048532 L7.45040363,8.68048532 C8.42772219,8.68048532 10.6575213,3.1603895 10.6948533,0.569782748" id="Path" fill="#E89449" fill-rule="nonzero" mask="url(#mask-2)"></path>
            </g>
            <g id="Group" transform="translate(87.826335, 66.931605)" fill="#72C174" fill-rule="nonzero">
                <path d="M5.99789114,6.3897604 C2.74541554,5.33981442 0.592354803,3.49302218 0.00914283201,0.574358704 C-0.0473147178,0.291659856 0.16467516,0.0218420996 0.452581258,0.00868694231 C3.88073302,-0.149997142 5.80933388,1.86109752 5.99789114,6.3897604" id="Path"></path>
            </g>
            <g id="Group" transform="translate(93.824226, 66.931035)" fill="#72C174" fill-rule="nonzero">
                <path d="M0,6.38991905 C3.42472594,5.43288136 5.61766324,3.55799738 6.03506542,0.414599966 C6.0620609,0.211791292 5.91214692,0.0311819459 5.70796792,0.0177527229 C2.17827479,-0.212462529 0.191434945,1.7901361 0,6.38991905" id="Path"></path>
            </g>
            <g id="Group" transform="translate(61.120231, 78.331562)" fill="#27464F" fill-rule="nonzero">
                <path d="M3.5283228,1.45378191 C3.22630231,0.836311715 2.59197708,0.411235697 1.85816596,0.411235697 C0.831926663,0.411235697 0,1.24316236 0,2.26926462 L0,3.108317 L5.97943007,3.108317 L5.97943007,0 L2.90591942,0.332441786 L2.39684224,0.490577739" id="Path"></path>
            </g>
            <g id="Group" transform="translate(61.120368, 81.440016)" fill="#243E44" fill-rule="nonzero">
                <path d="M0.336689806,0.834119189 L5.8037539,0.834119189 C5.90077319,0.834119189 5.97943007,0.755599344 5.97943007,0.65858006 L5.97943007,0 L0,0 L0,0.497429383 C0,0.683383012 0.15087321,0.834119189 0.336689806,0.834119189" id="Path"></path>
            </g>
            <g id="Group" transform="translate(61.167370, 78.720669)" fill="#243E44" fill-rule="nonzero">
                <path d="M2.97005081,0.427472077 C1.7137333,-0.523399132 0.29229115,0.239599988 0,1.4667295 C0.66570577,0.453919425 1.63685785,0.0687199768 2.97005081,0.427472077" id="Path"></path>
            </g>
            <g id="Group" transform="translate(68.492600, 78.402682)" fill="#27464F" fill-rule="nonzero">
                <path d="M3.5283228,1.45378191 C3.22630231,0.836448748 2.59197708,0.411235697 1.85816596,0.411235697 C0.831926663,0.411235697 0,1.24316236 0,2.26940166 L0,3.10845403 L5.97943007,3.10845403 L5.97943007,0 L2.90591942,0.332578819 L2.39684224,0.490714772" id="Path"></path>
            </g>
            <g id="Group" transform="translate(68.492737, 81.511273)" fill="#243E44" fill-rule="nonzero">
                <path d="M0.336689806,0.833982156 L5.8037539,0.833982156 C5.90077319,0.833982156 5.97943007,0.755462311 5.97943007,0.65858006 L5.97943007,0 L0,0 L0,0.497429383 C0,0.683245979 0.15087321,0.833982156 0.336689806,0.833982156" id="Path"></path>
            </g>
            <g id="Group" transform="translate(68.539740, 78.791744)" fill="#243E44" fill-rule="nonzero">
                <path d="M2.97005081,0.427379448 C1.7137333,-0.523354729 0.29229115,0.239644391 0,1.4667739 C0.66570577,0.453963828 1.63685785,0.068627347 2.97005081,0.427379448" id="Path"></path>
            </g>
            <g id="Group" transform="translate(63.716182, 77.555133)" fill="#F2F2F2" fill-rule="nonzero">
                <path d="M3.13311995,1.8658398 L0.623088542,1.8658398 C0.278861927,1.8658398 0,1.58697788 0,1.24275126 L0,0.595818997 C0,0.266803033 0.266666,0 0.595818997,0 L3.16025246,0 C3.48940546,0 3.75620849,0.266803033 3.75620849,0.595818997 L3.75620849,1.24275126 C3.75620849,1.58697788 3.47734657,1.8658398 3.13311995,1.8658398" id="Path"></path>
            </g>
            <g id="Group" transform="translate(71.229695, 77.685315)" fill="#F2F2F2" fill-rule="nonzero">
                <path d="M3.13311995,1.8658398 L0.623088542,1.8658398 C0.278861927,1.8658398 0,1.58697788 0,1.24275126 L0,0.595818997 C0,0.266803033 0.266666,0 0.595818997,0 L3.16025246,0 C3.48954249,0 3.75620849,0.266803033 3.75620849,0.595818997 L3.75620849,1.24275126 C3.75620849,1.58697788 3.47734657,1.8658398 3.13311995,1.8658398" id="Path"></path>
            </g>
            <g id="Group" transform="translate(64.781887, 74.378711)" fill="#F2C666" fill-rule="nonzero">
                <path d="M1.25481016,4.10989038 L0.608700088,4.10989038 C0.272558414,4.10989038 0,3.83733196 0,3.50119029 L0,0 L1.86351024,0 L1.86351024,3.50119029 C1.86351024,3.83733196 1.59108886,4.10989038 1.25481016,4.10989038" id="Path"></path>
            </g>
            <g id="Clipped" transform="translate(64.781064, 74.379122)">
                <mask id="mask-4" fill="white">
                    <use xlink:href="#path-3"></use>
                </mask>
                <g id="Path"></g>
                <path d="M1.77087601,4.10989038 C1.25618048,4.10989038 0.771632192,4.85630852 0.771632192,4.34161299 L0.839052373,0 L2.70269965,0 L2.70269965,3.17806674 C2.70269965,3.69262523 2.28557154,4.10989038 1.77087601,4.10989038" id="Path" fill="#CEA85B" fill-rule="nonzero" mask="url(#mask-4)"></path>
            </g>
            <g id="Group" transform="translate(72.236476, 74.378711)" fill="#F2C666" fill-rule="nonzero">
                <path d="M1.25481016,4.10989038 L0.608700088,4.10989038 C0.272558414,4.10989038 0,3.83733196 0,3.50119029 L0,0 L1.86351024,0 L1.86351024,3.50119029 C1.86351024,3.83733196 1.59108886,4.10989038 1.25481016,4.10989038" id="Path"></path>
            </g>
            <g id="Clipped" transform="translate(72.236476, 74.378711)">
                <mask id="mask-6" fill="white">
                    <use xlink:href="#path-5"></use>
                </mask>
                <g id="Path"></g>
                <path d="M1.78101645,3.90338181 L1.78087941,3.90338181 C1.26632092,3.90338181 0.781635593,4.64979995 0.781635593,4.13524146 L0.849192807,-0.206508562 L2.71284008,-0.206508562 L2.71284008,2.97155818 C2.71284008,3.48611667 2.29557494,3.90338181 1.78101645,3.90338181" id="Path" fill="#CEA85B" fill-rule="nonzero" mask="url(#mask-6)"></path>
            </g>
            <g id="Group" transform="translate(59.923523, 47.822422)" fill="#CCCCCC" fill-rule="nonzero">
                <path d="M6.53934645,8.05342283 L9.33468033,8.05342283 C10.6121009,8.05342283 11.6475214,7.01786529 11.6475214,5.74058174 L11.6475214,1.93024526 C11.6475214,0.864266424 10.783392,0 9.71727615,0 L9.14968593,0.0564575498 L6.36257402,0 L1.41650896,0 C0.634188206,0 0,0.634188206 0,1.41650896 L0,7.80032308 L1.10338881,7.80032308 L1.10338881,9.62902697 L0.0848233577,12.6729385 L0.0848233577,22.0062485 C0.0848233577,24.5191576 2.1220913,26.5562885 4.6350004,26.5562885 L15.0918431,26.5562885 C15.5788579,26.5562885 15.9737867,26.1614968 15.9737867,25.6744819 L9.62149016,9.82142115 L9.62149016,8.03519745" id="Path"></path>
            </g>
            <g id="Group" transform="translate(62.494260, 50.010289) scale(-1, 1) rotate(-90.000000) translate(-62.494260, -50.010289) translate(59.923386, 47.439415)" stroke="#27464F" stroke-width="0.5">
                <circle id="Oval" cx="2.57087401" cy="2.57087401" r="2.57087401"></circle>
            </g>
            <g id="Group" transform="translate(65.064997, 47.439415)" stroke="#27464F" stroke-width="0.5">
                <path d="M5.14161099,2.57087401 C5.14161099,3.99053473 3.99067176,5.14161099 2.57073698,5.14161099 C1.15107626,5.14161099 0,3.99053473 0,2.57087401 C0,1.64617608 0.488385213,0.835352485 1.22110006,0.38245879 C1.61342522,0.140047612 2.07577419,-7.10542736e-15 2.57073698,-7.10542736e-15 C3.10324678,-7.10542736e-15 3.59779847,0.161972874 4.00821197,0.439053373 C4.69200608,0.900991238 5.14161099,1.68344903 5.14161099,2.57087401 Z" id="Path"></path>
            </g>
            <g id="Group" transform="translate(60.007250, 58.611707)" fill="#FFFFFF" fill-rule="nonzero">
                <path d="M0,11.0073038 L1.68632672,11.0073038 C3.84993899,11.0073038 5.60382292,9.25328279 5.60382292,7.08967053 L5.60574138,0 L0.00205549332,1.16943867 L0,11.0073038 Z" id="Path"></path>
            </g>
            <g id="Group" transform="translate(67.112405, 57.017222)" fill="#C0EDEC" fill-rule="nonzero">
                <path d="M0,5.20859054 C0,2.33227022 2.33175162,0.00051860129 5.20807194,0.00051860129 C8.86438346,-0.0542945539 13.9187045,4.23771253 13.7356286,12.0465317 C13.7356286,14.5617703 11.6967162,16.6006827 9.18161459,16.6006827 C5.61574478,16.8635117 0.224733936,10.0747654 0.00178142754,5.33000168 L0,5.20859054 Z" id="Path"></path>
            </g>
            <g id="Group" transform="translate(55.515628, 51.848723)" fill="#F2C666" fill-rule="nonzero">
                <path d="M5.8043966,0 L4.37349919,0 C3.50608101,0 2.73965606,0.424527887 2.26456304,1.07516004 L2.18672836,1.18547151 C2.13246334,1.26837641 1.93102499,1.60794391 1.71506116,1.97491798 C1.30108481,2.67858186 0.942606771,3.41376331 0.643463976,4.1733366 L0.0439450915,5.69522386 C-0.0458114501,6.13564756 -0.0245713524,6.60676663 0.361998425,6.83780408 C0.805573883,7.10282568 1.36960125,6.92440886 1.58597618,6.46891154 C2.34308289,4.87563015 3.94965646,3.86035349 5.71368083,3.86035349 L5.8043966,3.86035349 C6.87023841,3.86035349 7.73450483,2.99608706 7.73450483,1.93024526 C7.73450483,0.864266424 6.87023841,0 5.8043966,0" id="Path"></path>
            </g>
            <g id="Group" transform="translate(70.206608, 50.010427)" stroke="#27464F" stroke-width="0.5">
                <path d="M0,0 L1.70140034,0 C2.3399736,0 2.85768385,0.517710251 2.85768385,1.15628351" id="Path"></path>
            </g>
            <g id="Group" transform="translate(60.048184, 54.764403) scale(-1, 1) rotate(114.608653) translate(-60.048184, -54.764403) translate(59.576563, 53.495562)" fill="#FFFFFF" fill-rule="nonzero">
                <path d="M0.149174314,0.0149692479 C1.04016193,0.561867366 1.29887995,1.64305658 0.310187917,2.5128041 C0.24167149,2.57296152 0.136841357,2.51622992 0.149174314,2.42578824 C0.249756429,1.6832072 0.181102969,0.910890043 0.00254916113,0.119114216 C-0.0164984055,0.0344279131 0.0750395406,-0.0305256594 0.149174314,0.0149692479" id="Path"></path>
            </g>
            <g id="Group" transform="translate(63.885281, 50.126356) scale(-1, 1) rotate(-90.000000) translate(-63.885281, -50.126356) translate(63.312894, 49.660719)" fill="#27464F" fill-rule="nonzero">
                <path d="M0.572386373,0 C0.256251501,0 0,0.208427023 0,0.465637753 C0,0.722711451 0.256251501,0.931275507 0.572386373,0.931275507 C0.888521246,0.931275507 1.14477275,0.722711451 1.14477275,0.465637753 C1.14477275,0.208427023 0.888521246,0 0.572386373,0" id="Path"></path>
            </g>
            <g id="Group" transform="translate(66.123028, 50.126356) scale(-1, 1) rotate(-90.000000) translate(-66.123028, -50.126356) translate(65.550641, 49.660719)" fill="#27464F" fill-rule="nonzero">
                <path d="M0.572386373,0 C0.256251501,0 0,0.208427023 0,0.465637753 C0,0.722711451 0.256251501,0.931275507 0.572386373,0.931275507 C0.888521246,0.931275507 1.14477275,0.722711451 1.14477275,0.465637753 C1.14477275,0.208427023 0.888521246,0 0.572386373,0" id="Path"></path>
            </g>
            <g id="Group" transform="translate(65.943117, 47.302945)" fill="#27464F" fill-rule="nonzero">
                <path d="M2.04081757,1.31454268 L0.167440957,0.815194839 C0.0471260809,0.783129143 -0.0244050866,0.659662511 0.0076606092,0.539210603 L0.106735387,0.16757741 C0.138801083,0.0471255019 0.262267715,-0.0244056656 0.382719624,0.00766003018 L2.2559592,0.506870841 C2.37641111,0.53907357 2.44794228,0.662677235 2.41587658,0.78299211 L2.3168018,1.15476234 C2.28473611,1.27507721 2.16113244,1.34660838 2.04081757,1.31454268" id="Path"></path>
            </g>
            <g id="Group" transform="translate(61.196251, 47.603877)" fill="#27464F" fill-rule="nonzero">
                <path d="M2.25600594,0.815323451 L0.382766362,1.3146713 C0.262314454,1.34673699 0.138847821,1.27506879 0.106645093,1.15475391 L0.00770734764,0.783120723 C-0.024495381,0.662668814 0.0471728194,0.539065149 0.167487695,0.506999453 L2.04086431,0.00765160957 C2.16117918,-0.0244140862 2.28478285,0.0472541142 2.31671151,0.167431957 L2.41592332,0.539202182 C2.44785198,0.659654091 2.37645785,0.783257756 2.25600594,0.815323451" id="Path"></path>
            </g>
            <g id="Group" transform="translate(63.926390, 56.823428)" fill="#EA5353" fill-rule="nonzero">
                <path d="M0.826308314,3.8270545 L2.29338241,3.8270545 C2.43288189,3.8270545 2.54579699,3.71400236 2.54579699,3.57450288 L2.54579699,0.243233376 C2.54579699,0.108941146 2.43699288,0 2.30256362,0 L0.86549972,0 C0.387529007,0 0,0.387529007 0,0.865636753 L0,3.00074618 C0,3.45514724 0.371907258,3.8270545 0.826308314,3.8270545" id="Path"></path>
            </g>
            <g id="Group" transform="translate(59.082552, 56.823428)" fill="#EA5353" fill-rule="nonzero">
                <path d="M1.71948868,3.8270545 L0.252551613,3.8270545 C0.113052133,3.8270545 0,3.71400236 0,3.57450288 L0,0.243233376 C0,0.108941146 0.108941146,0 0.243370409,0 L1.68029727,0 C2.15826799,0 2.54579699,0.387529007 2.54579699,0.865636753 L2.54579699,3.00074618 C2.54579699,3.45514724 2.17388973,3.8270545 1.71948868,3.8270545" id="Path"></path>
            </g>
            <g id="Group" opacity="0.44" transform="translate(60.007250, 60.494813)" fill="#606060" fill-rule="nonzero">
                <g transform="translate(0.000000, -0.000000)" id="Path">
                    <path d="M0,0 L0,9.33331 C0,12.1835941 2.16511963,13.9757102 4.55004001,13.88335 C1.57601524,12.3100754 0.406987677,6.9537339 0,0"></path>
                </g>
            </g>
            <g id="Group" transform="translate(62.679391, 58.738120) scale(-1, 1) rotate(-90.000000) translate(-62.679391, -58.738120) translate(61.248425, 57.307222)" fill="#D85050" fill-rule="nonzero">
                <path d="M1.43103445,0 C0.640765784,0 0,0.640628751 0,1.43089742 C0,2.22130311 0.640765784,2.86179483 1.43103445,2.86179483 C2.22144015,2.86179483 2.86193187,2.22130311 2.86193187,1.43089742 C2.86193187,0.640628751 2.22144015,0 1.43103445,0" id="Path"></path>
            </g>
            <g id="Group" transform="translate(35.246777, 53.867628)" stroke="#27464F" stroke-width="0.5">
                <line x1="0" y1="0.068516444" x2="15.7981106" y2="0.068516444" id="Path"></line>
            </g>
            <g id="Group" transform="translate(35.309812, 48.275316)" stroke="#27464F" stroke-width="0.5">
                <line x1="0" y1="0.068516444" x2="15.7979735" y2="0.068516444" id="Path"></line>
            </g>
            <g id="Group" transform="translate(35.246777, 70.137543)" stroke="#27464F" stroke-width="0.5">
                <line x1="0" y1="0.068516444" x2="15.7981106" y2="0.068516444" id="Path"></line>
            </g>
            <g id="Group" transform="translate(35.246777, 75.901146)" stroke="#27464F" stroke-width="0.5">
                <line x1="0" y1="0.068516444" x2="15.7981106" y2="0.068516444" id="Path"></line>
            </g>
            <g id="Group" transform="translate(93.824363, 67.871019) scale(-1, 1) rotate(-90.000000) translate(-93.824363, -67.871019) translate(88.374702, 67.802503)" stroke="#6BB26B" stroke-width="0.5">
                <line x1="1.42108547e-14" y1="0.068516444" x2="10.8993218" y2="0.068516444" id="Path"></line>
            </g>
            <g id="Group" transform="translate(91.639922, 61.976207) scale(-1, 1) rotate(-90.000000) translate(-91.639922, -61.976207) translate(89.455275, 59.791629)" fill="#F2C666" fill-rule="nonzero">
                <path d="M2.18471533,0 C0.978003721,0 0,0.978140754 0,2.1845783 C0,3.39115288 0.978003721,4.3691566 2.18471533,4.3691566 C3.39128991,4.3691566 4.36929363,3.39115288 4.36929363,2.1845783 C4.36929363,0.978140754 3.39128991,0 2.18471533,0" id="Path"></path>
            </g>
            <g id="Group" transform="translate(93.824157, 59.013556) scale(-1, 1) rotate(-90.000000) translate(-93.824157, -59.013556) translate(91.639648, 56.828909)" fill="#F2C666" fill-rule="nonzero">
                <path d="M2.18444127,0 C0.977866689,0 0,0.978140754 0,2.1845783 C0,3.39115288 0.977866689,4.36929363 2.18444127,4.36929363 C3.39101585,4.36929363 4.36901957,3.39115288 4.36901957,2.1845783 C4.36901957,0.978140754 3.39101585,0 2.18444127,0" id="Path"></path>
            </g>
            <g id="Group" transform="translate(96.008530, 61.976207) scale(-1, 1) rotate(-90.000000) translate(-96.008530, -61.976207) translate(93.823883, 59.791629)" fill="#F2C666" fill-rule="nonzero">
                <path d="M2.18471533,0 C0.978003721,0 0,0.978140754 0,2.1845783 C0,3.39115288 0.978003721,4.3691566 2.18471533,4.3691566 C3.39128991,4.3691566 4.36929363,3.39115288 4.36929363,2.1845783 C4.36929363,0.978140754 3.39128991,0 2.18471533,0" id="Path"></path>
            </g>
            <g id="Group" transform="translate(93.824226, 61.000053) scale(-1, 1) rotate(-90.000000) translate(-93.824226, -61.000053) translate(92.607511, 59.783338)" fill="#EA5353" fill-rule="nonzero">
                <path d="M1.21671501,0 C0.544842763,0 0,0.54470573 0,1.21671501 C0,1.88872429 0.544842763,2.43343002 1.21671501,2.43343002 C1.88872429,2.43343002 2.43343002,1.88872429 2.43343002,1.21671501 C2.43343002,0.54470573 1.88872429,0 1.21671501,0" id="Path"></path>
            </g>
        </g>
    </g>
</svg>