<svg xmlns="http://www.w3.org/2000/svg" xmlns:xlink="http://www.w3.org/1999/xlink" width="589" height="425" viewBox="0 0 589 425" version="1.1">
  <title>
    Devices
  </title>
  <desc>
    Created with Sketch.
  </desc>
  <defs>
    <linearGradient x1="50" y1="88.75" x2="50" y2="100" id="linearGradient-1">
      <stop stop-color="#C7C7C7" offset="0"/>
      <stop stop-color="#CAC8C8" offset="100"/>
    </linearGradient>
    <filter x="-50" y="-50" width="200" height="200" filterUnits="objectBoundingBox" id="filter-2">
      <feGaussianBlur stdDeviation="0" in="SourceGraphic" result="blur"/>
    </filter>
    <linearGradient x1="50" y1="0" x2="50" y2="100" id="linearGradient-3">
      <stop stop-color="#191919" offset="0"/>
      <stop stop-color="#070707" offset="100"/>
    </linearGradient>
    <linearGradient x1="50" y1="0" x2="50" y2="100" id="linearGradient-4">
      <stop stop-color="#D8D8D8" offset="0"/>
      <stop stop-color="#D6D6D6" offset="100"/>
    </linearGradient>
    <linearGradient x1="50" y1="0" x2="50" y2="100" id="linearGradient-5">
      <stop stop-color="#F1F3EF" offset="0"/>
      <stop stop-color="#E9E9E4" offset="100"/>
    </linearGradient>
    <linearGradient x1="50" y1="0" x2="50" y2="100" id="linearGradient-6">
      <stop stop-color="#DEDED3" offset="0"/>
      <stop stop-color="#EEEEE8" offset="100"/>
    </linearGradient>
    <linearGradient x1="53.25" y1="43.7" x2="72.26" y2="55.29" id="linearGradient-7">
      <stop stop-color="#FFFFFF" stop-opacity="0.05" offset="0"/>
      <stop stop-color="#FFFFFF" stop-opacity="0" offset="100"/>
    </linearGradient>
    <linearGradient x1="50" y1="0" x2="50" y2="100" id="linearGradient-8">
      <stop stop-color="#39413D" offset="0"/>
      <stop stop-color="#000000" offset="100"/>
    </linearGradient>
    <linearGradient x1="50" y1="0" x2="50" y2="100" id="linearGradient-9">
      <stop stop-color="#1B2220" offset="0"/>
      <stop stop-color="#141615" offset="100"/>
    </linearGradient>
    <linearGradient x1="50" y1="14.42" x2="50" y2="100" id="linearGradient-10">
      <stop stop-color="#101111" offset="0"/>
      <stop stop-color="#191A19" offset="53.46"/>
      <stop stop-color="#1B1F1C" offset="100"/>
    </linearGradient>
    <linearGradient x1="50" y1="0" x2="50" y2="100" id="linearGradient-11">
      <stop stop-color="#29305F" offset="0"/>
      <stop stop-color="#20274C" offset="100"/>
    </linearGradient>
  </defs>
  <g id="Website-V2" stroke="none" stroke-width="1" fill="none" fill-rule="evenodd">
    <g id="Desktop-HD" transform="translate(-108.000000, -761.000000)">
      <g id="Example" transform="translate(108.000000, 761.000000)">
        <g id="Devices">
          <g id="iMac">
            <path d="M318.92 376.22L324.79 418.61C325.24 421.9 322.93 424.56 319.61 424.56L214.29 424.56C210.97 424.56 208.65 421.91 209.11 418.61L214.98 376.22 318.92 376.22Z" id="base" fill="url(#linearGradient-1)"/>
            <path d="M209.6 422.23C210.61 423.64 212.26 424.56 214.12 424.56L319.81 424.56C321.67 424.56 323.32 423.64 324.32 422.23L209.6 422.23Z" id="Rectangle-14" fill="#F0EFEF"/>
            <path d="M215.43 372.73L214.51 379.72 319.4 379.72 318.4 372.73 215.43 372.73Z" id="shadow" fill="#000000" opacity="0.11" filter="url(#filter-2)"/>
            <g id="upper" transform="translate(0.866651, 0.582388)">
              <rect id="frame-bottom" fill="url(#linearGradient-4)" x="0" y="300.14" width="537.89" height="73.5" rx="14"/>
              <rect id="bezel" fill="url(#linearGradient-3)" x="0" y="0" width="537.89" height="326.14" rx="20"/>
              <rect id="panel" fill="#2A2A2A" x="21.17" y="20.97" width="495.54" height="284.21"/>
            </g>
            <path d="M265.5 344.6C266.2 344.6 267.05 344.74 268.04 345.04 269.04 345.34 269.7 345.48 270.03 345.48 270.45 345.48 271.13 345.32 272.09 344.98 273.04 344.65 273.87 344.48 274.57 344.48 275.72 344.48 276.74 344.8 277.64 345.43 278.14 345.79 278.64 346.28 279.14 346.9 278.39 347.55 277.84 348.13 277.5 348.64 276.87 349.55 276.56 350.57 276.56 351.67 276.56 352.89 276.89 353.98 277.55 354.96 278.22 355.93 278.97 356.55 279.82 356.8 279.47 357.98 278.88 359.21 278.06 360.49 276.82 362.41 275.58 363.37 274.36 363.37 273.87 363.37 273.2 363.21 272.34 362.89 271.49 362.58 270.77 362.42 270.18 362.42 269.59 362.42 268.91 362.58 268.12 362.91 267.35 363.24 266.72 363.41 266.23 363.41 264.76 363.41 263.32 362.14 261.91 359.6 260.5 357.09 259.8 354.62 259.8 352.2 259.8 349.96 260.33 348.13 261.41 346.72 262.49 345.3 263.86 344.6 265.5 344.6M274.33 338.95C274.37 339.07 274.39 339.18 274.4 339.28 274.41 339.38 274.41 339.47 274.41 339.57 274.41 340.18 274.27 340.85 273.99 341.57 273.71 342.3 273.27 342.97 272.66 343.59 272.14 344.12 271.62 344.47 271.11 344.65 270.78 344.76 270.28 344.84 269.62 344.9 269.64 343.44 270.01 342.19 270.73 341.13 271.46 340.07 272.66 339.34 274.33 338.95" id="branding" fill="#000000"/>
            <g id="camera" transform="translate(264.660491, 10.482990)">
              <ellipse id="lens" fill="#141414" cx="2.29" cy="2.33" rx="2.29" ry="2.33"/>
              <ellipse id="aperture" fill-opacity="0.7" fill="#190E37" cx="2.29" cy="2.33" rx="1.14" ry="1.16"/>
            </g>
            <g id="Browser" transform="translate(87.000000, 44.000000)">
              <rect id="Rectangle-17" fill="#D8D8D8" x="0" y="0" width="355" height="246" rx="3"/>
              <circle id="Oval-3" fill="#E25466" cx="8.5" cy="7.5" r="2.5"/>
              <circle id="Oval-3-Copy" fill="#F9E872" cx="16.5" cy="7.5" r="2.5"/>
              <circle id="Oval-3-Copy-2" fill="#27C996" cx="24.5" cy="7.5" r="2.5"/>
              <rect id="Rectangle-17" fill="#FFFFFF" x="7" y="14" width="341.5" height="225" rx="1"/>
            </g>
            <g id="chat" transform="translate(104.000000, 72.000000)">
              <g class="user-1">
                <circle id="Oval-6" fill="#F2F2F2" cx="15" cy="15" r="15"/>
                <path d="M17.66 16.54C19.24 14.8 20.08 11.95 20.08 10.02 20.08 7.07 17.64 4 14.54 4 11.43 4 8.99 7.07 9 10.02 9 11.96 9.84 14.82 11.43 16.56 7.8 17.66 4.63 21.07 4.03 24.9 3.77 26.48 9.01 29.98 14.91 29.98 20.82 29.98 25.12 26.42 25.8 24.9 24.81 19.25 21.33 17.62 17.66 16.54Z" id="Shape" fill="#969C9A"/>
              </g>
              <g class="user-3" transform="translate(0.000000, 70.000000)">
                <circle id="Oval-6" fill="#F2F2F2" cx="15" cy="15" r="15"/>
                <path d="M17.66 16.54C19.24 14.8 20.08 11.95 20.08 10.02 20.08 7.07 17.64 4 14.54 4 11.43 4 8.99 7.07 9 10.02 9 11.96 9.84 14.82 11.43 16.56 7.8 17.66 4.63 21.07 4.03 24.9 3.77 26.48 9.01 29.98 14.91 29.98 20.82 29.98 25.12 26.42 25.8 24.9 24.81 19.25 21.33 17.62 17.66 16.54Z" id="Shape" fill="#969C9A"/>
              </g>
              <g class="user-2" transform="translate(285.000000, 30.000000)">
                <circle id="Oval-6" fill="#F2F2F2" cx="15" cy="15" r="15"/>
                <path d="M17.66 16.54C19.24 14.8 20.08 11.95 20.08 10.02 20.08 7.07 17.64 4 14.54 4 11.43 4 8.99 7.07 9 10.02 9 11.96 9.84 14.82 11.43 16.56 7.8 17.66 4.63 21.07 4.03 24.9 3.77 26.48 9.01 29.98 14.91 29.98 20.82 29.98 25.12 26.42 25.8 24.9 24.81 19.25 21.33 17.62 17.66 16.54Z" id="Shape" fill="#969C9A"/>
              </g>
              <rect class="message-1" fill="#27C996" x="41" y="7" width="79" height="17" rx="10"/>
              <rect class="message-2" fill="#D0D0D0" x="193" y="37" width="79" height="17" rx="10"/>
              <rect class="message-3" fill="#27C996" x="41" y="77" width="79" height="17" rx="10"/>
              <rect class="message-4" fill="#27C996" x="41" y="117" width="79" height="17" rx="10"/>
            </g>
          </g>
          <g id="iPad-Minimus" transform="translate(358.171315, 167.120247)">
            <g id="base">
              <path d="M9.55 0.33C4.5 0.33 0.4 4.5 0.4 9.64L0.4 245.81C0.4 250.96 4.5 255.13 9.55 255.13L185 255.13C190.06 255.13 194.15 250.96 194.15 245.81L194.15 9.64C194.15 4.5 190.05 0.33 185 0.33L9.55 0.33 9.55 0.33Z" id="Base" fill="url(#linearGradient-5)"/>
              <path d="M19.78 22.69L19.78 232.77 174.78 232.77 174.78 22.69 19.78 22.69 19.78 22.69Z" id="screen" stroke="#E9E9E9" stroke-width="2" fill="#FFFFFF"/>
            </g>
            <g id="home-button" transform="translate(90.983125, 237.614438)">
              <path d="M6.29 12.59C9.58 12.59 12.25 9.88 12.25 6.54 12.25 3.19 9.58 0.49 6.29 0.49 3.01 0.49 0.34 3.19 0.34 6.54 0.34 9.88 3.01 12.59 6.29 12.59L6.29 12.59Z" id="home" fill="url(#linearGradient-6)"/>
              <path d="M5.32 4.38C4.69 4.38 4.18 4.9 4.18 5.55L4.18 7.53C4.18 8.17 4.69 8.69 5.32 8.69L7.27 8.69C7.9 8.69 8.41 8.17 8.41 7.53L8.41 5.55C8.41 4.91 7.9 4.38 7.27 4.38L5.32 4.38 5.32 4.38Z" id="home-icon" stroke="#B3B5B7" fill="#D8D8D8" opacity="0.5"/>
            </g>
            <g id="camera" transform="translate(95.560892, 10.482990)">
              <path d="M1.72 2.98C2.5 2.98 3.13 2.33 3.13 1.54 3.13 0.75 2.5 0.1 1.72 0.1 0.94 0.1 0.3 0.75 0.3 1.54 0.3 2.33 0.94 2.98 1.72 2.98L1.72 2.98Z" id="frame" fill="#D4D4D4"/>
              <path d="M1.72 2.16C2.05 2.16 2.32 1.88 2.32 1.54 2.32 1.2 2.05 0.93 1.72 0.93 1.38 0.93 1.11 1.2 1.11 1.54 1.11 1.88 1.38 2.16 1.72 2.16L1.72 2.16Z" id="aperture" fill="#444EAA" opacity="0.8"/>
            </g>
            <path d="M119.72 0.33L146.29 0.33C174.73 0.33 197.79 23.8 197.79 52.74L197.79 202.92C197.79 231.87 174.73 255.33 146.29 255.33L144.53 255.33 100.97 3.91C106.78 1.6 113.1 0.33 119.72 0.33L119.72 0.33Z" id="Rectangle-5" fill="url(#linearGradient-7)" opacity="0.6"/>
            <g id="chat-copy" transform="translate(24.000000, 32.000000)">
              <g class="user-1">
                <ellipse id="Oval-6" fill="#F2F2F2" cx="10.1" cy="10.07" rx="10.1" ry="10.07"/>
                <path d="M11.89 11.11C12.95 9.94 13.51 8.03 13.51 6.73 13.52 4.75 11.88 2.69 9.78 2.69 7.69 2.69 6.05 4.75 6.06 6.73 6.06 8.03 6.63 9.95 7.69 11.12 5.25 11.86 3.12 14.15 2.71 16.72 2.54 17.79 6.06 20.14 10.04 20.14 14.01 20.14 16.9 17.75 17.37 16.72 16.7 12.93 14.35 11.83 11.89 11.11Z" id="Shape" fill="#969C9A"/>
              </g>
              <g class="user-3" transform="translate(0.000000, 57.298507)">
                <ellipse id="Oval-6" fill="#F2F2F2" cx="10.1" cy="10.07" rx="10.1" ry="10.07"/>
                <path d="M11.89 11.11C12.95 9.94 13.51 8.03 13.51 6.73 13.52 4.75 11.88 2.69 9.78 2.69 7.69 2.69 6.05 4.75 6.06 6.73 6.06 8.03 6.63 9.95 7.69 11.12 5.25 11.86 3.12 14.15 2.71 16.72 2.54 17.79 6.06 20.14 10.04 20.14 14.01 20.14 16.9 17.75 17.37 16.72 16.7 12.93 14.35 11.83 11.89 11.11Z" id="Shape" fill="#969C9A"/>
              </g>
              <g class="user-2" transform="translate(125.000000, 26.000000)">
                <ellipse id="Oval-6" fill="#F2F2F2" cx="10.1" cy="10.07" rx="10.1" ry="10.07"/>
                <path d="M11.89 11.11C12.95 9.94 13.51 8.03 13.51 6.73 13.52 4.75 11.88 2.69 9.78 2.69 7.69 2.69 6.05 4.75 6.06 6.73 6.06 8.03 6.63 9.95 7.69 11.12 5.25 11.86 3.12 14.15 2.71 16.72 2.54 17.79 6.06 20.14 10.04 20.14 14.01 20.14 16.9 17.75 17.37 16.72 16.7 12.93 14.35 11.83 11.89 11.11Z" id="Shape" fill="#969C9A"/>
              </g>
              <rect class="message-1" fill="#27C996" x="27.59" y="4.7" width="53.17" height="11.42" rx="5"/>
              <rect class="message-2" fill="#D0D0D0" x="63" y="31" width="53.17" height="11.42" rx="5"/>
              <rect class="message-3" fill="#27C996" x="28" y="61.3" width="53.17" height="11.42" rx="5"/>
              <rect class="message-4" fill="#27C996" x="28" y="88.3" width="53.17" height="11.42" rx="5"/>
            </g>
          </g>
          <g id="iPhone" transform="translate(524.339037, 283.291631)">
            <g id="base" transform="translate(0.572221, 0.582388)">
              <path d="M8.19 0.33C3.69 0.33 0.04 4.05 0.04 8.63L0.04 129.76C0.04 134.34 3.69 138.05 8.19 138.05L55.88 138.05C60.38 138.05 64.03 134.34 64.03 129.76L64.03 8.63C64.03 4.05 60.38 0.33 55.88 0.33L8.19 0.33 8.19 0.33Z" id="antenna-edging" fill="url(#linearGradient-8)"/>
              <path d="M9.01 1.16C4.5 1.16 0.85 4.88 0.85 9.46L0.85 128.93C0.85 133.51 4.51 137.23 9.01 137.23L55.06 137.23C59.57 137.23 63.22 133.51 63.22 128.93L63.22 9.46C63.22 4.88 59.56 1.16 55.06 1.16L9.01 1.16 9.01 1.16Z" id="glass" fill="url(#linearGradient-9)"/>
              <path d="M4.52 19.83L4.52 118.97 59.55 118.97 59.55 19.83 4.52 19.83 4.52 19.83Z" id="view-port" stroke="#E9E9E9" stroke-width="2" fill="#FFFFFF"/>
            </g>
            <g id="edge-buttons" fill="#000000">
              <path d="M0 33.06L0 37.83 0.61 37.83 0.61 33.06 0 33.06 0 33.06Z" id="Rectangle-4-copy"/>
              <path d="M0 44.68L0 49.45 0.61 49.45 0.61 44.68 0 44.68 0 44.68Z" id="Rectangle-4-copy-2"/>
              <path d="M0 20L0 26.22 0.61 26.22 0.61 20 0 20 0 20Z" id="Rectangle-4"/>
              <path d="M43.41 0.29L43.41 0.91 53.6 0.91 53.6 0.29 43.41 0.29 43.41 0.29Z" id="Rectangle-8"/>
            </g>
            <path d="M32.61 135.53C35.87 135.53 38.52 132.83 38.52 129.51 38.52 126.19 35.87 123.5 32.61 123.5 29.34 123.5 26.7 126.19 26.7 129.51 26.7 132.83 29.34 135.53 32.61 135.53L32.61 135.53Z" id="home" fill="url(#linearGradient-10)"/>
            <g id="top-elements" transform="translate(26.894383, 6.406272)">
              <path d="M1.13 6.33C0.73 6.33 0.41 6.66 0.41 7.06L0.41 7.06C0.41 7.46 0.73 7.78 1.13 7.78L10.3 7.78C10.69 7.78 11.01 7.46 11.01 7.06L11.01 7.06C11.01 6.65 10.69 6.33 10.3 6.33L1.13 6.33 1.13 6.33Z" id="ear-piece" fill="#060707" opacity="0.44"/>
              <g id="Camera" transform="translate(4.005546, 0.000000)">
                <path d="M1.71 2.6C2.38 2.6 2.93 2.04 2.93 1.35 2.93 0.66 2.38 0.11 1.71 0.11 1.03 0.11 0.48 0.66 0.48 1.35 0.48 2.04 1.03 2.6 1.71 2.6L1.71 2.6Z" id="Oval-2" fill="#1A1E1D"/>
                <path d="M1.81 1.97C2.09 1.97 2.32 1.74 2.32 1.46 2.32 1.17 2.09 0.94 1.81 0.94 1.53 0.94 1.3 1.17 1.3 1.46 1.3 1.74 1.53 1.97 1.81 1.97L1.81 1.97Z" id="Oval-3" fill="url(#linearGradient-11)" opacity="0.55"/>
              </g>
            </g>
          </g>
          <g id="chat-copy-2" transform="translate(531.000000, 307.000000)">
            <g class="user-1">
              <ellipse id="Oval-6" fill="#F2F2F2" cx="5" cy="4.94" rx="5" ry="4.94"/>
              <path d="M5.88 5.44C6.41 4.87 6.69 3.93 6.69 3.3 6.69 2.33 5.88 1.32 4.84 1.32 3.81 1.32 3 2.33 3 3.3 3 3.94 3.28 4.88 3.81 5.45 2.6 5.81 1.54 6.93 1.34 8.19 1.26 8.72 3 9.87 4.97 9.87 6.93 9.87 8.37 8.7 8.59 8.19 8.26 6.33 7.1 5.8 5.88 5.44Z" id="Shape" fill="#969C9A"/>
            </g>
            <g class="user-3" transform="translate(0.000000, 28.076269)">
              <ellipse id="Oval-6" fill="#F2F2F2" cx="5" cy="4.94" rx="5" ry="4.94"/>
              <path d="M5.88 5.44C6.41 4.87 6.69 3.93 6.69 3.3 6.69 2.33 5.88 1.32 4.84 1.32 3.81 1.32 3 2.33 3 3.3 3 3.94 3.28 4.88 3.81 5.45 2.6 5.81 1.54 6.93 1.34 8.19 1.26 8.72 3 9.87 4.97 9.87 6.93 9.87 8.37 8.7 8.59 8.19 8.26 6.33 7.1 5.8 5.88 5.44Z" id="Shape" fill="#969C9A"/>
            </g>
            <g class="user-2" transform="translate(42.000000, 14.000000)">
              <ellipse id="Oval-6" fill="#F2F2F2" cx="5" cy="4.94" rx="5" ry="4.94"/>
              <path d="M5.88 5.44C6.41 4.87 6.69 3.93 6.69 3.3 6.69 2.33 5.88 1.32 4.84 1.32 3.81 1.32 3 2.33 3 3.3 3 3.94 3.28 4.88 3.81 5.45 2.6 5.81 1.54 6.93 1.34 8.19 1.26 8.72 3 9.87 4.97 9.87 6.93 9.87 8.37 8.7 8.59 8.19 8.26 6.33 7.1 5.8 5.88 5.44Z" id="Shape" fill="#969C9A"/>
            </g>
            <rect class="message-1" fill="#27C996" x="11.66" y="2.3" width="26.31" height="5.59" rx="3"/>
            <rect class="message-2" fill="#D0D0D0" x="14" y="16" width="26.31" height="5.59" rx="3"/>
            <rect class="message-3" fill="#27C996" x="11.86" y="30.04" width="26.31" height="5.59" rx="3"/>
            <rect class="message-4" fill="#27C996" x="11.86" y="42.27" width="26.31" height="5.59" rx="3"/>
          </g>
        </g>
      </g>
    </g>
  </g>
</svg>
