<?xml version="1.0" encoding="UTF-8" standalone="no"?>
<svg width="153px" height="182px" viewBox="0 0 153 182" version="1.1" xmlns="http://www.w3.org/2000/svg" xmlns:xlink="http://www.w3.org/1999/xlink" xmlns:sketch="http://www.bohemiancoding.com/sketch/ns">
    <!-- Generator: Sketch 3.3.2 (12043) - http://www.bohemiancoding.com/sketch -->
    <title>android</title>
    <desc>Created with Sketch.</desc>
    <defs></defs>
    <g id="Welcome" stroke="none" stroke-width="1" fill="none" fill-rule="evenodd" sketch:type="MSPage">
        <g id="Desktop-HD" sketch:type="MSArtboardGroup" transform="translate(-985.000000, -852.000000)">
            <g id="Framework-support" sketch:type="MSLayerGroup" transform="translate(0.000000, 468.000000)">
                <g id="android" transform="translate(989.000000, 389.000000)" sketch:type="MSShapeGroup">
                    <g id="Group" fill="#A4C639">
                        <g id="b-link" transform="translate(26.363636, 13.229412)" stroke-width="14.4" stroke="#FFFFFF">
                            <g id="b">
                                <ellipse id="Oval" cx="46.1363636" cy="42.7411765" rx="46.1363636" ry="42.7411765"></ellipse>
                                <rect id="Rectangle-path" x="0" y="32.0558824" width="92.2727273" height="92.6058824" rx="22"></rect>
                            </g>
                        </g>
                        <g id="a-link" transform="translate(92.019231, 86.500000) scale(-1, 1) translate(-92.019231, -86.500000) translate(39.038462, 0.000000)" stroke-width="7.2" stroke="#FFFFFF">
                            <g id="a">
                                <path d="M93.7952364,1.05655959 C94.0322397,-0.731100574 94.5718903,-1.37487746 94.9986362,-0.385860433 L94.9986362,-0.385860433 C95.4262522,0.605173151 95.5807182,2.85817187 95.3437709,4.64540967 L90.5236102,41.0027423 C90.2866068,42.7904024 89.7469563,43.4341793 89.3202104,42.4451623 L89.3202104,42.4451623 C88.8925944,41.4541287 88.7381283,39.20113 88.9750757,37.4138922 L93.7952364,1.05655959 L93.7952364,1.05655959 Z" id="Rectangle-path"></path>
                                <rect id="c" x="0" y="55.9705882" width="24.3356643" height="67.6735294" rx="24"></rect>
                                <g id="c-link" transform="translate(43.094406, 105.326471)">
                                    <rect id="c" x="0" y="0" width="24.3356643" height="67.6735294" rx="24"></rect>
                                </g>
                            </g>
                        </g>
                        <g id="a" stroke="#FFFFFF" stroke-width="7.2">
                            <path d="M93.8198675,1.02750706 C94.0536043,-0.73182373 94.5853823,-1.36640402 95.0057126,-0.394294795 L95.0057126,-0.394294795 C95.4268999,0.579796515 95.5789374,2.79507957 95.3451218,4.55500374 L90.4989791,41.0317948 C90.2652423,42.7911256 89.7334643,43.4257059 89.313134,42.4535967 L89.313134,42.4535967 C88.8919467,41.4795053 88.7399092,39.2642223 88.9737248,37.5042981 L93.8198675,1.02750706 L93.8198675,1.02750706 Z" id="Rectangle-path"></path>
                            <rect id="c" x="0" y="55.9705882" width="24.3356643" height="67.6735294" rx="24"></rect>
                            <g id="c-link" transform="translate(43.094406, 105.326471)">
                                <rect id="c" x="0" y="0" width="24.3356643" height="67.6735294" rx="24"></rect>
                            </g>
                        </g>
                        <g id="b" transform="translate(26.363636, 13.229412)">
                            <ellipse id="Oval" cx="46.1363636" cy="42.7411765" rx="46.1363636" ry="42.7411765"></ellipse>
                            <rect id="Rectangle-path" x="0" y="32.0558824" width="92.2727273" height="92.6058824" rx="22"></rect>
                        </g>
                    </g>
                    <g id="Group" transform="translate(24.335664, 33.073529)" stroke="#FFFFFF" stroke-width="7.2" fill="#FFFFFF">
                        <path d="M0,24.6779412 L96.3286713,24.6779412" id="Shape"></path>
                        <ellipse id="Oval" cx="26.8706294" cy="2.03529412" rx="2.02797203" ry="2.03529412"></ellipse>
                        <ellipse id="Oval" cx="69.458042" cy="2.03529412" rx="2.02797203" ry="2.03529412"></ellipse>
                    </g>
                </g>
            </g>
        </g>
    </g>
</svg>