<?xml version="1.0" encoding="UTF-8" standalone="no"?>
<svg width="131px" height="161px" viewBox="0 0 131 161" version="1.1" xmlns="http://www.w3.org/2000/svg" xmlns:xlink="http://www.w3.org/1999/xlink" xmlns:sketch="http://www.bohemiancoding.com/sketch/ns">
    <!-- Generator: Sketch 3.3.2 (12043) - http://www.bohemiancoding.com/sketch -->
    <title>Shape</title>
    <desc>Created with Sketch.</desc>
    <defs></defs>
    <g id="Welcome" stroke="none" stroke-width="1" fill="none" fill-rule="evenodd" sketch:type="MSPage">
        <g id="Desktop-HD" sketch:type="MSArtboardGroup" transform="translate(-347.000000, -857.000000)" fill="#000000">
            <g id="Framework-support" sketch:type="MSLayerGroup" transform="translate(0.000000, 468.000000)">
                <g id="apple" transform="translate(347.031988, 389.219015)" sketch:type="MSShapeGroup">
                    <path d="M108.805969,85.003128 C109.030807,109.216232 130.047256,117.273743 130.28009,117.376587 C130.102386,117.944847 126.922012,128.859329 119.207626,140.133209 C112.538879,149.88005 105.617599,159.591186 94.714538,159.792312 C84.00119,159.989715 80.556251,153.439269 68.307861,153.439269 C56.063171,153.439269 52.235687,159.59117 42.09431,159.989715 C31.57009,160.387969 23.556007,149.449798 16.83184,139.738662 C3.091819,119.874206 -7.4084,83.606376 6.69074,59.124999 C13.694892,46.967448 26.211841,39.268779 39.79787,39.071361 C50.132385,38.874229 59.886939,46.024078 66.204559,46.024078 C72.518173,46.024078 84.372032,37.425758 96.833557,38.68853 C102.050377,38.905659 116.694076,40.79583 126.097198,54.559559 C125.339538,55.029251 108.624267,64.760086 108.805969,85.003151 M88.67147,25.546459 C94.258849,18.783159 98.019477,9.36802 96.993537,1.99999999e-05 C88.93975,0.32371 79.200912,5.36684 73.42411,12.126419 C68.246986,18.112341 63.712989,27.693191 64.93634,36.875778 C73.913231,37.570308 83.083816,32.31406 88.67147,25.54647" id="Shape"></path>
                </g>
            </g>
        </g>
    </g>
</svg>