<?xml version="1.0" encoding="UTF-8" standalone="no"?>
<svg width="293px" height="115px" viewBox="0 0 293 115" version="1.1" xmlns="http://www.w3.org/2000/svg" xmlns:xlink="http://www.w3.org/1999/xlink" xmlns:sketch="http://www.bohemiancoding.com/sketch/ns">
    <!-- Generator: Sketch 3.3.2 (12043) - http://www.bohemiancoding.com/sketch -->
    <title>canjs</title>
    <desc>Created with Sketch.</desc>
    <defs></defs>
    <g id="Welcome" stroke="none" stroke-width="1" fill="none" fill-rule="evenodd" sketch:type="MSPage">
        <g id="Desktop-HD" sketch:type="MSArtboardGroup" transform="translate(-602.000000, -904.000000)" fill="#3E7BBF">
            <g id="Framework-support" sketch:type="MSLayerGroup" transform="translate(0.000000, 468.000000)">
                <g id="canjs" transform="translate(748.901495, 493.219015) scale(1, -1) translate(-748.901495, -493.219015) translate(602.401495, 436.219015)" sketch:type="MSShapeGroup">
                    <path d="M220.924818,110.871833 C212.900122,104.32106 218.468279,90.400667 229.113285,90.400667 C235.991596,90.400667 240.740907,94.9862081 240.740907,101.86452 C240.740907,112.345756 229.277054,117.586375 220.924818,110.871833 L220.924818,110.871833 Z" id="Shape"></path>
                    <path d="M22.9277054,103.665982 C8.84354351,98.9166719 0,82.7035088 0,61.5772659 C0,29.9697863 14.9030085,17.0320097 47.1655654,20.7987042 C60.4308807,22.2726281 61.085958,22.9277054 58.1381101,28.6596317 C56.8279555,31.2799409 55.6815703,34.8828661 55.6815703,36.6843286 C55.6815703,39.6321765 54.6989543,39.9597151 45.0365642,39.6321765 C30.6248636,39.1408685 27.6770158,42.0887163 26.6943999,57.6468021 C24.8929373,81.2295848 31.9350182,89.909359 49.4583359,86.4702032 C54.2076463,85.6513566 59.4482647,84.341202 61.085958,83.5223554 C63.5424978,82.5397394 63.8700365,83.3585861 63.8700365,91.5470523 C63.8700365,99.2442105 63.3787285,100.881904 60.2671113,102.683366 C55.1902623,105.303676 30.1335557,105.958753 22.9277054,103.665982 L22.9277054,103.665982 Z" id="Shape"></path>
                    <path d="M82.7035088,104.812368 C81.8846621,104.484829 78.281737,103.829752 75.0063505,103.174674 L68.7831162,102.192058 L68.7831162,92.6934375 L68.7831162,83.0310474 L75.4976585,84.5049713 C86.6339725,87.1252805 100.718134,87.1252805 103.665982,84.5049713 C105.303676,83.3585861 106.450061,80.2469689 106.450061,77.6266597 L106.450061,72.8773493 L93.8398228,72.8773493 C70.0932708,72.71358 60.59465,64.6888831 60.59465,45.0365642 C60.59465,32.2625569 64.5251138,24.729168 72.8773493,21.1262428 C79.9194302,18.178395 82.5397394,18.178395 93.0209762,21.2900122 L101.536981,23.9103213 L101.536981,31.1161716 C101.536981,38.3220219 101.536981,38.3220219 96.6239013,37.5031753 C89.7455897,36.0292513 86.7977419,39.1408685 86.7977419,47.3293347 C86.7977419,50.9322599 87.4528192,54.8627236 88.1078965,56.0091089 C89.7455897,58.4656488 97.4427479,61.4134966 102.519597,61.4134966 C106.450061,61.4134966 106.450061,61.4134966 106.450061,43.5626403 C106.450061,22.1088588 107.596446,20.4711655 123.318301,20.4711655 L132.980691,20.4711655 L132.325614,55.5178009 C131.834306,88.1078965 131.506767,91.0557443 128.39515,95.3137467 C122.990763,102.683366 117.095067,104.812368 99.8992878,105.139906 C91.3832829,105.303676 83.6861247,105.303676 82.7035088,104.812368 L82.7035088,104.812368 Z" id="Shape"></path>
                    <path d="M177.689717,103.665982 C175.069408,102.683366 171.302713,100.881904 169.501251,99.7355185 C165.079479,96.6239013 162.45917,96.95144 161.312784,100.718134 C160.330168,103.502213 158.856245,103.993521 148.866316,103.993521 L137.566232,103.993521 L137.566232,62.2323432 L137.566232,20.4711655 L150.667778,20.4711655 L163.769324,20.4711655 L163.769324,50.6047212 L163.769324,80.7382769 L170.320097,83.3585861 C177.362178,86.1426646 181.620181,86.6339725 185.714414,84.9962793 C188.007184,84.1774327 188.334723,79.5918916 188.334723,52.0786451 L188.334723,20.1436269 L198.81596,20.7987042 C215.029123,21.7813201 214.537815,20.6349349 214.537815,57.6468021 C214.537815,93.0209762 213.39143,98.7529025 204.875425,103.010905 C199.307268,105.958753 185.059336,106.286291 177.689717,103.665982 L177.689717,103.665982 Z" id="Shape"></path>
                    <path d="M257.936686,83.5223554 C249.256912,80.4107382 244.016293,74.1875039 244.016293,66.9816536 C244.016293,56.6641862 247.946757,51.7511065 261.375842,45.6916415 C270.383154,41.433639 273.494772,39.1408685 273.494772,36.848098 C273.494772,34.7190967 272.020848,33.2451728 269.236769,32.5900955 C265.142536,31.6074796 253.514914,32.5900955 248.765604,34.3915581 C247.12791,35.0466354 245.653986,33.5727115 244.343832,29.806017 C243.197447,26.8581692 242.3786,23.5827827 242.3786,22.6001668 C242.3786,16.8682404 272.020848,15.0667778 281.683238,20.1436269 C292.983321,26.2030919 296.094938,40.7785617 287.906472,49.6221053 C285.777471,51.7511065 279.390467,56.0091089 273.494772,58.7931874 C259.083071,65.8352684 259.41061,68.7831162 274.149849,68.7831162 L285.449932,68.7831162 L287.742703,74.3512732 C290.526781,80.9020462 289.707935,81.7208928 277.916543,84.341202 C267.926615,86.4702032 265.961383,86.3064339 257.936686,83.5223554 L257.936686,83.5223554 Z" id="Shape"></path>
                    <path d="M220.761049,53.8801077 L220.269741,23.4190134 L213.882738,17.687087 L207.659503,11.9551607 L210.607351,5.56815703 C213.882738,-1.63769324 215.6842,-1.80146257 226.329206,5.07684905 C237.301751,12.11893 238.284367,15.5580858 238.775675,52.0786451 L239.430752,84.341202 L230.423439,84.341202 L221.416126,84.341202 L220.761049,53.8801077 L220.761049,53.8801077 Z" id="Shape"></path>
                </g>
            </g>
        </g>
    </g>
</svg>