<?xml version="1.0" encoding="utf-8" ?>
<svg width="256px" height="245px" viewBox="0.1 31.4 256 244.5" version="1.1" xmlns:svg="http://www.w3.org/2000/svg" xmlns="http://www.w3.org/2000/svg" xmlns:xlink="http://www.w3.org/1999/xlink" preserveAspectRatio="xMinYMin meet">
    <path fill="#FFFFFF" d="M57.9,219.3c0.2-0.5,0.4-1,0.6-1.5l0.1-0.2c0.5-1.2,1-2.5,1.5-3.7c0.6-1.6,1.2-3.3,1.8-4.9c0.4-0.9,0.7-1.8,1-2.8c0.8-2.2,1.9-5.1,3.2-7.9c0.8-1.7,1.4-2.9,2.1-4c0.8-1.3,1.6-2.5,2.5-3.7l0.7-1l1.1-0.7c0.1-0.1,0.3-0.2,0.5-0.3c0.5-0.3,1.1-0.5,1.5-0.7c0.7-0.3,1.6-0.6,2.6-0.9c1.4-0.4,3-0.8,4.9-1.2c2.8-0.6,5.8-1.2,9.6-1.8c5.7-0.9,11.8-1.7,19.1-2.5c12.9-1.4,25.8-2.4,38.2-3c6.6-0.3,11.6-0.4,16.3-0.4c1,0,2,0,3,0c3.1,0.1,6.7,0.2,10,0.7c1.2,0.2,2.3,0.4,3.1,0.7c0.3,0.1,0.6,0.2,0.7,0.3l1,0.4l0.8,0.7c0.3,0.3,0.6,0.6,0.9,0.9c1.1,1.1,2.3,2.4,3.5,3.9c3.8,4.8,7.2,10.6,10.2,17.2c2.9,6.4,4.7,12.1,5.8,17.7l1.5,7.9h-18.4l-1.1-5.3c-1.2-5.6-16.3-20.4-23.8-23.3c-0.8-0.3-4-1.2-13.9-1.2c-20.4,0-49.2,3.6-53.3,4.5c-4.9,2.3-12.4,11.9-16.7,21.5l-1.8,3.9" />
    <path fill="#BA8449" d="M182.9,190.1c-0.9-1.2-1.9-2.3-3-3.3c-0.2-0.2-0.5-0.5-0.7-0.7c0,0-0.1,0-0.2-0.1c-0.5-0.2-1.2-0.3-1.9-0.4c-2.9-0.4-6-0.5-9.1-0.6c-6.3-0.1-12.6,0.1-18.9,0.4c-12.6,0.6-25.3,1.6-37.8,3c-6.3,0.7-12.6,1.5-18.8,2.5c-3.1,0.5-6.2,1-9.2,1.7c-1.5,0.3-3,0.7-4.4,1.1c-0.7,0.2-1.4,0.4-2,0.7c-0.3,0.1-0.6,0.2-0.7,0.4c0,0-0.1,0-0.1,0.1c-0.7,1-1.4,2-2.1,3.1c-0.7,1.1-1.2,2.3-1.8,3.5c-1.1,2.4-2.1,4.9-3,7.4s-1.9,5.1-2.8,7.7c-0.5,1.3-1,2.6-1.6,3.9c-0.2,0.6-0.5,1.2-0.8,1.8h8.5c4.6-10.3,13.3-22.1,20.5-25c2-0.8,34.2-4.8,55.5-4.8c7.9,0,13.3,0.6,16.3,1.7c8.7,3.4,26.1,19.5,27.9,28.2h4.9c-1-5.5-3-10.9-5.3-16.1C189.7,200.3,186.6,194.8,182.9,190.1" />
    <path fill="#FFFFFF" d="M179.1,185.9L179.1,185.9L179.1,185.9L179.1,185.9L179.1,185.9L179.1,185.9z" />
    <path fill="#BA8449" d="M179.1,185.9L179.1,185.9L179.1,185.9L179.1,185.9L179.1,185.9L179.1,185.9z" />
    <path fill="#FFFFFF" d="M192.1,228.6l-1-5.4c-0.9-4.5-2.4-9.3-4.8-14.6c-2.6-5.6-5.4-10.5-8.6-14.4c-0.6-0.8-1.2-1.5-1.8-2.1c-2.5-0.4-5.4-0.4-8-0.5c-0.9,0-1.8,0-2.8,0c-4.5,0-9.3,0.1-15.7,0.4c-12.2,0.6-24.7,1.6-37.4,3c-7.1,0.8-13,1.6-18.4,2.4c-3.5,0.5-6.3,1.1-8.8,1.6c-1.6,0.4-2.8,0.7-3.9,1c-0.2,0-0.3,0.1-0.4,0.1c-0.2,0.4-0.5,0.7-0.7,1.1c-0.5,0.8-0.9,1.7-1.6,2.9c-1.1,2.3-2,4.7-2.8,6.8c-0.4,0.9-0.7,1.8-1,2.7c-0.6,1.7-1.2,3.4-1.9,5.1c-0.5,1.3-1.1,2.6-1.6,4l-0.1,0.2c-0.2,0.6-0.5,1.2-0.7,1.7l-1.8,4H56.6l-1.7-0.8l-0.2-0.1c-4-2.3-4-5.7-3.9-7.1l0-0.3l0.2-0.9l0.3-1.1c0.2-0.7,0.4-1.5,0.6-2.2c0.4-1.5,0.9-2.9,1.4-4.3c0.9-2.6,2-5.4,3.3-8.4c1.4-3.1,2.7-5.8,4.2-8.3c0.7-1.3,1.5-2.6,2.5-4.1c0.9-1.4,1.9-2.8,2.9-4.1c0.9-1.1,1.7-1.8,2.3-2.2l0.1,0c0.6-0.5,1.2-0.8,1.5-0.9c0.9-0.5,1.6-0.8,2.1-1c1.2-0.5,2.3-0.8,3.2-1.1c2-0.6,3.9-1,5.3-1.3c2.9-0.6,6-1.2,9.9-1.8c5.8-0.9,11.9-1.6,19.4-2.4c13-1.3,26-2.3,38.6-2.8c6-0.2,10.7-0.4,15-0.4c1.6,0,3.1,0,4.6,0c3.2,0.1,6.8,0.2,10.7,0.8h0.1c0.9,0.2,2.3,0.4,3.9,0.9l0.1,0c0.4,0.2,1,0.4,1.7,0.7c0.5,0.3,0.9,0.5,1.2,0.7l0.5,0.4l0.4,0.3l0.4,0.4c0.4,0.4,0.7,0.7,1.1,1.1c1.3,1.3,2.5,2.7,3.8,4.4c4,5.2,7.5,11.2,10.7,18.3c1.5,3.3,2.8,6.6,3.8,9.8c1.1,3.5,1.9,6.8,2.5,10l1.2,7.7h-18.2V228.6z" />
    <path fill="#FFFFFF" d="M64.3,228.6l4.4-9.5c3.7-7.9,12.6-22.4,22.5-26.5l0.2-0.1c3.3-1.2,36.7-5.1,57.1-5.1c11.4,0,15.7,1.1,17.9,2c10.3,4,28.2,20.9,30.6,30.9l2,8.2H64.3z" />
    <path fill="#FFFFFF" d="M185.4,228.6l-1.2-5.1c-1.1-4.7-15.2-18.8-22.5-21.7c-0.7-0.3-3.6-1.1-13.2-1.1c-19.6,0-48,3.5-52.6,4.4c-3.8,1.9-10.7,10-15.2,19.6l-1.8,3.8H62.3l4.2-9.3c4.9-11,14.6-24.6,24.1-28.4c3.7-1.5,37.5-5.3,58-5.3c8.9,0,14.9,0.7,18.6,2.1c10.3,4,29.6,21.4,32,33l1.6,8H185.4z" />
    <path fill="#FFFFFF" d="M193.1,228.6l-1.9-1.8c-7.2-6.7-9.2-20.6-7-26.3c1.5-3.8,4.7-5.1,7.1-5.1c0.7,0,1.3,0.1,1.9,0.3c1.3-0.1,4.3-2.6,5.2-4c1.4-2.6,4.1-4.2,7.4-4.2c4.9,0,12.9,3.9,15.5,7.6c1.5,2.1,1.9,4.6,1.1,6.8c-0.1,0.2-0.2,0.6-0.4,1.1c-2.7,8.1-6.2,18-9,22.6l-1.9,3.1L193.1,228.6L193.1,228.6z" />
    <path fill="#FFFFFF" d="M192.5,228.6l6.2-10.1c3-4.9,5.1-8.9,6.5-12c-3.5,2.5-8.4,4-15.7,4.4l-0.2-0.2l-0.1,0.7c-4.3,0-7.8-3.5-8-7.8c-0.1-2.1,0.7-4.2,2.1-5.8c1.4-1.6,3.4-2.5,5.5-2.6c7.2-0.3,8.1-2,9.4-4.5c1.8-3.4,5.7-5.4,10.8-5.4c1.3,0,2.6,0.1,3.8,0.4c6.3,1.4,10.4,6.2,10.7,12.4c0.3,6.3-3.2,15.5-10.2,27.3l-1.9,3.2L192.5,228.6L192.5,228.6z" />
    <path fill="#FFFFFF" d="M218.8,208.9c-8.1,0-16.9-5.3-21.4-10.5c-4.1-4.7-4.5-8.9-4.1-11.6c0.5-3.3,3.2-6.6,8.1-6.6c0.9,0,1.8,0.1,2.6,0.2c0.8-3.6,2.7-11.1,10.4-11.1c0.4,0,0.7,0,1.1,0c3.7,0.4,6.5,2.7,7.6,6.2c1.2-0.6,2.6-1.1,4.2-1.1c2.4,0,4.7,1,6.4,2.8c2.7,2.9,3.3,6.9,1.6,10.7c1.8,1.1,3.2,2.8,3.8,5c0.8,2.8,0.3,5.8-1.5,8.2c-3.5,4.9-11.6,7.2-18,7.4C219.2,208.9,219,208.9,218.8,208.9" />
    <path fill="#FFFFFF" d="M210.8,44.2c-7.3,4.6-15.3,15.1-25.1,29.5c-1.5,2.3-4,3.5-6.8,3.5c-3.6,0-8.2-2.2-13.5-6.5c-8.4-6.8-8.6-10.6-8.7-12.1c-0.2-4,2.8-7.4,7-7.8c8.1-0.7,14.8-5.6,21.3-10.3c6.5-4.7,12.5-9,19.7-9c1.4,0,2.9,0.2,4.3,0.5" />
    <path fill="#FFF8EE" d="M164.3,57.5c19.6-1.8,31.1-22.1,43-19c-8,5-15.9,15-27,31.4C177.6,73.8,158.9,58,164.3,57.5" />
    <path fill="#FFFFFF" d="M37.3,48.2c4.9-4.5,11.5-6.8,19.6-6.8c7,0,15.3,1.7,24.6,5.1c2.5,0.9,5.8,1.1,8.3,1.1c0.7,0,1.4,0,2,0c0.6,0,1.2,0,1.7,0c2.3,0,7.2,0,9.3,4.5c0.7,1.7,1.6,5.2-1.1,9.3c-3.3,5.1-12,10.5-20.4,10.5c-0.1,0-0.3,0-0.4,0c-4.5-0.1-8.7-2.5-13.6-5.2c-6.1-3.4-13-7.3-21.2-7.3c-1.1,0-2.3,0.1-3.4,0.2" />
    <path fill="#FFFFFF" d="M188.1,96.7c-3.6,0-10.4-1.5-14.7-11.7c-2.4-5.4-3.2-11.5-3.2-14.9c0-7,3.7-8.9,6-9.4c1.6-1.6,4.6-5.7,6.8-8.8c9.1-12.4,15.7-20.5,23.4-20.5c1.3,0,2.5,0.2,3.7,0.7c10.3,4.1,15.3,12.8,13.6,23.8c-1.2,8.1-6.3,17.7-13.8,26.5c-3.5,4.1-12.6,13.7-20.7,14.3C188.8,96.7,188.5,96.7,188.1,96.7" />
    <path fill="#FFFFFF" d="M69.9,100.5c-0.9,0-1.8,0-2.6-0.2c-12.8-2.1-28.8-15-34.8-28.3c-4.1-9.1-2.3-15.3,0-18.9c3.7-5.9,9.2-9,16-9c8.2,0,16.4,4.5,23.6,8.4c2.8,1.5,6.8,3.7,8.5,4.1c0.6-0.2,1.2-0.3,1.9-0.3c2.6,0,5,1.4,6.4,3.8c3.3,5.8,1.3,21.4-3.9,30.4C81.4,97.1,76,100.5,69.9,100.5L69.9,100.5z" />
    <path fill="#FFFFFF" d="M114.5,212.1c-30,0-59.7-14.7-69.6-25.4c-10.3-11.1-14-23.7-11.2-37.5c2.4-11.3,8.7-21.4,14.2-30.4c3.8-6.2,7.4-12,8.4-16.2c12.2-53.9,42.8-60.8,68.1-60.8c1.6,0,3.3,0,5.2,0.1c53.9,1.6,59.3,27.6,62.5,43.2c0.6,2.9,1.2,5.6,1.9,7.4c18.1,44.4,21.1,71,10,89c-10.9,17.7-34.8,26.4-82.4,30.3C119.3,212,116.9,212.1,114.5,212.1L114.5,212.1z" />
    <path fill="#FFFFFF" d="M113.4,212.2c-30.6,0-58.9-15.2-68.4-25.5c-10.3-11.1-14-23.7-11.2-37.5c2.4-11.3,8.7-21.4,14.2-30.4c3.8-6.2,7.4-12,8.4-16.2c12.2-53.9,42.8-60.8,68.1-60.8c1.6,0,3.3,0,5.2,0.1c53.9,1.6,59.3,27.6,62.5,43.2c0.6,2.9,1.2,5.6,1.9,7.4c17.8,43.7,20.7,70.1,9.8,88.1c-12.5,20.7-41.9,27.4-82.1,31.2C119,212.1,116.2,212.2,113.4,212.2" />
    <path fill="#FFFFFF" d="M191.3,174.6c0.4-0.9,0.8-1.9,1.2-2.8c4.1-9.8,7.2-18.4,2.3-23.9c-5.8-6.4-30.3-18-52.1-28.2C101,100,75.2,87.3,71.5,74.7c-0.9-3.2-0.5-6.5,1.2-9.3C79.9,54.1,100,42,127.5,42c0.3,0,0.5,0,0.8,0c25.9,0.2,44.7,7.7,56,22.1c9.6,12.2,11.7,26.5,13.3,36.9c0.5,3.5,1.2,8,1.9,9.2c19.6,33.7,10.6,58.6,3.5,70.3L191.3,174.6z" />
    <path fill="#FFFFFF" d="M170.8,135.8c-10.1,0-27-2.5-32.8-8.1c-4.6-4.4-6.3-11.7-8.1-18.8c-0.7-3-1.9-7.8-3-10c0,0-0.1,0-0.1,0c-0.4,1.1-0.9,2.5-1.3,3.6c-2.7,7.6-6.5,18.1-14.4,23.8c-3.4,2.5-15.7,4.7-25.2,4.7l0,0c-9.5,0-16.7-2-21.5-6.1c-6.9-5.8-12.1-16.5-15.6-31.8c-0.2-0.1-0.3-0.2-0.5-0.3c-1.6-1.1-3.7-2.4-4.8-4.7c-1.8-3.6-1.1-10,0.8-13.4c1.4-2.5,3.8-4.1,6.4-4.3c0.3,0,0.5,0,0.9,0c1.4,0,2.8,0.2,4.4,0.5s3.5,0.6,5.1,0.6c0.4,0,0.7,0,0.9,0c9.5-1.4,18.4-2,26.5-2c19.7,0,30.1,4,34,5.6c0.3,0.1,0.6,0.2,0.8,0.3c1.1,0.3,3.2,0.7,5.4,0.7c0.8,0,1.6,0,2.3-0.2c8.9-1.4,17.4-2,25.2-2c20.8,0,31.8,4.7,36.6,6.8c0.4,0.2,0.8,0.4,1.1,0.4c0,0,0.2,0,0.4,0c1.3,0,3.2-0.4,4.8-0.7c1.2-0.3,2.4-0.5,3.5-0.7c0.3,0,0.6,0,0.9,0c3.1,0,5.9,1.8,7.6,4.8c1.9,3.5,3.2,10.8,0.5,15c-1.8,2.8-4.7,4.1-7.1,5.2c-0.3,0.1-0.7,0.3-1,0.5c-0.8,1.4-2.2,4.2-3.4,6.5c-3.5,6.8-7.4,14.6-11,18.8C185.9,134.1,179.9,135.8,170.8,135.8" />
    <g>
        <defs>
            <rect id="D_1_" x="42.5" y="75" width="169.5" height="59.2" />
        </defs>
        <clipPath id="D_2_">
            <use xlink:href="#D_1_" overflow="visible" />
        </clipPath>
        <g opacity="0.3" clip-path="url(#D_2_)">
            <g transform="translate(443.9775,368.7813)">
                <path fill="#FFFFFF" d="M-277.2-234.6c-8,0-19.3-1.2-27.4-6.9c-4.6-3.3-6.7-9.9-9.6-20.5c-0.8-3-2-7.2-2.9-9.3l0,0c-0.5,1.2-1.1,2.8-1.6,4.1c-3,8.1-7.1,19.1-14.6,23.7c-3.9,2.4-16,4.6-25.4,4.6c-10.1,0-17.4-2.3-21.6-6.7c-10.7-11.2-12.8-21.9-14.1-28.2c-0.2-0.9-0.4-2.1-0.6-2.8c-6.3-3.3-6.7-8.2-6.6-10.3c0.3-3.9,3.3-6.8,7-6.8c2.5,0,4.1,1.2,5.3,2c0.1,0.1,0.2,0.2,0.4,0.2c0.1,0,0.4,0.1,0.5,0.2c1.6,0.5,6.3,1.8,7.3,7.9c0.2,1.1,1.8,7.5,4.4,14.2c4.1,10.7,7,12.5,7.3,12.6c3.4,1.2,7.4,1.8,11.9,1.8c7.4,0,13.6-1.6,16.1-2.4c1.5-2.3,4.5-8.3,6.6-12.4c6.3-12.5,7.4-14.4,10.1-15.8c1.5-0.8,3.3-1.2,5.6-1.2c3,0,7.3,0.7,9.3,1.6c4.6,2,7,8,12.4,23.5c1,2.8,2.2,6.4,3,8.2c4,1.9,13.1,3.2,22.6,3.2c2.7,0,4.7-0.1,6-0.2c0.9-1.9,2.2-4.6,3.3-6.9c7.6-16.2,8.8-18.1,10.7-19.6c3.3-2.5,9.1-4.2,12.4-4.2c4.4,0,6.8,2.9,7.4,5.7c1.1,5.8-4.6,8-6.5,8.7c-0.5,0.2-1.2,0.5-1.7,0.7c-0.7,1.2-2,3.8-3,5.9c-8.2,16-10.9,20.4-14,22.3C-261-235.6-270.2-234.6-277.2-234.6" />
            </g>
        </g>
    </g>
    <g>
        <defs>
            <rect id="D_3_" x="45" y="70.7" width="33.4" height="16.2" />
        </defs>
        <clipPath id="D_4_">
            <use xlink:href="#D_3_" overflow="visible" />
        </clipPath>
        <g opacity="0.3" clip-path="url(#D_4_)">
            <g transform="translate(285.2881,440.1162)">
                <path fill="#FFFFFF" d="M-223.9-353.3c-1.2,0-3.5-0.2-8.1-1.7c-1.2-0.4-2.3-0.8-3-1.1c-1.5-0.6-5.4-2.1-5.4-6.7v-6.7h6.6c0.9,0,1.5,0.2,2,0.3c1.4,0.2,5.9,0.5,7.4,0.6l0.9,0.1c1.2,0,4.9-0.5,6.5-0.7c2-0.3,2.6-0.4,3.4-0.4h5.7l0.9,5.6c0.4,2.8-1.1,6.3-4.8,7.4c-0.2,0.1-0.9,0.3-1.5,0.5c-3.5,1.3-7,2.5-10,2.6C-223.5-353.3-223.7-353.3-223.9-353.3" />
            </g>
        </g>
    </g>
    <g>
        <defs>
            <rect id="D_5_" x="181" y="79.3" width="25.4" height="17.2" />
        </defs>
        <clipPath id="D_6_">
            <use xlink:href="#D_5_" overflow="visible" />
        </clipPath>
        <g opacity="0.3" clip-path="url(#D_6_)">
            <g transform="translate(484.2881,425.6104)">
                <path fill="#FFFFFF" d="M-290.8-329.2c-2.2,0-4.4-0.9-7.4-3c-2.9-2-5.1-4-5.1-7.5v-6.7l6.5,0c0.9,0,1.8,0.2,2.7,0.6c0.7,0.3,3.4,1.2,4.6,1.5c0.4,0,1.2-0.2,2.8-0.5c0.8-0.2,1.3-0.2,2-0.2h5.7l0.9,5.6c0.4,2.7-0.8,6.1-4.5,7.4c-0.2,0.1-0.8,0.4-1.2,0.6c-1.8,0.9-3.9,1.9-6,2.3C-290-329.2-290.4-329.2-290.8-329.2" />
            </g>
        </g>
        <path fill="#FFFFFF" d="M171.7,243.3h-24.6V222h24.6V243.3z" />
    </g>
    <path fill="#BA8449" d="M182.9,190.1c-0.9-1.2-1.9-2.3-3-3.3c-0.2-0.2-0.5-0.5-0.7-0.7c0,0-0.1,0-0.2-0.1c-0.5-0.2-1.2-0.3-1.9-0.4c-2.9-0.4-6-0.5-9.1-0.6c-6.3-0.1-12.6,0.1-18.9,0.4c-12.6,0.6-25.3,1.6-37.8,3c-6.3,0.7-12.6,1.5-18.8,2.5c-3.1,0.5-6.2,1-9.2,1.7c-1.5,0.3-3,0.7-4.4,1.1c-0.7,0.2-1.4,0.4-2,0.7c-0.3,0.1-0.6,0.2-0.7,0.4c0,0-0.1,0-0.1,0.1c-0.7,1-1.4,2-2.1,3.1c-0.7,1.1-1.2,2.3-1.8,3.5c-1.1,2.4-2.1,4.9-3,7.4s-1.9,5.1-2.8,7.7c-0.5,1.3-1,2.6-1.6,3.9c-0.2,0.6-0.5,1.2-0.8,1.8h8.5c4.6-10.3,13.3-22.1,20.5-25c2-0.8,34.2-4.8,55.5-4.8c7.9,0,13.3,0.6,16.3,1.7c8.7,3.4,26.1,19.5,27.9,28.2h4.9c-1-5.5-3-10.9-5.3-16.1C189.7,200.3,186.6,194.8,182.9,190.1" />
    <path fill="#BA8449" d="M179.1,185.9L179.1,185.9L179.1,185.9L179.1,185.9L179.1,185.9L179.1,185.9z" />
    <path fill="#895B2E" d="M179.1,185.9L179.1,185.9L179.1,185.9L179.1,185.9L179.1,185.9L179.1,185.9z M196.9,203.8c-2.7-6-5.8-11.7-9.9-16.9c-1-1.3-2.1-2.6-3.3-3.8c-0.3-0.3-0.6-0.6-0.9-0.9l-0.2-0.2l-0.1-0.1l-0.2-0.2c-0.2-0.1-0.4-0.2-0.5-0.3c-0.3-0.2-0.6-0.3-0.9-0.4c-1.1-0.4-1.9-0.5-2.8-0.7c-3.4-0.5-6.6-0.6-9.8-0.7c-6.5-0.1-12.8,0-19.2,0.3c-12.8,0.5-25.5,1.5-38.2,2.8c-6.3,0.7-12.7,1.4-19.1,2.4c-3.2,0.5-6.3,1-9.5,1.7c-1.6,0.4-3.2,0.7-4.8,1.2c-0.8,0.2-1.6,0.5-2.5,0.9c-0.4,0.2-0.9,0.4-1.4,0.7c-0.2,0.2-0.5,0.3-0.8,0.5c-0.3,0.2-0.6,0.5-1,1l0,0c-0.9,1.1-1.8,2.4-2.6,3.6c-0.8,1.2-1.6,2.5-2.3,3.8c-1.4,2.5-2.7,5.1-3.9,7.7c-1.1,2.6-2.2,5.2-3.1,7.9c-0.5,1.3-0.9,2.6-1.2,4c-0.2,0.7-0.4,1.3-0.6,2l-0.3,1l-0.1,0.5c0,0.1,0.2,0.2,0.6,0.5l0.1,0h5.8c0.3-0.6,0.5-1.2,0.8-1.8c0.5-1.3,1.1-2.6,1.6-3.8c1-2.6,1.9-5.1,2.8-7.7c0.9-2.5,1.9-5.1,3-7.4c0.6-1.2,1.2-2.3,1.8-3.5c0.7-1.1,1.3-2.1,2.1-3.1c0,0,0.1,0,0.1-0.1c0.2-0.1,0.5-0.2,0.7-0.4c0.6-0.2,1.3-0.5,2-0.7c1.4-0.4,2.9-0.8,4.4-1.1c3-0.7,6.1-1.2,9.2-1.7c6.2-1,12.5-1.8,18.8-2.5c12.6-1.4,25.2-2.4,37.8-3c6.3-0.3,12.6-0.5,18.9-0.4c3.1,0.1,6.3,0.2,9.1,0.6c0.7,0.1,1.4,0.3,1.9,0.4c0.1,0,0.2,0,0.2,0.1c0.2,0.2,0.5,0.5,0.7,0.7c1.1,1.1,2,2.2,3,3.3c3.7,4.7,6.8,10.2,9.4,15.8c2.3,5.2,4.3,10.6,5.3,16.1h5c-0.5-3.1-1.3-6.1-2.2-9C199.4,209.8,198.2,206.8,196.9,203.8" />
    <path fill="#FFF8EE" d="M164.1,195.7c-2.6-1-7.9-1.6-15.5-1.6c-21.4,0-53,4-54.7,4.7c-6.5,2.6-14.6,13.6-19.1,23.2h115.9C188.8,214.5,172.7,199.1,164.1,195.7" />
    <path fill="#E5D0AE" d="M164.8,193.8c-2.9-1.1-8.4-1.7-16.3-1.7c-21.3,0-53.5,4-55.5,4.8c-7.3,3-15.9,14.7-20.5,25h2.2c4.5-9.5,12.6-20.5,19.1-23.2c1.7-0.7,33.3-4.7,54.7-4.7c7.6,0,12.9,0.5,15.5,1.6c8.6,3.3,24.7,18.8,26.6,26.3h2C190.9,213.3,173.5,197.2,164.8,193.8" />
    <path fill="#BA8449" d="M204.4,194.7c-1.2,2.5-7.5,8.9-12.8,7.4c-2.8-0.8-2.3,14,4.1,19.9h11.6c3.2-5.1,8.2-20.7,8.8-22.3C216.8,197.8,205.6,192.2,204.4,194.7" />
    <path fill="#895B2E" d="M216.7,198.4c-0.2-3.2-2.1-5.5-5.5-6.3c-2.7-0.6-6.3-0.1-7.2,1.6c-1.8,3.4-4,7.5-14.9,8.1c-0.7,0-1.3,0.7-1.3,1.4c0,0.7,0.7,1.3,1.4,1.3c11.4-0.5,14.7-4.9,17.1-9.4c0.5-0.4,3.2-0.9,5.4,0c1.6,0.7,2.3,1.8,2.4,3.5c0.3,6.2-6.2,17.7-9.7,23.5h3.1C211.4,215.3,217,204.8,216.7,198.4" />
    <g>
        <defs>
            <rect id="D_7_" x="193.5" y="196.5" width="23.5" height="27.3" />
        </defs>
        <clipPath id="D_8_">
            <use xlink:href="#D_7_" overflow="visible" />
        </clipPath>
        <g opacity="0.15" clip-path="url(#D_8_)">
            <g transform="translate(485.335,236)">
                <path fill="#E3AB5E" d="M-291.1-13.7c7.1-1.7,13.4-8.8,13.9-18.9c0.1-1.9-3.8-5.5-3.8-6.5s11.9,0.2,12.5,3c0.5,2.8-7.4,19.7-10.1,22.5C-281.2-10.9-295.3-12.7-291.1-13.7" />
            </g>
        </g>
    </g>
    <path fill="#FCD4C3" d="M199.8,187.8c-0.9,6.2,11.2,14.7,19.4,14.5c6.8-0.2,14.5-3.4,13.4-7.2c-1.1-3.9-7.7,0.7-8.3-2c-0.5-2.6,7.7-7.5,4.4-11.1c-3.1-3.3-6.7,5.2-10.3,4c-3.6-1.2,0.7-9.5-3.8-10c-5.3-0.5-3.3,11.3-7.3,11.5C204.5,187.8,200.1,185.8,199.8,187.8" />
    <path fill="none" stroke="#F8A38F" stroke-width="2" stroke-miterlimit="10" d="M199.8,187.8c-0.9,6.2,11.2,14.7,19.4,14.5c6.8-0.2,14.5-3.4,13.4-7.2c-1.1-3.9-7.7,0.7-8.3-2c-0.5-2.6,7.7-7.5,4.4-11.1c-3.1-3.3-6.7,5.2-10.3,4c-3.6-1.2,0.7-9.5-3.8-10c-5.3-0.5-3.3,11.3-7.3,11.5C204.5,187.8,200.1,185.8,199.8,187.8z" />
    <g>
        <defs>
            <rect id="D_9_" x="203.2" y="182.8" width="7.8" height="6.4" />
        </defs>
        <clipPath id="D_10_">
            <use xlink:href="#D_9_" overflow="visible" />
        </clipPath>
        <g opacity="0.5" clip-path="url(#D_10_)">
            <g transform="translate(498.9385,288.042)">
                <path fill="#FCD4C3" d="M-295.7-100.3c1.3,1,6,2.3,6.7,0.6c0.8-1.7,1.4-5.1,0.9-5.6c-0.4,1.6-0.9,4.6-2.6,5.3C-292-99.5-294.8-100.1-295.7-100.3" />
            </g>
        </g>
    </g>
    <g>
        <defs>
            <rect id="D_11_" x="215.9" y="181.2" width="7.7" height="7.2" />
        </defs>
        <clipPath id="D_12_">
            <use xlink:href="#D_11_" overflow="visible" />
        </clipPath>
        <g opacity="0.5" clip-path="url(#D_12_)">
            <g transform="translate(518.459,298.042)">
                <path fill="#FCD4C3" d="M-302.3-116.9c-0.2,1.1-1.1,6.3,1.6,7c2.3,0.6,4-0.8,5.8-3.7c-1,0.9-3.5,3.1-5.4,2.3C-302.2-112.2-302.4-114.2-302.3-116.9" />
            </g>
        </g>
    </g>
    <g>
        <defs>
            <rect id="D_13_" x="204.5" y="193" width="15.8" height="8.6" />
        </defs>
        <clipPath id="D_14_">
            <use xlink:href="#D_13_" overflow="visible" />
        </clipPath>
        <g opacity="0.25" clip-path="url(#D_14_)">
            <g transform="translate(500.876,276.958)">
                <path fill="#FCD4C3" d="M-296.3-81.8c13.6-6.7,16.4,4.2,15.7,6.4C-286-74.5-295.5-80.1-296.3-81.8" />
            </g>
        </g>
    </g>
    <g>
        <defs>
            <rect id="D_15_" x="223" y="190.9" width="5.7" height="5" />
        </defs>
        <clipPath id="D_16_">
            <use xlink:href="#D_15_" overflow="visible" />
        </clipPath>
        <g opacity="0.5" clip-path="url(#D_16_)">
            <g transform="translate(530.751,283.3955)">
                <path fill="#FCD4C3" d="M-306.4-92.5c-2.3,2.6-1.2,4.7,0.3,5c1.9,0.4,4.4-1.6,4-1.6c-0.5,0-4.2,1.2-4.9-0.6C-307.5-91.1-306.7-91.9-306.4-92.5" />
            </g>
        </g>
    </g>
    <g>
        <defs>
            <rect id="D_17_" x="66.1" y="182.6" width="128.9" height="36.5" />
        </defs>
        <clipPath id="D_18_">
            <use xlink:href="#D_17_" overflow="visible" />
        </clipPath>
        <g opacity="0.15" clip-path="url(#D_18_)">
            <g transform="translate(296.834,257.166)">
                <path fill="#E3AB5E" d="M-227.8-48.9c43.7,25.1,130.4-0.4,125.8-8.6c-6.1-10.9-8.5-17.7-21.9-17.1c-13.3,0.7-98.9,7.5-102.4,10.1C-229.7-61.8-233.5-52.2-227.8-48.9" />
            </g>
        </g>
    </g>
    <path fill="#FFF8EE" d="M164.3,57.5c19.6-1.8,31.1-22.1,43-19c-8,5-15.9,15-27,31.4C177.6,73.8,158.9,58,164.3,57.5" />
    <path fill="none" stroke="#E5D0AE" stroke-width="3" stroke-linecap="round" stroke-linejoin="round" stroke-miterlimit="10" d="M164.3,57.5c19.6-1.8,31.1-22.1,43-19c-8,5-15.9,15-27,31.4C177.6,73.8,158.9,58,164.3,57.5z" />
    <path fill="#BA8449" d="M41.8,53.1c8.8-8.2,24.7-5,37.5-0.4c7.3,2.6,16.8,0.5,17.4,2c1.6,3.5-7.9,10.7-15.7,10.5C73.3,65.1,60.4,50.6,41.8,53.1" />
    <path fill="none" stroke="#895B2E" stroke-width="2" stroke-linecap="round" stroke-linejoin="round" stroke-miterlimit="10" d="M41.8,53.1c8.8-8.2,24.7-5,37.5-0.4c7.3,2.6,16.8,0.5,17.4,2c1.6,3.5-7.9,10.7-15.7,10.5C73.3,65.1,60.4,50.6,41.8,53.1z" />
    <path fill="#FCD4C3" d="M177.7,67.2c4.5,1.3,21.6-32.2,29.9-28.9c26.4,10.5-8,50.9-18.9,51.8C177.7,90.9,175.2,66.4,177.7,67.2" />
    <path fill="none" stroke="#F8A38F" stroke-width="2" stroke-miterlimit="10" d="M177.7,67.2c4.5,1.3,21.6-32.2,29.9-28.9c26.4,10.5-8,50.9-18.9,51.8C177.7,90.9,175.2,66.4,177.7,67.2z" />
    <path fill="#FCD4C3" d="M82.3,63.2c-7.3,3.2-33.2-23.9-44.1-6.5C31,68.2,52.8,91.4,68.4,93.9C84,96.4,86.1,61.5,82.3,63.2" />
    <path fill="none" stroke="#F8A38F" stroke-width="2" stroke-miterlimit="10" d="M82.3,63.2c-7.3,3.2-33.2-23.9-44.1-6.5C31,68.2,52.8,91.4,68.4,93.9C84,96.4,86.1,61.5,82.3,63.2z" />
    <g>
        <defs>
            <rect id="D_19_" x="180.5" y="44.8" width="18" height="44.6" />
        </defs>
        <clipPath id="D_20_">
            <use xlink:href="#D_19_" overflow="visible" />
        </clipPath>
        <g clip-path="url(#D_20_)">
            <g transform="translate(491.167,503.5005)">
                <path fill="#FCD4C3" d="M-293.1-458.7c-1.4,4.6-13.2,16.5-11.6,26.7c0.6,3.8,4.6,15,6.3,14.6s6-3.1,5.6-2.5c-0.4,0.6-6,4.7-8.1,5.8c-2.1-1.1-11-21.8-9.7-22.9C-306.7-440.5-294.8-458.5-293.1-458.7" />
            </g>
        </g>
    </g>
    <g>
        <defs>
            <rect id="D_21_" x="38.6" y="51.5" width="44.2" height="31.6" />
        </defs>
        <clipPath id="D_22_">
            <use xlink:href="#D_21_" overflow="visible" />
        </clipPath>
        <g clip-path="url(#D_22_)">
            <g transform="translate(250.833,484.5005)">
                <path fill="#FCD4C3" d="M-212.3-427.1c8-4.9,22.6-2.8,31.1,5.5c3,3,3.9,13-2.9,19.8c-2.7,2.7,16-9.6,16.1-13.2c0-3.6-1.2-4.6-4-5.6c-10.3-3.8-21.1-12.6-30.5-12.4C-208.6-432.9-211.4-428.7-212.3-427.1" />
            </g>
        </g>
    </g>
    <g>
        <defs>
            <rect id="D_23_" x="181.1" y="42.2" width="26.2" height="44.2" />
        </defs>
        <clipPath id="D_24_">
            <use xlink:href="#D_23_" overflow="visible" />
        </clipPath>
        <g opacity="0.25" clip-path="url(#D_24_)">
            <g transform="translate(496,507.375)">
                <path fill="#FCD4C3" d="M-294.7-465.2c18.2,10-11.1,25.2-8.9,44.1c-3.8-0.4-13.2-18.7-10.9-20.3C-311.3-443.6-297.8-466-294.7-465.2" />
            </g>
        </g>
    </g>
    <path fill="#E5D0AE" d="M60.9,103.6c0.3-1.3,0.5-2.7,0.5-4c0.1-1.4,0.2-2.8,0.5-4.1c0.1-0.7,0.3-1.4,0.6-2c0.3-0.6,0.5-1.3,0.7-1.9c0.5-1.3,1-2.6,1.6-3.8c2.3-5.1,4.9-9.9,8.1-14.4c3.2-4.5,6.7-8.7,10.7-12.3c4-3.7,8.7-6.7,13.7-8.7c5-2.1,10.4-3.4,15.8-4c5.4-0.7,10.8-0.8,16.2-0.7c5.4,0.1,10.8,0.4,16.2,1.1c5.4,0.7,10.8,1.9,16,3.8c2.6,1,5.1,2.1,7.5,3.5c2.4,1.4,4.7,3.1,6.8,5.1c2.1,1.9,3.9,4.2,5.4,6.6c1.5,2.4,2.6,5,3.6,7.7c0.9,2.6,1.6,5.3,2.2,8s1,5.3,1.6,7.8c0.3,1.2,0.7,2.4,1.1,3.6c0.5,1.2,1,2.5,1.4,3.8c0.9,2.5,1.9,5.1,2.8,7.6c3.5,10.2,6.6,20.6,8.5,31.2c0.9,5.3,1.6,10.7,1.7,16.1c0.1,5.4-0.4,10.8-1.9,16c-0.4,1.3-0.8,2.6-1.3,3.8c-0.5,1.2-1.2,2.4-1.6,3.7c-0.2,0.7-0.4,1.3-0.7,1.9c-0.3,0.6-0.7,1.2-1.1,1.8c-0.7,1.1-1.6,2.3-2.5,3.3c-3.5,4.2-8,7.6-12.8,10.2s-10,4.6-15.2,6.1c-5.3,1.5-10.5,2.7-15.9,3.7s-10.7,1.7-16,2.4c-2.7,0.3-5.4,0.6-8.1,0.9l-4,0.4c-1.3,0.1-2.7,0.2-4.1,0.3c-11,0.6-22-1-32.5-3.9c-5.3-1.5-10.4-3.3-15.4-5.5c-5-2.2-9.9-4.7-14.5-7.7c-2.3-1.5-4.6-3.2-6.7-5.1c-0.5-0.5-1.1-1-1.6-1.5c-0.5-0.5-0.9-1.1-1.4-1.6c-0.9-1.1-1.8-2.2-2.6-3.3c-3.1-4.6-5.6-10-6.4-15.6c-0.9-5.7-0.1-11.5,1.5-16.8c1.6-5.4,4.1-10.3,6.7-15.1c2.7-4.7,5.6-9.3,8.4-13.8c1.4-2.3,2.7-4.6,3.9-6.9C59.4,108.3,60.4,106,60.9,103.6L60.9,103.6z M64.9,104.5c-0.7,2.8-1.9,5.4-3.2,7.9s-2.7,4.8-4.1,7.1c-2.8,4.6-5.7,9.1-8.2,13.7s-4.8,9.4-6.2,14.3c-1.4,4.9-2,10-1.2,15c0.8,4.9,2.9,9.6,5.9,13.7c0.7,1,1.6,2,2.4,3c0.4,0.5,0.9,1,1.3,1.4c0.4,0.5,0.9,0.9,1.3,1.3c1.8,1.7,3.9,3.2,6.1,4.7c4.4,2.8,9,5.3,13.9,7.4c4.8,2.1,9.8,3.9,14.9,5.3c5.1,1.4,10.2,2.5,15.4,3.2c5.2,0.7,10.4,0.9,15.6,0.7c1.3-0.1,2.6-0.2,3.9-0.3l4-0.4c2.6-0.2,5.3-0.5,8-0.8c5.3-0.5,10.6-1.2,15.8-2.1c5.3-0.9,10.4-1.9,15.5-3.3s10.1-3,14.9-5.1c4.7-2.2,9.3-4.9,13-8.6c0.9-0.9,1.8-1.9,2.6-2.9c0.4-0.5,0.8-1.1,1.2-1.6c0.4-0.5,0.9-1,1.3-1.6c0.9-1.1,1.3-2.3,1.9-3.5c0.5-1.2,0.9-2.5,1.2-3.8c1.3-5.2,1.6-10.6,1.3-15.9c-0.4-5.3-1.3-10.6-2.6-15.8c-2.5-10.4-6.2-20.4-10.1-30.3c-1-2.5-2-5-3-7.4l-1.6-3.7c-0.5-1.3-1-2.7-1.4-4c-0.7-2.7-1.2-5.3-1.8-7.9c-0.5-2.6-1.2-5.1-2-7.5c-1.7-4.9-4.2-9.3-7.9-12.8c-3.6-3.5-8.1-6.2-12.9-8.2c-4.8-2-10-3.3-15.2-4.2c-5.2-0.9-10.5-1.4-15.8-1.7c-5.3-0.2-10.7-0.3-16,0.3c-5.3,0.6-10.5,1.7-15.4,3.8c-4.9,2-9.4,4.9-13.2,8.5c-3.9,3.6-7,8-9.3,12.6c-2.4,4.7-4.1,9.7-5.6,14.7c-0.4,1.2-0.7,2.5-1,3.8c-0.2,0.6-0.3,1.3-0.5,1.9c-0.1,0.3-0.1,0.7-0.2,1c-0.1,0.3-0.2,0.6-0.4,0.9c-0.5,1.2-1.1,2.4-1.7,3.6C65.6,102,65.2,103.2,64.9,104.5L64.9,104.5z" />
    <path fill="#FFF8EE" d="M62.9,104.1c-4.2,18.6-40.9,48-13,78.1c9.5,10.2,40.3,25.9,71.2,23c80.4-7.6,100.7-27,66.8-110.2c-5.5-13.5,0.7-44.7-58.4-46.5C104.7,47.8,74.9,51.2,62.9,104.1" />
    <path fill="#E5BFA1" d="M76.8,67.7c2.6-4,6-7.3,9.8-10c3.8-2.7,8.1-4.7,12.4-6.3c8.8-3.2,18-4.4,27.2-4.7c9.2-0.2,18.5,0.5,27.5,2.8c4.5,1.2,8.9,2.8,13.1,5.1s8.1,5.1,11.4,8.6c3.3,3.5,6,7.4,8.1,11.7c2.1,4.3,3.6,8.8,4.7,13.3c1.1,4.6,1.8,9.1,2.4,13.6c0.3,2.3,0.6,4.5,1.1,6.6c0.2,1.1,0.5,2.1,0.8,2.9c0.1,0.2,0.2,0.4,0.3,0.6l0.1,0.1l0.1,0.1l0.2,0.4l0.9,1.5c4.4,8.1,7.7,17,8.9,26.3c0.6,4.6,0.7,9.3,0.2,14c-0.5,4.6-1.7,9.2-3.5,13.5c-0.9,2.1-1.9,4.2-3.1,6.3c-0.3,0.5-0.6,1-0.9,1.5c-0.3,0.5-0.6,0.9-1,1.5c-0.1,0.1-0.1,0.2-0.2,0.3c-0.3-0.2,0.4,0.7-1.6,0c-0.5-0.9-0.2-0.7-0.3-0.9c0-0.3,0.1-0.4,0.1-0.6l0.3-0.9l0.5-1.6c1.4-4.3,2.6-8.6,3.1-13.1c0.2-2.2,0.3-4.4,0-6.7c-0.3-2.2-0.9-4.3-2-6.1c-0.3-0.5-0.6-0.9-1-1.3c-0.4-0.4-0.7-0.8-1.1-1.2c-0.8-0.8-1.6-1.5-2.5-2.2c-1.8-1.4-3.7-2.5-5.7-3.5c-4.1-1.8-8.6-2.5-13-2.3c-4.5,0.2-8.9,1.1-13.2,2.3c-2.2,0.6-4.3,1.3-6.5,2c-1.1,0.4-2.2,0.7-3.3,1c-0.6,0.2-1.1,0.3-1.8,0.4c-0.6,0.1-1.1,0.2-1.7,0.2c-4.6,0.5-9.1,0.8-13.8,0.7c-4.6-0.1-9.2-0.6-13.8-1.6c-4.5-1-9-2.5-13.2-4.4c-4.2-2-8.2-4.4-11.8-7.4c-3.6-3-6.8-6.4-9.6-10.1c-5.6-7.5-9.3-16.2-11.1-25.3c-0.9-4.6-1.3-9.2-1.1-13.9c0.1-2.3,0.4-4.7,0.9-7C74.7,72.1,75.5,69.8,76.8,67.7L76.8,67.7z M78.8,69c-1.1,1.8-1.8,3.8-2.3,6c-0.5,2.1-0.7,4.3-0.9,6.5c-0.2,4.4,0.3,8.9,1.2,13.2c1.9,8.7,5.6,17,11,24c2.7,3.5,5.8,6.7,9.2,9.5c3.4,2.8,7.2,5.2,11.2,7.1c4,1.9,8.2,3.3,12.6,4.3c4.3,1,8.8,1.6,13.2,1.7c4.5,0.2,8.9,0,13.4-0.5l1.7-0.2c0.5-0.1,1-0.2,1.6-0.3c1.1-0.3,2.1-0.6,3.2-0.9c2.2-0.6,4.4-1.3,6.6-1.8c4.4-1.1,9-1.9,13.7-1.9c4.6,0,9.3,0.8,13.5,2.8c2.1,1,4.1,2.2,5.9,3.6c0.9,0.7,1.8,1.5,2.6,2.3c0.4,0.4,0.8,0.8,1.2,1.2c0.4,0.4,0.8,0.9,1.1,1.4c1.3,2,2,4.3,2.3,6.7s0.3,4.7,0.1,7c-0.4,4.6-1.4,9.1-2.7,13.5l-0.5,1.6l-0.2,0.8c0,0.1-0.1,0.3,0,0.3c-0.1-0.1,0.2,0.2-0.2-0.7c-1.9-0.7-1.2,0.2-1.4-0.1c0,0,0,0,0,0c0.2-0.4,0.5-0.9,0.8-1.4c0.3-0.5,0.5-1,0.8-1.5c1-2,1.9-4,2.7-6.1c3-8.3,3.6-17.4,2.1-26.1c-0.7-4.4-2-8.6-3.6-12.7c-1.6-4.1-3.5-8.1-5.7-12l-0.8-1.4l-0.2-0.4l-0.1-0.2l-0.1-0.2c-0.2-0.3-0.3-0.6-0.4-0.9c-0.5-1.2-0.8-2.5-1.1-3.6c-0.5-2.3-0.9-4.6-1.2-6.8c-0.7-4.5-1.3-8.9-2.4-13.2c-1-4.3-2.4-8.5-4.3-12.4c-1.9-3.9-4.2-7.5-7.2-10.7c-5.8-6.3-13.8-10.5-22.3-13c-8.5-2.5-17.5-3.3-26.5-3.3c-8.9,0-17.9,1.1-26.3,3.9c-4.2,1.4-8.2,3.3-11.9,5.8C84.4,62.3,81.2,65.3,78.8,69C78.8,69,78.8,69,78.8,69z" />
    <path fill="#895B2E" d="M75.6,67.2c1.5-2.4,3.3-4.3,5.1-6.1c1.9-1.8,3.9-3.3,6-4.7c4.2-2.8,8.7-5,13.4-6.7c9.4-3.3,19.3-4.6,29.1-4.4c9.7,0.3,19.5,1.5,28.9,4.9c4.7,1.7,9.2,3.9,13.3,6.9c4.1,2.9,7.7,6.5,10.7,10.6c2.9,4.1,5.1,8.6,6.8,13.3c1.6,4.7,2.7,9.5,3.5,14.2c0.4,2.4,0.7,4.7,1.1,7.1c0.4,2.3,0.7,4.7,1.1,6.8c0.2,1.1,0.5,2.1,0.9,2.9l0.1,0.2l0.1,0.2l0.2,0.4l0.4,0.8l0.9,1.6c1.1,2.1,2.2,4.3,3.2,6.5c1.9,4.4,3.5,9.1,4.6,13.9c1.1,4.7,1.6,9.6,1.6,14.5c-0.1,9.8-2.8,19.5-7.9,27.8l0,0c-0.4,0.6-1.2,0.9-1.8,0.5c-0.6-0.4-0.8-1.1-0.6-1.6v0c1.4-3.6,2.9-7,4-10.5c1.2-3.5,2-7.1,2-10.6c0-3.5-0.9-6.9-3-9.6c-0.1-0.2-0.3-0.4-0.4-0.5l-0.2-0.2l-0.2-0.3c-0.3-0.3-0.6-0.6-0.9-0.9c-0.6-0.6-1.3-1.2-2-1.7c-1.4-1.1-3-2.1-4.5-3.1c-6.3-3.9-13-7.3-19.8-10.7c-6.8-3.3-13.7-6.5-20.5-9.6c-13.8-6.3-27.6-12.6-41.2-19.4c-6.8-3.5-13.5-7-20.1-11.2C86,86,82.8,83.8,79.7,81c-1.5-1.4-3-3-4.2-5.2c-0.6-1.1-1.1-2.4-1.2-4c0-0.8,0-1.6,0.2-2.4c0.1-0.4,0.2-0.8,0.4-1.2c0.1-0.3,0.4-0.9,0.5-1L75.6,67.2z M81.2,70.6c-0.2,0.3-0.1,0.2-0.2,0.3c0,0.1,0,0.1-0.1,0.2c0,0.1,0,0.2,0,0.4c0,0.3,0.2,0.8,0.4,1.4c0.6,1.2,1.7,2.5,2.9,3.6c2.5,2.4,5.4,4.6,8.5,6.6c6.1,4.1,12.7,7.7,19.4,11.3c13.3,7,27,13.5,40.6,20.1c6.8,3.3,13.6,6.7,20.4,10.1c6.8,3.5,13.5,7,20,11.3c1.6,1.1,3.2,2.2,4.7,3.5c0.8,0.6,1.5,1.3,2.3,2c0.4,0.4,0.7,0.7,1.1,1.2l0.2,0.3l0.3,0.3c0.2,0.2,0.3,0.4,0.5,0.6c1.2,1.7,2.1,3.6,2.7,5.6s0.7,4.1,0.7,6.1c-0.1,4-1.2,7.9-2.5,11.6c-1.3,3.7-2.9,7.1-4.4,10.6l-2.4-1.2l0,0c4.7-8,6.9-17.2,6.8-26.4c-0.2-9.2-2.6-18.3-6.5-26.7c-1-2.1-2-4.2-3.2-6.2l-1.8-3.2c-0.7-1.3-1-2.6-1.3-3.8c-0.6-2.5-1-4.8-1.4-7.2s-0.8-4.7-1.2-6.9c-0.9-4.6-2-9-3.6-13.3c-1.6-4.2-3.7-8.3-6.3-11.8c-2.6-3.6-5.9-6.7-9.5-9.2c-3.7-2.5-7.7-4.5-12-5.9c-8.6-2.9-17.8-3.9-27-4c-4.6,0-9.1,0.2-13.6,1c-4.5,0.7-8.9,1.8-13.1,3.3s-8.3,3.4-12,5.8c-1.9,1.2-3.6,2.5-5.2,4S82.3,69,81.2,70.6L81.2,70.6z" />
    <path fill="#BA8449" d="M77.8,68.3c-11,17,2.1,82.3,71.2,73.5c7.3-0.9,31.6-13.9,48,4.3c8.9,10-3.1,35.3,0,30c3.5-5.8,16.9-28.2-3.2-62.7c-6.4-11.1,4.2-64.4-65-65.1C102.3,48.2,85.1,57,77.8,68.3" />
    <g>
        <defs>
            <rect id="D_25_" x="61.7" y="64.6" width="117.3" height="111.9" />
        </defs>
        <clipPath id="D_26_">
            <use xlink:href="#D_25_" overflow="visible" />
        </clipPath>
        <g opacity="0.15" clip-path="url(#D_26_)">
            <g transform="translate(307.168,461.833)">
                <path fill="#E3AB5E" d="M-231.2-389.4c19.9-12.8,80.1-11.9,99.3,18.8c12.8,20.4-10.6,70.8-19.3,77.2c-8.6,6.4-20.6,12-52.2,4.4c-26.8-6.4,13.5-31.3-17.9-34.9C-250-327.2-252.9-375.4-231.2-389.4" />
            </g>
        </g>
    </g>
    <g>
        <defs>
            <rect id="D_27_" x="118.5" y="119.2" width="13.1" height="5.5" />
        </defs>
        <clipPath id="D_28_">
            <use xlink:href="#D_27_" overflow="visible" />
        </clipPath>
        <g opacity="0.25" clip-path="url(#D_28_)">
            <g transform="translate(391,387.166)">
                <path fill="#E3AB5E" d="M-259.4-265.2c0,1.5-2.9,2.8-6.5,2.8c-3.6,0-6.5-1.2-6.5-2.8c0-1.5,2.9-2.8,6.5-2.8C-262.3-267.9-259.4-266.7-259.4-265.2" />
            </g>
        </g>
    </g>
    <path fill="#F8A38F" d="M120.1,113.8c1.5-1,9.5-0.7,10.5,0.4c1,1,3.2,5.2,0.7,7c-0.9,0.6-0.9-1.9-2.9-1.5c-2.4,0.5-1.1,3.6-3,3.6c-2.9-0.1-0.1-3.4-2.6-3.8c-1.9-0.4-2.3,1.5-3.2,1.3C116.7,120.2,118,115.2,120.1,113.8" />
    <g>
        <defs>
            <rect id="D_29_" x="117.9" y="113.2" width="14.5" height="9.9" />
        </defs>
        <clipPath id="D_30_">
            <use xlink:href="#D_29_" overflow="visible" />
        </clipPath>
        <g clip-path="url(#D_30_)">
            <g transform="translate(380.2207,400.4053)">
                <path fill="#F8A38F" d="M-255.8-287.2c-1.9,0-3.7,0.2-4.3,0.6c-2.1,1.4-3.4,6.4-0.6,6.9c0,0,0.1,0,0.1,0c0.7,0,1.1-1.4,2.6-1.4c0.2,0,0.3,0,0.5,0c2.5,0.4-0.2,3.8,2.6,3.8h0c1.8,0,0.5-3,3-3.5c0.2,0,0.3,0,0.4,0c1.4,0,1.6,1.6,2.2,1.6c0.1,0,0.2,0,0.3-0.1c2.6-1.8,0.4-6-0.7-7C-250.2-286.8-253.1-287.2-255.8-287.2 M-255.8-286.5L-255.8-286.5c3,0,5.3,0.4,5.7,0.7c0.6,0.6,1.8,2.8,1.6,4.4c-0.1,0.6-0.3,1.1-0.7,1.4c0-0.1-0.1-0.1-0.2-0.2c-0.4-0.5-1-1.3-2.1-1.3c-0.2,0-0.4,0-0.5,0.1c-1.7,0.4-2,1.7-2.3,2.6c-0.2,0.9-0.3,0.9-0.6,0.9l0,0c-0.8,0-0.8-0.2-0.8-1.1c0-0.9,0-2.3-1.8-2.6c-0.2,0-0.4,0-0.6,0c-1.1,0-1.8,0.7-2.3,1.1c-0.1,0.1-0.3,0.3-0.4,0.3c-0.4-0.1-0.8-0.3-1-1.1c-0.3-1.4,0.7-3.8,1.8-4.6C-259.4-286.3-258-286.5-255.8-286.5" />
            </g>
        </g>
    </g>
    <g>
        <defs>
            <rect id="D_31_" x="74.1" y="124.9" width="112.9" height="64.1" />
        </defs>
        <clipPath id="D_32_">
            <use xlink:href="#D_31_" overflow="visible" />
        </clipPath>
        <g opacity="0.25" clip-path="url(#D_32_)">
            <g transform="translate(474.0986,359.9502)">
                <path fill="#F7E8D0" d="M-287.3-219.9c3,19.2-21,43.3-53.3,48.3c-32.3,4.9-56.1-23.9-59.1-43.2c-3-19.2,16.8-11.9,49.1-16.8C-318.3-236.5-290.3-239.1-287.3-219.9" />
            </g>
        </g>
    </g>
    <g>
        <defs>
            <rect id="D_33_" x="80" y="125.9" width="93.6" height="47.5" />
        </defs>
        <clipPath id="D_34_">
            <use xlink:href="#D_33_" overflow="visible" />
        </clipPath>
        <g opacity="0.5" clip-path="url(#D_34_)">
            <g transform="translate(347.2148,315.9766)">
                <path fill="#D8CAB2" d="M-244.7-146.7c-0.9-1.4-1.4-3.1-1.9-4.7c-0.5-1.6-1-3.2-1.5-4.8c-1-3.2-2.1-6.4-3.6-9.4c-1.5-3-3.4-5.8-5.8-7.9c-2.4-2.1-5.3-3.5-8.4-4.1l0,0l0,0c-1.1-0.4-1.6-1.5-1.2-2.5c0.4-1,1.4-1.5,2.3-1.3c7.2,1.7,14.7,2.5,22.1,2.6s15-0.3,22.5-1.2c7.5-0.9,14.9-2.2,22.2-3.9c7.3-1.7,14.6-3.7,21.7-6.1c1.1-0.4,2.2,0.2,2.5,1.2c0.3,0.8,0,1.6-0.6,2.1l0,0l0,0c-0.2,0.2-0.6,0.5-0.9,0.8c-0.3,0.3-0.6,0.7-0.9,1c-0.6,0.7-1.2,1.5-1.8,2.3c-1.2,1.6-2.3,3.2-3.3,4.9c-2.2,3.3-4.2,6.7-6.1,10.2c-1.9,3.5-3.8,7-5.5,10.5c-0.9,1.8-1.7,3.6-2.4,5.4c-0.4,0.9-0.7,1.8-1.1,2.8c-0.2,0.5-0.3,0.9-0.4,1.4c0,0,0,0.1,0,0.2c0,0.1,0,0.1-0.1,0.2c0,0.1-0.1,0.2-0.2,0.2c-0.1,0.1-0.2,0.2-0.4,0.3c-0.2,0.2-0.5,0.3-0.7,0.4c-1.9,0.8-3.9,1.2-5.8,1.6c-1.9,0.4-3.9,0.7-5.9,0.9c-4,0.5-7.9,0.9-11.9,1c-4,0.2-8,0.2-11.9-0.2c-2-0.2-4-0.5-5.9-1c-1-0.3-1.9-0.6-2.8-1.1C-243.3-145.3-244.1-145.9-244.7-146.7 M-244.6-146.8c0.5,0.8,1.4,1.4,2.3,1.8c0.9,0.4,1.8,0.7,2.8,1c1.9,0.5,3.9,0.8,5.9,0.9c4,0.3,7.9,0.3,11.9,0.1c4-0.2,7.9-0.7,11.8-1.2c1.9-0.3,3.9-0.6,5.8-1.1s3.9-0.9,5.6-1.7c0.2-0.1,0.4-0.2,0.6-0.4c0.2-0.1,0.3-0.2,0.3-0.3c0.1-0.5,0.2-1,0.4-1.5c0.3-1,0.6-1.9,0.9-2.9c0.7-1.9,1.4-3.7,2.2-5.6c1.6-3.7,3.2-7.3,4.9-10.9c1.7-3.6,3.5-7.2,5.4-10.7c0.9-1.8,1.9-3.5,3-5.3c0.5-0.9,1.1-1.8,1.7-2.6c0.3-0.4,0.6-0.9,0.9-1.3c0.4-0.4,0.7-0.9,1.2-1.3l0,0l1.9,3.4c-7.3,2.5-14.6,4.5-22.1,6.2c-7.5,1.7-15,3.1-22.6,4c-7.6,0.9-15.3,1.4-23,1.2s-15.4-1.1-23-2.9l1.1-4l0,0c3.3,2,6.3,3.9,8.6,6.6c2.3,2.7,3.9,5.8,5.2,9c1.2,3.2,2.2,6.5,3,9.7c0.4,1.6,0.9,3.3,1.3,4.9C-246-149.8-245.5-148.2-244.6-146.8" />
            </g>
        </g>
    </g>
    <g>
        <defs>
            <rect id="D_35_" x="81" y="126.9" width="91.6" height="46.5" />
        </defs>
        <clipPath id="D_36_">
            <use xlink:href="#D_35_" overflow="visible" />
        </clipPath>
        <g opacity="0.5" clip-path="url(#D_36_)">
            <g transform="translate(347.2324,315.9883)">
                <path fill="#D8CAB2" d="M-244.7-146.7c-0.9-1.4-1.4-3-1.9-4.6c-0.5-1.6-0.9-3.2-1.4-4.8c-1-3.2-2-6.4-3.5-9.5c-1.4-3-3.3-5.8-5.6-8c-2.4-2.3-5.3-3.9-8.4-4.6l0,0v-0.1c-0.5-0.2-0.8-0.8-0.6-1.3c0.2-0.5,0.7-0.8,1.2-0.7c7.3,1.7,14.8,2.5,22.4,2.6s15.1-0.3,22.6-1.2c7.5-0.9,14.9-2.3,22.3-3.9c7.4-1.7,14.7-3.7,21.8-6.1c0.5-0.2,1.1,0.1,1.3,0.6c0.1,0.4,0,0.8-0.3,1.1l0,0l0,0c-0.6,0.5-1.3,1.3-1.9,2c-0.6,0.7-1.2,1.6-1.8,2.3c-1.1,1.6-2.2,3.3-3.2,5c-2.1,3.3-4.1,6.8-6,10.3c-1.9,3.5-3.7,7-5.3,10.6c-0.8,1.8-1.6,3.6-2.4,5.4c-0.4,0.9-0.7,1.8-1,2.8c-0.2,0.5-0.3,0.9-0.4,1.4c-0.1,0.4-0.4,0.5-0.6,0.7c-0.2,0.2-0.5,0.3-0.7,0.4c-1.9,0.8-3.9,1.2-5.8,1.6c-1.9,0.4-3.9,0.7-5.9,1c-3.9,0.5-7.9,0.9-11.9,1.1c-4,0.2-8,0.2-11.9-0.2c-2-0.2-4-0.5-5.9-1c-1-0.3-1.9-0.6-2.8-1C-243.3-145.3-244.2-145.9-244.7-146.7 M-244.7-146.8c0.5,0.8,1.4,1.4,2.3,1.9c0.9,0.4,1.8,0.7,2.8,1c1.9,0.5,3.9,0.8,5.9,0.9c4,0.4,7.9,0.3,11.9,0.1c4-0.2,7.9-0.6,11.9-1.2c1.9-0.3,3.9-0.6,5.9-1.1c1.9-0.4,3.9-0.9,5.6-1.7c0.2-0.1,0.4-0.2,0.6-0.4c0.2-0.1,0.4-0.3,0.4-0.4c0.1-0.5,0.2-1,0.4-1.5c0.3-1,0.6-1.9,1-2.8c0.7-1.9,1.5-3.7,2.3-5.5c1.6-3.7,3.3-7.2,5.1-10.8c1.8-3.6,3.6-7.1,5.6-10.6c1-1.8,2-3.5,3.1-5.1c0.5-0.9,1.1-1.7,1.7-2.5c0.6-0.8,1.2-1.6,2.1-2.4l0,0l1,1.8c-7.2,2.5-14.6,4.5-22,6.2s-14.9,3-22.5,4c-7.6,0.9-15.2,1.4-22.9,1.2c-7.6-0.2-15.3-1-22.8-2.7l0.5-1.9l0,0c3.3,1.3,6.3,3.3,8.6,5.9c2.3,2.6,4,5.6,5.3,8.7c1.3,3.1,2.3,6.3,3.2,9.6c0.4,1.6,0.9,3.2,1.4,4.9C-246.1-149.8-245.6-148.2-244.7-146.8" />
            </g>
        </g>
    </g>
    <path fill="#333333" d="M102.6,169.2c5.1,8,46.8,2.5,47.5-0.7c1.8-8.1,16.8-36.7,21.6-40.7c-8.6,3-53.3,17.3-89.6,8.6C98.4,141.9,98.6,163,102.6,169.2" />
    <g>
        <defs>
            <rect id="D_37_" x="82" y="127.9" width="89.6" height="45.4" />
        </defs>
        <clipPath id="D_38_">
            <use xlink:href="#D_37_" overflow="visible" />
        </clipPath>
        <g clip-path="url(#D_38_)">
            <g transform="translate(451.25,378.25)">
                <path fill="#333333" d="M-279.7-250.3c-6.7,2.3-34.9,11.4-64.1,11.4c-8.6,0-17.2-0.8-25.5-2.7c16.4,5.3,16.6,26.5,20.6,32.7c1.9,3,9.2,4.1,17.5,4.1c13.4,0,29.5-2.8,30-4.8C-299.4-217.8-284.5-246.4-279.7-250.3 M-285.3-246.4c-6.5,9.8-15.9,28.7-17.8,35.8c-2.5,1.4-15.4,3.8-28.1,3.8c-10.2,0-14.8-1.7-15.8-3.2c-1-1.5-1.8-4.3-2.6-7.5c-1.7-6.1-4.1-14.5-9.8-20.3c5,0.6,10.2,0.9,15.7,0.9C-319.9-237-296.6-243-285.3-246.4" />
            </g>
        </g>
    </g>
    <path fill="#FCD4C3" d="M119.7,173.4c-8.6,0-14.2-1.2-16.4-3.6c-0.2-0.2-0.2-1.4,0.8-3.7c2.4-5.5,9.8-14.9,22.6-15.7c0.9,0,1.7-0.1,2.5-0.1c15,0,24,7.6,24,8.9c-0.2,0.4-0.4,1-0.7,1.8c-0.8,1.9-2,4.9-3.1,8.1C148.1,170.4,133.1,173.4,119.7,173.4" />
    <path fill="#F8A38F" d="M129.2,149.8c-0.9,0-1.7,0-2.6,0.1c-17.5,1.1-25.6,18.4-23.8,20.5c2.6,2.8,9.3,3.8,16.9,3.8c13.5,0,29.8-3.1,30.3-4.6c1.5-4.5,3.2-8.2,3.9-10C154.5,157.8,144.4,149.7,129.2,149.8 M129.2,151.1c13.4,0,22.4,6.4,23.3,8.3c-0.2,0.4-0.4,0.9-0.6,1.5c-0.8,1.9-2,4.7-3.1,7.9c-2.1,1.2-16.1,3.9-29.1,3.9c-8.1,0-13.7-1.2-15.8-3.3c-0.1-0.7,0.6-3.5,3.1-7c2.2-3.2,8.6-10.7,19.7-11.3C127.5,151.1,128.4,151.1,129.2,151.1L129.2,151.1" />
    <g>
        <defs>
            <rect id="D_39_" x="103.1" y="149.4" width="50.2" height="20.7" />
        </defs>
        <clipPath id="D_40_">
            <use xlink:href="#D_39_" overflow="visible" />
        </clipPath>
        <g clip-path="url(#D_40_)">
            <g transform="translate(348.084,315.917)">
                <path fill="#FCD4C3" d="M-245-146.6c-1.2,5.4,31.9-21.1,49.7-8.4c3.7-4.9-16-13.2-27.5-11.3C-232.5-164.6-242.5-158.4-245-146.6" />
            </g>
        </g>
    </g>
    <path fill="#FFF7E3" d="M109.8,140.8c1.7,3,4.8,17.6,6.1,17.9s9.5,2.6,10.6,2.1c1.2-0.5,1.1-3.3,2.3-2.5c1,0.7,1.5,2,2.5,1.5c1.8-0.9,7.1-4.2,8-5.6c0.8-1.5,0.7-9.8,0-16.4C135.9,139.4,115.8,141.5,109.8,140.8" />
    <g>
        <defs>
            <rect id="D_41_" x="109.8" y="137.9" width="30.1" height="23.2" />
        </defs>
        <clipPath id="D_42_">
            <use xlink:href="#D_41_" overflow="visible" />
        </clipPath>
        <g clip-path="url(#D_42_)">
            <g transform="translate(402.75,363.25)">
                <path fill="#FFDC99" d="M-263.4-225.4c-3,1.3-18.7,3.1-26.6,3.1c-1.2,0-2.1,0-2.9-0.1c1.7,3,4.8,17.6,6.1,17.9c1.2,0.3,8,2.2,10.1,2.2c0.2,0,0.4,0,0.5-0.1c1-0.4,1.1-2.6,1.9-2.6c0.1,0,0.3,0,0.4,0.2c0.9,0.5,1.3,1.6,2.1,1.6c0.1,0,0.3,0,0.4-0.1c1.8-0.9,7.1-4.2,8-5.6C-262.5-210.4-262.7-218.7-263.4-225.4 M-263.9-224.5c0.6,6.8,0.6,14,0,15.2c-0.7,1.2-5.5,4.3-7.7,5.4c0,0-0.1,0-0.1,0c-0.2,0-0.5-0.3-0.7-0.6c-0.3-0.3-0.6-0.6-1-0.9c-0.3-0.2-0.5-0.3-0.8-0.3c-0.9,0-1.2,0.9-1.5,1.6c-0.2,0.4-0.4,1-0.7,1.1c0,0-0.1,0-0.3,0c-1.7,0-6.8-1.4-8.9-1.9c-0.4-0.1-0.7-0.2-0.9-0.2c-0.6-0.7-1.9-5.4-2.9-8.8c-0.9-3.1-1.7-6-2.4-7.7c0.5,0,1.2,0,1.9,0C-282.4-221.6-268.4-223.2-263.9-224.5" />
            </g>
        </g>
    </g>
    <g>
        <defs>
            <rect id="D_43_" x="109.9" y="137.5" width="29.7" height="10.3" />
        </defs>
        <clipPath id="D_44_">
            <use xlink:href="#D_43_" overflow="visible" />
        </clipPath>
        <g clip-path="url(#D_44_)">
            <g transform="translate(361.751,348.25)">
                <path fill="#EADCBE" d="M-249.6-200.4c-0.5-5.4,24.4-7.2,27.5-6.7c0-1.3-0.2-2.1-0.2-3.6c-4.1,2.1-26.5,4.3-29.5,3.4C-251.5-206.7-250.4-203.7-249.6-200.4" />
            </g>
        </g>
    </g>
    <g>
        <defs>
            <rect id="D_45_" x="124" y="143.8" width="5.5" height="14.7" />
        </defs>
        <clipPath id="D_46_">
            <use xlink:href="#D_45_" overflow="visible" />
        </clipPath>
        <g clip-path="url(#D_46_)">
            <g transform="translate(380.458,354.3682)">
                <path fill="#FFDC99" d="M-255.9-210.6c0.5,1.2,1,2.3,1.4,3.5c0.4,1.2,0.8,2.4,1.2,3.6l1.1,3.6l1.1,3.6l-1.7,0.5l-0.8-3.7l-0.9-3.7c-0.3-1.2-0.6-2.4-0.9-3.6c-0.4-1.2-0.7-2.4-1.1-3.5L-255.9-210.6z" />
            </g>
        </g>
    </g>
    <g>
        <defs>
            <rect id="D_47_" x="39.1" y="51.5" width="39.4" height="35.7" />
        </defs>
        <clipPath id="D_48_">
            <use xlink:href="#D_47_" overflow="visible" />
        </clipPath>
        <g opacity="0.4" clip-path="url(#D_48_)">
            <g transform="translate(253.584,481.9165)">
                <path fill="#FCD4C3" d="M-213.2-422.8c13.2,3.4,11.1,26.2,18.9,28c7.9,1.8,18.2-18.8,19.2-23.3c-15.2-6.5-22.3-14.1-33.2-11.9C-211.9-429.3-216.9-423.8-213.2-422.8" />
            </g>
        </g>
    </g>
    <g>
        <defs>
            <rect id="D_49_" x="59.9" y="88.7" width="133.7" height="42.5" />
        </defs>
        <clipPath id="D_50_">
            <use xlink:href="#D_49_" overflow="visible" />
        </clipPath>
        <g opacity="0.5" clip-path="url(#D_50_)">
            <g transform="translate(308.667,381.333)">
                <path fill="#E3AB5E" d="M-231.7-255.5c16.6,1.3,30.3,2,35.2-3.1s6.7-27.7,14.7-27.1c6.8,0.5,9.1,29.9,13.5,30.7c4.4,0.9,35.5,9.4,43.3,1.4c7.7-8,11.3-13,9.5-17.8c-1.8-4.8-47.3-20.3-56.6-21.2c-9.3-0.9-72.1,7-73.7,10.9c-1.6,4-3.3,3.4-3,7.6C-248.2-266-248.3-256.8-231.7-255.5" />
            </g>
        </g>
    </g>
    <path fill="#333333" d="M123.5,92.4c1.2,0,5.9-0.4,7,0.5c6,4.7,5.8,24,12.1,30c5.6,5.4,36.2,9.3,41.5,3.2c5.3-6.1,13.1-24.7,14.9-26.1c1.8-1.3,5.8-2.3,7-4.2c1.2-1.8,0.2-10-2.6-9.6c-2.8,0.4-8.1,2.1-11.4,1.2c-3.3-1-19.4-11.1-59.9-5c-3.9,0.6-7.8,0-10.5-0.7c-2.7-0.7-17.9-9.5-58.6-3.7c-4,0.6-9.6-1.2-11.6-1c-2,0.2-2.6,6.5-1.8,8.1s5,3,5.5,5s4.2,21.6,13.8,29.7c10.2,8.6,36.2,2.6,38.5,1C117.7,113.5,120,92.4,123.5,92.4" />
    <g>
        <defs>
            <rect id="D_51_" x="49.1" y="76.1" width="157.3" height="53.1" />
        </defs>
        <clipPath id="D_52_">
            <use xlink:href="#D_51_" overflow="visible" />
        </clipPath>
        <g clip-path="url(#D_52_)">
            <g transform="translate(326.0381,456.2231)">
                <path fill="#1A1A1A" d="M-237.6-380.1c-7.1,0-15.6,0.5-25.6,2c-0.6,0.1-1.2,0.1-1.8,0.1c-3.5,0-7.6-1.1-9.5-1.1c-0.1,0-0.2,0-0.3,0c-2,0.2-2.6,6.5-1.8,8.1c0.8,1.7,5,3,5.5,5c0.5,2,4.2,21.6,13.8,29.7c4,3.4,10.6,4.5,17.2,4.5c10,0,19.9-2.5,21.3-3.5c10.4-7.4,12.8-28.5,16.3-28.5c0.5,0,1.8-0.1,3-0.1c1.6,0,3.3,0.1,3.9,0.5c6,4.7,5.8,24,12.1,30c3.6,3.4,17.4,6.3,28.2,6.3c6.1,0,11.3-0.9,13.2-3.1c5.3-6.1,13.1-24.7,14.9-26.1c1.8-1.4,5.8-2.3,7-4.2c1.1-1.8,0.2-9.6-2.5-9.6c0,0-0.1,0-0.2,0c-2.2,0.3-6,1.4-9.1,1.4c-0.8,0-1.6-0.1-2.3-0.3c-2.6-0.8-12.7-6.9-35.7-6.9c-6.9,0-14.9,0.5-24.2,1.9c-1.1,0.2-2.3,0.2-3.3,0.2c-2.7,0-5.2-0.4-7.1-0.9C-206.6-374.9-215.8-380.1-237.6-380.1 M-237.6-378.1c18.1,0,27.4,3.6,30.8,5c0.7,0.3,1.2,0.5,1.7,0.6c1.8,0.4,4.5,1,7.6,1c1.2,0,2.5-0.1,3.6-0.3c8.5-1.3,16.5-1.9,23.9-1.9c19,0,28.9,4.2,33.2,6.1c0.9,0.4,1.5,0.6,2,0.8c0.9,0.3,1.8,0.4,2.9,0.4c2.2,0,4.6-0.5,6.6-0.9c0.9-0.2,1.8-0.4,2.5-0.5c0.9,1,1.5,5.4,1,6.6c-0.4,0.6-2.1,1.4-3.3,1.9c-1.2,0.5-2.3,1-3.1,1.6c-1.1,0.8-2.2,2.9-5.4,9.3c-3.1,6.1-6.9,13.7-9.8,17c-1,1.2-4.6,2.4-11.8,2.4c-10.5,0-23.9-2.8-26.9-5.7c-2.8-2.6-4.2-8.7-5.6-14.6c-1.6-6.6-3.1-12.8-6.6-15.6c-0.9-0.7-2.3-1-5.1-1c-0.8,0-1.6,0-2.2,0c-0.4,0-0.7,0-0.9,0c-2.8,0-4,3.3-6.1,9.3c-2.3,6.6-5.6,15.5-11.3,19.6c-1.3,0.8-10.7,3.2-20.2,3.2c-7.3,0-12.8-1.4-15.9-4c-3.8-3.2-9.1-10.7-12.9-27.8c-0.1-0.4-0.2-0.7-0.2-0.9c-0.5-1.9-2.3-3-3.8-4c-0.6-0.4-1.6-1.1-1.8-1.4c-0.4-0.9,0-4.2,0.6-5.3c0.7,0,1.7,0.2,2.8,0.4c1.9,0.3,4.3,0.7,6.5,0.7c0.7,0,1.5,0,2.1-0.2C-253.8-377.4-245.3-378.1-237.6-378.1" />
            </g>
        </g>
    </g>
    <g>
        <defs>
            <rect id="D_53_" x="64.4" y="83.4" width="50.5" height="34.2" />
        </defs>
        <clipPath id="D_54_">
            <use xlink:href="#D_53_" overflow="visible" />
        </clipPath>
        <g opacity="0.5" clip-path="url(#D_54_)">
            <g transform="translate(292.5,434.75)">
                <path fill="none" stroke="#333333" stroke-width="4" stroke-miterlimit="10" d="M-226.3-344.3c-0.9,1.2-1.5,18.9,6,23.7c4.9,3.2,25.7,2.5,29.9,0.2c6.5-3.7,12.9-20.5,11.1-22.9c-3-4-24.6-9.3-40.8-5.1C-222.1-348-225.2-345.8-226.3-344.3z" />
            </g>
        </g>
    </g>
    <path fill="#FFFFFF" d="M66.2,90.4c-0.9,1.2-1.5,18.9,6,23.7c4.9,3.2,25.7,2.5,29.9,0.2c6.5-3.7,12.9-20.5,11.1-22.9c-3-4-24.6-9.3-40.8-5.1C70.4,86.8,67.3,88.9,66.2,90.4" />
    <g>
        <defs>
            <rect id="D_55_" x="139.8" y="88.1" width="50.1" height="35" />
        </defs>
        <clipPath id="D_56_">
            <use xlink:href="#D_55_" overflow="visible" />
        </clipPath>
        <g opacity="0.5" clip-path="url(#D_56_)">
            <g transform="translate(476.5938,423.063)">
                <path fill="none" stroke="#333333" stroke-width="4" stroke-miterlimit="10" d="M-288.2-324.9c0.8,1.3-1,18.9-9,22.8c-5.3,2.5-25.8-0.9-29.6-3.7c-6-4.5-10.2-22-8.1-24.2c3.5-3.6,25.6-6,41.1,0.2C-291.9-329.1-289.1-326.5-288.2-324.9z" />
            </g>
        </g>
    </g>
    <path fill="#FFFFFF" d="M188.4,98.2c0.8,1.3-1,18.9-9,22.8c-5.3,2.5-25.8-0.9-29.6-3.7c-6-4.5-10.2-22-8.1-24.2c3.5-3.6,25.6-6,41.1,0.2C184.7,94,187.4,96.5,188.4,98.2" />
    <path d="M89.9,101.2c-0.5,3.9-2.5,6.8-4.4,6.5c-1.9-0.3-2.9-3.6-2.4-7.5s2.5-6.8,4.4-6.5C89.4,94,90.4,97.3,89.9,101.2" />
    <path d="M169.6,105.6c0.4,3.9-0.8,7.2-2.6,7.4c-1.9,0.2-3.7-2.8-4.1-6.7c-0.4-3.9,0.8-7.2,2.6-7.4C167.3,98.8,169.1,101.8,169.6,105.6" />
    <g>
        <defs>
            <rect id="D_57_" x="49.1" y="81.6" width="156.3" height="46" />
        </defs>
        <clipPath id="D_58_">
            <use xlink:href="#D_57_" overflow="visible" />
        </clipPath>
        <g opacity="0.3" clip-path="url(#D_58_)">
            <g transform="translate(270.375,446.25)">
                <path fill="#333333" d="M-218.9-363.5c2.3,1.5,4.4,0.6,4.9,3.6c0.5,3,7.4,29,16,32c14.1,4.9,31.9,0.1,34.3-1.4c2.4-1.5,13.7-26.8,15.6-27.8c1.9-1,7.9,0.1,9.2,0.7c3.9,1.7,11.1,29.1,13,30.5c8.7,6.1,36.6,5.6,37.9,4c1.4-1.7,11.8-25.6,13.7-27c2.7-2.1,9-3.5,9.2-2.6c0.2,0.9-5.1,1.8-6.7,3.7c-1.6,2-12.1,24.9-15.4,26.9c-3.3,2-27.7,5.3-40.1-3.4c-5.9-4.2-8.2-29.1-12.9-30.5c-3-0.9-5.3-0.8-7.5-0.2c-2.9,1.9-7,23.1-15.7,28.4c-3.5,2.1-30.6,7.4-38.7-1.1c-15.1-15.8-10.5-29.9-15.4-31.9c-3.3-1.4-4-3.2-4-4.4C-221.2-365.3-220.1-364.3-218.9-363.5" />
            </g>
        </g>
    </g>
    <g>
        <defs>
            <rect id="D_59_" x="51.6" y="77.2" width="20.2" height="3" />
        </defs>
        <clipPath id="D_60_">
            <use xlink:href="#D_59_" overflow="visible" />
        </clipPath>
        <g opacity="0.3" clip-path="url(#D_60_)">
            <g transform="translate(270.75,454.25)">
                <path fill="#333333" d="M-219-376.8c-1.6-0.6,6.8,2.9,9.9,2.7c3.1-0.2,8.3-2.4,10-2.9c1.5-0.5-7.8,1.2-10.1,1.1S-218.1-376.5-219-376.8" />
            </g>
        </g>
    </g>
    <g>
        <defs>
            <rect id="D_61_" x="116.6" y="82.1" width="21.7" height="5.3" />
        </defs>
        <clipPath id="D_62_">
            <use xlink:href="#D_61_" overflow="visible" />
        </clipPath>
        <g opacity="0.3" clip-path="url(#D_62_)">
            <g transform="translate(368.5,447.25)">
                <path fill="#333333" d="M-251.9-365.1c2.9,1.3,4.2,4.6,7,4.9s6.2,0.8,7.8-0.1c1.6-0.9,5.6-3,6.7-3.2c1.2-0.2-8.7,1.3-12.4,1C-246.5-362.9-250.8-365-251.9-365.1" />
            </g>
        </g>
    </g>
    <g>
        <defs>
            <rect id="D_63_" x="187.4" y="86" width="12.3" height="3.9" />
        </defs>
        <clipPath id="D_64_">
            <use xlink:href="#D_63_" overflow="visible" />
        </clipPath>
        <g opacity="0.3" clip-path="url(#D_64_)">
            <g transform="translate(475.375,441.375)">
                <path fill="#333333" d="M-287.8-355.4c-1.2-0.5,4.4,4,6.1,3.8c1.7-0.2,4.7-2.1,6-2.6c1-0.4-4,1-5.5,0.7C-282.7-353.6-286.6-354.9-287.8-355.4" />
            </g>
        </g>
    </g>
    <g>
        <defs>
            <rect id="D_65_" x="62.3" y="82.8" width="28.9" height="28.6" />
        </defs>
        <clipPath id="D_66_">
            <use xlink:href="#D_65_" overflow="visible" />
        </clipPath>
        <g opacity="0.3" clip-path="url(#D_66_)">
            <g transform="translate(287.75,438.625)">
                <path fill="#333333" d="M-224.7-350.8c7.4-7.3,25-4.8,28.2-4.2c-21.1,1.5-21.5,3.1-25.2,6.8c-0.5,2.9-1.2,12.5,2.1,20.9C-223.3-329.3-227.2-348.3-224.7-350.8" />
            </g>
        </g>
    </g>
    <g>
        <defs>
            <rect id="D_67_" x="165.1" y="87.8" width="27.8" height="30.5" />
        </defs>
        <clipPath id="D_68_">
            <use xlink:href="#D_67_" overflow="visible" />
        </clipPath>
        <g opacity="0.3" clip-path="url(#D_68_)">
            <g transform="translate(482.6602,426.7979)">
                <path fill="#333333" d="M-290.2-331.1c-6.4-8.2-24.1-8.1-27.4-7.8c20.7,4.3,20.9,5.9,24.1,10.1c0.2,2.9-0.4,12.5-4.7,20.4C-294.4-310-288.1-328.4-290.2-331.1" />
            </g>
        </g>
    </g>
    <g>
        <defs>
            <rect id="D_69_" x="65.8" y="84.8" width="47.8" height="27.5" />
        </defs>
        <clipPath id="D_70_">
            <use xlink:href="#D_69_" overflow="visible" />
        </clipPath>
        <g clip-path="url(#D_70_)">
            <g transform="translate(292.8125,416.375)">
                <path fill="#D0DDDC" d="M-226.4-313.8c0.7-8.6,1.5-15.6,18.6-16.1c13.7-0.4,24.6,2.8,26.1,6.1c1,2.1,0.2,11.3-6.6,19.7c4.4-3.9,11.4-19.4,8.4-21.3c-11.1-7.1-33.2-7.3-41.4-4.4c-1.5,0.5-3.9,2.2-5.5,4C-227.1-323.6-227.1-315-226.4-313.8" />
            </g>
        </g>
    </g>
    <g>
        <defs>
            <rect id="D_71_" x="66.8" y="103" width="35.2" height="13.9" />
        </defs>
        <clipPath id="D_72_">
            <use xlink:href="#D_71_" overflow="visible" />
        </clipPath>
        <g clip-path="url(#D_72_)">
            <g transform="translate(293.584,415.5)">
                <path fill="#D0DDDC" d="M-226.7-312.3c2.6,16.8,33.3,11.7,35.1,11c-0.1,0.9-16.1,5.4-29.5,0.2C-226.5-303.1-226.9-314.2-226.7-312.3" />
            </g>
        </g>
    </g>
    <g>
        <defs>
            <rect id="D_73_" x="141.2" y="89.5" width="47.7" height="25.5" />
        </defs>
        <clipPath id="D_74_">
            <use xlink:href="#D_73_" overflow="visible" />
        </clipPath>
        <g clip-path="url(#D_74_)">
            <g transform="translate(474.457,405.0869)">
                <path fill="#D0DDDC" d="M-287.5-295c0.4-8.7,0.4-15.6-16.4-18.2c-13.5-2.1-24.7-0.3-26.7,2.8c-1.2,1.9-1.6,11.2,4.2,20.4c-3.9-4.5-9-20.6-5.7-22.2c11.9-5.7,33.9-3.2,41.6,0.7c1.4,0.7,3.7,2.6,5,4.7C-285.6-304.7-286.6-296.1-287.5-295" />
            </g>
        </g>
    </g>
    <g>
        <defs>
            <rect id="D_75_" x="150.2" y="110.4" width="36.3" height="11.7" />
        </defs>
        <clipPath id="D_76_">
            <use xlink:href="#D_75_" overflow="visible" />
        </clipPath>
        <g clip-path="url(#D_76_)">
            <g transform="translate(473.583,404.3135)">
                <path fill="#D0DDDC" d="M-287.2-293.7c-4.6,16.3-34.5,7.5-36.2,6.6c0,0.9,15.3,7.3,29.3,3.9C-288.5-284.6-286.6-295.6-287.2-293.7" />
            </g>
        </g>
    </g>
    <g>
        <defs>
            <rect id="D_77_" x="87.3" y="95.2" width="2" height="2" />
        </defs>
        <clipPath id="D_78_">
            <use xlink:href="#D_77_" overflow="visible" />
        </clipPath>
        <g opacity="0.25" clip-path="url(#D_78_)">
            <g transform="translate(327.375,426)">
                <path fill="#FFFFFF" d="M-238-329.8c0-0.5-0.4-1-1-1s-1,0.4-1,1s0.4,1,1,1S-238-329.2-238-329.8" />
            </g>
        </g>
    </g>
    <g>
        <defs>
            <rect id="D_79_" x="166.3" y="99.9" width="2" height="2" />
        </defs>
        <clipPath id="D_80_">
            <use xlink:href="#D_79_" overflow="visible" />
        </clipPath>
        <g opacity="0.25" clip-path="url(#D_80_)">
            <g transform="translate(446.375,419)">
                <path fill="#FFFFFF" d="M-278-318.1c0-0.5-0.4-1-1-1c-0.5,0-1,0.4-1,1s0.4,1,1,1C-278.5-317.1-278-317.6-278-318.1" />
            </g>
        </g>
    </g>
    <g>
        <defs>
            <rect id="D_81_" x="52" y="79.1" width="64.8" height="9.5" />
        </defs>
        <clipPath id="D_82_">
            <use xlink:href="#D_81_" overflow="visible" />
        </clipPath>
        <g opacity="0.1" clip-path="url(#D_82_)">
            <g transform="translate(271.125,447.875)">
                <path fill="#D0DDDC" d="M-219.1-366.2c2.4,2.7,3.9,3,7.1,2.6c31.1-4,48.3-3.9,56.8,4c1.8,1.7,0.8-5.1-2.6-6c-26.2-6.9-45.2-0.7-49.2-0.2C-211.1-365.2-214-366.1-219.1-366.2" />
            </g>
        </g>
    </g>
    <g>
        <defs>
            <rect id="D_83_" x="137.7" y="82.3" width="47.9" height="9.2" />
        </defs>
        <clipPath id="D_84_">
            <use xlink:href="#D_83_" overflow="visible" />
        </clipPath>
        <g opacity="0.1" clip-path="url(#D_84_)">
            <g transform="translate(400.625,441.875)">
                <path fill="#D0DDDC" d="M-262.6-356.2c-0.7,0.7-0.4,7.9,3,5.2c9.8-7.8,30.3-6,44.6-1.2c-2.3-4.5-19-7.6-28.4-7.5C-247.9-359.5-260.7-358.2-262.6-356.2" />
            </g>
        </g>
    </g>
    <path fill="#D0DDDC" d="M197.2,91.4c0,0.3-1.6,0.5-3.5,0.5c-1.9,0-3.5-0.2-3.5-0.5c0-0.3,1.6-0.5,3.5-0.5C195.7,90.9,197.2,91.2,197.2,91.4" />
    <path fill="#D0DDDC" d="M62.4,82.8c0,0.3-1.6,0.3-3.5,0c-1.9-0.3-3.4-0.8-3.3-1.1s1.6-0.3,3.5,0C61,81.9,62.5,82.4,62.4,82.8" />
    <g transform="translate(578.4404,204.8359)">
        <path fill="#FFFFFF" d="M-322.4,38.2c-0.6-6.1-5.1-8.8-9.2-8.8c-1.9,0-3.4,0.5-4,0.8l-0.8,0.4l-0.7,0.5c-1,0.7-2.7,1.8-4.2,2.3c-0.1-1.2,0-2.8,0.2-4.2l0-0.2c1.1-10.7-1.1-17-6.7-18.6c-0.9-0.3-1.9-0.4-2.9-0.4c-3.4,0-6.4,1.6-8.3,3c-1.6-2.1-4.4-3.2-7.8-3.2c-5.1,0-9.2,2.4-10.7,6.2c-0.2,0.4-0.4,1-0.6,1.8c-3-6.6-9.1-9.1-14.8-9.1c-5.4,0-10.6,2.1-12.5,3.6c-0.1,0.1-0.2,0.1-0.3,0.2c-5.1,3.6-9.1,8.2-11.9,13.7c-1.4-4.7-4.4-9.2-9.7-12.5l-0.1-0.1c-0.2-0.1-0.3-0.2-0.4-0.2c5.3-9.3,9.9-21.7,7.1-33.5c-3-12.6-10.4-14.4-14.5-14.4c-1.7,0-3.5,0.3-5.3,0.9l-0.1,0l-0.1,0c-7.8,3.1-11.2,7.7-12,8.8c-0.8,1.2-9.3,14.2-11.4,33.2c-0.2,2.1-0.5,4.3-0.7,6.5c-1.2-1.7-3.2-3.3-6.3-4.2c-1-0.3-2-0.4-3-0.4c-4.3,0-7.8,2.6-9.7,4.4l0,0c-1.6-2.4-4.2-3.9-7.1-4c-0.2,0-0.5,0-0.7,0c-4.6,0-8.2,2-10.9,4.3c-1.7-3-4.9-4.9-8.6-4.9c-0.3,0-0.6,0-0.9,0c-0.2,0-0.4,0-0.6,0c-5.1,0-9.1,2.4-10.7,6.4c-0.1,0.3-0.3,0.7-0.4,1.2c-4-5-9.1-7.3-16-7.3c-0.2,0-0.4,0-0.7,0c-4.3,0.1-14.9,1.9-21.5,16.6c-1,2.3-1.8,4.6-2.4,6.8c-1.4-0.7-2.8-0.8-3.7-0.8c-3.4,0-6,1.9-7.2,3.8c-1,1.5-4.2,6.7-2.6,11.9c0.9,2.8,2.8,4.9,5.6,6c2.5,1,5.6,1.9,7.9,2.6c1.4,3.3,4,7,8.6,10.5c3.2,2.5,7.4,3.7,12.2,3.7c8.2,0,16.1-3.5,16.9-3.9l0.3-0.2l0.1-0.1c1.6,1.6,3.6,2.8,6.2,3.3c0.8,0.2,1.8,0.3,3,0.3c4.4,0,7.5-2.3,10.4-6.5c2.3,3.7,6.6,5.7,11.6,5.7h0c0.3,0,0.5,0.2,0.9,0.2c2.6,0,6-0.9,8.7-5.4c2.3,4.1,6.5,6.5,11.5,6.5c4.4,0,8.3-1.8,9-2.2l0.2-0.1c1.5-0.8,2.7-1.5,3.7-2c3.3,1.8,8.3,3.7,14.5,3.7c1.1,0,2.1,0,3.2-0.2l0.3,0l0.3,0c13-2.6,21.5-5.7,26.6-8.1c3.5,4,9.2,7.8,17.2,8.4c0.9,0.1,1.8,0.1,2.7,0.1c6.6,0,11.9-1.9,15.8-3.9c1.2,1.3,2.8,2.5,4.8,3.3c1.2,0.5,2.5,0.7,3.7,0.7c8.1,0,11.9-9.6,12.9-12.9l1.9-5.2c1.7,1.8,3.9,3.3,6.7,4.1c1.5,0.4,3.2,0.7,4.8,0.7c8.9,0,17.5-6.3,18.8-7.4C-324.5,48.1-321.9,43.9-322.4,38.2" />
    </g>
    <g transform="translate(455.4502,200.8125)">
        <path fill="#E24B31" d="M-281.1,44.9c0,0-1.1-4,3.1-11.6c4.2-7.6,7.4-3.5,7.4-3.5s3.6,3.9-0.5,9.7C-275.2,45.3-281.1,44.9-281.1,44.9 M-313.2,50.4c-4.8,12.5-16.4,7.4-16.4,7.4s-1.3-4.5,2.5-17c3.8-12.5,12.6-7.6,12.6-7.6S-308.4,37.9-313.2,50.4 M-321.9-2.1c0,0,7.2-18.9,9-9.7c1.8,9.2-15.2,36.5-15.2,36.5C-327.9,18.6-321.9-2.1-321.9-2.1 M-425.4,44.9c0.3-12.1,8.2-17.4,11-14.8c2.8,2.6,1.8,8.4-3.5,11.9C-423,45.6-425.4,44.9-425.4,44.9 M-206.1,42.9c-0.4-4.1-4.1-2.6-4.1-2.6s-5.9,4.6-11.1,4.1c-5.2-0.5-3.5-12.1-3.5-12.1s1.1-10.7-1.9-11.6c-3.1-0.9-6.8,2.8-6.8,2.8s-4.7,5.2-6.9,11.8l-0.6,0.2c0,0,0.7-11.6-0.1-14.3c-0.6-1.3-6.2-1.2-7.1,1.1c-0.9,2.3-5.4,18.6-5.7,25.5c0,0-8.8,7.4-16.4,8.7c-7.7,1.2-9.5-3.6-9.5-3.6s20.8-5.8,20.1-22.4c-0.7-16.6-16.8-10.5-18.6-9.1c-1.8,1.3-11.1,7-13.9,22.6c-0.1,0.5-0.3,2.9-0.3,2.9s-8.1,5.4-12.5,6.8c0,0,12.5-21.1-2.8-30.7c-6.9-4.2-12.5,4.6-12.5,4.6s20.7-23,16.1-42.5c-2.2-9.3-6.8-10.3-11.1-8.8c-6.5,2.6-8.9,6.3-8.9,6.3s-8.4,12.1-10.3,30.2s-4.8,39.8-4.8,39.8s-4,3.9-7.6,4.1c-3.7,0.2-2-10.9-2-10.9s2.8-16.9,2.6-19.8s-0.4-4.4-3.8-5.4c-3.3-1-7,3.3-7,3.3s-9.7,14.7-10.5,16.9l-0.5,0.9l-0.5-0.6c0,0,6.8-20,0.3-20.3c-6.5-0.3-10.8,7.1-10.8,7.1s-7.4,12.5-7.7,13.9l-0.5-0.6c0,0,3.1-14.5,2.5-18.1c-0.6-3.6-4-2.8-4-2.8s-4.3-0.5-5.4,2.3c-1.1,2.8-5.2,21-5.7,26.8c0,0-10.7,7.7-17.7,7.7c-7,0.1-6.3-4.5-6.3-4.5s25.8-8.8,18.8-26.3c-3.2-4.5-6.8-5.9-12-5.8c-5.2,0.1-11.3,3.3-15.5,12.6c-2,4.5-2.8,8.7-2.8,11.9l0,0c0,0-4.8,0.9-7.3-1.1c-2.5-2-3.9,0-3.9,0s-4.3,6.1-0.1,7.7c4.2,1.6,10.6,3.2,10.6,3.2l0,0c0.6,2.6,2.3,7,7.4,10.8c7.6,5.8,22.3-0.9,22.3-0.9l6-3.6c0,0,0.2,5.4,4.6,6.2c4.4,0.8,6.2-0.1,13.9-18.6c4.5-9.5,4.8-9,4.8-9l0.5-0.1c0,0-3.5,18.1-2.1,23s7.1,4.4,7.1,4.4s3.2,1.1,5.7-7.9c2.6-9,7.4-18.4,7.4-18.4h0.6c0,0-2.1,18.1,1.1,24c3.3,5.9,11.7,1.8,11.7,1.8s5.9-3.1,6.8-4c0,0,7,5.9,16.9,4.8c22.1-4.4,30-10.3,30-10.3s3.8,9.6,15.6,10.5c13.5,1,20.8-7.5,20.8-7.5s-0.1,5.5,4.6,7.4c4.7,1.9,7.9-8.3,7.9-8.3l7.9-21.1h0.7c0,0,0.4,13.5,8.2,15.7c7.8,2.2,17.9-5.6,17.9-5.6S-205.6,47-206.1,42.9" />
    </g>
</svg>
