<?xml version="1.0" encoding="UTF-8" standalone="no"?>
<svg width="256px" height="75px" viewBox="0 0 256 75" version="1.1" xmlns="http://www.w3.org/2000/svg" xmlns:xlink="http://www.w3.org/1999/xlink" preserveAspectRatio="xMinYMin meet">
    <g>
        <path d="M1.66612431,57.8145135 L1.66612431,29.3237878 L37.2378783,29.3237878 L37.2378783,27.6576635 L1.66612431,27.6576635 L1.66612431,1.66612431 L39.4871461,1.66612431 L39.4871461,0 L3.55271368e-15,0 L3.55271368e-15,59.4806378 L39.820371,59.4806378 L39.820371,57.8145135 L1.66612431,57.8145135 Z M71.8932639,16.6612431 L57.1480638,36.0715913 L42.7360885,16.6612431 L40.5701269,16.6612431 L56.1483892,37.3211845 L39.070615,59.4806378 L41.0699642,59.4806378 L57.1480638,38.5707777 L73.3094696,59.4806378 L75.392125,59.4806378 L58.2310446,37.3211845 L73.8926131,16.6612431 L71.8932639,16.6612431 Z M80.3904979,74.1425317 L80.3904979,47.4845428 L80.5571103,47.4845428 C81.5567899,51.3721856 83.5283506,54.4961375 86.4718516,56.856492 C89.4153526,59.2168466 93.1640948,60.3970062 97.7181907,60.3970062 C100.661692,60.3970062 103.271927,59.7999843 105.548975,58.6059226 C107.826023,57.4118608 109.728162,55.7874059 111.255451,53.7325089 C112.782739,51.677612 113.949014,49.2895244 114.754312,46.5681744 C115.559609,43.8468244 115.962252,40.986673 115.962252,37.9876342 C115.962252,34.7664445 115.545725,31.7952192 114.712659,29.0738692 C113.879592,26.3525192 112.671664,23.9922 111.088838,21.9928409 C109.506012,19.9934817 107.589988,18.4384479 105.340709,17.3276928 C103.09143,16.2169377 100.550616,15.6615685 97.7181907,15.6615685 C95.5522183,15.6615685 93.5390049,15.9809058 91.6784901,16.61959 C89.8179753,17.2582742 88.1657519,18.1607491 86.7217703,19.327042 C85.2777886,20.4933348 84.0282079,21.8678736 82.9729906,23.4506996 C81.9177732,25.0335256 81.1124879,26.7690544 80.5571103,28.6573381 L80.3904979,28.6573381 L80.3904979,16.6612431 L78.7243736,16.6612431 L78.7243736,74.1425317 L80.3904979,74.1425317 Z M97.7181907,58.8141881 C92.4976418,58.8141881 88.3046042,57.0231224 85.1389522,53.4409372 C81.9733001,49.858752 80.3904979,44.7077025 80.3904979,37.9876342 C80.3904979,35.2107465 80.7792563,32.5727427 81.5567849,30.0735438 C82.3343135,27.5743448 83.4589361,25.3806364 84.9306866,23.4923527 C86.4024371,21.6040691 88.2212713,20.1045722 90.3872437,18.9938171 C92.5532162,17.883062 94.9968407,17.3276928 97.7181907,17.3276928 C100.495078,17.3276928 102.924819,17.883062 105.007485,18.9938171 C107.09015,20.1045722 108.811795,21.6179533 110.17247,23.5340059 C111.533145,25.4500584 112.560578,27.6437668 113.2548,30.1151969 C113.949022,32.586627 114.296128,35.2107465 114.296128,37.9876342 C114.296128,40.4868332 113.97679,42.9721104 113.338106,45.4435405 C112.699422,47.9149706 111.713642,50.1364475 110.380735,52.1080377 C109.047829,54.079628 107.340069,55.6901988 105.257403,56.9397982 C103.174737,58.1893977 100.661692,58.8141881 97.7181907,58.8141881 L97.7181907,58.8141881 Z M125.125936,59.4806378 L125.125936,35.2385291 C125.125936,32.9059434 125.459157,30.6289296 126.12561,28.4074195 C126.792063,26.1859093 127.819496,24.2282328 129.20794,22.5343313 C130.596384,20.8404298 132.359681,19.5075436 134.497885,18.5356329 C136.636088,17.5637222 139.176903,17.1610795 142.120404,17.3276928 L142.120404,15.6615685 C139.565667,15.6060307 137.330306,15.8837154 135.414253,16.4946307 C133.498201,17.105546 131.845977,17.9385998 130.457533,18.9938171 C129.069089,20.0490345 127.958351,21.284731 127.125285,22.7009437 C126.292218,24.1171564 125.681312,25.6305376 125.292548,27.2411324 L125.125936,27.2411324 L125.125936,16.6612431 L123.459811,16.6612431 L123.459811,59.4806378 L125.125936,59.4806378 Z M144.203059,38.4041653 L180.024732,38.4041653 C180.135807,35.4606643 179.844238,32.6282813 179.150016,29.9069313 C178.455794,27.1855814 177.345056,24.7697253 175.817768,22.6592906 C174.290479,20.5488559 172.318919,18.8549798 169.903026,17.5776115 C167.487134,16.3002431 164.613098,15.6615685 161.280833,15.6615685 C158.89271,15.6615685 156.560159,16.1614008 154.283111,17.1610804 C152.006063,18.16076 150.006734,19.6186042 148.285063,21.5346567 C146.563393,23.4507092 145.17497,25.7971442 144.119753,28.5740319 C143.064535,31.3509196 142.536935,34.5165242 142.536935,38.0709404 C142.536935,41.2365925 142.897925,44.1939335 143.619915,46.9430524 C144.341906,49.6921712 145.452645,52.0802589 146.952164,54.1073869 C148.451683,56.134515 150.381591,57.703433 152.741946,58.8141881 C155.102301,59.9249432 157.948568,60.4525439 161.280833,60.3970062 C166.168155,60.3970062 170.277888,59.0224674 173.610153,56.2733485 C176.942418,53.5242297 178.913979,49.6505294 179.524894,44.6521315 L177.85877,44.6521315 C177.136779,49.3728406 175.290176,52.9133194 172.318907,55.2736739 C169.347637,57.6340285 165.612779,58.8141881 161.114221,58.8141881 C158.059644,58.8141881 155.477177,58.2865873 153.366743,57.23137 C151.256308,56.1761527 149.534663,54.7321927 148.201757,52.8994468 C146.868851,51.0667009 145.883071,48.9146452 145.244387,46.4432151 C144.605702,43.971785 144.258597,41.2921286 144.203059,38.4041653 L144.203059,38.4041653 Z M178.358607,36.738041 L144.203059,36.738041 C144.369672,33.7390023 144.925041,31.0454616 145.869183,28.6573381 C146.813325,26.2692147 148.049022,24.2282328 149.57631,22.5343313 C151.103598,20.8404298 152.88078,19.5491963 154.907908,18.6605923 C156.935036,17.7719882 159.11486,17.3276928 161.447445,17.3276928 C164.224333,17.3276928 166.667958,17.8414093 168.778392,18.8688578 C170.888827,19.8963063 172.652124,21.2986135 174.068337,23.0758217 C175.48455,24.8530298 176.553636,26.9217801 177.275626,29.2821347 C177.997617,31.6424893 178.358607,34.1277665 178.358607,36.738041 L178.358607,36.738041 Z M214.596811,29.3237878 L216.262935,29.3237878 C216.262935,24.5475409 214.874512,21.0764833 212.097624,18.9105109 C209.320737,16.7445385 205.544226,15.6615685 200.767979,15.6615685 C198.102167,15.6615685 195.852922,15.99479 194.020176,16.6612431 C192.18743,17.3276961 190.687933,18.1885184 189.52164,19.2437358 C188.355347,20.2989531 187.522293,21.4652285 187.022454,22.7425968 C186.522614,24.0199652 186.272698,25.2417774 186.272698,26.4080703 C186.272698,28.740656 186.689225,30.6011429 187.522291,31.9895867 C188.355357,33.3780306 189.660475,34.4610006 191.437683,35.2385291 C192.659514,35.7939067 194.047937,36.293739 195.602994,36.738041 C197.158051,37.182343 198.963001,37.6544069 201.017898,38.1542467 C202.850644,38.5985487 204.655594,39.0428441 206.432802,39.4871461 C208.21001,39.9314481 209.778928,40.5284701 211.139603,41.2782297 C212.500278,42.0279894 213.611016,42.9860013 214.471852,44.1522942 C215.332687,45.318587 215.763098,46.8458524 215.763098,48.734136 C215.763098,50.5668819 215.332687,52.1219157 214.471852,53.3992841 C213.611016,54.6766524 212.514162,55.7179697 211.181256,56.5232672 C209.84835,57.3285646 208.362737,57.9117023 206.724374,58.2726977 C205.08601,58.6336931 203.489323,58.8141881 201.934266,58.8141881 C196.880331,58.8141881 193.00663,57.6895654 190.313049,55.4402864 C187.619468,53.1910073 186.272698,49.6505286 186.272698,44.8187439 L184.606573,44.8187439 C184.606573,50.2059061 186.064418,54.1490275 188.98015,56.6482265 C191.895882,59.1474254 196.213877,60.3970062 201.934266,60.3970062 C203.767012,60.3970062 205.613615,60.1887427 207.47413,59.7722096 C209.334644,59.3556764 211.000752,58.6753491 212.472502,57.7312073 C213.944253,56.7870655 215.138297,55.5652532 216.05467,54.0657338 C216.971043,52.5662144 217.429222,50.733496 217.429222,48.5675236 C217.429222,46.5126267 217.02658,44.846519 216.221282,43.5691507 C215.415985,42.2917823 214.360783,41.2365808 213.055646,40.4035145 C211.750509,39.5704482 210.27878,38.9178893 208.640417,38.4458184 C207.002053,37.9737475 205.349829,37.5155679 203.683697,37.0712659 C201.351111,36.4603506 199.310129,35.9327498 197.56069,35.4884478 C195.811251,35.0441457 194.186796,34.516545 192.687276,33.9056297 C191.243295,33.2947144 190.090904,32.4200079 189.230068,31.2814839 C188.369233,30.1429599 187.938822,28.518505 187.938822,26.4080703 C187.938822,26.019306 188.049896,25.3250945 188.272047,24.3254149 C188.494198,23.3257353 189.021799,22.3121865 189.854865,21.284738 C190.687931,20.2572896 191.96528,19.3409304 193.686951,18.5356329 C195.408621,17.7303355 197.76894,17.3276928 200.767979,17.3276928 C202.822876,17.3276928 204.697247,17.5498405 206.391149,17.9941425 C208.08505,18.4384446 209.542894,19.1465403 210.764725,20.118451 C211.986556,21.0903617 212.930683,22.3260582 213.597136,23.8255776 C214.263589,25.325097 214.596811,27.1578154 214.596811,29.3237878 L214.596811,29.3237878 Z M253.167589,29.3237878 L254.833713,29.3237878 C254.833713,24.5475409 253.44529,21.0764833 250.668402,18.9105109 C247.891514,16.7445385 244.115004,15.6615685 239.338757,15.6615685 C236.672945,15.6615685 234.423699,15.99479 232.590953,16.6612431 C230.758208,17.3276961 229.258711,18.1885184 228.092418,19.2437358 C226.926125,20.2989531 226.093071,21.4652285 225.593231,22.7425968 C225.093392,24.0199652 224.843475,25.2417774 224.843475,26.4080703 C224.843475,28.740656 225.260002,30.6011429 226.093069,31.9895867 C226.926135,33.3780306 228.231253,34.4610006 230.008461,35.2385291 C231.230291,35.7939067 232.618714,36.293739 234.173772,36.738041 C235.728829,37.182343 237.533779,37.6544069 239.588676,38.1542467 C241.421421,38.5985487 243.226371,39.0428441 245.00358,39.4871461 C246.780788,39.9314481 248.349706,40.5284701 249.710381,41.2782297 C251.071056,42.0279894 252.181794,42.9860013 253.042629,44.1522942 C253.903465,45.318587 254.333876,46.8458524 254.333876,48.734136 C254.333876,50.5668819 253.903465,52.1219157 253.042629,53.3992841 C252.181794,54.6766524 251.08494,55.7179697 249.752034,56.5232672 C248.419128,57.3285646 246.933515,57.9117023 245.295151,58.2726977 C243.656788,58.6336931 242.060101,58.8141881 240.505044,58.8141881 C235.451108,58.8141881 231.577408,57.6895654 228.883827,55.4402864 C226.190246,53.1910073 224.843475,49.6505286 224.843475,44.8187439 L223.177351,44.8187439 C223.177351,50.2059061 224.635195,54.1490275 227.550927,56.6482265 C230.46666,59.1474254 234.784655,60.3970062 240.505044,60.3970062 C242.33779,60.3970062 244.184392,60.1887427 246.044907,59.7722096 C247.905422,59.3556764 249.57153,58.6753491 251.04328,57.7312073 C252.515031,56.7870655 253.709074,55.5652532 254.625447,54.0657338 C255.54182,52.5662144 256,50.733496 256,48.5675236 C256,46.5126267 255.597357,44.846519 254.79206,43.5691507 C253.986762,42.2917823 252.931561,41.2365808 251.626424,40.4035145 C250.321286,39.5704482 248.849558,38.9178893 247.211194,38.4458184 C245.572831,37.9737475 243.920607,37.5155679 242.254474,37.0712659 C239.921889,36.4603506 237.880907,35.9327498 236.131468,35.4884478 C234.382028,35.0441457 232.757573,34.516545 231.258054,33.9056297 C229.814072,33.2947144 228.661681,32.4200079 227.800846,31.2814839 C226.940011,30.1429599 226.5096,28.518505 226.5096,26.4080703 C226.5096,26.019306 226.620674,25.3250945 226.842825,24.3254149 C227.064976,23.3257353 227.592576,22.3121865 228.425643,21.284738 C229.258709,20.2572896 230.536058,19.3409304 232.257729,18.5356329 C233.979399,17.7303355 236.339718,17.3276928 239.338757,17.3276928 C241.393654,17.3276928 243.268025,17.5498405 244.961926,17.9941425 C246.655828,18.4384446 248.113672,19.1465403 249.335503,20.118451 C250.557333,21.0903617 251.501461,22.3260582 252.167914,23.8255776 C252.834367,25.325097 253.167589,27.1578154 253.167589,29.3237878 L253.167589,29.3237878 Z" fill="#222222"></path>
    </g>
</svg>