<?xml version="1.0" encoding="UTF-8" standalone="no"?>
<svg width="196px" height="156px" viewBox="0 0 196 156" version="1.1" xmlns="http://www.w3.org/2000/svg" xmlns:xlink="http://www.w3.org/1999/xlink" xmlns:sketch="http://www.bohemiancoding.com/sketch/ns">
    <!-- Generator: Sketch 3.3.2 (12043) - http://www.bohemiancoding.com/sketch -->
    <title>Group</title>
    <desc>Created with Sketch.</desc>
    <defs></defs>
    <g id="Welcome" stroke="none" stroke-width="1" fill="none" fill-rule="evenodd" sketch:type="MSPage">
        <g id="Desktop" sketch:type="MSArtboardGroup" transform="translate(-244.000000, -153.000000)">
            <g id="Group" sketch:type="MSLayerGroup" transform="translate(244.000000, 153.000000)">
                <path d="M185.372387,104.406907 L195.589248,104.463009 C195.589248,104.463009 176.594092,130.185048 175.043246,132.281409 C174.539398,132.960249 173.774033,133.692386 173.386206,134.599843 C172.405173,136.881343 171.397942,141.885681 171.397942,141.885681 L162.049835,141.931966 C162.049835,141.931966 163.504307,136.71584 163.444425,133.937367 C163.391561,131.510001 162.151821,129.085907 161.456163,126.651528 C160.753488,124.187696 159.799121,119.36569 159.799121,119.36569 L169.40968,119.36569 L170.735032,124.664567 L185.372387,104.406907" id="Shape" fill="#1A1918" sketch:type="MSShapeGroup"></path>
                <path d="M166.026359,109.831546 C167.9117,110.967621 169.068635,117.23333 169.068635,117.23333 C169.068635,117.23333 159.20311,117.378728 153.834335,117.378728 L149.194899,117.378728 L143.561334,141.885681 L134.945374,141.885681 C134.945374,141.885681 140.307132,115.252913 141.573071,110.424362 C141.983823,108.861441 144.383305,109.129331 148.436086,109.129331 L154.907996,109.129331 C159.08709,109.129331 163.971666,108.596357 166.026359,109.831546" id="Shape" fill="#1A1918" sketch:type="MSShapeGroup"></path>
                <path d="M125.91492,121.766875 C125.91492,121.766875 126.183453,120.193669 125.003594,118.372209 C123.996363,116.819106 123.065389,116.458181 120.414216,116.37543 C112.928058,116.140267 113.073552,121.684124 113.073552,121.684124 L125.91492,121.766875 L125.91492,121.766875 Z M134.034048,115.418415 C135.131101,119.372703 133.039916,128.665139 133.039916,128.665139 C133.039916,128.665139 122.120379,128.482806 116.139219,128.665139 C114.279609,128.721709 112.053222,128.46317 111.499783,129.327615 C110.720853,130.539428 111.784222,132.404367 112.685724,133.192139 C113.723363,134.099596 115.744373,134.202451 116.470439,134.29502 C121.325075,134.911212 131.485797,134.453977 131.485797,134.453977 L129.725834,142.242867 C129.725834,142.242867 115.367305,142.961913 108.185701,141.249386 C106.767719,140.911836 105.438624,140.229724 104.540398,139.262424 C104.295256,138.997808 104.082864,138.636882 103.850822,138.325513 C103.665562,138.076792 103.12569,137.259099 102.883356,136.612986 C101.243156,132.244943 103.075633,123.876327 104.871618,119.392339 C105.080269,118.872456 105.342252,118.21372 105.617801,117.65363 C105.962122,116.955155 106.253578,116.166915 106.52866,115.74942 C106.713919,115.461427 106.943154,115.275821 107.135431,115.004192 C107.35718,114.683006 107.615421,114.371637 107.85448,114.09393 C108.516922,113.325326 109.269187,112.782068 110.173964,112.106968 C113.166182,109.868013 118.581273,108.129304 125.086399,108.795053 C127.535471,109.046579 131.234107,109.920843 133.039916,112.437973 C133.523649,113.110267 133.762241,114.44457 134.034048,115.418415 L134.034048,115.418415 L134.034048,115.418415 Z" id="Shape" fill="#1A1918" sketch:type="MSShapeGroup"></path>
                <path d="M94.5158125,109.099409 L102.870257,109.049852 C102.870257,109.049852 98.2144483,131.122426 95.8416322,141.885681 L86.2310735,141.885681 C79.5140216,141.885681 73.5323924,142.716933 70.9874172,137.91129 C68.5186971,133.245436 70.8746706,125.572024 71.9815479,120.359171 C72.763754,116.669967 74.410971,109.129331 74.410971,109.129331 L83.0666961,109.049852 C83.0666961,109.049852 80.6208988,120.789757 79.603376,126.651528 C79.2389395,128.751163 78.4871427,130.728306 79.2721552,132.281409 C80.0178708,133.758774 81.0615913,133.864433 84.2428113,133.937367 C85.2505096,133.960743 88.5510248,133.937367 88.5510248,133.937367 L94.5158125,109.099409" id="Shape" fill="#1A1918" sketch:type="MSShapeGroup"></path>
                <path d="M55.4120709,124.995571 C56.2869062,121.889365 57.5626686,118.521348 57.4003331,115.722771 C57.2248982,112.729238 54.7131378,110.003594 53.092587,109.430881 C48.2112863,107.708536 43.6415575,110.116266 41.8254552,112.079852 C39.475563,114.62363 38.680258,117.594255 37.8484626,121.684124 C37.2290604,124.720669 36.7219365,127.926457 37.8484626,130.294447 C39.8432746,134.480625 46.063495,133.566623 52.7608988,133.606362 C53.7550294,130.943833 54.577001,127.953105 55.4120709,124.995571 L55.4120709,124.995571 L55.4120709,124.995571 Z M67.0108918,112.742328 C67.965258,119.677059 64.3035802,127.330836 61.7815278,133.986924 C64.3531701,134.218814 66.6066899,133.950925 66.7690255,134.142608 C66.9379107,134.391329 65.0455534,142.08765 64.3859174,142.107286 C62.3447914,142.160583 55.5814245,142.216686 52.7608988,142.216686 C43.5582844,142.216686 34.9488743,142.816047 30.558323,138.242762 C28.7754365,136.384836 27.5427137,133.198684 27.2442405,130.956924 C26.746941,127.214423 27.3700858,123.094633 28.2383717,119.697162 C29.0238523,116.630228 30.0310827,113.735809 31.5524542,111.086371 C35.4195077,104.340519 42.146852,99.3333752 53.4238087,100.489086 C55.610897,100.714431 58.7523515,101.671445 60.714416,102.807052 C60.8500855,102.886998 61.3244612,103.264287 61.4334655,103.330675 C64.0846376,105.016553 66.500493,109.040034 67.0108918,112.742328 L67.0108918,112.742328 L67.0108918,112.742328 Z" id="Shape" fill="#1A1918" sketch:type="MSShapeGroup"></path>
                <path d="M26.2931493,109.139148 C25.7364359,111.672642 25.1797224,114.544152 24.5930681,117.047724 L15.3141983,117.047724 C16.0332476,114.272523 16.5834114,111.513685 17.3024607,109.099409 C20.2717552,109.099409 23.032399,109.139148 26.2931493,109.139148" id="Shape" fill="#1A1918" sketch:type="MSShapeGroup"></path>
                <path d="M14.9829771,119.36569 L23.930158,119.36569 C22.7605918,125.837108 20.4443831,136.275436 18.6282808,143.541171 C17.4914626,148.088275 16.7326481,151.406735 13.657157,153.807452 C13.3820751,154.022979 13.2234819,153.920592 12.9947147,154.138924 C12.4277091,154.67891 9.80647752,155.30492 8.35527984,155.463409 C5.99556326,155.718675 3.3280169,155.496603 0.428428564,155.437228 C1.18724306,152.6653 2.04570462,149.337022 2.72171383,146.853086 C9.79010355,147.707713 9.96928115,141.031054 11.3376735,134.599843 C12.1297037,130.883991 14.5291855,120.856145 14.9829771,119.36569" id="Shape" fill="#1A1918" sketch:type="MSShapeGroup"></path>
                <g transform="translate(55.628853, 0.000000)" id="Shape" fill="#21609B" sketch:type="MSShapeGroup">
                    <path d="M90.8456234,68.06436 L90.4313877,69.1366298 C83.374225,82.8681442 70.8713779,91.2938416 53.0370138,91.6654003 C44.6997617,91.8370443 36.7555284,89.6995724 31.566468,87.374302 C20.366948,82.3461447 10.9476313,73.0208309 5.80302548,63.0574057 C-1.57643273,48.7746114 -2.90703877,28.9063216 12.4368594,14.0661895 C12.6732768,14.0661895 10.5758295,17.2840083 10.812247,17.2840083 L10.3899286,18.6571597 C-0.667134756,53.2514889 33.3981982,82.8974245 66.5128098,79.506952 C74.4711877,78.6921482 84.6199633,74.3364312 90.8456234,68.06436"></path>
                    <path d="M70.8067167,53.759353 C79.1379069,53.8169042 87.8398885,49.9256353 92.992577,44.46231 C88.4844798,55.8988442 75.431002,63.2502527 57.9249956,60.9118565 C43.2681225,58.9520866 29.3053471,44.2119118 27.8666355,29.4424564 C26.8148809,18.6935079 30.5642195,12.2780636 36.7413838,4.49653555 C34.5944302,8.56651602 33.7922274,11.7055806 33.5921817,13.7077565 C31.2451827,36.959451 52.1782323,53.6381925 70.8067167,53.759353"></path>
                    <path d="M92.1560228,24.879757 C90.8607783,27.8481874 83.4035248,33.4548858 80.1108556,34.1555969 C67.0715228,36.9311802 58.7201262,30.7519988 54.3464029,23.7206558 C53.6957497,22.669589 52.4934556,19.8021257 52.2782552,19.0721342 C50.5819092,13.3079272 51.3618848,4.5894252 56.4226333,0.0761995292 C54.8980436,4.36729776 54.6757708,9.35203941 55.4779736,12.592071 C55.9639428,14.5518408 57.4450883,17.9715937 58.927244,20.1232008 C61.6248278,24.0427404 63.3353185,24.9948593 66.7997436,27.0757895 C68.359695,28.0127636 70.0338135,28.7639581 70.7572106,28.9709405 C74.0417968,29.9361852 80.9767094,32.4825733 92.1560228,24.879757"></path>
                </g>
            </g>
        </g>
    </g>
</svg>