<?xml version="1.0" encoding="UTF-8" standalone="no" ?>
<svg width="256px" height="58px" viewBox="0 0 256 58" version="1.1" xmlns="http://www.w3.org/2000/svg" xmlns:xlink="http://www.w3.org/1999/xlink" preserveAspectRatio="xMinYMin meet">
    <g>
        <path d="M244.859096,4.32306513 L255.56941,4.38191571 C255.56941,4.38191571 235.656828,31.3639234 234.03108,33.5629732 C233.502897,34.2750651 232.700567,35.0430651 232.294008,35.9949732 C231.265594,38.3882299 230.209716,43.6377011 230.209716,43.6377011 L220.410115,43.6862529 C220.410115,43.6862529 221.934835,38.2146207 221.872061,35.300046 C221.816644,32.7537778 220.517027,30.2109425 219.78777,27.657318 C219.051157,25.0727969 218.050697,20.01459 218.050697,20.01459 L228.125425,20.01459 L229.514789,25.5730268 L244.859096,4.32306513" fill="#1A1918"></path>
        <path d="M224.578697,10.0134253 C226.555096,11.2051494 227.767908,17.7777778 227.767908,17.7777778 C227.767908,17.7777778 217.4259,17.9302989 211.797824,17.9302989 L206.934314,17.9302989 L201.028659,43.6377011 L191.996567,43.6377011 C191.996567,43.6377011 197.617287,15.7003525 198.944368,10.6352797 C199.374958,8.99580077 201.89033,9.27681226 206.138851,9.27681226 L212.923341,9.27681226 C217.304276,9.27681226 222.424766,8.7177318 224.578697,10.0134253" fill="#1A1918"></path>
        <path d="M182.529962,22.5333946 C182.529962,22.5333946 182.811464,20.8831264 181.574621,18.9724444 C180.518743,17.3432644 179.542805,16.964659 176.763586,16.8778544 C168.915862,16.6311724 169.068383,22.44659 169.068383,22.44659 L182.529962,22.5333946 L182.529962,22.5333946 Z M191.041226,15.8739617 C192.191264,20.0219464 189.99908,29.7695632 189.99908,29.7695632 C189.99908,29.7695632 178.552153,29.5782989 172.282115,29.7695632 C170.33269,29.8289042 167.998774,29.5577011 167.418605,30.4644904 C166.602054,31.7356628 167.716782,33.691954 168.661824,34.5183142 C169.749579,35.4702222 171.868199,35.5781149 172.629333,35.6752184 C177.718437,36.3215939 188.3699,35.8419617 188.3699,35.8419617 L186.524935,44.0123831 C186.524935,44.0123831 171.47292,44.7666513 163.94446,42.9702375 C162.457992,42.6161533 161.064705,41.9006284 160.123096,40.8859464 C159.866115,40.6083678 159.643464,40.2297625 159.400215,39.9031418 C159.206008,39.6422375 158.640061,38.7844904 158.386023,38.106728 C156.666605,33.5247203 158.587586,24.7461762 160.470314,20.0425441 C160.689042,19.4971954 160.963678,18.8061916 161.252536,18.2186667 C161.613487,17.485977 161.919019,16.6591264 162.207387,16.2211801 C162.401594,15.9190805 162.6419,15.7243831 162.843464,15.4394483 C163.075923,15.1025287 163.346636,14.775908 163.597241,14.4845977 C164.291678,13.6783448 165.080276,13.1084751 166.028751,12.4003065 C169.165487,10.0516782 174.842115,8.22780077 181.661425,8.92616092 C184.228782,9.19000766 188.106054,10.1070958 189.99908,12.7475249 C190.506176,13.452751 190.756291,14.8524138 191.041226,15.8739617 L191.041226,15.8739617 Z" fill="#1A1918"></path>
        <path d="M149.614345,9.24542529 L158.372291,9.19344061 C158.372291,9.19344061 153.491617,32.3472184 151.004199,43.6377011 L140.929471,43.6377011 C133.888,43.6377011 127.617471,44.5096705 124.949579,39.4686284 C122.361625,34.5742222 124.831387,26.5249349 125.991724,21.0567356 C126.811709,17.1868199 128.538483,9.27681226 128.538483,9.27681226 L137.612261,9.19344061 C137.612261,9.19344061 135.048337,21.5084138 133.98167,27.657318 C133.599632,29.8598008 132.811525,31.9337931 133.634452,33.5629732 C134.416184,35.112705 135.510314,35.2235402 138.84518,35.300046 C139.901548,35.324567 143.361471,35.300046 143.361471,35.300046 L149.614345,9.24542529" fill="#1A1918"></path>
        <path d="M108.621977,25.9202452 C109.539065,22.6618851 110.876444,19.1288889 110.706268,16.1932261 C110.52236,13.0530575 107.889287,10.1939004 106.190467,9.5931341 C101.07341,7.78642146 96.2829732,10.312092 94.3791571,12.3718621 C91.9157701,15.0402452 91.0820536,18.1563831 90.2100843,22.44659 C89.5607663,25.6318774 89.0291494,28.9946973 90.2100843,31.478682 C92.3012414,35.8699157 98.8218851,34.9111418 105.842759,34.9528276 C106.884904,32.1598774 107.746575,29.0226513 108.621977,25.9202452 L108.621977,25.9202452 Z M120.780996,13.0667893 C121.781456,20.3412107 117.942927,28.3699004 115.299065,35.3520307 C117.994912,35.5952797 120.357272,35.3142682 120.527448,35.515341 C120.70449,35.7762452 118.720736,43.8495632 118.029241,43.8701609 C115.889533,43.926069 108.79951,43.9849195 105.842759,43.9849195 C96.1956782,43.9849195 87.1704521,44.6136398 82.5678467,39.8163372 C80.6988506,37.8674023 79.40659,34.5251801 79.0937011,32.1736092 C78.5723831,28.2477854 79.2256245,23.9261916 80.1358467,20.3622989 C80.9592644,17.1451341 82.0151418,14.1089349 83.6099923,11.3297165 C87.6638161,4.25342529 94.7160766,-0.998988506 106.537686,0.213333333 C108.830406,0.449716475 112.123586,1.4536092 114.180414,2.64484291 C114.322636,2.72870498 114.819923,3.1244751 114.934192,3.19411494 C117.71341,4.96257471 120.245946,9.18314176 120.780996,13.0667893 L120.780996,13.0667893 Z" fill="#1A1918"></path>
        <path d="M78.0966743,9.28711111 C77.5130728,11.944705 76.9294713,14.9568736 76.3144828,17.5830805 L66.5874636,17.5830805 C67.3412414,14.6719387 67.917977,11.7779617 68.6717548,9.24542529 C71.7844598,9.24542529 74.6784368,9.28711111 78.0966743,9.28711111" fill="#1A1918"></path>
        <path d="M66.2402452,20.01459 L75.6195556,20.01459 C74.3935019,26.8030038 71.9654253,37.7526437 70.0616092,45.3742835 C68.8698851,50.1441226 68.0744215,53.6251341 64.8503908,56.1434483 C64.562023,56.3695326 64.3957701,56.2621303 64.155954,56.4911571 C63.5615632,57.0575939 60.8137318,57.7142682 59.2924444,57.8805211 C56.8187586,58.1482912 54.0223755,57.915341 50.9827433,57.8530575 C51.7782069,54.9453487 52.6781303,51.4540383 53.3867893,48.8484291 C60.796567,49.7449195 60.9843985,42.7412107 62.4188812,35.9949732 C63.2491648,32.0971034 65.7645364,21.5780536 66.2402452,20.01459" fill="#1A1918"></path>
        <g transform="translate(0.000000, 4.413793)" fill="#21609B">
            <path d="M44.3542069,33.3182529 L44.1531341,33.8390805 C40.7275402,40.5088123 34.6585747,44.6013793 26.0016552,44.7818544 C21.9546973,44.8652261 18.0985134,43.8270038 15.5797088,42.6975632 C10.143387,40.2552644 5.57118774,35.7257318 3.07396169,30.8862529 C-0.508076628,23.948751 -1.15396169,14.2982375 6.29406897,7.09002299 C6.40882759,7.09002299 5.39071264,8.65299617 5.50547126,8.65299617 L5.3004751,9.31996935 C-0.066697318,26.1232797 16.4688429,40.5230345 32.5428966,38.8761992 C36.4059464,38.4804291 41.3322299,36.364751 44.3542069,33.3182529"></path>
            <path d="M34.6271877,26.3699617 C38.6712031,26.3979157 42.8952031,24.5078314 45.3963525,21.8541609 C43.208092,27.4091648 36.8718467,30.9799234 28.3743142,29.8441073 C21.2597701,28.8921992 14.4821456,21.7325364 13.7837854,14.5586513 C13.2732567,9.33762452 15.0932107,6.22148659 18.0916475,2.44180843 C17.0495019,4.41869732 16.6601073,5.94341762 16.5630038,6.91592337 C15.4237548,18.2098391 25.5847969,26.3111111 34.6271877,26.3699617"></path>
            <path d="M44.9902835,12.3424368 C44.3615632,13.7842759 40.7417625,16.5075862 39.1434789,16.8479387 C32.8140996,18.1961073 28.7602759,15.194728 26.6372414,11.779433 C26.32141,11.2689042 25.7378084,9.87610728 25.6333487,9.52153257 C24.809931,6.72171648 25.1885364,2.4869272 27.6450575,0.294743295 C26.9050115,2.37903448 26.7971188,4.80024521 27.1865134,6.37400766 C27.4224061,7.32591571 28.141364,8.98697318 28.8608123,10.0320613 C30.1702375,11.9358774 31.0005211,12.3983448 32.6821762,13.4091034 C33.439387,13.8642146 34.2520153,14.2290881 34.6031571,14.3296245 C36.1975172,14.7984674 39.5637701,16.0353103 44.9902835,12.3424368"></path>
        </g>
    </g>
</svg>
