<svg width="128" height="128" viewBox="0 0 128 128" fill="none" xmlns="http://www.w3.org/2000/svg">
<g clip-path="url(#clip0_11_2)">
<path d="M64.06 128.16C99.5553 128.16 128.33 99.3853 128.33 63.89C128.33 28.3946 99.5553 -0.380005 64.06 -0.380005C28.5647 -0.380005 -0.209991 28.3946 -0.209991 63.89C-0.209991 99.3853 28.5647 128.16 64.06 128.16Z" fill="#ED8A80"/>
<path d="M72.6 -70.63L94.3 -12.93C95.9556 -8.46982 96.5623 -3.68842 96.0733 1.04392C95.5843 5.77627 94.0126 10.3326 91.48 14.36L66.3 54.31C64.64 57.22 65.21 61.02 69.04 63.31C73.04 65.73 78.04 64.49 81.04 59.92L109.04 15.48C111.58 11.4555 113.156 6.89878 113.645 2.16512C114.134 -2.56855 113.523 -7.35123 111.86 -11.81L90.13 -71.33" fill="#F2C666"/>
<path d="M80.91 -72L103.64 -12.08C105.291 -7.61755 105.893 -2.8349 105.399 1.89749C104.904 6.62988 103.328 11.185 100.79 15.21L73.92 57.89C73.02 59.32 67.18 68.08 68.44 69.22C72.3 72.74 87.37 65.38 90.44 60.82L118.44 16.37C120.979 12.3454 122.556 7.78924 123.046 3.05596C123.537 -1.67732 122.929 -6.46003 121.27 -10.92L99.47 -70.49" fill="#D8B060"/>
<path d="M31.46 64.19H-20.52C-22.8286 64.19 -24.7 66.0614 -24.7 68.37C-24.7 70.6785 -22.8286 72.55 -20.52 72.55H31.46C33.7685 72.55 35.64 70.6785 35.64 68.37C35.64 66.0614 33.7685 64.19 31.46 64.19Z" fill="white"/>
<path d="M20.16 81.36H-31.82C-34.1286 81.36 -36 83.2314 -36 85.54C-36 87.8485 -34.1286 89.72 -31.82 89.72H20.16C22.4686 89.72 24.34 87.8485 24.34 85.54C24.34 83.2314 22.4686 81.36 20.16 81.36Z" fill="white"/>
<path d="M40.57 80.71H33.22C30.9115 80.71 29.04 82.5815 29.04 84.89C29.04 87.1986 30.9115 89.07 33.22 89.07H40.57C42.8786 89.07 44.75 87.1986 44.75 84.89C44.75 82.5815 42.8786 80.71 40.57 80.71Z" fill="white"/>
<path d="M49.33 101.13H-2.64999C-4.95854 101.13 -6.82999 103.001 -6.82999 105.31C-6.82999 107.619 -4.95854 109.49 -2.64999 109.49H49.33C51.6386 109.49 53.51 107.619 53.51 105.31C53.51 103.001 51.6386 101.13 49.33 101.13Z" fill="white"/>
<path d="M69.58 79.27C72.5416 76.9668 76.1946 75.7319 79.9462 75.7659C83.6979 75.7999 87.3279 77.1008 90.2473 79.4573C93.1666 81.8139 95.2039 85.0878 96.0285 88.7479C96.8531 92.4079 96.4167 96.2392 94.79 99.62L91.51 106.38L43.37 83.02C44.17 81.44 51.45 70.65 58.96 56.76L78.96 72.67L82.44 75.93" fill="#27464F"/>
<path d="M67.8564 50.0116L82.2518 56.9954C83.2966 57.5052 84.2306 58.2161 85.0003 59.0874C85.77 59.9587 86.3603 60.9732 86.7374 62.0729C87.1145 63.1727 87.2709 64.336 87.1978 65.4962C87.1247 66.6565 86.8234 67.791 86.3112 68.8346C85.2797 70.9607 83.4459 72.59 81.2132 73.364C78.9805 74.138 76.5318 73.9934 74.4057 72.962L60.3342 66.1353C58.1866 65.0934 56.5409 63.2411 55.7591 60.9858C54.9772 58.7306 55.1233 56.2571 56.1652 54.1095C57.177 52.024 58.9758 50.4258 61.1659 49.6666C63.356 48.9073 65.758 49.0492 67.8436 50.0609L67.8564 50.0116Z" fill="#E6E6E6"/>
<path d="M85.7838 111.894L41.0772 90.205C40.8243 90.0823 40.6305 89.8641 40.5384 89.5985C40.4463 89.3329 40.4635 89.0416 40.5862 88.7886L43.3841 83.0215L91.5456 106.387L89.4985 110.606C89.1766 111.27 88.6045 111.778 87.9079 112.02C87.2112 112.261 86.4472 112.216 85.7838 111.894V111.894Z" fill="#243E44"/>
<path d="M76.09 76.12C89.93 73.37 98.4 85.12 95.96 96.12C94.55 85.34 88.24 78.44 76.09 76.12Z" fill="#243E44"/>
</g>
<defs>
<clipPath id="clip0_11_2">
<rect width="128" height="128" rx="64" fill="white"/>
</clipPath>
</defs>
</svg>
