<svg id="Layer_1" data-name="Layer 1" xmlns="http://www.w3.org/2000/svg" viewBox="0 0 136.15 128.54"><defs><clipPath id="clip-path" transform="translate(6.78 -.42)"><circle cx="64.27" cy="64.27" r="64.27" style="fill:none"/></clipPath><clipPath id="clip-path-2" transform="translate(6.78 -.42)"><rect class="cls-2" x="54" y="55.41" width="66.35" height="22.21" rx="11.11" transform="rotate(90 87.18 66.52)"/></clipPath><style>.cls-2{fill:#4d4d4d}.cls-7{fill:#b3b3b3}</style></defs><circle cx="71.88" cy="64.27" r="64.27" style="fill:#e6e6e6"/><g style="clip-path:url(#clip-path)"><rect class="cls-2" x="54" y="55.41" width="66.35" height="22.21" rx="11.11" transform="rotate(90 90.78 69.7)"/><g style="clip-path:url(#clip-path-2)"><path d="M81.29 55.44a11.11 11.11 0 0 1 11.1 11.11v22.57a23.51 23.51 0 0 1-23.51 23.51V67.84a12.4 12.4 0 0 1 12.4-12.4Z" style="fill:#666"/></g><path class="cls-7" d="M106.39 44a4.53 4.53 0 0 1 4.53 4.53V60.2h-9.06V48.52a4.53 4.53 0 0 1 4.53-4.52Z" transform="rotate(90 109.99 55.28)"/><path class="cls-7" d="M106.39 72.84a4.53 4.53 0 0 1 4.53 4.53v11.68h-9.06V77.37a4.53 4.53 0 0 1 4.53-4.53Z" transform="rotate(90 109.99 84.13)"/><path d="M52 61.43h37.14a11 11 0 0 1-11 11H63a11 11 0 0 1-11-11Z" transform="rotate(90 74.18 70.1)" style="fill:#333"/><path d="M64.27 66.52h0c-7 0-12.74 6.92-12.74 15.45L51.42 84c0 6.84-4.46 10.64-10.11 10.64h0c-5.64 0-10-3-10-9.89l-.21-31.44a9.83 9.83 0 0 0-9.83-9.83h0a9.83 9.83 0 0 0-9.83 9.83v12.12A16.73 16.73 0 0 1-5.28 82.16h0" transform="translate(6.78 -.42)" style="stroke:#333;stroke-linecap:round;stroke-linejoin:round;stroke-width:3px;fill:none"/></g></svg>