<svg xmlns="http://www.w3.org/2000/svg" viewBox="0 0 407.9 110.44"><defs><style>.cls-1{fill:#dd1e50;}.cls-2{fill:#363a94;}</style></defs><g id="Layer_2" data-name="Layer 2"><g id="Layer_1-2" data-name="Layer 1"><g id="Color_Lockup" data-name="Color Lockup"><g id="Color_logo" data-name="Color logo"><path id="Lower_Right_tear" data-name="Lower Right tear" class="cls-1" d="M47.8,80.49A78.4,78.4,0,0,1,44.18,90l-.07.15v20.29a4,4,0,0,0,3.34-2.29c.56-1.11,1.79-3.26,3.79-7,4.34-8.18,7-14.71,8.42-20.64Z"/><path id="Lower_left_tear" data-name="Lower left tear" class="cls-1" d="M40.42,80.49H28.56C30,86.42,32.64,93,37,101.13c2,3.76,3.23,5.91,3.79,7a4,4,0,0,0,3.34,2.29V90.15L44,90A78.4,78.4,0,0,1,40.42,80.49Z"/><path id="Upper_right_tear" data-name="Upper right tear" class="cls-2" d="M61.22,67.35c0-9-3.8-25.8-16.59-26.18l-.52,0H44v11c4.87,1.09,6,12.09,6,14.79A46.9,46.9,0,0,1,47.8,80.49H59.66A53.54,53.54,0,0,0,61.22,67.35Z"/><path id="Upper_left_tear" data-name="Upper left tear" class="cls-2" d="M38.19,67c0-2.7,1.12-13.7,6-14.79v-11h-.07l-.52,0C30.8,41.55,27,58.34,27,67.35a53.54,53.54,0,0,0,1.56,13.14H40.42A46.9,46.9,0,0,1,38.19,67Z"/><path id="Triangle" class="cls-2" d="M81.75,81.91h-76a4.25,4.25,0,0,1-1.93-.42A6.4,6.4,0,0,1,.6,73L31,8.33A14.34,14.34,0,0,1,44.11,0h0A14.47,14.47,0,0,1,57.22,8.33L87.62,73a6.24,6.24,0,0,1-.6,6.34A6.46,6.46,0,0,1,81.75,81.91ZM14.9,70.17H73.32L46.59,13.32a2.66,2.66,0,0,0-2.48-1.57h0a2.68,2.68,0,0,0-2.49,1.57Z"/></g><path class="cls-2" d="M131.63,21.8a5.51,5.51,0,0,1,1.87,4.35V76.26a5.88,5.88,0,0,1-1.78,4.48,7.46,7.46,0,0,1-9.48,0,5.89,5.89,0,0,1-1.79-4.48v-.7A13.3,13.3,0,0,1,115,80.74a16.7,16.7,0,0,1-8,1.87,17.39,17.39,0,0,1-9.79-2.83,18.7,18.7,0,0,1-6.7-7.91,27.19,27.19,0,0,1-2.39-11.71,26.58,26.58,0,0,1,2.39-11.61,17.53,17.53,0,0,1,16.49-10.4A16.81,16.81,0,0,1,114.93,40a13.15,13.15,0,0,1,5.44,5.13V25.89a5.35,5.35,0,0,1,1.74-4.18,6.64,6.64,0,0,1,4.61-1.57A7.14,7.14,0,0,1,131.63,21.8ZM118,69.43c1.66-2.12,2.48-5.15,2.48-9.09s-.82-7-2.48-9.05a8.49,8.49,0,0,0-7.09-3.13,8.68,8.68,0,0,0-7.13,3.09q-2.52,3.09-2.52,8.91t2.52,9.18a9.45,9.45,0,0,0,14.22.09Z"/><path class="cls-2" d="M172.13,42.72q4.53,4.58,4.53,14V76.35A6,6,0,0,1,175,80.83a6.34,6.34,0,0,1-4.61,1.61,6.07,6.07,0,0,1-4.48-1.7,6,6,0,0,1-1.69-4.39v-.61a10.24,10.24,0,0,1-4.36,5,13.56,13.56,0,0,1-7.13,1.83,17.53,17.53,0,0,1-7.87-1.74A13.75,13.75,0,0,1,139.29,76a12.5,12.5,0,0,1-2-7,10.75,10.75,0,0,1,2.4-7.4c1.59-1.79,4.16-3.1,7.7-3.91a68.07,68.07,0,0,1,14.53-1.22h2.26V54.94q0-3.64-1.61-5.3c-1.08-1.1-2.86-1.66-5.35-1.66s-6.09.87-10.79,2.61a8.23,8.23,0,0,1-3.39,1,3.77,3.77,0,0,1-3.05-1.35,5.31,5.31,0,0,1-1.13-3.52,4.93,4.93,0,0,1,.78-2.87,7.3,7.3,0,0,1,2.53-2.09,28.32,28.32,0,0,1,7.44-2.61,40.36,40.36,0,0,1,8.65-1Q167.61,38.15,172.13,42.72ZM161.78,71a9.46,9.46,0,0,0,2.35-6.66V62.86h-1.48q-7.05,0-9.88,1.13A4.1,4.1,0,0,0,150,68.08a5.18,5.18,0,0,0,1.61,4,5.66,5.66,0,0,0,4,1.52A8,8,0,0,0,161.78,71Z"/><path class="cls-2" d="M218.11,41a18.8,18.8,0,0,1,6.7,7.92,27.26,27.26,0,0,1,2.39,11.7,26.66,26.66,0,0,1-2.39,11.61,17.53,17.53,0,0,1-16.49,10.4,17.29,17.29,0,0,1-7.87-1.78,13,13,0,0,1-5.44-5V92.27a5.32,5.32,0,0,1-1.74,4.17A6.59,6.59,0,0,1,188.66,98a7.13,7.13,0,0,1-4.91-1.65A5.54,5.54,0,0,1,181.88,92V44.5A5.9,5.9,0,0,1,183.66,40a6.6,6.6,0,0,1,4.74-1.69A6.45,6.45,0,0,1,193.1,40a6,6,0,0,1,1.74,4.48v.7A13.32,13.32,0,0,1,200.32,40a17.07,17.07,0,0,1,8-1.87A17.47,17.47,0,0,1,218.11,41Zm-6.48,28.54q2.52-3.09,2.52-8.92t-2.52-9.18a8.5,8.5,0,0,0-7.13-3.26,8.6,8.6,0,0,0-7.14,3.17q-2.52,3.18-2.52,9.09t2.52,9a8.58,8.58,0,0,0,7.14,3.18A8.68,8.68,0,0,0,211.63,69.52Z"/><path class="cls-2" d="M257.74,74.17A4.32,4.32,0,0,1,259,77.48a4.27,4.27,0,0,1-2,3.82,9.35,9.35,0,0,1-5.75,1l-2.43-.18Q233.56,81,233.55,66.25V49h-3.48a6.56,6.56,0,0,1-4.35-1.26,4.51,4.51,0,0,1-1.48-3.61,4.61,4.61,0,0,1,1.48-3.7,6.56,6.56,0,0,1,4.35-1.26h3.48V32.41a5.86,5.86,0,0,1,1.79-4.52,6.81,6.81,0,0,1,4.83-1.66A6.68,6.68,0,0,1,245,27.89a5.94,5.94,0,0,1,1.74,4.52V39.2h6.09c3.94,0,5.92,1.65,5.92,5a4.51,4.51,0,0,1-1.48,3.61A6.72,6.72,0,0,1,252.78,49h-6.09V67.21a5.74,5.74,0,0,0,1.22,4,5.06,5.06,0,0,0,3.56,1.52l2.44.18A6.11,6.11,0,0,1,257.74,74.17Z"/><path class="cls-2" d="M292.36,42.72q4.53,4.58,4.53,14V76.35a6,6,0,0,1-1.65,4.48,6.37,6.37,0,0,1-4.62,1.61,6.07,6.07,0,0,1-4.48-1.7,6,6,0,0,1-1.69-4.39v-.61a10.22,10.22,0,0,1-4.35,5A13.59,13.59,0,0,1,273,82.61a17.53,17.53,0,0,1-7.87-1.74A13.75,13.75,0,0,1,259.52,76a12.49,12.49,0,0,1-2-7,10.74,10.74,0,0,1,2.39-7.4c1.59-1.79,4.16-3.1,7.7-3.91a68.13,68.13,0,0,1,14.53-1.22h2.26V54.94q0-3.64-1.61-5.3c-1.07-1.1-2.86-1.66-5.35-1.66s-6.09.87-10.79,2.61a8.15,8.15,0,0,1-3.39,1,3.78,3.78,0,0,1-3.05-1.35A5.31,5.31,0,0,1,259,46.68a4.86,4.86,0,0,1,.79-2.87,7.16,7.16,0,0,1,2.52-2.09,28.32,28.32,0,0,1,7.44-2.61,40.43,40.43,0,0,1,8.65-1Q287.84,38.15,292.36,42.72ZM282,71a9.46,9.46,0,0,0,2.35-6.66V62.86h-1.48q-7,0-9.87,1.13a4.1,4.1,0,0,0-2.83,4.09,5.21,5.21,0,0,0,1.61,4,5.66,5.66,0,0,0,4,1.52A8,8,0,0,0,282,71Z"/><path class="cls-2" d="M338.39,40.85a18,18,0,0,1,6.65,7.7,26.58,26.58,0,0,1,2.39,11.61A27.19,27.19,0,0,1,345,71.87a18.7,18.7,0,0,1-6.7,7.91,17.38,17.38,0,0,1-9.78,2.83,17,17,0,0,1-8-1.87,13.31,13.31,0,0,1-5.48-5.18v.7a6,6,0,0,1-1.74,4.48,6.46,6.46,0,0,1-4.7,1.7,6.6,6.6,0,0,1-4.74-1.7,5.88,5.88,0,0,1-1.78-4.48V26.15A5.51,5.51,0,0,1,304,21.8a7.14,7.14,0,0,1,4.91-1.66,6.68,6.68,0,0,1,4.62,1.57,5.37,5.37,0,0,1,1.73,4.18v19a13,13,0,0,1,5.44-5,17.17,17.17,0,0,1,7.88-1.79A18,18,0,0,1,338.39,40.85Zm-6.53,28.49c1.68-2.17,2.53-5.23,2.53-9.18s-.85-6.85-2.53-8.91a9.7,9.7,0,0,0-14.27.08q-2.52,3.18-2.52,9t2.52,9.09a8.6,8.6,0,0,0,7.14,3.18A8.48,8.48,0,0,0,331.86,69.34Z"/><path class="cls-2" d="M352.7,80.87a5.66,5.66,0,0,1-1.87-4.61V26.32a5.66,5.66,0,0,1,1.87-4.61,7.13,7.13,0,0,1,4.74-1.57,7,7,0,0,1,4.65,1.57A5.66,5.66,0,0,1,364,26.32V76.26a5.66,5.66,0,0,1-1.87,4.61,7,7,0,0,1-4.65,1.57A7.13,7.13,0,0,1,352.7,80.87Z"/><path class="cls-2" d="M406.55,70.6a5.67,5.67,0,0,1,1.09,3.57,4.72,4.72,0,0,1-.87,2.74A7,7,0,0,1,404.33,79a31,31,0,0,1-6.87,2.57,29.19,29.19,0,0,1-7.22,1,25.91,25.91,0,0,1-12.14-2.7,18.84,18.84,0,0,1-8-7.7,23.79,23.79,0,0,1-2.78-11.79,24.3,24.3,0,0,1,2.69-11.57A19.85,19.85,0,0,1,377.54,41a21,21,0,0,1,10.87-2.83,19.89,19.89,0,0,1,10.22,2.57A17.5,17.5,0,0,1,405.46,48a23.89,23.89,0,0,1,2.44,11.09A4.19,4.19,0,0,1,407,62a3.31,3.31,0,0,1-2.57,1H380.06c.4,3.42,1.45,5.9,3.13,7.43s4.09,2.31,7.22,2.31a15.47,15.47,0,0,0,4.53-.61,46.09,46.09,0,0,0,4.43-1.65c.81-.35,1.6-.66,2.35-.92a6.22,6.22,0,0,1,2-.39A3.45,3.45,0,0,1,406.55,70.6Zm-23.79-21a11.38,11.38,0,0,0-2.7,6.92h16.79q-.25-4.6-2.31-7a7.24,7.24,0,0,0-5.78-2.35A7.86,7.86,0,0,0,382.76,49.59Z"/></g></g></g></svg>