<svg width="589" height="425" viewBox="0 0 589 425" xmlns="http://www.w3.org/2000/svg"><title>Devices</title><defs><linearGradient x1="50%" y1="88.751%" x2="50%" y2="100%" id="a"><stop stop-color="#C7C7C7" offset="0%"/><stop stop-color="#CAC8C8" offset="100%"/></linearGradient><filter x="-50%" y="-50%" width="200%" height="200%" filterUnits="objectBoundingBox" id="b"><feGaussianBlur in="SourceGraphic" result="blur"/></filter><linearGradient x1="50%" y1="0%" x2="50%" y2="100%" id="d"><stop stop-color="#191919" offset="0%"/><stop stop-color="#070707" offset="100%"/></linearGradient><linearGradient x1="50%" y1="0%" x2="50%" y2="100%" id="c"><stop stop-color="#D8D8D8" offset="0%"/><stop stop-color="#D6D6D6" offset="100%"/></linearGradient><linearGradient x1="50%" y1="0%" x2="50%" y2="100%" id="e"><stop stop-color="#F1F3EF" offset="0%"/><stop stop-color="#E9E9E4" offset="100%"/></linearGradient><linearGradient x1="50%" y1="0%" x2="50%" y2="100%" id="f"><stop stop-color="#DEDED3" offset="0%"/><stop stop-color="#EEEEE8" offset="100%"/></linearGradient><linearGradient x1="53.253%" y1="43.7%" x2="72.257%" y2="55.288%" id="g"><stop stop-color="#FFF" stop-opacity=".05" offset="0%"/><stop stop-color="#FFF" stop-opacity="0" offset="100%"/></linearGradient><linearGradient x1="50%" y1="0%" x2="50%" y2="100%" id="h"><stop stop-color="#39413D" offset="0%"/><stop offset="100%"/></linearGradient><linearGradient x1="50%" y1="0%" x2="50%" y2="100%" id="i"><stop stop-color="#1B2220" offset="0%"/><stop stop-color="#141615" offset="100%"/></linearGradient><linearGradient x1="50%" y1="14.423%" x2="50%" y2="100%" id="j"><stop stop-color="#101111" offset="0%"/><stop stop-color="#191A19" offset="53.457%"/><stop stop-color="#1B1F1C" offset="100%"/></linearGradient><linearGradient x1="50%" y1="0%" x2="50%" y2="100%" id="k"><stop stop-color="#29305F" offset="0%"/><stop stop-color="#20274C" offset="100%"/></linearGradient></defs><g fill="none" fill-rule="evenodd"><path d="M318.923 376.223l5.865 42.385c.455 3.288-1.862 5.953-5.176 5.953H214.287c-3.313 0-5.633-2.65-5.176-5.952l5.866-42.385h103.947z" fill="url(#a)"/><path d="M209.604 422.232a5.528 5.528 0 0 0 4.512 2.33H319.81c1.862 0 3.51-.922 4.512-2.33H209.604z" fill="#F0EFEF"/><path d="M215.434 372.73l-.92 6.987h104.887l-1-6.988H215.433z" fill="#000" opacity=".11" filter="url(#b)"/><g transform="translate(.867 .582)"><rect fill="url(#c)" y="300.137" width="537.888" height="73.503" rx="14"/><rect fill="url(#d)" width="537.888" height="326.137" rx="20"/><path fill="#2A2A2A" d="M21.172 20.966h495.543v284.206H21.172z"/></g><path d="M265.5 344.596c.702 0 1.547.148 2.537.444 1 .296 1.663.444 1.99.444.42 0 1.108-.167 2.06-.5.954-.336 1.78-.503 2.48-.503 1.15 0 2.174.316 3.07.947.505.363 1.005.855 1.5 1.476-.747.65-1.294 1.227-1.64 1.734a5.27 5.27 0 0 0-.938 3.037c0 1.214.33 2.307.994 3.282.663.974 1.42 1.59 2.27 1.848-.355 1.176-.944 2.404-1.766 3.684-1.242 1.92-2.476 2.88-3.7 2.88-.486 0-1.158-.157-2.018-.473-.85-.316-1.57-.473-2.158-.473-.59 0-1.276.163-2.06.487-.776.333-1.407.5-1.893.5-1.467 0-2.906-1.27-4.317-3.81-1.41-2.514-2.116-4.978-2.116-7.395 0-2.245.537-4.075 1.61-5.488 1.085-1.414 2.45-2.12 4.094-2.12m8.83-5.647c.037.124.06.234.07.33a3 3 0 0 1 .014.286c0 .612-.14 1.28-.42 2.006-.28.726-.724 1.4-1.332 2.02-.523.526-1.04.88-1.555 1.06-.327.106-.823.187-1.486.245.02-1.452.39-2.71 1.108-3.77.73-1.06 1.93-1.785 3.602-2.177" fill="#000"/><g transform="translate(264.66 10.483)"><ellipse fill="#141414" cx="2.289" cy="2.33" rx="2.289" ry="2.33"/><ellipse fill-opacity=".696" fill="#190E37" cx="2.289" cy="2.33" rx="1.144" ry="1.165"/></g><g transform="translate(87 44)"><rect fill="#D8D8D8" width="355" height="246" rx="3"/><circle fill="#E25466" cx="8.5" cy="7.5" r="2.5"/><circle fill="#F9E872" cx="16.5" cy="7.5" r="2.5"/><circle fill="#27C996" cx="24.5" cy="7.5" r="2.5"/><rect fill="#FFF" x="7" y="14" width="341.5" height="225" rx="1"/></g><g transform="translate(104 72)"><g class="user-1"><circle fill="#F2F2F2" cx="15" cy="15" r="15"/><path d="M17.664 16.54c1.573-1.745 2.41-4.588 2.414-6.515C20.083 7.07 17.645 4 14.538 4c-3.108 0-5.546 3.07-5.54 6.025.002 1.936.847 4.795 2.434 6.536-3.63 1.097-6.8 4.507-7.406 8.336-.25 1.585 4.98 5.088 10.885 5.088 5.906 0 10.206-3.563 10.894-5.088-.99-5.648-4.478-7.28-8.14-8.357z" fill="#969C9A"/></g><g class="user-3" transform="translate(0 70)"><circle fill="#F2F2F2" cx="15" cy="15" r="15"/><path d="M17.664 16.54c1.573-1.745 2.41-4.588 2.414-6.515C20.083 7.07 17.645 4 14.538 4c-3.108 0-5.546 3.07-5.54 6.025.002 1.936.847 4.795 2.434 6.536-3.63 1.097-6.8 4.507-7.406 8.336-.25 1.585 4.98 5.088 10.885 5.088 5.906 0 10.206-3.563 10.894-5.088-.99-5.648-4.478-7.28-8.14-8.357z" fill="#969C9A"/></g><g class="user-2" transform="translate(285 30)"><circle fill="#F2F2F2" cx="15" cy="15" r="15"/><path d="M17.664 16.54c1.573-1.745 2.41-4.588 2.414-6.515C20.083 7.07 17.645 4 14.538 4c-3.108 0-5.546 3.07-5.54 6.025.002 1.936.847 4.795 2.434 6.536-3.63 1.097-6.8 4.507-7.406 8.336-.25 1.585 4.98 5.088 10.885 5.088 5.906 0 10.206-3.563 10.894-5.088-.99-5.648-4.478-7.28-8.14-8.357z" fill="#969C9A"/></g><rect class="message-1" fill="#27C996" x="41" y="7" width="79" height="17" rx="10"/><rect class="message-2" fill="#D0D0D0" x="193" y="37" width="79" height="17" rx="10"/><rect class="message-3" fill="#27C996" x="41" y="77" width="79" height="17" rx="10"/><rect class="message-4" fill="#27C996" x="41" y="117" width="79" height="17" rx="10"/></g><g><path d="M9.55.33C4.5.33.4 4.5.4 9.644v236.17c0 5.143 4.104 9.313 9.15 9.313h175.454c5.053 0 9.15-4.17 9.15-9.313V9.644c0-5.144-4.103-9.314-9.15-9.314H9.55z" fill="url(#e)" transform="translate(358.17 167.12)"/><path d="M377.947 189.812v210.074H532.95V189.812H377.946z" stroke="#E9E9E9" stroke-width="2" fill="#FFF"/><path d="M6.294 12.59c3.29 0 5.954-2.71 5.954-6.053 0-3.342-2.665-6.052-5.954-6.052C3.006.485.34 3.195.34 6.537c0 3.343 2.666 6.052 5.954 6.052z" fill="url(#f)" transform="translate(449.154 404.735)"/><path d="M454.476 409.118c-.633 0-1.147.52-1.147 1.166v1.976c0 .644.51 1.166 1.146 1.166h1.945c.634 0 1.148-.52 1.148-1.166v-1.976c0-.644-.512-1.166-1.147-1.166h-1.944z" stroke="#B3B5B7" fill="#D8D8D8" opacity=".5"/><path d="M455.45 180.58c.78 0 1.412-.643 1.412-1.436 0-.793-.633-1.436-1.413-1.436s-1.414.643-1.414 1.436c0 .793.633 1.436 1.413 1.436z" fill="#D4D4D4"/><path d="M455.45 179.76a.61.61 0 0 0 .604-.616.61.61 0 0 0-.605-.615.61.61 0 0 0-.607.614c0 .34.27.616.606.616z" fill="#444EAA" opacity=".8"/><path d="M119.716.33h26.57c28.448 0 51.5 23.466 51.5 52.412v150.18c0 28.948-23.057 52.41-51.5 52.41h-1.758L100.968 3.91A50.59 50.59 0 0 1 119.717.33z" fill="url(#g)" opacity=".6" transform="translate(358.17 167.12)"/><g transform="translate(382.17 199.12)"><g class="user-1"><ellipse fill="#F2F2F2" cx="10.095" cy="10.075" rx="10.095" ry="10.075"/><path d="M11.888 11.108c1.06-1.17 1.623-3.08 1.625-4.375.003-1.985-1.638-4.046-3.73-4.046-2.09 0-3.73 2.06-3.728 4.046.002 1.3.57 3.22 1.64 4.39-2.445.736-4.577 3.027-4.985 5.598-.17 1.066 3.35 3.418 7.325 3.418 3.974 0 6.87-2.392 7.33-3.417-.665-3.793-3.012-4.888-5.477-5.612z" fill="#969C9A"/></g><g class="user-3" transform="translate(0 57.3)"><ellipse fill="#F2F2F2" cx="10.095" cy="10.075" rx="10.095" ry="10.075"/><path d="M11.888 11.108c1.06-1.17 1.623-3.08 1.625-4.375.003-1.985-1.638-4.046-3.73-4.046-2.09 0-3.73 2.06-3.728 4.046.002 1.3.57 3.22 1.64 4.39-2.445.736-4.577 3.027-4.985 5.598-.17 1.066 3.35 3.418 7.325 3.418 3.974 0 6.87-2.392 7.33-3.417-.665-3.793-3.012-4.888-5.477-5.612z" fill="#969C9A"/></g><g class="user-2" transform="translate(125 26)"><ellipse fill="#F2F2F2" cx="10.095" cy="10.075" rx="10.095" ry="10.075"/><path d="M11.888 11.108c1.06-1.17 1.623-3.08 1.625-4.375.003-1.985-1.638-4.046-3.73-4.046-2.09 0-3.73 2.06-3.728 4.046.002 1.3.57 3.22 1.64 4.39-2.445.736-4.577 3.027-4.985 5.598-.17 1.066 3.35 3.418 7.325 3.418 3.974 0 6.87-2.392 7.33-3.417-.665-3.793-3.012-4.888-5.477-5.612z" fill="#969C9A"/></g><rect class="message-1" fill="#27C996" x="27.594" y="4.701" width="53.168" height="11.418" rx="5"/><rect class="message-2" fill="#D0D0D0" x="63" y="31" width="53.168" height="11.418" rx="5"/><rect class="message-3" fill="#27C996" x="28" y="61.299" width="53.168" height="11.418" rx="5"/><rect class="message-4" fill="#27C996" x="28" y="88.299" width="53.168" height="11.418" rx="5"/></g></g><g><path d="M8.192.33C3.69.33.04 4.047.04 8.63v121.126c0 4.584 3.65 8.3 8.152 8.3h47.685c4.503 0 8.154-3.716 8.154-8.3V8.63c0-4.583-3.65-8.3-8.153-8.3H8.192z" fill="url(#h)" transform="translate(524.91 283.874)"/><path d="M9.007 1.16C4.504 1.16.854 4.876.854 9.46v119.47c0 4.583 3.65 8.297 8.153 8.297h46.056c4.502 0 8.152-3.714 8.152-8.297V9.458c0-4.583-3.65-8.297-8.152-8.297H9.007z" fill="url(#i)" transform="translate(524.91 283.874)"/><path d="M529.433 303.702v99.145h55.024v-99.145h-55.024z" stroke="#E9E9E9" stroke-width="2" fill="#FFF"/><g fill="#000"><path d="M524.34 316.354v4.77h.61v-4.77h-.61zM524.34 327.97v4.77h.61v-4.77h-.61zM524.34 303.287v6.223h.61v-6.223h-.61zM567.747 283.583v.622h10.19v-.622h-10.19z"/></g><path d="M32.607 135.526c3.264 0 5.91-2.693 5.91-6.015 0-3.32-2.646-6.014-5.91-6.014-3.264 0-5.91 2.693-5.91 6.015 0 3.323 2.646 6.016 5.91 6.016z" fill="url(#j)" transform="translate(524.34 283.292)"/><g><path d="M552.36 296.028a.72.72 0 0 0-.713.726c0 .4.32.726.712.726h9.173a.72.72 0 0 0 .712-.726.72.72 0 0 0-.712-.726h-9.174z" fill="#060707" opacity=".444"/><path d="M556.946 292.294c.675 0 1.223-.557 1.223-1.244 0-.688-.55-1.245-1.224-1.245-.675 0-1.223.557-1.223 1.245 0 .687.548 1.244 1.223 1.244z" fill="#1A1E1D"/><path d="M1.81 1.974c.28 0 .51-.232.51-.518a.514.514 0 0 0-.51-.52c-.282 0-.51.233-.51.52 0 .286.228.518.51.518z" fill="url(#k)" opacity=".545" transform="translate(555.24 289.698)"/></g></g><g transform="translate(531 307)"><g class="user-1"><ellipse fill="#F2F2F2" cx="4.996" cy="4.937" rx="4.996" ry="4.937"/><path d="M5.883 5.443c.525-.574.803-1.51.805-2.144 0-.973-.81-1.984-1.846-1.984-1.035 0-1.847 1.01-1.845 1.983 0 .636.282 1.577.81 2.15-1.21.36-2.264 1.483-2.466 2.743-.083.522 1.66 1.675 3.626 1.675 1.967 0 3.4-1.173 3.63-1.675-.33-1.86-1.493-2.395-2.713-2.75z" fill="#969C9A"/></g><g class="user-3" transform="translate(0 28.076)"><ellipse fill="#F2F2F2" cx="4.996" cy="4.937" rx="4.996" ry="4.937"/><path d="M5.883 5.443c.525-.574.803-1.51.805-2.144 0-.973-.81-1.984-1.846-1.984-1.035 0-1.847 1.01-1.845 1.983 0 .636.282 1.577.81 2.15-1.21.36-2.264 1.483-2.466 2.743-.083.522 1.66 1.675 3.626 1.675 1.967 0 3.4-1.173 3.63-1.675-.33-1.86-1.493-2.395-2.713-2.75z" fill="#969C9A"/></g><g class="user-2" transform="translate(42 14)"><ellipse fill="#F2F2F2" cx="4.996" cy="4.937" rx="4.996" ry="4.937"/><path d="M5.883 5.443c.525-.574.803-1.51.805-2.144 0-.973-.81-1.984-1.846-1.984-1.035 0-1.847 1.01-1.845 1.983 0 .636.282 1.577.81 2.15-1.21.36-2.264 1.483-2.466 2.743-.083.522 1.66 1.675 3.626 1.675 1.967 0 3.4-1.173 3.63-1.675-.33-1.86-1.493-2.395-2.713-2.75z" fill="#969C9A"/></g><rect class="message-1" fill="#27C996" x="11.656" y="2.304" width="26.313" height="5.595" rx="3"/><rect class="message-2" fill="#D0D0D0" x="14" y="16" width="26.313" height="5.595" rx="3"/><rect class="message-3" fill="#27C996" x="11.857" y="30.036" width="26.313" height="5.595" rx="3"/><rect class="message-4" fill="#27C996" x="11.857" y="42.266" width="26.313" height="5.595" rx="3"/></g></g></svg>