<svg xmlns="http://www.w3.org/2000/svg" width="589" height="425" viewBox="0 0 589 425"><title>Devices</title><defs><linearGradient x1="50" y1="88.75" x2="50" y2="100" id="a"><stop stop-color="#C7C7C7" offset="0"/><stop stop-color="#CAC8C8" offset="100"/></linearGradient><filter x="-50" y="-50" width="200" height="200" filterUnits="objectBoundingBox" id="b"><feGaussianBlur in="SourceGraphic" result="blur"/></filter><linearGradient x1="50" x2="50" y2="100" id="d"><stop stop-color="#191919" offset="0"/><stop stop-color="#070707" offset="100"/></linearGradient><linearGradient x1="50" x2="50" y2="100" id="c"><stop stop-color="#D8D8D8" offset="0"/><stop stop-color="#D6D6D6" offset="100"/></linearGradient><linearGradient x1="50" x2="50" y2="100" id="e"><stop stop-color="#F1F3EF" offset="0"/><stop stop-color="#E9E9E4" offset="100"/></linearGradient><linearGradient x1="50" x2="50" y2="100" id="f"><stop stop-color="#DEDED3" offset="0"/><stop stop-color="#EEEEE8" offset="100"/></linearGradient><linearGradient x1="53.25" y1="43.7" x2="72.26" y2="55.29" id="g"><stop stop-color="#FFF" stop-opacity=".05" offset="0"/><stop stop-color="#FFF" stop-opacity="0" offset="100"/></linearGradient><linearGradient x1="50" x2="50" y2="100" id="h"><stop stop-color="#39413D" offset="0"/><stop offset="100"/></linearGradient><linearGradient x1="50" x2="50" y2="100" id="i"><stop stop-color="#1B2220" offset="0"/><stop stop-color="#141615" offset="100"/></linearGradient><linearGradient x1="50" y1="14.42" x2="50" y2="100" id="j"><stop stop-color="#101111" offset="0"/><stop stop-color="#191A19" offset="53.46"/><stop stop-color="#1B1F1C" offset="100"/></linearGradient><linearGradient x1="50" x2="50" y2="100" id="k"><stop stop-color="#29305F" offset="0"/><stop stop-color="#20274C" offset="100"/></linearGradient></defs><g fill="none" fill-rule="evenodd"><path d="M318.92 376.22l5.87 42.39c.45 3.29-1.86 5.95-5.18 5.95H214.29c-3.32 0-5.64-2.65-5.18-5.95l5.87-42.39h103.94z" fill="url(#a)"/><path d="M209.6 422.23a5.554 5.554 0 0 0 4.52 2.33h105.69c1.86 0 3.51-.92 4.51-2.33H209.6z" fill="#F0EFEF"/><path d="M215.43 372.73l-.92 6.99H319.4l-1-6.99H215.43z" fill="#000" opacity=".11" filter="url(#b)"/><g transform="translate(.867 .582)"><rect fill="url(#c)" y="300.14" width="537.89" height="73.5" rx="14"/><rect fill="url(#d)" width="537.89" height="326.14" rx="20"/><path fill="#2A2A2A" d="M21.17 20.97h495.54v284.21H21.17z"/></g><path d="M265.5 344.6c.7 0 1.55.14 2.54.44 1 .3 1.66.44 1.99.44.42 0 1.1-.16 2.06-.5.95-.33 1.78-.5 2.48-.5 1.15 0 2.17.32 3.07.95.5.36 1 .85 1.5 1.47-.75.65-1.3 1.23-1.64 1.74-.63.91-.94 1.93-.94 3.03 0 1.22.33 2.31.99 3.29.67.97 1.42 1.59 2.27 1.84-.35 1.18-.94 2.41-1.76 3.69-1.24 1.92-2.48 2.88-3.7 2.88-.49 0-1.16-.16-2.02-.48-.85-.31-1.57-.47-2.16-.47-.59 0-1.27.16-2.06.49-.77.33-1.4.5-1.89.5-1.47 0-2.91-1.27-4.32-3.81-1.41-2.51-2.11-4.98-2.11-7.4 0-2.24.53-4.07 1.61-5.48 1.08-1.42 2.45-2.12 4.09-2.12m8.83-5.65c.04.12.06.23.07.33.01.1.01.19.01.29 0 .61-.14 1.28-.42 2-.28.73-.72 1.4-1.33 2.02-.52.53-1.04.88-1.55 1.06-.33.11-.83.19-1.49.25.02-1.46.39-2.71 1.11-3.77.73-1.06 1.93-1.79 3.6-2.18" fill="#000"/><g transform="translate(264.66 10.483)"><ellipse fill="#141414" cx="2.29" cy="2.33" rx="2.29" ry="2.33"/><ellipse fill-opacity=".7" fill="#190E37" cx="2.29" cy="2.33" rx="1.14" ry="1.16"/></g><g transform="translate(87 44)"><rect fill="#D8D8D8" width="355" height="246" rx="3"/><circle fill="#E25466" cx="8.5" cy="7.5" r="2.5"/><circle fill="#F9E872" cx="16.5" cy="7.5" r="2.5"/><circle fill="#27C996" cx="24.5" cy="7.5" r="2.5"/><rect fill="#FFF" x="7" y="14" width="341.5" height="225" rx="1"/></g><g transform="translate(104 72)"><g class="user-1"><circle fill="#F2F2F2" cx="15" cy="15" r="15"/><path d="M17.66 16.54c1.58-1.74 2.42-4.59 2.42-6.52 0-2.95-2.44-6.02-5.54-6.02C11.43 4 8.99 7.07 9 10.02c0 1.94.84 4.8 2.43 6.54-3.63 1.1-6.8 4.51-7.4 8.34-.26 1.58 4.98 5.08 10.88 5.08 5.91 0 10.21-3.56 10.89-5.08-.99-5.65-4.47-7.28-8.14-8.36z" fill="#969C9A"/></g><g class="user-3" transform="translate(0 70)"><circle fill="#F2F2F2" cx="15" cy="15" r="15"/><path d="M17.66 16.54c1.58-1.74 2.42-4.59 2.42-6.52 0-2.95-2.44-6.02-5.54-6.02C11.43 4 8.99 7.07 9 10.02c0 1.94.84 4.8 2.43 6.54-3.63 1.1-6.8 4.51-7.4 8.34-.26 1.58 4.98 5.08 10.88 5.08 5.91 0 10.21-3.56 10.89-5.08-.99-5.65-4.47-7.28-8.14-8.36z" fill="#969C9A"/></g><g class="user-2" transform="translate(285 30)"><circle fill="#F2F2F2" cx="15" cy="15" r="15"/><path d="M17.66 16.54c1.58-1.74 2.42-4.59 2.42-6.52 0-2.95-2.44-6.02-5.54-6.02C11.43 4 8.99 7.07 9 10.02c0 1.94.84 4.8 2.43 6.54-3.63 1.1-6.8 4.51-7.4 8.34-.26 1.58 4.98 5.08 10.88 5.08 5.91 0 10.21-3.56 10.89-5.08-.99-5.65-4.47-7.28-8.14-8.36z" fill="#969C9A"/></g><rect class="message-1" fill="#27C996" x="41" y="7" width="79" height="17" rx="10"/><rect class="message-2" fill="#D0D0D0" x="193" y="37" width="79" height="17" rx="10"/><rect class="message-3" fill="#27C996" x="41" y="77" width="79" height="17" rx="10"/><rect class="message-4" fill="#27C996" x="41" y="117" width="79" height="17" rx="10"/></g><g><path d="M9.55.33C4.5.33.4 4.5.4 9.64v236.17c0 5.15 4.1 9.32 9.15 9.32H185c5.06 0 9.15-4.17 9.15-9.32V9.64c0-5.14-4.1-9.31-9.15-9.31H9.55z" fill="url(#e)" transform="translate(358.17 167.12)"/><path d="M377.95 189.81v210.08h155V189.81h-155z" stroke="#E9E9E9" stroke-width="2" fill="#FFF"/><path d="M6.29 12.59c3.29 0 5.96-2.71 5.96-6.05 0-3.35-2.67-6.05-5.96-6.05C3.01.49.34 3.19.34 6.54c0 3.34 2.67 6.05 5.95 6.05z" fill="url(#f)" transform="translate(449.154 404.735)"/><path d="M454.474 409.115c-.63 0-1.14.52-1.14 1.17v1.98c0 .64.51 1.16 1.14 1.16h1.95c.63 0 1.14-.52 1.14-1.16v-1.98c0-.64-.51-1.17-1.14-1.17h-1.95z" stroke="#B3B5B7" fill="#D8D8D8" opacity=".5"/><path d="M455.452 180.583c.78 0 1.41-.65 1.41-1.44 0-.79-.63-1.44-1.41-1.44-.78 0-1.42.65-1.42 1.44 0 .79.64 1.44 1.42 1.44z" fill="#D4D4D4"/><path d="M455.452 179.763c.33 0 .6-.28.6-.62a.604.604 0 0 0-1.21 0c0 .34.27.62.61.62z" fill="#444EAA" opacity=".8"/><path d="M119.72.33h26.57c28.44 0 51.5 23.47 51.5 52.41v150.18c0 28.95-23.06 52.41-51.5 52.41h-1.76L100.97 3.91A50.615 50.615 0 0 1 119.72.33z" fill="url(#g)" opacity=".6" transform="translate(358.17 167.12)"/><g transform="translate(382.17 199.12)"><g class="user-1"><ellipse fill="#F2F2F2" cx="10.1" cy="10.07" rx="10.1" ry="10.07"/><path d="M11.89 11.11c1.06-1.17 1.62-3.08 1.62-4.38.01-1.98-1.63-4.04-3.73-4.04-2.09 0-3.73 2.06-3.72 4.04 0 1.3.57 3.22 1.63 4.39-2.44.74-4.57 3.03-4.98 5.6-.17 1.07 3.35 3.42 7.33 3.42 3.97 0 6.86-2.39 7.33-3.42-.67-3.79-3.02-4.89-5.48-5.61z" fill="#969C9A"/></g><g class="user-3" transform="translate(0 57.3)"><ellipse fill="#F2F2F2" cx="10.1" cy="10.07" rx="10.1" ry="10.07"/><path d="M11.89 11.11c1.06-1.17 1.62-3.08 1.62-4.38.01-1.98-1.63-4.04-3.73-4.04-2.09 0-3.73 2.06-3.72 4.04 0 1.3.57 3.22 1.63 4.39-2.44.74-4.57 3.03-4.98 5.6-.17 1.07 3.35 3.42 7.33 3.42 3.97 0 6.86-2.39 7.33-3.42-.67-3.79-3.02-4.89-5.48-5.61z" fill="#969C9A"/></g><g class="user-2" transform="translate(125 26)"><ellipse fill="#F2F2F2" cx="10.1" cy="10.07" rx="10.1" ry="10.07"/><path d="M11.89 11.11c1.06-1.17 1.62-3.08 1.62-4.38.01-1.98-1.63-4.04-3.73-4.04-2.09 0-3.73 2.06-3.72 4.04 0 1.3.57 3.22 1.63 4.39-2.44.74-4.57 3.03-4.98 5.6-.17 1.07 3.35 3.42 7.33 3.42 3.97 0 6.86-2.39 7.33-3.42-.67-3.79-3.02-4.89-5.48-5.61z" fill="#969C9A"/></g><rect class="message-1" fill="#27C996" x="27.59" y="4.7" width="53.17" height="11.42" rx="5"/><rect class="message-2" fill="#D0D0D0" x="63" y="31" width="53.17" height="11.42" rx="5"/><rect class="message-3" fill="#27C996" x="28" y="61.3" width="53.17" height="11.42" rx="5"/><rect class="message-4" fill="#27C996" x="28" y="88.3" width="53.17" height="11.42" rx="5"/></g></g><g><path d="M8.19.33C3.69.33.04 4.05.04 8.63v121.13c0 4.58 3.65 8.29 8.15 8.29h47.69c4.5 0 8.15-3.71 8.15-8.29V8.63c0-4.58-3.65-8.3-8.15-8.3H8.19z" fill="url(#h)" transform="translate(524.91 283.874)"/><path d="M9.01 1.16C4.5 1.16.85 4.88.85 9.46v119.47c0 4.58 3.66 8.3 8.16 8.3h46.05c4.51 0 8.16-3.72 8.16-8.3V9.46c0-4.58-3.66-8.3-8.16-8.3H9.01z" fill="url(#i)" transform="translate(524.91 283.874)"/><path d="M529.43 303.704v99.14h55.03v-99.14h-55.03z" stroke="#E9E9E9" stroke-width="2" fill="#FFF"/><g fill="#000"><path d="M524.34 316.352v4.77h.61v-4.77h-.61zM524.34 327.972v4.77h.61v-4.77h-.61zM524.34 303.292v6.22h.61v-6.22h-.61zM567.75 283.582v.62h10.19v-.62h-10.19z"/></g><path d="M32.61 135.53c3.26 0 5.91-2.7 5.91-6.02 0-3.32-2.65-6.01-5.91-6.01-3.27 0-5.91 2.69-5.91 6.01s2.64 6.02 5.91 6.02z" fill="url(#j)" transform="translate(524.34 283.292)"/><g><path d="M552.363 296.028c-.4 0-.72.33-.72.73 0 .4.32.72.72.72h9.17c.39 0 .71-.32.71-.72 0-.41-.32-.73-.71-.73h-9.17z" fill="#060707" opacity=".44"/><path d="M556.95 292.298c.67 0 1.22-.56 1.22-1.25s-.55-1.24-1.22-1.24c-.68 0-1.23.55-1.23 1.24s.55 1.25 1.23 1.25z" fill="#1A1E1D"/><path d="M1.81 1.97a.514.514 0 0 0 0-1.03.514.514 0 0 0 0 1.03z" fill="url(#k)" opacity=".55" transform="translate(555.24 289.698)"/></g></g><g transform="translate(531 307)"><g class="user-1"><ellipse fill="#F2F2F2" cx="5" cy="4.94" rx="5" ry="4.94"/><path d="M5.88 5.44c.53-.57.81-1.51.81-2.14 0-.97-.81-1.98-1.85-1.98C3.81 1.32 3 2.33 3 3.3c0 .64.28 1.58.81 2.15-1.21.36-2.27 1.48-2.47 2.74-.08.53 1.66 1.68 3.63 1.68 1.96 0 3.4-1.17 3.62-1.68C8.26 6.33 7.1 5.8 5.88 5.44z" fill="#969C9A"/></g><g class="user-3" transform="translate(0 28.076)"><ellipse fill="#F2F2F2" cx="5" cy="4.94" rx="5" ry="4.94"/><path d="M5.88 5.44c.53-.57.81-1.51.81-2.14 0-.97-.81-1.98-1.85-1.98C3.81 1.32 3 2.33 3 3.3c0 .64.28 1.58.81 2.15-1.21.36-2.27 1.48-2.47 2.74-.08.53 1.66 1.68 3.63 1.68 1.96 0 3.4-1.17 3.62-1.68C8.26 6.33 7.1 5.8 5.88 5.44z" fill="#969C9A"/></g><g class="user-2" transform="translate(42 14)"><ellipse fill="#F2F2F2" cx="5" cy="4.94" rx="5" ry="4.94"/><path d="M5.88 5.44c.53-.57.81-1.51.81-2.14 0-.97-.81-1.98-1.85-1.98C3.81 1.32 3 2.33 3 3.3c0 .64.28 1.58.81 2.15-1.21.36-2.27 1.48-2.47 2.74-.08.53 1.66 1.68 3.63 1.68 1.96 0 3.4-1.17 3.62-1.68C8.26 6.33 7.1 5.8 5.88 5.44z" fill="#969C9A"/></g><rect class="message-1" fill="#27C996" x="11.66" y="2.3" width="26.31" height="5.59" rx="3"/><rect class="message-2" fill="#D0D0D0" x="14" y="16" width="26.31" height="5.59" rx="3"/><rect class="message-3" fill="#27C996" x="11.86" y="30.04" width="26.31" height="5.59" rx="3"/><rect class="message-4" fill="#27C996" x="11.86" y="42.27" width="26.31" height="5.59" rx="3"/></g></g></svg>